G04 #@! TF.GenerationSoftware,KiCad,Pcbnew,(5.1.10)-1*
G04 #@! TF.CreationDate,2022-03-21T21:51:29-04:00*
G04 #@! TF.ProjectId,MC-ADC,4d432d41-4443-42e6-9b69-6361645f7063,rev?*
G04 #@! TF.SameCoordinates,Original*
G04 #@! TF.FileFunction,Copper,L4,Bot*
G04 #@! TF.FilePolarity,Positive*
%FSLAX46Y46*%
G04 Gerber Fmt 4.6, Leading zero omitted, Abs format (unit mm)*
G04 Created by KiCad (PCBNEW (5.1.10)-1) date 2022-03-21 21:51:29*
%MOMM*%
%LPD*%
G01*
G04 APERTURE LIST*
G04 #@! TA.AperFunction,ComponentPad*
%ADD10C,3.315000*%
G04 #@! TD*
G04 #@! TA.AperFunction,ComponentPad*
%ADD11C,1.905000*%
G04 #@! TD*
G04 #@! TA.AperFunction,ComponentPad*
%ADD12C,1.300000*%
G04 #@! TD*
G04 #@! TA.AperFunction,ComponentPad*
%ADD13R,1.300000X1.300000*%
G04 #@! TD*
G04 #@! TA.AperFunction,ComponentPad*
%ADD14O,1.700000X1.700000*%
G04 #@! TD*
G04 #@! TA.AperFunction,ComponentPad*
%ADD15R,1.700000X1.700000*%
G04 #@! TD*
G04 #@! TA.AperFunction,ComponentPad*
%ADD16C,1.550000*%
G04 #@! TD*
G04 #@! TA.AperFunction,ViaPad*
%ADD17C,0.800000*%
G04 #@! TD*
G04 APERTURE END LIST*
D10*
X226250760Y-64985360D03*
X226250760Y-71585360D03*
X219650760Y-71585360D03*
X219650760Y-64985360D03*
D11*
X222950760Y-68285360D03*
D10*
X226194880Y-120972040D03*
X226194880Y-127572040D03*
X219594880Y-127572040D03*
X219594880Y-120972040D03*
D11*
X222894880Y-124272040D03*
D10*
X226179640Y-92955840D03*
X226179640Y-99555840D03*
X219579640Y-99555840D03*
X219579640Y-92955840D03*
D11*
X222879640Y-96255840D03*
D12*
X131909820Y-133586220D03*
X129369820Y-133586220D03*
X126829820Y-133586220D03*
X121749820Y-133586220D03*
D13*
X119209820Y-133586220D03*
D12*
X106491420Y-134344680D03*
D13*
X109031420Y-134344680D03*
D12*
X103951420Y-134344680D03*
D14*
X207850740Y-122072400D03*
X207850740Y-124612400D03*
D15*
X207850740Y-127152400D03*
D14*
X207612640Y-93595160D03*
X207612640Y-96135160D03*
D15*
X207612640Y-98675160D03*
D14*
X207891380Y-65595500D03*
X207891380Y-68135500D03*
D15*
X207891380Y-70675500D03*
D16*
X79608680Y-72133460D03*
X79608680Y-74673460D03*
X79608680Y-77213460D03*
X79608680Y-79753460D03*
X79608680Y-82293460D03*
X79608680Y-84833460D03*
X79608680Y-87373460D03*
X79608680Y-89913460D03*
X79608680Y-92453460D03*
X79608680Y-94993460D03*
X79608680Y-97533460D03*
X79608680Y-100073460D03*
X79608680Y-102613460D03*
X79608680Y-105153460D03*
X79608680Y-107693460D03*
X79608680Y-110233460D03*
X74528680Y-72133460D03*
X74528680Y-74673460D03*
X74528680Y-77213460D03*
X74528680Y-79753460D03*
X74528680Y-82293460D03*
X74528680Y-84833460D03*
X74528680Y-87373460D03*
X74528680Y-89913460D03*
X74528680Y-92453460D03*
X74528680Y-94993460D03*
X74528680Y-97533460D03*
X74528680Y-100073460D03*
X74528680Y-102613460D03*
X74528680Y-105153460D03*
X74528680Y-107693460D03*
G04 #@! TA.AperFunction,ComponentPad*
G36*
G01*
X75053681Y-111008460D02*
X74003679Y-111008460D01*
G75*
G02*
X73753680Y-110758461I0J249999D01*
G01*
X73753680Y-109708459D01*
G75*
G02*
X74003679Y-109458460I249999J0D01*
G01*
X75053681Y-109458460D01*
G75*
G02*
X75303680Y-109708459I0J-249999D01*
G01*
X75303680Y-110758461D01*
G75*
G02*
X75053681Y-111008460I-249999J0D01*
G01*
G37*
G04 #@! TD.AperFunction*
D17*
X199415400Y-121813320D03*
X198231760Y-126801880D03*
X204810360Y-139192000D03*
X198765160Y-93568520D03*
X198455280Y-98679000D03*
X204668120Y-110789720D03*
X198770240Y-65323720D03*
X198567040Y-70652640D03*
X205318360Y-82570320D03*
X134858760Y-89529920D03*
X140853160Y-83621880D03*
X160588960Y-101305360D03*
X170192700Y-110683040D03*
X143855440Y-139049760D03*
X167919400Y-93888560D03*
X166827200Y-87899240D03*
X160916620Y-66532760D03*
X148242020Y-99159060D03*
X159999680Y-129374900D03*
X96268540Y-116646960D03*
X92753180Y-105742740D03*
X109428280Y-106702860D03*
X102552500Y-104734360D03*
X102798880Y-82125820D03*
X102585520Y-94018100D03*
X110703360Y-90431620D03*
X110670340Y-95780860D03*
X124170440Y-98945700D03*
X121866660Y-113157000D03*
X126466600Y-98945700D03*
X90225880Y-68072000D03*
X106662220Y-119029480D03*
X126085600Y-83761580D03*
X136225280Y-119755920D03*
X137805160Y-83073240D03*
X143192500Y-127576580D03*
X178884580Y-90975180D03*
X180891180Y-94152720D03*
X180652420Y-80454500D03*
X181020720Y-118551960D03*
X140685520Y-132735320D03*
X187609480Y-101793040D03*
X188267340Y-87955120D03*
X188142880Y-83405980D03*
X188407040Y-110606840D03*
M02*
