M48
INCH,TZ
T1C0.0157
T2C0.0276
T3C0.0394
T4C0.0500
T5C0.0870
%
G90
G05
T1
X35522Y-26800
X36517Y-41631
X37901Y-45924
X40375Y-41234
X40388Y-37015
X40472Y-32333
X41993Y-46862
X43082Y-42009
X43571Y-37709
X43584Y-35603
X47979Y-44550
X48886Y-38955
X49640Y-32977
X49790Y-38955
X53094Y-35248
X53632Y-47148
X54254Y-32706
X55388Y-52258
X55454Y-32922
X56375Y-50227
X56636Y-54744
X58363Y-39039
X62992Y-50935
X63224Y-39884
X63353Y-26194
X65680Y-34606
X66110Y-36964
X67005Y-43576
X70427Y-35817
X71123Y-31675
X71217Y-37068
X71268Y-46674
X73862Y-40076
X74072Y-32837
X74121Y-34628
X74176Y-43546
X78044Y-49922
X78132Y-38850
X78176Y-27816
X78254Y-36838
X78256Y-25718
X78510Y-47958
X80578Y-43618
X80634Y-54800
X80834Y-32508
T2
X40926Y-52892
X41926Y-52892
X42926Y-52892
X46933Y-52593
X47933Y-52593
X49933Y-52593
X50933Y-52593
X51933Y-52593
T3
X29342Y-28399
X29342Y-29399
X29342Y-30399
X29342Y-31399
X29342Y-32399
X29342Y-33399
X29342Y-34399
X29342Y-35399
X29342Y-36399
X29342Y-37399
X29342Y-38399
X29342Y-39399
X29342Y-40399
X29342Y-41399
X29342Y-42399
X29342Y-43399
X31342Y-28399
X31342Y-29399
X31342Y-30399
X31342Y-31399
X31342Y-32399
X31342Y-33399
X31342Y-34399
X31342Y-35399
X31342Y-36399
X31342Y-37399
X31342Y-38399
X31342Y-39399
X31342Y-40399
X31342Y-41399
X31342Y-42399
X31342Y-43399
X81737Y-36848
X81737Y-37848
X81737Y-38848
X81831Y-48060
X81831Y-49060
X81831Y-50060
X81847Y-25825
X81847Y-26825
X81847Y-27825
T4
X87748Y-37896
X87754Y-48926
X87776Y-26884
T5
X86449Y-36597
X86449Y-39195
X86455Y-47627
X86455Y-50225
X86477Y-25585
X86477Y-28183
X89047Y-36597
X89047Y-39195
X89053Y-47627
X89053Y-50225
X89075Y-25585
X89075Y-28183
T0
M30
