G04 #@! TF.GenerationSoftware,KiCad,Pcbnew,(5.1.10)-1*
G04 #@! TF.CreationDate,2022-03-21T21:51:29-04:00*
G04 #@! TF.ProjectId,MC-ADC,4d432d41-4443-42e6-9b69-6361645f7063,rev?*
G04 #@! TF.SameCoordinates,Original*
G04 #@! TF.FileFunction,Copper,L3,Inr*
G04 #@! TF.FilePolarity,Positive*
%FSLAX46Y46*%
G04 Gerber Fmt 4.6, Leading zero omitted, Abs format (unit mm)*
G04 Created by KiCad (PCBNEW (5.1.10)-1) date 2022-03-21 21:51:29*
%MOMM*%
%LPD*%
G01*
G04 APERTURE LIST*
G04 #@! TA.AperFunction,ComponentPad*
%ADD10C,3.315000*%
G04 #@! TD*
G04 #@! TA.AperFunction,ComponentPad*
%ADD11C,1.905000*%
G04 #@! TD*
G04 #@! TA.AperFunction,ComponentPad*
%ADD12C,1.300000*%
G04 #@! TD*
G04 #@! TA.AperFunction,ComponentPad*
%ADD13R,1.300000X1.300000*%
G04 #@! TD*
G04 #@! TA.AperFunction,ComponentPad*
%ADD14O,1.700000X1.700000*%
G04 #@! TD*
G04 #@! TA.AperFunction,ComponentPad*
%ADD15R,1.700000X1.700000*%
G04 #@! TD*
G04 #@! TA.AperFunction,ComponentPad*
%ADD16C,1.550000*%
G04 #@! TD*
G04 #@! TA.AperFunction,ViaPad*
%ADD17C,0.800000*%
G04 #@! TD*
G04 #@! TA.AperFunction,Conductor*
%ADD18C,0.254000*%
G04 #@! TD*
G04 #@! TA.AperFunction,Conductor*
%ADD19C,0.100000*%
G04 #@! TD*
G04 APERTURE END LIST*
D10*
X226250760Y-64985360D03*
X226250760Y-71585360D03*
X219650760Y-71585360D03*
X219650760Y-64985360D03*
D11*
X222950760Y-68285360D03*
D10*
X226194880Y-120972040D03*
X226194880Y-127572040D03*
X219594880Y-127572040D03*
X219594880Y-120972040D03*
D11*
X222894880Y-124272040D03*
D10*
X226179640Y-92955840D03*
X226179640Y-99555840D03*
X219579640Y-99555840D03*
X219579640Y-92955840D03*
D11*
X222879640Y-96255840D03*
D12*
X131909820Y-133586220D03*
X129369820Y-133586220D03*
X126829820Y-133586220D03*
X121749820Y-133586220D03*
D13*
X119209820Y-133586220D03*
D12*
X106491420Y-134344680D03*
D13*
X109031420Y-134344680D03*
D12*
X103951420Y-134344680D03*
D14*
X207850740Y-122072400D03*
X207850740Y-124612400D03*
D15*
X207850740Y-127152400D03*
D14*
X207612640Y-93595160D03*
X207612640Y-96135160D03*
D15*
X207612640Y-98675160D03*
D14*
X207891380Y-65595500D03*
X207891380Y-68135500D03*
D15*
X207891380Y-70675500D03*
D16*
X79608680Y-72133460D03*
X79608680Y-74673460D03*
X79608680Y-77213460D03*
X79608680Y-79753460D03*
X79608680Y-82293460D03*
X79608680Y-84833460D03*
X79608680Y-87373460D03*
X79608680Y-89913460D03*
X79608680Y-92453460D03*
X79608680Y-94993460D03*
X79608680Y-97533460D03*
X79608680Y-100073460D03*
X79608680Y-102613460D03*
X79608680Y-105153460D03*
X79608680Y-107693460D03*
X79608680Y-110233460D03*
X74528680Y-72133460D03*
X74528680Y-74673460D03*
X74528680Y-77213460D03*
X74528680Y-79753460D03*
X74528680Y-82293460D03*
X74528680Y-84833460D03*
X74528680Y-87373460D03*
X74528680Y-89913460D03*
X74528680Y-92453460D03*
X74528680Y-94993460D03*
X74528680Y-97533460D03*
X74528680Y-100073460D03*
X74528680Y-102613460D03*
X74528680Y-105153460D03*
X74528680Y-107693460D03*
G04 #@! TA.AperFunction,ComponentPad*
G36*
G01*
X75053681Y-111008460D02*
X74003679Y-111008460D01*
G75*
G02*
X73753680Y-110758461I0J249999D01*
G01*
X73753680Y-109708459D01*
G75*
G02*
X74003679Y-109458460I249999J0D01*
G01*
X75053681Y-109458460D01*
G75*
G02*
X75303680Y-109708459I0J-249999D01*
G01*
X75303680Y-110758461D01*
G75*
G02*
X75053681Y-111008460I-249999J0D01*
G01*
G37*
G04 #@! TD.AperFunction*
D17*
X199415400Y-121813320D03*
X198231760Y-126801880D03*
X204810360Y-139192000D03*
X198765160Y-93568520D03*
X198455280Y-98679000D03*
X204668120Y-110789720D03*
X198770240Y-65323720D03*
X198567040Y-70652640D03*
X205318360Y-82570320D03*
X134858760Y-89529920D03*
X140853160Y-83621880D03*
X160588960Y-101305360D03*
X170192700Y-110683040D03*
X143855440Y-139049760D03*
X167919400Y-93888560D03*
X166827200Y-87899240D03*
X160916620Y-66532760D03*
X148242020Y-99159060D03*
X159999680Y-129374900D03*
X96268540Y-116646960D03*
X92753180Y-105742740D03*
X109428280Y-106702860D03*
X102552500Y-104734360D03*
X102798880Y-82125820D03*
X102585520Y-94018100D03*
X110703360Y-90431620D03*
X110670340Y-95780860D03*
X124170440Y-98945700D03*
X121866660Y-113157000D03*
X126466600Y-98945700D03*
X90225880Y-68072000D03*
X106662220Y-119029480D03*
X126085600Y-83761580D03*
X136225280Y-119755920D03*
X137805160Y-83073240D03*
X143192500Y-127576580D03*
X178884580Y-90975180D03*
X180891180Y-94152720D03*
X180652420Y-80454500D03*
X181020720Y-118551960D03*
X140685520Y-132735320D03*
X187609480Y-101793040D03*
X188267340Y-87955120D03*
X188142880Y-83405980D03*
X188407040Y-110606840D03*
D18*
X182062089Y-62945791D02*
X182046897Y-124181522D01*
X174125541Y-129159369D01*
X161034680Y-129291733D01*
X161034680Y-129272961D01*
X160994906Y-129073002D01*
X160916885Y-128884644D01*
X160803617Y-128715126D01*
X160659454Y-128570963D01*
X160489936Y-128457695D01*
X160301578Y-128379674D01*
X160101619Y-128339900D01*
X159897741Y-128339900D01*
X159697782Y-128379674D01*
X159509424Y-128457695D01*
X159339906Y-128570963D01*
X159195743Y-128715126D01*
X159082475Y-128884644D01*
X159004454Y-129073002D01*
X158964680Y-129272961D01*
X158964680Y-129312664D01*
X134095916Y-129564117D01*
X134086598Y-128152540D01*
X134076902Y-125515207D01*
X171232996Y-125094992D01*
X171257743Y-125092272D01*
X171281485Y-125084776D01*
X171296812Y-125076955D01*
X177717932Y-121231395D01*
X177737934Y-121216571D01*
X177754660Y-121198130D01*
X177767467Y-121176780D01*
X177775863Y-121153342D01*
X177779674Y-121123712D01*
X178362610Y-62931526D01*
X182062089Y-62945791D01*
G04 #@! TA.AperFunction,Conductor*
D19*
G36*
X182062089Y-62945791D02*
G01*
X182046897Y-124181522D01*
X174125541Y-129159369D01*
X161034680Y-129291733D01*
X161034680Y-129272961D01*
X160994906Y-129073002D01*
X160916885Y-128884644D01*
X160803617Y-128715126D01*
X160659454Y-128570963D01*
X160489936Y-128457695D01*
X160301578Y-128379674D01*
X160101619Y-128339900D01*
X159897741Y-128339900D01*
X159697782Y-128379674D01*
X159509424Y-128457695D01*
X159339906Y-128570963D01*
X159195743Y-128715126D01*
X159082475Y-128884644D01*
X159004454Y-129073002D01*
X158964680Y-129272961D01*
X158964680Y-129312664D01*
X134095916Y-129564117D01*
X134086598Y-128152540D01*
X134076902Y-125515207D01*
X171232996Y-125094992D01*
X171257743Y-125092272D01*
X171281485Y-125084776D01*
X171296812Y-125076955D01*
X177717932Y-121231395D01*
X177737934Y-121216571D01*
X177754660Y-121198130D01*
X177767467Y-121176780D01*
X177775863Y-121153342D01*
X177779674Y-121123712D01*
X178362610Y-62931526D01*
X182062089Y-62945791D01*
G37*
G04 #@! TD.AperFunction*
D18*
X139771040Y-121688599D02*
X134568635Y-121782738D01*
X134290934Y-121757943D01*
X134265615Y-121758217D01*
X134087268Y-121778033D01*
X134101507Y-118745099D01*
X136479737Y-117283479D01*
X136499568Y-117268427D01*
X136516082Y-117249796D01*
X136528643Y-117228300D01*
X136536769Y-117204768D01*
X136540236Y-117176294D01*
X136818635Y-82315718D01*
X139745802Y-82301690D01*
X139771040Y-121688599D01*
G04 #@! TA.AperFunction,Conductor*
D19*
G36*
X139771040Y-121688599D02*
G01*
X134568635Y-121782738D01*
X134290934Y-121757943D01*
X134265615Y-121758217D01*
X134087268Y-121778033D01*
X134101507Y-118745099D01*
X136479737Y-117283479D01*
X136499568Y-117268427D01*
X136516082Y-117249796D01*
X136528643Y-117228300D01*
X136536769Y-117204768D01*
X136540236Y-117176294D01*
X136818635Y-82315718D01*
X139745802Y-82301690D01*
X139771040Y-121688599D01*
G37*
G04 #@! TD.AperFunction*
D18*
X126947403Y-84856320D02*
X123593860Y-84856320D01*
X123569084Y-84858760D01*
X123545259Y-84865987D01*
X123523303Y-84877723D01*
X123504057Y-84893517D01*
X123488263Y-84912763D01*
X123476527Y-84934719D01*
X123469300Y-84958544D01*
X123466865Y-84982142D01*
X123343141Y-98320890D01*
X123253235Y-98455444D01*
X123175214Y-98643802D01*
X123135440Y-98843761D01*
X123135440Y-99047639D01*
X123175214Y-99247598D01*
X123253235Y-99435956D01*
X123331709Y-99553401D01*
X123319871Y-100829628D01*
X113812560Y-116367942D01*
X107994535Y-120902023D01*
X104825959Y-120942986D01*
X104833250Y-115029448D01*
X105610622Y-115092070D01*
X105620820Y-115092480D01*
X110787180Y-115092480D01*
X110811956Y-115090040D01*
X110835781Y-115082813D01*
X110857737Y-115071077D01*
X110876983Y-115055283D01*
X110890470Y-115039373D01*
X121456870Y-100269273D01*
X121469301Y-100247702D01*
X121477285Y-100224121D01*
X121480566Y-100197238D01*
X121737827Y-82615222D01*
X126915425Y-82581303D01*
X126947403Y-84856320D01*
G04 #@! TA.AperFunction,Conductor*
D19*
G36*
X126947403Y-84856320D02*
G01*
X123593860Y-84856320D01*
X123569084Y-84858760D01*
X123545259Y-84865987D01*
X123523303Y-84877723D01*
X123504057Y-84893517D01*
X123488263Y-84912763D01*
X123476527Y-84934719D01*
X123469300Y-84958544D01*
X123466865Y-84982142D01*
X123343141Y-98320890D01*
X123253235Y-98455444D01*
X123175214Y-98643802D01*
X123135440Y-98843761D01*
X123135440Y-99047639D01*
X123175214Y-99247598D01*
X123253235Y-99435956D01*
X123331709Y-99553401D01*
X123319871Y-100829628D01*
X113812560Y-116367942D01*
X107994535Y-120902023D01*
X104825959Y-120942986D01*
X104833250Y-115029448D01*
X105610622Y-115092070D01*
X105620820Y-115092480D01*
X110787180Y-115092480D01*
X110811956Y-115090040D01*
X110835781Y-115082813D01*
X110857737Y-115071077D01*
X110876983Y-115055283D01*
X110890470Y-115039373D01*
X121456870Y-100269273D01*
X121469301Y-100247702D01*
X121477285Y-100224121D01*
X121480566Y-100197238D01*
X121737827Y-82615222D01*
X126915425Y-82581303D01*
X126947403Y-84856320D01*
G37*
G04 #@! TD.AperFunction*
D18*
X92902164Y-63747967D02*
X92847547Y-71473732D01*
X89127884Y-74977252D01*
X89111521Y-74996016D01*
X89099133Y-75017612D01*
X89091197Y-75041209D01*
X89087962Y-75070483D01*
X89415622Y-128237763D01*
X89418215Y-128262524D01*
X89425589Y-128286303D01*
X89437460Y-128308187D01*
X89453373Y-128327334D01*
X89472715Y-128343009D01*
X89494743Y-128354610D01*
X89518612Y-128361690D01*
X89542217Y-128363979D01*
X103826614Y-128409310D01*
X103980271Y-133059829D01*
X103874965Y-133055728D01*
X103624971Y-133095410D01*
X103387524Y-133183102D01*
X103298886Y-133230479D01*
X103245498Y-133459153D01*
X103951420Y-134165075D01*
X104657342Y-133459153D01*
X104628270Y-133334630D01*
X105675119Y-133344658D01*
X105672280Y-133346555D01*
X105493295Y-133525540D01*
X105352667Y-133736004D01*
X105255801Y-133969859D01*
X105220880Y-134145424D01*
X105200690Y-134018231D01*
X105112998Y-133780784D01*
X105065621Y-133692146D01*
X104836947Y-133638758D01*
X104131025Y-134344680D01*
X104836947Y-135050602D01*
X105065621Y-134997214D01*
X105171515Y-134767306D01*
X105222776Y-134553469D01*
X105255801Y-134719501D01*
X105352667Y-134953356D01*
X105493295Y-135163820D01*
X105672280Y-135342805D01*
X105882744Y-135483433D01*
X106116599Y-135580299D01*
X106364859Y-135629680D01*
X106617981Y-135629680D01*
X106866241Y-135580299D01*
X107100096Y-135483433D01*
X107310560Y-135342805D01*
X107489545Y-135163820D01*
X107630173Y-134953356D01*
X107727039Y-134719501D01*
X107743348Y-134637508D01*
X107743348Y-134994680D01*
X107755608Y-135119162D01*
X107791918Y-135238860D01*
X107850883Y-135349174D01*
X107930235Y-135445865D01*
X108026926Y-135525217D01*
X108137240Y-135584182D01*
X108256938Y-135620492D01*
X108381420Y-135632752D01*
X109681420Y-135632752D01*
X109805902Y-135620492D01*
X109925600Y-135584182D01*
X110035914Y-135525217D01*
X110132605Y-135445865D01*
X110211957Y-135349174D01*
X110270922Y-135238860D01*
X110307232Y-135119162D01*
X110319492Y-134994680D01*
X110319492Y-133694680D01*
X110307232Y-133570198D01*
X110270922Y-133450500D01*
X110237709Y-133388364D01*
X112861144Y-133413494D01*
X112885942Y-133411291D01*
X112909835Y-133404293D01*
X112931903Y-133392768D01*
X112951298Y-133377159D01*
X112971648Y-133351193D01*
X123093548Y-116251913D01*
X123104069Y-116229349D01*
X123109986Y-116205166D01*
X123111257Y-116188048D01*
X123166966Y-107644303D01*
X125056349Y-103340147D01*
X125064074Y-103316479D01*
X125067059Y-103288669D01*
X125054169Y-99486057D01*
X125087645Y-99435956D01*
X125165666Y-99247598D01*
X125205440Y-99047639D01*
X125205440Y-98843761D01*
X125165666Y-98643802D01*
X125087645Y-98455444D01*
X125050487Y-98399833D01*
X125049718Y-98173008D01*
X127720276Y-98214772D01*
X127784518Y-103702572D01*
X125437947Y-108537165D01*
X125429324Y-108560520D01*
X125425200Y-108592620D01*
X125425200Y-116353324D01*
X113813064Y-136111400D01*
X101254576Y-136184137D01*
X100880021Y-135230207D01*
X103245498Y-135230207D01*
X103298886Y-135458881D01*
X103528794Y-135564775D01*
X103774944Y-135623782D01*
X104027875Y-135633632D01*
X104277869Y-135593950D01*
X104515316Y-135506258D01*
X104603954Y-135458881D01*
X104657342Y-135230207D01*
X103951420Y-134524285D01*
X103245498Y-135230207D01*
X100880021Y-135230207D01*
X100562343Y-134421135D01*
X102662468Y-134421135D01*
X102702150Y-134671129D01*
X102789842Y-134908576D01*
X102837219Y-134997214D01*
X103065893Y-135050602D01*
X103771815Y-134344680D01*
X103065893Y-133638758D01*
X102837219Y-133692146D01*
X102731325Y-133922054D01*
X102672318Y-134168204D01*
X102662468Y-134421135D01*
X100562343Y-134421135D01*
X99442374Y-131568764D01*
X99431047Y-131546593D01*
X99415613Y-131527059D01*
X99396664Y-131510910D01*
X99374929Y-131498769D01*
X99351243Y-131491101D01*
X99326301Y-131488198D01*
X86043647Y-131264220D01*
X85417652Y-75451816D01*
X85414934Y-75427068D01*
X85411363Y-75413745D01*
X83697789Y-70176840D01*
X83647267Y-66668092D01*
X83647195Y-66665263D01*
X83540171Y-63748852D01*
X88993509Y-63639735D01*
X92902164Y-63747967D01*
G04 #@! TA.AperFunction,Conductor*
D19*
G36*
X92902164Y-63747967D02*
G01*
X92847547Y-71473732D01*
X89127884Y-74977252D01*
X89111521Y-74996016D01*
X89099133Y-75017612D01*
X89091197Y-75041209D01*
X89087962Y-75070483D01*
X89415622Y-128237763D01*
X89418215Y-128262524D01*
X89425589Y-128286303D01*
X89437460Y-128308187D01*
X89453373Y-128327334D01*
X89472715Y-128343009D01*
X89494743Y-128354610D01*
X89518612Y-128361690D01*
X89542217Y-128363979D01*
X103826614Y-128409310D01*
X103980271Y-133059829D01*
X103874965Y-133055728D01*
X103624971Y-133095410D01*
X103387524Y-133183102D01*
X103298886Y-133230479D01*
X103245498Y-133459153D01*
X103951420Y-134165075D01*
X104657342Y-133459153D01*
X104628270Y-133334630D01*
X105675119Y-133344658D01*
X105672280Y-133346555D01*
X105493295Y-133525540D01*
X105352667Y-133736004D01*
X105255801Y-133969859D01*
X105220880Y-134145424D01*
X105200690Y-134018231D01*
X105112998Y-133780784D01*
X105065621Y-133692146D01*
X104836947Y-133638758D01*
X104131025Y-134344680D01*
X104836947Y-135050602D01*
X105065621Y-134997214D01*
X105171515Y-134767306D01*
X105222776Y-134553469D01*
X105255801Y-134719501D01*
X105352667Y-134953356D01*
X105493295Y-135163820D01*
X105672280Y-135342805D01*
X105882744Y-135483433D01*
X106116599Y-135580299D01*
X106364859Y-135629680D01*
X106617981Y-135629680D01*
X106866241Y-135580299D01*
X107100096Y-135483433D01*
X107310560Y-135342805D01*
X107489545Y-135163820D01*
X107630173Y-134953356D01*
X107727039Y-134719501D01*
X107743348Y-134637508D01*
X107743348Y-134994680D01*
X107755608Y-135119162D01*
X107791918Y-135238860D01*
X107850883Y-135349174D01*
X107930235Y-135445865D01*
X108026926Y-135525217D01*
X108137240Y-135584182D01*
X108256938Y-135620492D01*
X108381420Y-135632752D01*
X109681420Y-135632752D01*
X109805902Y-135620492D01*
X109925600Y-135584182D01*
X110035914Y-135525217D01*
X110132605Y-135445865D01*
X110211957Y-135349174D01*
X110270922Y-135238860D01*
X110307232Y-135119162D01*
X110319492Y-134994680D01*
X110319492Y-133694680D01*
X110307232Y-133570198D01*
X110270922Y-133450500D01*
X110237709Y-133388364D01*
X112861144Y-133413494D01*
X112885942Y-133411291D01*
X112909835Y-133404293D01*
X112931903Y-133392768D01*
X112951298Y-133377159D01*
X112971648Y-133351193D01*
X123093548Y-116251913D01*
X123104069Y-116229349D01*
X123109986Y-116205166D01*
X123111257Y-116188048D01*
X123166966Y-107644303D01*
X125056349Y-103340147D01*
X125064074Y-103316479D01*
X125067059Y-103288669D01*
X125054169Y-99486057D01*
X125087645Y-99435956D01*
X125165666Y-99247598D01*
X125205440Y-99047639D01*
X125205440Y-98843761D01*
X125165666Y-98643802D01*
X125087645Y-98455444D01*
X125050487Y-98399833D01*
X125049718Y-98173008D01*
X127720276Y-98214772D01*
X127784518Y-103702572D01*
X125437947Y-108537165D01*
X125429324Y-108560520D01*
X125425200Y-108592620D01*
X125425200Y-116353324D01*
X113813064Y-136111400D01*
X101254576Y-136184137D01*
X100880021Y-135230207D01*
X103245498Y-135230207D01*
X103298886Y-135458881D01*
X103528794Y-135564775D01*
X103774944Y-135623782D01*
X104027875Y-135633632D01*
X104277869Y-135593950D01*
X104515316Y-135506258D01*
X104603954Y-135458881D01*
X104657342Y-135230207D01*
X103951420Y-134524285D01*
X103245498Y-135230207D01*
X100880021Y-135230207D01*
X100562343Y-134421135D01*
X102662468Y-134421135D01*
X102702150Y-134671129D01*
X102789842Y-134908576D01*
X102837219Y-134997214D01*
X103065893Y-135050602D01*
X103771815Y-134344680D01*
X103065893Y-133638758D01*
X102837219Y-133692146D01*
X102731325Y-133922054D01*
X102672318Y-134168204D01*
X102662468Y-134421135D01*
X100562343Y-134421135D01*
X99442374Y-131568764D01*
X99431047Y-131546593D01*
X99415613Y-131527059D01*
X99396664Y-131510910D01*
X99374929Y-131498769D01*
X99351243Y-131491101D01*
X99326301Y-131488198D01*
X86043647Y-131264220D01*
X85417652Y-75451816D01*
X85414934Y-75427068D01*
X85411363Y-75413745D01*
X83697789Y-70176840D01*
X83647267Y-66668092D01*
X83647195Y-66665263D01*
X83540171Y-63748852D01*
X88993509Y-63639735D01*
X92902164Y-63747967D01*
G37*
G04 #@! TD.AperFunction*
D18*
X189579663Y-128324149D02*
X177086853Y-137734121D01*
X150733516Y-137784840D01*
X150732843Y-137784843D01*
X130631560Y-137929956D01*
X130682554Y-134471747D01*
X131203898Y-134471747D01*
X131257286Y-134700421D01*
X131487194Y-134806315D01*
X131733344Y-134865322D01*
X131986275Y-134875172D01*
X132236269Y-134835490D01*
X132473716Y-134747798D01*
X132562354Y-134700421D01*
X132615742Y-134471747D01*
X131909820Y-133765825D01*
X131203898Y-134471747D01*
X130682554Y-134471747D01*
X130689637Y-133991430D01*
X130748242Y-134150116D01*
X130795619Y-134238754D01*
X131024293Y-134292142D01*
X131730215Y-133586220D01*
X132089425Y-133586220D01*
X132795347Y-134292142D01*
X133024021Y-134238754D01*
X133129915Y-134008846D01*
X133188922Y-133762696D01*
X133198772Y-133509765D01*
X133159090Y-133259771D01*
X133071398Y-133022324D01*
X133024021Y-132933686D01*
X132795347Y-132880298D01*
X132089425Y-133586220D01*
X131730215Y-133586220D01*
X131024293Y-132880298D01*
X130795619Y-132933686D01*
X130702245Y-133136411D01*
X130708670Y-132700693D01*
X131203898Y-132700693D01*
X131909820Y-133406615D01*
X132615742Y-132700693D01*
X132562354Y-132472019D01*
X132332446Y-132366125D01*
X132086296Y-132307118D01*
X131833365Y-132297268D01*
X131583371Y-132336950D01*
X131345924Y-132424642D01*
X131257286Y-132472019D01*
X131203898Y-132700693D01*
X130708670Y-132700693D01*
X130724336Y-131638317D01*
X139045692Y-131571996D01*
X139047597Y-131571967D01*
X146051078Y-131411083D01*
X147394652Y-133599331D01*
X147409696Y-133619169D01*
X147428320Y-133635690D01*
X147449810Y-133648260D01*
X147473340Y-133656397D01*
X147503676Y-133659878D01*
X176693356Y-133476998D01*
X176718116Y-133474402D01*
X176741895Y-133467026D01*
X176772441Y-133448732D01*
X186190761Y-125828732D01*
X186208487Y-125811251D01*
X186222463Y-125790648D01*
X186232151Y-125767714D01*
X186237178Y-125743330D01*
X186237876Y-125729011D01*
X185781667Y-67161876D01*
X188754193Y-67143151D01*
X189579663Y-128324149D01*
G04 #@! TA.AperFunction,Conductor*
D19*
G36*
X189579663Y-128324149D02*
G01*
X177086853Y-137734121D01*
X150733516Y-137784840D01*
X150732843Y-137784843D01*
X130631560Y-137929956D01*
X130682554Y-134471747D01*
X131203898Y-134471747D01*
X131257286Y-134700421D01*
X131487194Y-134806315D01*
X131733344Y-134865322D01*
X131986275Y-134875172D01*
X132236269Y-134835490D01*
X132473716Y-134747798D01*
X132562354Y-134700421D01*
X132615742Y-134471747D01*
X131909820Y-133765825D01*
X131203898Y-134471747D01*
X130682554Y-134471747D01*
X130689637Y-133991430D01*
X130748242Y-134150116D01*
X130795619Y-134238754D01*
X131024293Y-134292142D01*
X131730215Y-133586220D01*
X132089425Y-133586220D01*
X132795347Y-134292142D01*
X133024021Y-134238754D01*
X133129915Y-134008846D01*
X133188922Y-133762696D01*
X133198772Y-133509765D01*
X133159090Y-133259771D01*
X133071398Y-133022324D01*
X133024021Y-132933686D01*
X132795347Y-132880298D01*
X132089425Y-133586220D01*
X131730215Y-133586220D01*
X131024293Y-132880298D01*
X130795619Y-132933686D01*
X130702245Y-133136411D01*
X130708670Y-132700693D01*
X131203898Y-132700693D01*
X131909820Y-133406615D01*
X132615742Y-132700693D01*
X132562354Y-132472019D01*
X132332446Y-132366125D01*
X132086296Y-132307118D01*
X131833365Y-132297268D01*
X131583371Y-132336950D01*
X131345924Y-132424642D01*
X131257286Y-132472019D01*
X131203898Y-132700693D01*
X130708670Y-132700693D01*
X130724336Y-131638317D01*
X139045692Y-131571996D01*
X139047597Y-131571967D01*
X146051078Y-131411083D01*
X147394652Y-133599331D01*
X147409696Y-133619169D01*
X147428320Y-133635690D01*
X147449810Y-133648260D01*
X147473340Y-133656397D01*
X147503676Y-133659878D01*
X176693356Y-133476998D01*
X176718116Y-133474402D01*
X176741895Y-133467026D01*
X176772441Y-133448732D01*
X186190761Y-125828732D01*
X186208487Y-125811251D01*
X186222463Y-125790648D01*
X186232151Y-125767714D01*
X186237178Y-125743330D01*
X186237876Y-125729011D01*
X185781667Y-67161876D01*
X188754193Y-67143151D01*
X189579663Y-128324149D01*
G37*
G04 #@! TD.AperFunction*
M02*
