G04 #@! TF.GenerationSoftware,KiCad,Pcbnew,(5.1.10)-1*
G04 #@! TF.CreationDate,2022-03-21T21:51:29-04:00*
G04 #@! TF.ProjectId,MC-ADC,4d432d41-4443-42e6-9b69-6361645f7063,rev?*
G04 #@! TF.SameCoordinates,Original*
G04 #@! TF.FileFunction,Copper,L2,Inr*
G04 #@! TF.FilePolarity,Positive*
%FSLAX46Y46*%
G04 Gerber Fmt 4.6, Leading zero omitted, Abs format (unit mm)*
G04 Created by KiCad (PCBNEW (5.1.10)-1) date 2022-03-21 21:51:29*
%MOMM*%
%LPD*%
G01*
G04 APERTURE LIST*
G04 #@! TA.AperFunction,ComponentPad*
%ADD10C,3.315000*%
G04 #@! TD*
G04 #@! TA.AperFunction,ComponentPad*
%ADD11C,1.905000*%
G04 #@! TD*
G04 #@! TA.AperFunction,ComponentPad*
%ADD12C,1.300000*%
G04 #@! TD*
G04 #@! TA.AperFunction,ComponentPad*
%ADD13R,1.300000X1.300000*%
G04 #@! TD*
G04 #@! TA.AperFunction,ComponentPad*
%ADD14O,1.700000X1.700000*%
G04 #@! TD*
G04 #@! TA.AperFunction,ComponentPad*
%ADD15R,1.700000X1.700000*%
G04 #@! TD*
G04 #@! TA.AperFunction,ComponentPad*
%ADD16C,1.550000*%
G04 #@! TD*
G04 #@! TA.AperFunction,ViaPad*
%ADD17C,0.800000*%
G04 #@! TD*
G04 #@! TA.AperFunction,Conductor*
%ADD18C,0.254000*%
G04 #@! TD*
G04 #@! TA.AperFunction,Conductor*
%ADD19C,0.100000*%
G04 #@! TD*
G04 APERTURE END LIST*
D10*
X226250760Y-64985360D03*
X226250760Y-71585360D03*
X219650760Y-71585360D03*
X219650760Y-64985360D03*
D11*
X222950760Y-68285360D03*
D10*
X226194880Y-120972040D03*
X226194880Y-127572040D03*
X219594880Y-127572040D03*
X219594880Y-120972040D03*
D11*
X222894880Y-124272040D03*
D10*
X226179640Y-92955840D03*
X226179640Y-99555840D03*
X219579640Y-99555840D03*
X219579640Y-92955840D03*
D11*
X222879640Y-96255840D03*
D12*
X131909820Y-133586220D03*
X129369820Y-133586220D03*
X126829820Y-133586220D03*
X121749820Y-133586220D03*
D13*
X119209820Y-133586220D03*
D12*
X106491420Y-134344680D03*
D13*
X109031420Y-134344680D03*
D12*
X103951420Y-134344680D03*
D14*
X207850740Y-122072400D03*
X207850740Y-124612400D03*
D15*
X207850740Y-127152400D03*
D14*
X207612640Y-93595160D03*
X207612640Y-96135160D03*
D15*
X207612640Y-98675160D03*
D14*
X207891380Y-65595500D03*
X207891380Y-68135500D03*
D15*
X207891380Y-70675500D03*
D16*
X79608680Y-72133460D03*
X79608680Y-74673460D03*
X79608680Y-77213460D03*
X79608680Y-79753460D03*
X79608680Y-82293460D03*
X79608680Y-84833460D03*
X79608680Y-87373460D03*
X79608680Y-89913460D03*
X79608680Y-92453460D03*
X79608680Y-94993460D03*
X79608680Y-97533460D03*
X79608680Y-100073460D03*
X79608680Y-102613460D03*
X79608680Y-105153460D03*
X79608680Y-107693460D03*
X79608680Y-110233460D03*
X74528680Y-72133460D03*
X74528680Y-74673460D03*
X74528680Y-77213460D03*
X74528680Y-79753460D03*
X74528680Y-82293460D03*
X74528680Y-84833460D03*
X74528680Y-87373460D03*
X74528680Y-89913460D03*
X74528680Y-92453460D03*
X74528680Y-94993460D03*
X74528680Y-97533460D03*
X74528680Y-100073460D03*
X74528680Y-102613460D03*
X74528680Y-105153460D03*
X74528680Y-107693460D03*
G04 #@! TA.AperFunction,ComponentPad*
G36*
G01*
X75053681Y-111008460D02*
X74003679Y-111008460D01*
G75*
G02*
X73753680Y-110758461I0J249999D01*
G01*
X73753680Y-109708459D01*
G75*
G02*
X74003679Y-109458460I249999J0D01*
G01*
X75053681Y-109458460D01*
G75*
G02*
X75303680Y-109708459I0J-249999D01*
G01*
X75303680Y-110758461D01*
G75*
G02*
X75053681Y-111008460I-249999J0D01*
G01*
G37*
G04 #@! TD.AperFunction*
D17*
X199415400Y-121813320D03*
X198231760Y-126801880D03*
X204810360Y-139192000D03*
X198765160Y-93568520D03*
X198455280Y-98679000D03*
X204668120Y-110789720D03*
X198770240Y-65323720D03*
X198567040Y-70652640D03*
X205318360Y-82570320D03*
X134858760Y-89529920D03*
X140853160Y-83621880D03*
X160588960Y-101305360D03*
X170192700Y-110683040D03*
X143855440Y-139049760D03*
X167919400Y-93888560D03*
X166827200Y-87899240D03*
X160916620Y-66532760D03*
X148242020Y-99159060D03*
X159999680Y-129374900D03*
X96268540Y-116646960D03*
X92753180Y-105742740D03*
X109428280Y-106702860D03*
X102552500Y-104734360D03*
X102798880Y-82125820D03*
X102585520Y-94018100D03*
X110703360Y-90431620D03*
X110670340Y-95780860D03*
X124170440Y-98945700D03*
X121866660Y-113157000D03*
X126466600Y-98945700D03*
X90225880Y-68072000D03*
X106662220Y-119029480D03*
X126085600Y-83761580D03*
X136225280Y-119755920D03*
X137805160Y-83073240D03*
X143192500Y-127576580D03*
X178884580Y-90975180D03*
X180891180Y-94152720D03*
X180652420Y-80454500D03*
X181020720Y-118551960D03*
X140685520Y-132735320D03*
X187609480Y-101793040D03*
X188267340Y-87955120D03*
X188142880Y-83405980D03*
X188407040Y-110606840D03*
D18*
X228544920Y-64868970D02*
X228502663Y-64500111D01*
X228364726Y-64070110D01*
X228186219Y-63736147D01*
X227854534Y-63561191D01*
X226430365Y-64985360D01*
X227854534Y-66409529D01*
X228186219Y-66234573D01*
X228392739Y-65832980D01*
X228516944Y-65398814D01*
X228544920Y-65059594D01*
X228544920Y-71468970D01*
X228502663Y-71100111D01*
X228364726Y-70670110D01*
X228186219Y-70336147D01*
X227854534Y-70161191D01*
X226430365Y-71585360D01*
X227854534Y-73009529D01*
X228186219Y-72834573D01*
X228392739Y-72432980D01*
X228516944Y-71998814D01*
X228544920Y-71659593D01*
X228544921Y-145598680D01*
X69912700Y-145598680D01*
X69912700Y-134218119D01*
X102666420Y-134218119D01*
X102666420Y-134471241D01*
X102715801Y-134719501D01*
X102812667Y-134953356D01*
X102953295Y-135163820D01*
X103132280Y-135342805D01*
X103342744Y-135483433D01*
X103576599Y-135580299D01*
X103824859Y-135629680D01*
X104077981Y-135629680D01*
X104326241Y-135580299D01*
X104560096Y-135483433D01*
X104770560Y-135342805D01*
X104883158Y-135230207D01*
X105785498Y-135230207D01*
X105838886Y-135458881D01*
X106068794Y-135564775D01*
X106314944Y-135623782D01*
X106567875Y-135633632D01*
X106817869Y-135593950D01*
X107055316Y-135506258D01*
X107143954Y-135458881D01*
X107197342Y-135230207D01*
X106491420Y-134524285D01*
X105785498Y-135230207D01*
X104883158Y-135230207D01*
X104949545Y-135163820D01*
X105090173Y-134953356D01*
X105187039Y-134719501D01*
X105221960Y-134543936D01*
X105242150Y-134671129D01*
X105329842Y-134908576D01*
X105377219Y-134997214D01*
X105605893Y-135050602D01*
X106311815Y-134344680D01*
X106671025Y-134344680D01*
X107376947Y-135050602D01*
X107605621Y-134997214D01*
X107711515Y-134767306D01*
X107743348Y-134634513D01*
X107743348Y-134994680D01*
X107755608Y-135119162D01*
X107791918Y-135238860D01*
X107850883Y-135349174D01*
X107930235Y-135445865D01*
X108026926Y-135525217D01*
X108137240Y-135584182D01*
X108256938Y-135620492D01*
X108381420Y-135632752D01*
X109681420Y-135632752D01*
X109805902Y-135620492D01*
X109925600Y-135584182D01*
X110035914Y-135525217D01*
X110132605Y-135445865D01*
X110211957Y-135349174D01*
X110270922Y-135238860D01*
X110307232Y-135119162D01*
X110319492Y-134994680D01*
X110319492Y-133694680D01*
X110307232Y-133570198D01*
X110270922Y-133450500D01*
X110211957Y-133340186D01*
X110132605Y-133243495D01*
X110035914Y-133164143D01*
X109925600Y-133105178D01*
X109805902Y-133068868D01*
X109681420Y-133056608D01*
X108381420Y-133056608D01*
X108256938Y-133068868D01*
X108137240Y-133105178D01*
X108026926Y-133164143D01*
X107930235Y-133243495D01*
X107850883Y-133340186D01*
X107791918Y-133450500D01*
X107755608Y-133570198D01*
X107743348Y-133694680D01*
X107743348Y-134034976D01*
X107740690Y-134018231D01*
X107652998Y-133780784D01*
X107605621Y-133692146D01*
X107376947Y-133638758D01*
X106671025Y-134344680D01*
X106311815Y-134344680D01*
X105605893Y-133638758D01*
X105377219Y-133692146D01*
X105271325Y-133922054D01*
X105220064Y-134135891D01*
X105187039Y-133969859D01*
X105090173Y-133736004D01*
X104949545Y-133525540D01*
X104883158Y-133459153D01*
X105785498Y-133459153D01*
X106491420Y-134165075D01*
X107197342Y-133459153D01*
X107143954Y-133230479D01*
X106914046Y-133124585D01*
X106667896Y-133065578D01*
X106414965Y-133055728D01*
X106164971Y-133095410D01*
X105927524Y-133183102D01*
X105838886Y-133230479D01*
X105785498Y-133459153D01*
X104883158Y-133459153D01*
X104770560Y-133346555D01*
X104560096Y-133205927D01*
X104326241Y-133109061D01*
X104077981Y-133059680D01*
X103824859Y-133059680D01*
X103576599Y-133109061D01*
X103342744Y-133205927D01*
X103132280Y-133346555D01*
X102953295Y-133525540D01*
X102812667Y-133736004D01*
X102715801Y-133969859D01*
X102666420Y-134218119D01*
X69912700Y-134218119D01*
X69912700Y-132936220D01*
X117921748Y-132936220D01*
X117921748Y-134236220D01*
X117934008Y-134360702D01*
X117970318Y-134480400D01*
X118029283Y-134590714D01*
X118108635Y-134687405D01*
X118205326Y-134766757D01*
X118315640Y-134825722D01*
X118435338Y-134862032D01*
X118559820Y-134874292D01*
X119859820Y-134874292D01*
X119984302Y-134862032D01*
X120104000Y-134825722D01*
X120214314Y-134766757D01*
X120311005Y-134687405D01*
X120390357Y-134590714D01*
X120449322Y-134480400D01*
X120451946Y-134471747D01*
X121043898Y-134471747D01*
X121097286Y-134700421D01*
X121327194Y-134806315D01*
X121573344Y-134865322D01*
X121826275Y-134875172D01*
X122076269Y-134835490D01*
X122313716Y-134747798D01*
X122402354Y-134700421D01*
X122455742Y-134471747D01*
X121749820Y-133765825D01*
X121043898Y-134471747D01*
X120451946Y-134471747D01*
X120485632Y-134360702D01*
X120497892Y-134236220D01*
X120497892Y-133895924D01*
X120500550Y-133912669D01*
X120588242Y-134150116D01*
X120635619Y-134238754D01*
X120864293Y-134292142D01*
X121570215Y-133586220D01*
X121929425Y-133586220D01*
X122635347Y-134292142D01*
X122864021Y-134238754D01*
X122969915Y-134008846D01*
X123028922Y-133762696D01*
X123038772Y-133509765D01*
X123030819Y-133459659D01*
X125544820Y-133459659D01*
X125544820Y-133712781D01*
X125594201Y-133961041D01*
X125691067Y-134194896D01*
X125831695Y-134405360D01*
X126010680Y-134584345D01*
X126221144Y-134724973D01*
X126454999Y-134821839D01*
X126703259Y-134871220D01*
X126956381Y-134871220D01*
X127204641Y-134821839D01*
X127438496Y-134724973D01*
X127648960Y-134584345D01*
X127761558Y-134471747D01*
X128663898Y-134471747D01*
X128717286Y-134700421D01*
X128947194Y-134806315D01*
X129193344Y-134865322D01*
X129446275Y-134875172D01*
X129696269Y-134835490D01*
X129933716Y-134747798D01*
X130022354Y-134700421D01*
X130075742Y-134471747D01*
X129369820Y-133765825D01*
X128663898Y-134471747D01*
X127761558Y-134471747D01*
X127827945Y-134405360D01*
X127968573Y-134194896D01*
X128065439Y-133961041D01*
X128100360Y-133785476D01*
X128120550Y-133912669D01*
X128208242Y-134150116D01*
X128255619Y-134238754D01*
X128484293Y-134292142D01*
X129190215Y-133586220D01*
X129549425Y-133586220D01*
X130255347Y-134292142D01*
X130484021Y-134238754D01*
X130589915Y-134008846D01*
X130641176Y-133795009D01*
X130674201Y-133961041D01*
X130771067Y-134194896D01*
X130911695Y-134405360D01*
X131090680Y-134584345D01*
X131301144Y-134724973D01*
X131534999Y-134821839D01*
X131783259Y-134871220D01*
X132036381Y-134871220D01*
X132284641Y-134821839D01*
X132518496Y-134724973D01*
X132728960Y-134584345D01*
X132907945Y-134405360D01*
X133048573Y-134194896D01*
X133145439Y-133961041D01*
X133194820Y-133712781D01*
X133194820Y-133459659D01*
X133145439Y-133211399D01*
X133048573Y-132977544D01*
X132907945Y-132767080D01*
X132774246Y-132633381D01*
X139650520Y-132633381D01*
X139650520Y-132837259D01*
X139690294Y-133037218D01*
X139768315Y-133225576D01*
X139881583Y-133395094D01*
X140025746Y-133539257D01*
X140195264Y-133652525D01*
X140383622Y-133730546D01*
X140583581Y-133770320D01*
X140787459Y-133770320D01*
X140987418Y-133730546D01*
X141175776Y-133652525D01*
X141345294Y-133539257D01*
X141489457Y-133395094D01*
X141602725Y-133225576D01*
X141680746Y-133037218D01*
X141720520Y-132837259D01*
X141720520Y-132633381D01*
X141680746Y-132433422D01*
X141602725Y-132245064D01*
X141489457Y-132075546D01*
X141345294Y-131931383D01*
X141175776Y-131818115D01*
X140987418Y-131740094D01*
X140787459Y-131700320D01*
X140583581Y-131700320D01*
X140383622Y-131740094D01*
X140195264Y-131818115D01*
X140025746Y-131931383D01*
X139881583Y-132075546D01*
X139768315Y-132245064D01*
X139690294Y-132433422D01*
X139650520Y-132633381D01*
X132774246Y-132633381D01*
X132728960Y-132588095D01*
X132518496Y-132447467D01*
X132284641Y-132350601D01*
X132036381Y-132301220D01*
X131783259Y-132301220D01*
X131534999Y-132350601D01*
X131301144Y-132447467D01*
X131090680Y-132588095D01*
X130911695Y-132767080D01*
X130771067Y-132977544D01*
X130674201Y-133211399D01*
X130639280Y-133386964D01*
X130619090Y-133259771D01*
X130531398Y-133022324D01*
X130484021Y-132933686D01*
X130255347Y-132880298D01*
X129549425Y-133586220D01*
X129190215Y-133586220D01*
X128484293Y-132880298D01*
X128255619Y-132933686D01*
X128149725Y-133163594D01*
X128098464Y-133377431D01*
X128065439Y-133211399D01*
X127968573Y-132977544D01*
X127827945Y-132767080D01*
X127761558Y-132700693D01*
X128663898Y-132700693D01*
X129369820Y-133406615D01*
X130075742Y-132700693D01*
X130022354Y-132472019D01*
X129792446Y-132366125D01*
X129546296Y-132307118D01*
X129293365Y-132297268D01*
X129043371Y-132336950D01*
X128805924Y-132424642D01*
X128717286Y-132472019D01*
X128663898Y-132700693D01*
X127761558Y-132700693D01*
X127648960Y-132588095D01*
X127438496Y-132447467D01*
X127204641Y-132350601D01*
X126956381Y-132301220D01*
X126703259Y-132301220D01*
X126454999Y-132350601D01*
X126221144Y-132447467D01*
X126010680Y-132588095D01*
X125831695Y-132767080D01*
X125691067Y-132977544D01*
X125594201Y-133211399D01*
X125544820Y-133459659D01*
X123030819Y-133459659D01*
X122999090Y-133259771D01*
X122911398Y-133022324D01*
X122864021Y-132933686D01*
X122635347Y-132880298D01*
X121929425Y-133586220D01*
X121570215Y-133586220D01*
X120864293Y-132880298D01*
X120635619Y-132933686D01*
X120529725Y-133163594D01*
X120497892Y-133296387D01*
X120497892Y-132936220D01*
X120485632Y-132811738D01*
X120451947Y-132700693D01*
X121043898Y-132700693D01*
X121749820Y-133406615D01*
X122455742Y-132700693D01*
X122402354Y-132472019D01*
X122172446Y-132366125D01*
X121926296Y-132307118D01*
X121673365Y-132297268D01*
X121423371Y-132336950D01*
X121185924Y-132424642D01*
X121097286Y-132472019D01*
X121043898Y-132700693D01*
X120451947Y-132700693D01*
X120449322Y-132692040D01*
X120390357Y-132581726D01*
X120311005Y-132485035D01*
X120214314Y-132405683D01*
X120104000Y-132346718D01*
X119984302Y-132310408D01*
X119859820Y-132298148D01*
X118559820Y-132298148D01*
X118435338Y-132310408D01*
X118315640Y-132346718D01*
X118205326Y-132405683D01*
X118108635Y-132485035D01*
X118029283Y-132581726D01*
X117970318Y-132692040D01*
X117934008Y-132811738D01*
X117921748Y-132936220D01*
X69912700Y-132936220D01*
X69912700Y-129175814D01*
X218170711Y-129175814D01*
X218345667Y-129507499D01*
X218747260Y-129714019D01*
X219181426Y-129838224D01*
X219631481Y-129875341D01*
X220080129Y-129823943D01*
X220510130Y-129686006D01*
X220844093Y-129507499D01*
X221019049Y-129175814D01*
X224770711Y-129175814D01*
X224945667Y-129507499D01*
X225347260Y-129714019D01*
X225781426Y-129838224D01*
X226231481Y-129875341D01*
X226680129Y-129823943D01*
X227110130Y-129686006D01*
X227444093Y-129507499D01*
X227619049Y-129175814D01*
X226194880Y-127751645D01*
X224770711Y-129175814D01*
X221019049Y-129175814D01*
X219594880Y-127751645D01*
X218170711Y-129175814D01*
X69912700Y-129175814D01*
X69912700Y-127474641D01*
X142157500Y-127474641D01*
X142157500Y-127678519D01*
X142197274Y-127878478D01*
X142275295Y-128066836D01*
X142388563Y-128236354D01*
X142532726Y-128380517D01*
X142702244Y-128493785D01*
X142890602Y-128571806D01*
X143090561Y-128611580D01*
X143294439Y-128611580D01*
X143494398Y-128571806D01*
X143682756Y-128493785D01*
X143852274Y-128380517D01*
X143996437Y-128236354D01*
X144109705Y-128066836D01*
X144187726Y-127878478D01*
X144227500Y-127678519D01*
X144227500Y-127474641D01*
X144187726Y-127274682D01*
X144109705Y-127086324D01*
X143996437Y-126916806D01*
X143852274Y-126772643D01*
X143682756Y-126659375D01*
X143494398Y-126581354D01*
X143294439Y-126541580D01*
X143090561Y-126541580D01*
X142890602Y-126581354D01*
X142702244Y-126659375D01*
X142532726Y-126772643D01*
X142388563Y-126916806D01*
X142275295Y-127086324D01*
X142197274Y-127274682D01*
X142157500Y-127474641D01*
X69912700Y-127474641D01*
X69912700Y-126302400D01*
X206362668Y-126302400D01*
X206362668Y-128002400D01*
X206374928Y-128126882D01*
X206411238Y-128246580D01*
X206470203Y-128356894D01*
X206549555Y-128453585D01*
X206646246Y-128532937D01*
X206756560Y-128591902D01*
X206876258Y-128628212D01*
X207000740Y-128640472D01*
X208700740Y-128640472D01*
X208825222Y-128628212D01*
X208944920Y-128591902D01*
X209055234Y-128532937D01*
X209151925Y-128453585D01*
X209231277Y-128356894D01*
X209290242Y-128246580D01*
X209326552Y-128126882D01*
X209338812Y-128002400D01*
X209338812Y-127608641D01*
X217291579Y-127608641D01*
X217342977Y-128057289D01*
X217480914Y-128487290D01*
X217659421Y-128821253D01*
X217991106Y-128996209D01*
X219415275Y-127572040D01*
X219774485Y-127572040D01*
X221198654Y-128996209D01*
X221530339Y-128821253D01*
X221736859Y-128419660D01*
X221861064Y-127985494D01*
X221892143Y-127608641D01*
X223891579Y-127608641D01*
X223942977Y-128057289D01*
X224080914Y-128487290D01*
X224259421Y-128821253D01*
X224591106Y-128996209D01*
X226015275Y-127572040D01*
X226374485Y-127572040D01*
X227798654Y-128996209D01*
X228130339Y-128821253D01*
X228336859Y-128419660D01*
X228461064Y-127985494D01*
X228498181Y-127535439D01*
X228446783Y-127086791D01*
X228308846Y-126656790D01*
X228130339Y-126322827D01*
X227798654Y-126147871D01*
X226374485Y-127572040D01*
X226015275Y-127572040D01*
X224591106Y-126147871D01*
X224259421Y-126322827D01*
X224052901Y-126724420D01*
X223928696Y-127158586D01*
X223891579Y-127608641D01*
X221892143Y-127608641D01*
X221898181Y-127535439D01*
X221846783Y-127086791D01*
X221708846Y-126656790D01*
X221530339Y-126322827D01*
X221198654Y-126147871D01*
X219774485Y-127572040D01*
X219415275Y-127572040D01*
X217991106Y-126147871D01*
X217659421Y-126322827D01*
X217452901Y-126724420D01*
X217328696Y-127158586D01*
X217291579Y-127608641D01*
X209338812Y-127608641D01*
X209338812Y-126302400D01*
X209326552Y-126177918D01*
X209290242Y-126058220D01*
X209242160Y-125968266D01*
X218170711Y-125968266D01*
X219594880Y-127392435D01*
X221019049Y-125968266D01*
X224770711Y-125968266D01*
X226194880Y-127392435D01*
X227619049Y-125968266D01*
X227444093Y-125636581D01*
X227042500Y-125430061D01*
X226608334Y-125305856D01*
X226158279Y-125268739D01*
X225709631Y-125320137D01*
X225279630Y-125458074D01*
X224945667Y-125636581D01*
X224770711Y-125968266D01*
X221019049Y-125968266D01*
X220844093Y-125636581D01*
X220442500Y-125430061D01*
X220008334Y-125305856D01*
X219558279Y-125268739D01*
X219109631Y-125320137D01*
X218679630Y-125458074D01*
X218345667Y-125636581D01*
X218170711Y-125968266D01*
X209242160Y-125968266D01*
X209231277Y-125947906D01*
X209151925Y-125851215D01*
X209055234Y-125771863D01*
X208944920Y-125712898D01*
X208872360Y-125690887D01*
X209004215Y-125559032D01*
X209166730Y-125315811D01*
X209278672Y-125045558D01*
X209335740Y-124758660D01*
X209335740Y-124466140D01*
X209278672Y-124179242D01*
X209252346Y-124115685D01*
X221307380Y-124115685D01*
X221307380Y-124428395D01*
X221368387Y-124735097D01*
X221488056Y-125024003D01*
X221661788Y-125284012D01*
X221882908Y-125505132D01*
X222142917Y-125678864D01*
X222431823Y-125798533D01*
X222738525Y-125859540D01*
X223051235Y-125859540D01*
X223357937Y-125798533D01*
X223646843Y-125678864D01*
X223906852Y-125505132D01*
X224127972Y-125284012D01*
X224301704Y-125024003D01*
X224421373Y-124735097D01*
X224482380Y-124428395D01*
X224482380Y-124115685D01*
X224421373Y-123808983D01*
X224301704Y-123520077D01*
X224127972Y-123260068D01*
X223906852Y-123038948D01*
X223646843Y-122865216D01*
X223357937Y-122745547D01*
X223051235Y-122684540D01*
X222738525Y-122684540D01*
X222431823Y-122745547D01*
X222142917Y-122865216D01*
X221882908Y-123038948D01*
X221661788Y-123260068D01*
X221488056Y-123520077D01*
X221368387Y-123808983D01*
X221307380Y-124115685D01*
X209252346Y-124115685D01*
X209166730Y-123908989D01*
X209004215Y-123665768D01*
X208797372Y-123458925D01*
X208622980Y-123342400D01*
X208797372Y-123225875D01*
X209004215Y-123019032D01*
X209166730Y-122775811D01*
X209249571Y-122575814D01*
X218170711Y-122575814D01*
X218345667Y-122907499D01*
X218747260Y-123114019D01*
X219181426Y-123238224D01*
X219631481Y-123275341D01*
X220080129Y-123223943D01*
X220510130Y-123086006D01*
X220844093Y-122907499D01*
X221019049Y-122575814D01*
X224770711Y-122575814D01*
X224945667Y-122907499D01*
X225347260Y-123114019D01*
X225781426Y-123238224D01*
X226231481Y-123275341D01*
X226680129Y-123223943D01*
X227110130Y-123086006D01*
X227444093Y-122907499D01*
X227619049Y-122575814D01*
X226194880Y-121151645D01*
X224770711Y-122575814D01*
X221019049Y-122575814D01*
X219594880Y-121151645D01*
X218170711Y-122575814D01*
X209249571Y-122575814D01*
X209278672Y-122505558D01*
X209335740Y-122218660D01*
X209335740Y-121926140D01*
X209278672Y-121639242D01*
X209166730Y-121368989D01*
X209004215Y-121125768D01*
X208887088Y-121008641D01*
X217291579Y-121008641D01*
X217342977Y-121457289D01*
X217480914Y-121887290D01*
X217659421Y-122221253D01*
X217991106Y-122396209D01*
X219415275Y-120972040D01*
X219774485Y-120972040D01*
X221198654Y-122396209D01*
X221530339Y-122221253D01*
X221736859Y-121819660D01*
X221861064Y-121385494D01*
X221892143Y-121008641D01*
X223891579Y-121008641D01*
X223942977Y-121457289D01*
X224080914Y-121887290D01*
X224259421Y-122221253D01*
X224591106Y-122396209D01*
X226015275Y-120972040D01*
X226374485Y-120972040D01*
X227798654Y-122396209D01*
X228130339Y-122221253D01*
X228336859Y-121819660D01*
X228461064Y-121385494D01*
X228498181Y-120935439D01*
X228446783Y-120486791D01*
X228308846Y-120056790D01*
X228130339Y-119722827D01*
X227798654Y-119547871D01*
X226374485Y-120972040D01*
X226015275Y-120972040D01*
X224591106Y-119547871D01*
X224259421Y-119722827D01*
X224052901Y-120124420D01*
X223928696Y-120558586D01*
X223891579Y-121008641D01*
X221892143Y-121008641D01*
X221898181Y-120935439D01*
X221846783Y-120486791D01*
X221708846Y-120056790D01*
X221530339Y-119722827D01*
X221198654Y-119547871D01*
X219774485Y-120972040D01*
X219415275Y-120972040D01*
X217991106Y-119547871D01*
X217659421Y-119722827D01*
X217452901Y-120124420D01*
X217328696Y-120558586D01*
X217291579Y-121008641D01*
X208887088Y-121008641D01*
X208797372Y-120918925D01*
X208554151Y-120756410D01*
X208283898Y-120644468D01*
X207997000Y-120587400D01*
X207704480Y-120587400D01*
X207417582Y-120644468D01*
X207147329Y-120756410D01*
X206904108Y-120918925D01*
X206697265Y-121125768D01*
X206534750Y-121368989D01*
X206422808Y-121639242D01*
X206365740Y-121926140D01*
X206365740Y-122218660D01*
X206422808Y-122505558D01*
X206534750Y-122775811D01*
X206697265Y-123019032D01*
X206904108Y-123225875D01*
X207078500Y-123342400D01*
X206904108Y-123458925D01*
X206697265Y-123665768D01*
X206534750Y-123908989D01*
X206422808Y-124179242D01*
X206365740Y-124466140D01*
X206365740Y-124758660D01*
X206422808Y-125045558D01*
X206534750Y-125315811D01*
X206697265Y-125559032D01*
X206829120Y-125690887D01*
X206756560Y-125712898D01*
X206646246Y-125771863D01*
X206549555Y-125851215D01*
X206470203Y-125947906D01*
X206411238Y-126058220D01*
X206374928Y-126177918D01*
X206362668Y-126302400D01*
X69912700Y-126302400D01*
X69912700Y-118927541D01*
X105627220Y-118927541D01*
X105627220Y-119131419D01*
X105666994Y-119331378D01*
X105745015Y-119519736D01*
X105858283Y-119689254D01*
X106002446Y-119833417D01*
X106171964Y-119946685D01*
X106360322Y-120024706D01*
X106560281Y-120064480D01*
X106764159Y-120064480D01*
X106964118Y-120024706D01*
X107152476Y-119946685D01*
X107321994Y-119833417D01*
X107466157Y-119689254D01*
X107489725Y-119653981D01*
X135190280Y-119653981D01*
X135190280Y-119857859D01*
X135230054Y-120057818D01*
X135308075Y-120246176D01*
X135421343Y-120415694D01*
X135565506Y-120559857D01*
X135735024Y-120673125D01*
X135923382Y-120751146D01*
X136123341Y-120790920D01*
X136327219Y-120790920D01*
X136527178Y-120751146D01*
X136715536Y-120673125D01*
X136885054Y-120559857D01*
X137029217Y-120415694D01*
X137142485Y-120246176D01*
X137220506Y-120057818D01*
X137260280Y-119857859D01*
X137260280Y-119653981D01*
X137220506Y-119454022D01*
X137142485Y-119265664D01*
X137029217Y-119096146D01*
X136885054Y-118951983D01*
X136715536Y-118838715D01*
X136527178Y-118760694D01*
X136327219Y-118720920D01*
X136123341Y-118720920D01*
X135923382Y-118760694D01*
X135735024Y-118838715D01*
X135565506Y-118951983D01*
X135421343Y-119096146D01*
X135308075Y-119265664D01*
X135230054Y-119454022D01*
X135190280Y-119653981D01*
X107489725Y-119653981D01*
X107579425Y-119519736D01*
X107657446Y-119331378D01*
X107697220Y-119131419D01*
X107697220Y-118927541D01*
X107657446Y-118727582D01*
X107579425Y-118539224D01*
X107519822Y-118450021D01*
X179985720Y-118450021D01*
X179985720Y-118653899D01*
X180025494Y-118853858D01*
X180103515Y-119042216D01*
X180216783Y-119211734D01*
X180360946Y-119355897D01*
X180530464Y-119469165D01*
X180718822Y-119547186D01*
X180918781Y-119586960D01*
X181122659Y-119586960D01*
X181322618Y-119547186D01*
X181510976Y-119469165D01*
X181661982Y-119368266D01*
X218170711Y-119368266D01*
X219594880Y-120792435D01*
X221019049Y-119368266D01*
X224770711Y-119368266D01*
X226194880Y-120792435D01*
X227619049Y-119368266D01*
X227444093Y-119036581D01*
X227042500Y-118830061D01*
X226608334Y-118705856D01*
X226158279Y-118668739D01*
X225709631Y-118720137D01*
X225279630Y-118858074D01*
X224945667Y-119036581D01*
X224770711Y-119368266D01*
X221019049Y-119368266D01*
X220844093Y-119036581D01*
X220442500Y-118830061D01*
X220008334Y-118705856D01*
X219558279Y-118668739D01*
X219109631Y-118720137D01*
X218679630Y-118858074D01*
X218345667Y-119036581D01*
X218170711Y-119368266D01*
X181661982Y-119368266D01*
X181680494Y-119355897D01*
X181824657Y-119211734D01*
X181937925Y-119042216D01*
X182015946Y-118853858D01*
X182055720Y-118653899D01*
X182055720Y-118450021D01*
X182015946Y-118250062D01*
X181937925Y-118061704D01*
X181824657Y-117892186D01*
X181680494Y-117748023D01*
X181510976Y-117634755D01*
X181322618Y-117556734D01*
X181122659Y-117516960D01*
X180918781Y-117516960D01*
X180718822Y-117556734D01*
X180530464Y-117634755D01*
X180360946Y-117748023D01*
X180216783Y-117892186D01*
X180103515Y-118061704D01*
X180025494Y-118250062D01*
X179985720Y-118450021D01*
X107519822Y-118450021D01*
X107466157Y-118369706D01*
X107321994Y-118225543D01*
X107152476Y-118112275D01*
X106964118Y-118034254D01*
X106764159Y-117994480D01*
X106560281Y-117994480D01*
X106360322Y-118034254D01*
X106171964Y-118112275D01*
X106002446Y-118225543D01*
X105858283Y-118369706D01*
X105745015Y-118539224D01*
X105666994Y-118727582D01*
X105627220Y-118927541D01*
X69912700Y-118927541D01*
X69912700Y-115110568D01*
X69928680Y-115110568D01*
X69928680Y-115516352D01*
X70007845Y-115914340D01*
X70163132Y-116289236D01*
X70388574Y-116626633D01*
X70675507Y-116913566D01*
X71012904Y-117139008D01*
X71387800Y-117294295D01*
X71785788Y-117373460D01*
X72191572Y-117373460D01*
X72589560Y-117294295D01*
X72964456Y-117139008D01*
X73301853Y-116913566D01*
X73588786Y-116626633D01*
X73814228Y-116289236D01*
X73969515Y-115914340D01*
X74048680Y-115516352D01*
X74048680Y-115110568D01*
X73969515Y-114712580D01*
X73814228Y-114337684D01*
X73588786Y-114000287D01*
X73301853Y-113713354D01*
X72964456Y-113487912D01*
X72589560Y-113332625D01*
X72191572Y-113253460D01*
X71785788Y-113253460D01*
X71387800Y-113332625D01*
X71012904Y-113487912D01*
X70675507Y-113713354D01*
X70388574Y-114000287D01*
X70163132Y-114337684D01*
X70007845Y-114712580D01*
X69928680Y-115110568D01*
X69912700Y-115110568D01*
X69912700Y-109708459D01*
X73115608Y-109708459D01*
X73115608Y-110758461D01*
X73132672Y-110931715D01*
X73183208Y-111098311D01*
X73265275Y-111251847D01*
X73375718Y-111386422D01*
X73510293Y-111496865D01*
X73663829Y-111578932D01*
X73830425Y-111629468D01*
X74003679Y-111646532D01*
X75053681Y-111646532D01*
X75226935Y-111629468D01*
X75393531Y-111578932D01*
X75547067Y-111496865D01*
X75681642Y-111386422D01*
X75792085Y-111251847D01*
X75874152Y-111098311D01*
X75924688Y-110931715D01*
X75941752Y-110758461D01*
X75941752Y-110094587D01*
X78198680Y-110094587D01*
X78198680Y-110372333D01*
X78252866Y-110644742D01*
X78359155Y-110901345D01*
X78513462Y-111132282D01*
X78709858Y-111328678D01*
X78940795Y-111482985D01*
X79197398Y-111589274D01*
X79469807Y-111643460D01*
X79747553Y-111643460D01*
X80019962Y-111589274D01*
X80276565Y-111482985D01*
X80507502Y-111328678D01*
X80703898Y-111132282D01*
X80858205Y-110901345D01*
X80964494Y-110644742D01*
X80992310Y-110504901D01*
X187372040Y-110504901D01*
X187372040Y-110708779D01*
X187411814Y-110908738D01*
X187489835Y-111097096D01*
X187603103Y-111266614D01*
X187747266Y-111410777D01*
X187916784Y-111524045D01*
X188105142Y-111602066D01*
X188305101Y-111641840D01*
X188508979Y-111641840D01*
X188708938Y-111602066D01*
X188897296Y-111524045D01*
X189066814Y-111410777D01*
X189210977Y-111266614D01*
X189324245Y-111097096D01*
X189402266Y-110908738D01*
X189442040Y-110708779D01*
X189442040Y-110504901D01*
X189402266Y-110304942D01*
X189324245Y-110116584D01*
X189210977Y-109947066D01*
X189066814Y-109802903D01*
X188897296Y-109689635D01*
X188708938Y-109611614D01*
X188508979Y-109571840D01*
X188305101Y-109571840D01*
X188105142Y-109611614D01*
X187916784Y-109689635D01*
X187747266Y-109802903D01*
X187603103Y-109947066D01*
X187489835Y-110116584D01*
X187411814Y-110304942D01*
X187372040Y-110504901D01*
X80992310Y-110504901D01*
X81018680Y-110372333D01*
X81018680Y-110094587D01*
X80964494Y-109822178D01*
X80858205Y-109565575D01*
X80703898Y-109334638D01*
X80507502Y-109138242D01*
X80276565Y-108983935D01*
X80231478Y-108965259D01*
X80335370Y-108909728D01*
X80403924Y-108668309D01*
X79608680Y-107873065D01*
X78813436Y-108668309D01*
X78881990Y-108909728D01*
X78993304Y-108962185D01*
X78940795Y-108983935D01*
X78709858Y-109138242D01*
X78513462Y-109334638D01*
X78359155Y-109565575D01*
X78252866Y-109822178D01*
X78198680Y-110094587D01*
X75941752Y-110094587D01*
X75941752Y-109708459D01*
X75924688Y-109535205D01*
X75874152Y-109368609D01*
X75792085Y-109215073D01*
X75681642Y-109080498D01*
X75547067Y-108970055D01*
X75393531Y-108887988D01*
X75272011Y-108851126D01*
X75323924Y-108668309D01*
X74528680Y-107873065D01*
X73733436Y-108668309D01*
X73785349Y-108851126D01*
X73663829Y-108887988D01*
X73510293Y-108970055D01*
X73375718Y-109080498D01*
X73265275Y-109215073D01*
X73183208Y-109368609D01*
X73132672Y-109535205D01*
X73115608Y-109708459D01*
X69912700Y-109708459D01*
X69912700Y-107764962D01*
X73113662Y-107764962D01*
X73154801Y-108039644D01*
X73248737Y-108301022D01*
X73312412Y-108420150D01*
X73553831Y-108488704D01*
X74349075Y-107693460D01*
X74708285Y-107693460D01*
X75503529Y-108488704D01*
X75744948Y-108420150D01*
X75863348Y-108168904D01*
X75930458Y-107899389D01*
X75936873Y-107764962D01*
X78193662Y-107764962D01*
X78234801Y-108039644D01*
X78328737Y-108301022D01*
X78392412Y-108420150D01*
X78633831Y-108488704D01*
X79429075Y-107693460D01*
X79788285Y-107693460D01*
X80583529Y-108488704D01*
X80824948Y-108420150D01*
X80943348Y-108168904D01*
X81010458Y-107899389D01*
X81023698Y-107621958D01*
X80982559Y-107347276D01*
X80888623Y-107085898D01*
X80824948Y-106966770D01*
X80583529Y-106898216D01*
X79788285Y-107693460D01*
X79429075Y-107693460D01*
X78633831Y-106898216D01*
X78392412Y-106966770D01*
X78274012Y-107218016D01*
X78206902Y-107487531D01*
X78193662Y-107764962D01*
X75936873Y-107764962D01*
X75943698Y-107621958D01*
X75902559Y-107347276D01*
X75808623Y-107085898D01*
X75744948Y-106966770D01*
X75503529Y-106898216D01*
X74708285Y-107693460D01*
X74349075Y-107693460D01*
X73553831Y-106898216D01*
X73312412Y-106966770D01*
X73194012Y-107218016D01*
X73126902Y-107487531D01*
X73113662Y-107764962D01*
X69912700Y-107764962D01*
X69912700Y-106128309D01*
X73733436Y-106128309D01*
X73801990Y-106369728D01*
X73908839Y-106420080D01*
X73801990Y-106477192D01*
X73733436Y-106718611D01*
X74528680Y-107513855D01*
X75323924Y-106718611D01*
X75255370Y-106477192D01*
X75148521Y-106426840D01*
X75255370Y-106369728D01*
X75323924Y-106128309D01*
X78813436Y-106128309D01*
X78881990Y-106369728D01*
X78988839Y-106420080D01*
X78881990Y-106477192D01*
X78813436Y-106718611D01*
X79608680Y-107513855D01*
X80403924Y-106718611D01*
X80335370Y-106477192D01*
X80228521Y-106426840D01*
X80335370Y-106369728D01*
X80403924Y-106128309D01*
X79608680Y-105333065D01*
X78813436Y-106128309D01*
X75323924Y-106128309D01*
X74528680Y-105333065D01*
X73733436Y-106128309D01*
X69912700Y-106128309D01*
X69912700Y-105224962D01*
X73113662Y-105224962D01*
X73154801Y-105499644D01*
X73248737Y-105761022D01*
X73312412Y-105880150D01*
X73553831Y-105948704D01*
X74349075Y-105153460D01*
X74708285Y-105153460D01*
X75503529Y-105948704D01*
X75744948Y-105880150D01*
X75863348Y-105628904D01*
X75930458Y-105359389D01*
X75936873Y-105224962D01*
X78193662Y-105224962D01*
X78234801Y-105499644D01*
X78328737Y-105761022D01*
X78392412Y-105880150D01*
X78633831Y-105948704D01*
X79429075Y-105153460D01*
X79788285Y-105153460D01*
X80583529Y-105948704D01*
X80824948Y-105880150D01*
X80943348Y-105628904D01*
X81010458Y-105359389D01*
X81023698Y-105081958D01*
X80982559Y-104807276D01*
X80888623Y-104545898D01*
X80824948Y-104426770D01*
X80583529Y-104358216D01*
X79788285Y-105153460D01*
X79429075Y-105153460D01*
X78633831Y-104358216D01*
X78392412Y-104426770D01*
X78274012Y-104678016D01*
X78206902Y-104947531D01*
X78193662Y-105224962D01*
X75936873Y-105224962D01*
X75943698Y-105081958D01*
X75902559Y-104807276D01*
X75808623Y-104545898D01*
X75744948Y-104426770D01*
X75503529Y-104358216D01*
X74708285Y-105153460D01*
X74349075Y-105153460D01*
X73553831Y-104358216D01*
X73312412Y-104426770D01*
X73194012Y-104678016D01*
X73126902Y-104947531D01*
X73113662Y-105224962D01*
X69912700Y-105224962D01*
X69912700Y-103588309D01*
X73733436Y-103588309D01*
X73801990Y-103829728D01*
X73908839Y-103880080D01*
X73801990Y-103937192D01*
X73733436Y-104178611D01*
X74528680Y-104973855D01*
X75323924Y-104178611D01*
X75255370Y-103937192D01*
X75148521Y-103886840D01*
X75255370Y-103829728D01*
X75323924Y-103588309D01*
X78813436Y-103588309D01*
X78881990Y-103829728D01*
X78988839Y-103880080D01*
X78881990Y-103937192D01*
X78813436Y-104178611D01*
X79608680Y-104973855D01*
X80403924Y-104178611D01*
X80335370Y-103937192D01*
X80228521Y-103886840D01*
X80335370Y-103829728D01*
X80403924Y-103588309D01*
X79608680Y-102793065D01*
X78813436Y-103588309D01*
X75323924Y-103588309D01*
X74528680Y-102793065D01*
X73733436Y-103588309D01*
X69912700Y-103588309D01*
X69912700Y-102684962D01*
X73113662Y-102684962D01*
X73154801Y-102959644D01*
X73248737Y-103221022D01*
X73312412Y-103340150D01*
X73553831Y-103408704D01*
X74349075Y-102613460D01*
X74708285Y-102613460D01*
X75503529Y-103408704D01*
X75744948Y-103340150D01*
X75863348Y-103088904D01*
X75930458Y-102819389D01*
X75936873Y-102684962D01*
X78193662Y-102684962D01*
X78234801Y-102959644D01*
X78328737Y-103221022D01*
X78392412Y-103340150D01*
X78633831Y-103408704D01*
X79429075Y-102613460D01*
X79788285Y-102613460D01*
X80583529Y-103408704D01*
X80824948Y-103340150D01*
X80943348Y-103088904D01*
X81010458Y-102819389D01*
X81023698Y-102541958D01*
X80982559Y-102267276D01*
X80888623Y-102005898D01*
X80824948Y-101886770D01*
X80583529Y-101818216D01*
X79788285Y-102613460D01*
X79429075Y-102613460D01*
X78633831Y-101818216D01*
X78392412Y-101886770D01*
X78274012Y-102138016D01*
X78206902Y-102407531D01*
X78193662Y-102684962D01*
X75936873Y-102684962D01*
X75943698Y-102541958D01*
X75902559Y-102267276D01*
X75808623Y-102005898D01*
X75744948Y-101886770D01*
X75503529Y-101818216D01*
X74708285Y-102613460D01*
X74349075Y-102613460D01*
X73553831Y-101818216D01*
X73312412Y-101886770D01*
X73194012Y-102138016D01*
X73126902Y-102407531D01*
X73113662Y-102684962D01*
X69912700Y-102684962D01*
X69912700Y-101048309D01*
X73733436Y-101048309D01*
X73801990Y-101289728D01*
X73908839Y-101340080D01*
X73801990Y-101397192D01*
X73733436Y-101638611D01*
X74528680Y-102433855D01*
X75323924Y-101638611D01*
X75255370Y-101397192D01*
X75148521Y-101346840D01*
X75255370Y-101289728D01*
X75323924Y-101048309D01*
X78813436Y-101048309D01*
X78881990Y-101289728D01*
X78988839Y-101340080D01*
X78881990Y-101397192D01*
X78813436Y-101638611D01*
X79608680Y-102433855D01*
X80351434Y-101691101D01*
X186574480Y-101691101D01*
X186574480Y-101894979D01*
X186614254Y-102094938D01*
X186692275Y-102283296D01*
X186805543Y-102452814D01*
X186949706Y-102596977D01*
X187119224Y-102710245D01*
X187307582Y-102788266D01*
X187507541Y-102828040D01*
X187711419Y-102828040D01*
X187911378Y-102788266D01*
X188099736Y-102710245D01*
X188269254Y-102596977D01*
X188413417Y-102452814D01*
X188526685Y-102283296D01*
X188604706Y-102094938D01*
X188644480Y-101894979D01*
X188644480Y-101691101D01*
X188604706Y-101491142D01*
X188526685Y-101302784D01*
X188431023Y-101159614D01*
X218155471Y-101159614D01*
X218330427Y-101491299D01*
X218732020Y-101697819D01*
X219166186Y-101822024D01*
X219616241Y-101859141D01*
X220064889Y-101807743D01*
X220494890Y-101669806D01*
X220828853Y-101491299D01*
X221003809Y-101159614D01*
X224755471Y-101159614D01*
X224930427Y-101491299D01*
X225332020Y-101697819D01*
X225766186Y-101822024D01*
X226216241Y-101859141D01*
X226664889Y-101807743D01*
X227094890Y-101669806D01*
X227428853Y-101491299D01*
X227603809Y-101159614D01*
X226179640Y-99735445D01*
X224755471Y-101159614D01*
X221003809Y-101159614D01*
X219579640Y-99735445D01*
X218155471Y-101159614D01*
X188431023Y-101159614D01*
X188413417Y-101133266D01*
X188269254Y-100989103D01*
X188099736Y-100875835D01*
X187911378Y-100797814D01*
X187711419Y-100758040D01*
X187507541Y-100758040D01*
X187307582Y-100797814D01*
X187119224Y-100875835D01*
X186949706Y-100989103D01*
X186805543Y-101133266D01*
X186692275Y-101302784D01*
X186614254Y-101491142D01*
X186574480Y-101691101D01*
X80351434Y-101691101D01*
X80403924Y-101638611D01*
X80335370Y-101397192D01*
X80228521Y-101346840D01*
X80335370Y-101289728D01*
X80403924Y-101048309D01*
X79608680Y-100253065D01*
X78813436Y-101048309D01*
X75323924Y-101048309D01*
X74528680Y-100253065D01*
X73733436Y-101048309D01*
X69912700Y-101048309D01*
X69912700Y-100144962D01*
X73113662Y-100144962D01*
X73154801Y-100419644D01*
X73248737Y-100681022D01*
X73312412Y-100800150D01*
X73553831Y-100868704D01*
X74349075Y-100073460D01*
X74708285Y-100073460D01*
X75503529Y-100868704D01*
X75744948Y-100800150D01*
X75863348Y-100548904D01*
X75930458Y-100279389D01*
X75936873Y-100144962D01*
X78193662Y-100144962D01*
X78234801Y-100419644D01*
X78328737Y-100681022D01*
X78392412Y-100800150D01*
X78633831Y-100868704D01*
X79429075Y-100073460D01*
X79788285Y-100073460D01*
X80583529Y-100868704D01*
X80824948Y-100800150D01*
X80943348Y-100548904D01*
X81010458Y-100279389D01*
X81023698Y-100001958D01*
X80982559Y-99727276D01*
X80888623Y-99465898D01*
X80824948Y-99346770D01*
X80583529Y-99278216D01*
X79788285Y-100073460D01*
X79429075Y-100073460D01*
X78633831Y-99278216D01*
X78392412Y-99346770D01*
X78274012Y-99598016D01*
X78206902Y-99867531D01*
X78193662Y-100144962D01*
X75936873Y-100144962D01*
X75943698Y-100001958D01*
X75902559Y-99727276D01*
X75808623Y-99465898D01*
X75744948Y-99346770D01*
X75503529Y-99278216D01*
X74708285Y-100073460D01*
X74349075Y-100073460D01*
X73553831Y-99278216D01*
X73312412Y-99346770D01*
X73194012Y-99598016D01*
X73126902Y-99867531D01*
X73113662Y-100144962D01*
X69912700Y-100144962D01*
X69912700Y-98508309D01*
X73733436Y-98508309D01*
X73801990Y-98749728D01*
X73908839Y-98800080D01*
X73801990Y-98857192D01*
X73733436Y-99098611D01*
X74528680Y-99893855D01*
X75323924Y-99098611D01*
X75255370Y-98857192D01*
X75148521Y-98806840D01*
X75255370Y-98749728D01*
X75323924Y-98508309D01*
X78813436Y-98508309D01*
X78881990Y-98749728D01*
X78988839Y-98800080D01*
X78881990Y-98857192D01*
X78813436Y-99098611D01*
X79608680Y-99893855D01*
X80403924Y-99098611D01*
X80335370Y-98857192D01*
X80306869Y-98843761D01*
X125431600Y-98843761D01*
X125431600Y-99047639D01*
X125471374Y-99247598D01*
X125549395Y-99435956D01*
X125662663Y-99605474D01*
X125806826Y-99749637D01*
X125976344Y-99862905D01*
X126164702Y-99940926D01*
X126364661Y-99980700D01*
X126568539Y-99980700D01*
X126768498Y-99940926D01*
X126956856Y-99862905D01*
X127126374Y-99749637D01*
X127270537Y-99605474D01*
X127383805Y-99435956D01*
X127461826Y-99247598D01*
X127501600Y-99047639D01*
X127501600Y-98843761D01*
X127461826Y-98643802D01*
X127383805Y-98455444D01*
X127270537Y-98285926D01*
X127126374Y-98141763D01*
X126956856Y-98028495D01*
X126768498Y-97950474D01*
X126568539Y-97910700D01*
X126364661Y-97910700D01*
X126164702Y-97950474D01*
X125976344Y-98028495D01*
X125806826Y-98141763D01*
X125662663Y-98285926D01*
X125549395Y-98455444D01*
X125471374Y-98643802D01*
X125431600Y-98843761D01*
X80306869Y-98843761D01*
X80228521Y-98806840D01*
X80335370Y-98749728D01*
X80403924Y-98508309D01*
X79608680Y-97713065D01*
X78813436Y-98508309D01*
X75323924Y-98508309D01*
X74528680Y-97713065D01*
X73733436Y-98508309D01*
X69912700Y-98508309D01*
X69912700Y-97604962D01*
X73113662Y-97604962D01*
X73154801Y-97879644D01*
X73248737Y-98141022D01*
X73312412Y-98260150D01*
X73553831Y-98328704D01*
X74349075Y-97533460D01*
X74708285Y-97533460D01*
X75503529Y-98328704D01*
X75744948Y-98260150D01*
X75863348Y-98008904D01*
X75930458Y-97739389D01*
X75936873Y-97604962D01*
X78193662Y-97604962D01*
X78234801Y-97879644D01*
X78328737Y-98141022D01*
X78392412Y-98260150D01*
X78633831Y-98328704D01*
X79429075Y-97533460D01*
X79788285Y-97533460D01*
X80583529Y-98328704D01*
X80824948Y-98260150D01*
X80943348Y-98008904D01*
X80989100Y-97825160D01*
X206124568Y-97825160D01*
X206124568Y-99525160D01*
X206136828Y-99649642D01*
X206173138Y-99769340D01*
X206232103Y-99879654D01*
X206311455Y-99976345D01*
X206408146Y-100055697D01*
X206518460Y-100114662D01*
X206638158Y-100150972D01*
X206762640Y-100163232D01*
X208462640Y-100163232D01*
X208587122Y-100150972D01*
X208706820Y-100114662D01*
X208817134Y-100055697D01*
X208913825Y-99976345D01*
X208993177Y-99879654D01*
X209052142Y-99769340D01*
X209088452Y-99649642D01*
X209094085Y-99592441D01*
X217276339Y-99592441D01*
X217327737Y-100041089D01*
X217465674Y-100471090D01*
X217644181Y-100805053D01*
X217975866Y-100980009D01*
X219400035Y-99555840D01*
X219759245Y-99555840D01*
X221183414Y-100980009D01*
X221515099Y-100805053D01*
X221721619Y-100403460D01*
X221845824Y-99969294D01*
X221876903Y-99592441D01*
X223876339Y-99592441D01*
X223927737Y-100041089D01*
X224065674Y-100471090D01*
X224244181Y-100805053D01*
X224575866Y-100980009D01*
X226000035Y-99555840D01*
X226359245Y-99555840D01*
X227783414Y-100980009D01*
X228115099Y-100805053D01*
X228321619Y-100403460D01*
X228445824Y-99969294D01*
X228482941Y-99519239D01*
X228431543Y-99070591D01*
X228293606Y-98640590D01*
X228115099Y-98306627D01*
X227783414Y-98131671D01*
X226359245Y-99555840D01*
X226000035Y-99555840D01*
X224575866Y-98131671D01*
X224244181Y-98306627D01*
X224037661Y-98708220D01*
X223913456Y-99142386D01*
X223876339Y-99592441D01*
X221876903Y-99592441D01*
X221882941Y-99519239D01*
X221831543Y-99070591D01*
X221693606Y-98640590D01*
X221515099Y-98306627D01*
X221183414Y-98131671D01*
X219759245Y-99555840D01*
X219400035Y-99555840D01*
X217975866Y-98131671D01*
X217644181Y-98306627D01*
X217437661Y-98708220D01*
X217313456Y-99142386D01*
X217276339Y-99592441D01*
X209094085Y-99592441D01*
X209100712Y-99525160D01*
X209100712Y-97952066D01*
X218155471Y-97952066D01*
X219579640Y-99376235D01*
X221003809Y-97952066D01*
X224755471Y-97952066D01*
X226179640Y-99376235D01*
X227603809Y-97952066D01*
X227428853Y-97620381D01*
X227027260Y-97413861D01*
X226593094Y-97289656D01*
X226143039Y-97252539D01*
X225694391Y-97303937D01*
X225264390Y-97441874D01*
X224930427Y-97620381D01*
X224755471Y-97952066D01*
X221003809Y-97952066D01*
X220828853Y-97620381D01*
X220427260Y-97413861D01*
X219993094Y-97289656D01*
X219543039Y-97252539D01*
X219094391Y-97303937D01*
X218664390Y-97441874D01*
X218330427Y-97620381D01*
X218155471Y-97952066D01*
X209100712Y-97952066D01*
X209100712Y-97825160D01*
X209088452Y-97700678D01*
X209052142Y-97580980D01*
X208993177Y-97470666D01*
X208913825Y-97373975D01*
X208817134Y-97294623D01*
X208706820Y-97235658D01*
X208634260Y-97213647D01*
X208766115Y-97081792D01*
X208928630Y-96838571D01*
X209040572Y-96568318D01*
X209097640Y-96281420D01*
X209097640Y-96099485D01*
X221292140Y-96099485D01*
X221292140Y-96412195D01*
X221353147Y-96718897D01*
X221472816Y-97007803D01*
X221646548Y-97267812D01*
X221867668Y-97488932D01*
X222127677Y-97662664D01*
X222416583Y-97782333D01*
X222723285Y-97843340D01*
X223035995Y-97843340D01*
X223342697Y-97782333D01*
X223631603Y-97662664D01*
X223891612Y-97488932D01*
X224112732Y-97267812D01*
X224286464Y-97007803D01*
X224406133Y-96718897D01*
X224467140Y-96412195D01*
X224467140Y-96099485D01*
X224406133Y-95792783D01*
X224286464Y-95503877D01*
X224112732Y-95243868D01*
X223891612Y-95022748D01*
X223631603Y-94849016D01*
X223342697Y-94729347D01*
X223035995Y-94668340D01*
X222723285Y-94668340D01*
X222416583Y-94729347D01*
X222127677Y-94849016D01*
X221867668Y-95022748D01*
X221646548Y-95243868D01*
X221472816Y-95503877D01*
X221353147Y-95792783D01*
X221292140Y-96099485D01*
X209097640Y-96099485D01*
X209097640Y-95988900D01*
X209040572Y-95702002D01*
X208928630Y-95431749D01*
X208766115Y-95188528D01*
X208559272Y-94981685D01*
X208384880Y-94865160D01*
X208559272Y-94748635D01*
X208748293Y-94559614D01*
X218155471Y-94559614D01*
X218330427Y-94891299D01*
X218732020Y-95097819D01*
X219166186Y-95222024D01*
X219616241Y-95259141D01*
X220064889Y-95207743D01*
X220494890Y-95069806D01*
X220828853Y-94891299D01*
X221003809Y-94559614D01*
X224755471Y-94559614D01*
X224930427Y-94891299D01*
X225332020Y-95097819D01*
X225766186Y-95222024D01*
X226216241Y-95259141D01*
X226664889Y-95207743D01*
X227094890Y-95069806D01*
X227428853Y-94891299D01*
X227603809Y-94559614D01*
X226179640Y-93135445D01*
X224755471Y-94559614D01*
X221003809Y-94559614D01*
X219579640Y-93135445D01*
X218155471Y-94559614D01*
X208748293Y-94559614D01*
X208766115Y-94541792D01*
X208928630Y-94298571D01*
X209040572Y-94028318D01*
X209097640Y-93741420D01*
X209097640Y-93448900D01*
X209040572Y-93162002D01*
X208970338Y-92992441D01*
X217276339Y-92992441D01*
X217327737Y-93441089D01*
X217465674Y-93871090D01*
X217644181Y-94205053D01*
X217975866Y-94380009D01*
X219400035Y-92955840D01*
X219759245Y-92955840D01*
X221183414Y-94380009D01*
X221515099Y-94205053D01*
X221721619Y-93803460D01*
X221845824Y-93369294D01*
X221876903Y-92992441D01*
X223876339Y-92992441D01*
X223927737Y-93441089D01*
X224065674Y-93871090D01*
X224244181Y-94205053D01*
X224575866Y-94380009D01*
X226000035Y-92955840D01*
X226359245Y-92955840D01*
X227783414Y-94380009D01*
X228115099Y-94205053D01*
X228321619Y-93803460D01*
X228445824Y-93369294D01*
X228482941Y-92919239D01*
X228431543Y-92470591D01*
X228293606Y-92040590D01*
X228115099Y-91706627D01*
X227783414Y-91531671D01*
X226359245Y-92955840D01*
X226000035Y-92955840D01*
X224575866Y-91531671D01*
X224244181Y-91706627D01*
X224037661Y-92108220D01*
X223913456Y-92542386D01*
X223876339Y-92992441D01*
X221876903Y-92992441D01*
X221882941Y-92919239D01*
X221831543Y-92470591D01*
X221693606Y-92040590D01*
X221515099Y-91706627D01*
X221183414Y-91531671D01*
X219759245Y-92955840D01*
X219400035Y-92955840D01*
X217975866Y-91531671D01*
X217644181Y-91706627D01*
X217437661Y-92108220D01*
X217313456Y-92542386D01*
X217276339Y-92992441D01*
X208970338Y-92992441D01*
X208928630Y-92891749D01*
X208766115Y-92648528D01*
X208559272Y-92441685D01*
X208316051Y-92279170D01*
X208045798Y-92167228D01*
X207758900Y-92110160D01*
X207466380Y-92110160D01*
X207179482Y-92167228D01*
X206909229Y-92279170D01*
X206666008Y-92441685D01*
X206459165Y-92648528D01*
X206296650Y-92891749D01*
X206184708Y-93162002D01*
X206127640Y-93448900D01*
X206127640Y-93741420D01*
X206184708Y-94028318D01*
X206296650Y-94298571D01*
X206459165Y-94541792D01*
X206666008Y-94748635D01*
X206840400Y-94865160D01*
X206666008Y-94981685D01*
X206459165Y-95188528D01*
X206296650Y-95431749D01*
X206184708Y-95702002D01*
X206127640Y-95988900D01*
X206127640Y-96281420D01*
X206184708Y-96568318D01*
X206296650Y-96838571D01*
X206459165Y-97081792D01*
X206591020Y-97213647D01*
X206518460Y-97235658D01*
X206408146Y-97294623D01*
X206311455Y-97373975D01*
X206232103Y-97470666D01*
X206173138Y-97580980D01*
X206136828Y-97700678D01*
X206124568Y-97825160D01*
X80989100Y-97825160D01*
X81010458Y-97739389D01*
X81023698Y-97461958D01*
X80982559Y-97187276D01*
X80888623Y-96925898D01*
X80824948Y-96806770D01*
X80583529Y-96738216D01*
X79788285Y-97533460D01*
X79429075Y-97533460D01*
X78633831Y-96738216D01*
X78392412Y-96806770D01*
X78274012Y-97058016D01*
X78206902Y-97327531D01*
X78193662Y-97604962D01*
X75936873Y-97604962D01*
X75943698Y-97461958D01*
X75902559Y-97187276D01*
X75808623Y-96925898D01*
X75744948Y-96806770D01*
X75503529Y-96738216D01*
X74708285Y-97533460D01*
X74349075Y-97533460D01*
X73553831Y-96738216D01*
X73312412Y-96806770D01*
X73194012Y-97058016D01*
X73126902Y-97327531D01*
X73113662Y-97604962D01*
X69912700Y-97604962D01*
X69912700Y-95968309D01*
X73733436Y-95968309D01*
X73801990Y-96209728D01*
X73908839Y-96260080D01*
X73801990Y-96317192D01*
X73733436Y-96558611D01*
X74528680Y-97353855D01*
X75323924Y-96558611D01*
X75255370Y-96317192D01*
X75148521Y-96266840D01*
X75255370Y-96209728D01*
X75323924Y-95968309D01*
X78813436Y-95968309D01*
X78881990Y-96209728D01*
X78988839Y-96260080D01*
X78881990Y-96317192D01*
X78813436Y-96558611D01*
X79608680Y-97353855D01*
X80403924Y-96558611D01*
X80335370Y-96317192D01*
X80228521Y-96266840D01*
X80335370Y-96209728D01*
X80403924Y-95968309D01*
X79608680Y-95173065D01*
X78813436Y-95968309D01*
X75323924Y-95968309D01*
X74528680Y-95173065D01*
X73733436Y-95968309D01*
X69912700Y-95968309D01*
X69912700Y-95064962D01*
X73113662Y-95064962D01*
X73154801Y-95339644D01*
X73248737Y-95601022D01*
X73312412Y-95720150D01*
X73553831Y-95788704D01*
X74349075Y-94993460D01*
X74708285Y-94993460D01*
X75503529Y-95788704D01*
X75744948Y-95720150D01*
X75863348Y-95468904D01*
X75930458Y-95199389D01*
X75936873Y-95064962D01*
X78193662Y-95064962D01*
X78234801Y-95339644D01*
X78328737Y-95601022D01*
X78392412Y-95720150D01*
X78633831Y-95788704D01*
X79429075Y-94993460D01*
X79788285Y-94993460D01*
X80583529Y-95788704D01*
X80824948Y-95720150D01*
X80943348Y-95468904D01*
X81010458Y-95199389D01*
X81023698Y-94921958D01*
X80982559Y-94647276D01*
X80888623Y-94385898D01*
X80824948Y-94266770D01*
X80583529Y-94198216D01*
X79788285Y-94993460D01*
X79429075Y-94993460D01*
X78633831Y-94198216D01*
X78392412Y-94266770D01*
X78274012Y-94518016D01*
X78206902Y-94787531D01*
X78193662Y-95064962D01*
X75936873Y-95064962D01*
X75943698Y-94921958D01*
X75902559Y-94647276D01*
X75808623Y-94385898D01*
X75744948Y-94266770D01*
X75503529Y-94198216D01*
X74708285Y-94993460D01*
X74349075Y-94993460D01*
X73553831Y-94198216D01*
X73312412Y-94266770D01*
X73194012Y-94518016D01*
X73126902Y-94787531D01*
X73113662Y-95064962D01*
X69912700Y-95064962D01*
X69912700Y-93428309D01*
X73733436Y-93428309D01*
X73801990Y-93669728D01*
X73908839Y-93720080D01*
X73801990Y-93777192D01*
X73733436Y-94018611D01*
X74528680Y-94813855D01*
X75323924Y-94018611D01*
X75255370Y-93777192D01*
X75148521Y-93726840D01*
X75255370Y-93669728D01*
X75323924Y-93428309D01*
X78813436Y-93428309D01*
X78881990Y-93669728D01*
X78988839Y-93720080D01*
X78881990Y-93777192D01*
X78813436Y-94018611D01*
X79608680Y-94813855D01*
X80371754Y-94050781D01*
X179856180Y-94050781D01*
X179856180Y-94254659D01*
X179895954Y-94454618D01*
X179973975Y-94642976D01*
X180087243Y-94812494D01*
X180231406Y-94956657D01*
X180400924Y-95069925D01*
X180589282Y-95147946D01*
X180789241Y-95187720D01*
X180993119Y-95187720D01*
X181193078Y-95147946D01*
X181381436Y-95069925D01*
X181550954Y-94956657D01*
X181695117Y-94812494D01*
X181808385Y-94642976D01*
X181886406Y-94454618D01*
X181926180Y-94254659D01*
X181926180Y-94050781D01*
X181886406Y-93850822D01*
X181808385Y-93662464D01*
X181695117Y-93492946D01*
X181550954Y-93348783D01*
X181381436Y-93235515D01*
X181193078Y-93157494D01*
X180993119Y-93117720D01*
X180789241Y-93117720D01*
X180589282Y-93157494D01*
X180400924Y-93235515D01*
X180231406Y-93348783D01*
X180087243Y-93492946D01*
X179973975Y-93662464D01*
X179895954Y-93850822D01*
X179856180Y-94050781D01*
X80371754Y-94050781D01*
X80403924Y-94018611D01*
X80335370Y-93777192D01*
X80228521Y-93726840D01*
X80335370Y-93669728D01*
X80403924Y-93428309D01*
X79608680Y-92633065D01*
X78813436Y-93428309D01*
X75323924Y-93428309D01*
X74528680Y-92633065D01*
X73733436Y-93428309D01*
X69912700Y-93428309D01*
X69912700Y-92524962D01*
X73113662Y-92524962D01*
X73154801Y-92799644D01*
X73248737Y-93061022D01*
X73312412Y-93180150D01*
X73553831Y-93248704D01*
X74349075Y-92453460D01*
X74708285Y-92453460D01*
X75503529Y-93248704D01*
X75744948Y-93180150D01*
X75863348Y-92928904D01*
X75930458Y-92659389D01*
X75936873Y-92524962D01*
X78193662Y-92524962D01*
X78234801Y-92799644D01*
X78328737Y-93061022D01*
X78392412Y-93180150D01*
X78633831Y-93248704D01*
X79429075Y-92453460D01*
X79788285Y-92453460D01*
X80583529Y-93248704D01*
X80824948Y-93180150D01*
X80943348Y-92928904D01*
X81010458Y-92659389D01*
X81023698Y-92381958D01*
X80982559Y-92107276D01*
X80888623Y-91845898D01*
X80824948Y-91726770D01*
X80583529Y-91658216D01*
X79788285Y-92453460D01*
X79429075Y-92453460D01*
X78633831Y-91658216D01*
X78392412Y-91726770D01*
X78274012Y-91978016D01*
X78206902Y-92247531D01*
X78193662Y-92524962D01*
X75936873Y-92524962D01*
X75943698Y-92381958D01*
X75902559Y-92107276D01*
X75808623Y-91845898D01*
X75744948Y-91726770D01*
X75503529Y-91658216D01*
X74708285Y-92453460D01*
X74349075Y-92453460D01*
X73553831Y-91658216D01*
X73312412Y-91726770D01*
X73194012Y-91978016D01*
X73126902Y-92247531D01*
X73113662Y-92524962D01*
X69912700Y-92524962D01*
X69912700Y-90888309D01*
X73733436Y-90888309D01*
X73801990Y-91129728D01*
X73908839Y-91180080D01*
X73801990Y-91237192D01*
X73733436Y-91478611D01*
X74528680Y-92273855D01*
X75323924Y-91478611D01*
X75255370Y-91237192D01*
X75148521Y-91186840D01*
X75255370Y-91129728D01*
X75323924Y-90888309D01*
X74528680Y-90093065D01*
X73733436Y-90888309D01*
X69912700Y-90888309D01*
X69912700Y-89984962D01*
X73113662Y-89984962D01*
X73154801Y-90259644D01*
X73248737Y-90521022D01*
X73312412Y-90640150D01*
X73553831Y-90708704D01*
X74349075Y-89913460D01*
X74708285Y-89913460D01*
X75503529Y-90708704D01*
X75744948Y-90640150D01*
X75863348Y-90388904D01*
X75930458Y-90119389D01*
X75943698Y-89841958D01*
X75933608Y-89774587D01*
X78198680Y-89774587D01*
X78198680Y-90052333D01*
X78252866Y-90324742D01*
X78359155Y-90581345D01*
X78513462Y-90812282D01*
X78709858Y-91008678D01*
X78940795Y-91162985D01*
X78985882Y-91181661D01*
X78881990Y-91237192D01*
X78813436Y-91478611D01*
X79608680Y-92273855D01*
X80403924Y-91478611D01*
X80335370Y-91237192D01*
X80224056Y-91184735D01*
X80276565Y-91162985D01*
X80507502Y-91008678D01*
X80642939Y-90873241D01*
X177849580Y-90873241D01*
X177849580Y-91077119D01*
X177889354Y-91277078D01*
X177967375Y-91465436D01*
X178080643Y-91634954D01*
X178224806Y-91779117D01*
X178394324Y-91892385D01*
X178582682Y-91970406D01*
X178782641Y-92010180D01*
X178986519Y-92010180D01*
X179186478Y-91970406D01*
X179374836Y-91892385D01*
X179544354Y-91779117D01*
X179688517Y-91634954D01*
X179801785Y-91465436D01*
X179848744Y-91352066D01*
X218155471Y-91352066D01*
X219579640Y-92776235D01*
X221003809Y-91352066D01*
X224755471Y-91352066D01*
X226179640Y-92776235D01*
X227603809Y-91352066D01*
X227428853Y-91020381D01*
X227027260Y-90813861D01*
X226593094Y-90689656D01*
X226143039Y-90652539D01*
X225694391Y-90703937D01*
X225264390Y-90841874D01*
X224930427Y-91020381D01*
X224755471Y-91352066D01*
X221003809Y-91352066D01*
X220828853Y-91020381D01*
X220427260Y-90813861D01*
X219993094Y-90689656D01*
X219543039Y-90652539D01*
X219094391Y-90703937D01*
X218664390Y-90841874D01*
X218330427Y-91020381D01*
X218155471Y-91352066D01*
X179848744Y-91352066D01*
X179879806Y-91277078D01*
X179919580Y-91077119D01*
X179919580Y-90873241D01*
X179879806Y-90673282D01*
X179801785Y-90484924D01*
X179688517Y-90315406D01*
X179544354Y-90171243D01*
X179374836Y-90057975D01*
X179186478Y-89979954D01*
X178986519Y-89940180D01*
X178782641Y-89940180D01*
X178582682Y-89979954D01*
X178394324Y-90057975D01*
X178224806Y-90171243D01*
X178080643Y-90315406D01*
X177967375Y-90484924D01*
X177889354Y-90673282D01*
X177849580Y-90873241D01*
X80642939Y-90873241D01*
X80703898Y-90812282D01*
X80858205Y-90581345D01*
X80964494Y-90324742D01*
X81018680Y-90052333D01*
X81018680Y-89774587D01*
X80964494Y-89502178D01*
X80858205Y-89245575D01*
X80703898Y-89014638D01*
X80507502Y-88818242D01*
X80276565Y-88663935D01*
X80231478Y-88645259D01*
X80335370Y-88589728D01*
X80403924Y-88348309D01*
X79608680Y-87553065D01*
X78813436Y-88348309D01*
X78881990Y-88589728D01*
X78993304Y-88642185D01*
X78940795Y-88663935D01*
X78709858Y-88818242D01*
X78513462Y-89014638D01*
X78359155Y-89245575D01*
X78252866Y-89502178D01*
X78198680Y-89774587D01*
X75933608Y-89774587D01*
X75902559Y-89567276D01*
X75808623Y-89305898D01*
X75744948Y-89186770D01*
X75503529Y-89118216D01*
X74708285Y-89913460D01*
X74349075Y-89913460D01*
X73553831Y-89118216D01*
X73312412Y-89186770D01*
X73194012Y-89438016D01*
X73126902Y-89707531D01*
X73113662Y-89984962D01*
X69912700Y-89984962D01*
X69912700Y-88348309D01*
X73733436Y-88348309D01*
X73801990Y-88589728D01*
X73908839Y-88640080D01*
X73801990Y-88697192D01*
X73733436Y-88938611D01*
X74528680Y-89733855D01*
X75323924Y-88938611D01*
X75255370Y-88697192D01*
X75148521Y-88646840D01*
X75255370Y-88589728D01*
X75323924Y-88348309D01*
X74528680Y-87553065D01*
X73733436Y-88348309D01*
X69912700Y-88348309D01*
X69912700Y-87444962D01*
X73113662Y-87444962D01*
X73154801Y-87719644D01*
X73248737Y-87981022D01*
X73312412Y-88100150D01*
X73553831Y-88168704D01*
X74349075Y-87373460D01*
X74708285Y-87373460D01*
X75503529Y-88168704D01*
X75744948Y-88100150D01*
X75863348Y-87848904D01*
X75930458Y-87579389D01*
X75936873Y-87444962D01*
X78193662Y-87444962D01*
X78234801Y-87719644D01*
X78328737Y-87981022D01*
X78392412Y-88100150D01*
X78633831Y-88168704D01*
X79429075Y-87373460D01*
X79788285Y-87373460D01*
X80583529Y-88168704D01*
X80824948Y-88100150D01*
X80941332Y-87853181D01*
X187232340Y-87853181D01*
X187232340Y-88057059D01*
X187272114Y-88257018D01*
X187350135Y-88445376D01*
X187463403Y-88614894D01*
X187607566Y-88759057D01*
X187777084Y-88872325D01*
X187965442Y-88950346D01*
X188165401Y-88990120D01*
X188369279Y-88990120D01*
X188569238Y-88950346D01*
X188757596Y-88872325D01*
X188927114Y-88759057D01*
X189071277Y-88614894D01*
X189184545Y-88445376D01*
X189262566Y-88257018D01*
X189302340Y-88057059D01*
X189302340Y-87853181D01*
X189262566Y-87653222D01*
X189184545Y-87464864D01*
X189071277Y-87295346D01*
X188927114Y-87151183D01*
X188757596Y-87037915D01*
X188569238Y-86959894D01*
X188369279Y-86920120D01*
X188165401Y-86920120D01*
X187965442Y-86959894D01*
X187777084Y-87037915D01*
X187607566Y-87151183D01*
X187463403Y-87295346D01*
X187350135Y-87464864D01*
X187272114Y-87653222D01*
X187232340Y-87853181D01*
X80941332Y-87853181D01*
X80943348Y-87848904D01*
X81010458Y-87579389D01*
X81023698Y-87301958D01*
X80982559Y-87027276D01*
X80888623Y-86765898D01*
X80824948Y-86646770D01*
X80583529Y-86578216D01*
X79788285Y-87373460D01*
X79429075Y-87373460D01*
X78633831Y-86578216D01*
X78392412Y-86646770D01*
X78274012Y-86898016D01*
X78206902Y-87167531D01*
X78193662Y-87444962D01*
X75936873Y-87444962D01*
X75943698Y-87301958D01*
X75902559Y-87027276D01*
X75808623Y-86765898D01*
X75744948Y-86646770D01*
X75503529Y-86578216D01*
X74708285Y-87373460D01*
X74349075Y-87373460D01*
X73553831Y-86578216D01*
X73312412Y-86646770D01*
X73194012Y-86898016D01*
X73126902Y-87167531D01*
X73113662Y-87444962D01*
X69912700Y-87444962D01*
X69912700Y-85808309D01*
X73733436Y-85808309D01*
X73801990Y-86049728D01*
X73908839Y-86100080D01*
X73801990Y-86157192D01*
X73733436Y-86398611D01*
X74528680Y-87193855D01*
X75323924Y-86398611D01*
X75255370Y-86157192D01*
X75148521Y-86106840D01*
X75255370Y-86049728D01*
X75323924Y-85808309D01*
X74528680Y-85013065D01*
X73733436Y-85808309D01*
X69912700Y-85808309D01*
X69912700Y-84904962D01*
X73113662Y-84904962D01*
X73154801Y-85179644D01*
X73248737Y-85441022D01*
X73312412Y-85560150D01*
X73553831Y-85628704D01*
X74349075Y-84833460D01*
X74708285Y-84833460D01*
X75503529Y-85628704D01*
X75744948Y-85560150D01*
X75863348Y-85308904D01*
X75930458Y-85039389D01*
X75943698Y-84761958D01*
X75933608Y-84694587D01*
X78198680Y-84694587D01*
X78198680Y-84972333D01*
X78252866Y-85244742D01*
X78359155Y-85501345D01*
X78513462Y-85732282D01*
X78709858Y-85928678D01*
X78940795Y-86082985D01*
X78985882Y-86101661D01*
X78881990Y-86157192D01*
X78813436Y-86398611D01*
X79608680Y-87193855D01*
X80403924Y-86398611D01*
X80335370Y-86157192D01*
X80224056Y-86104735D01*
X80276565Y-86082985D01*
X80507502Y-85928678D01*
X80703898Y-85732282D01*
X80858205Y-85501345D01*
X80964494Y-85244742D01*
X81018680Y-84972333D01*
X81018680Y-84694587D01*
X80964494Y-84422178D01*
X80858205Y-84165575D01*
X80703898Y-83934638D01*
X80507502Y-83738242D01*
X80389868Y-83659641D01*
X125050600Y-83659641D01*
X125050600Y-83863519D01*
X125090374Y-84063478D01*
X125168395Y-84251836D01*
X125281663Y-84421354D01*
X125425826Y-84565517D01*
X125595344Y-84678785D01*
X125783702Y-84756806D01*
X125983661Y-84796580D01*
X126187539Y-84796580D01*
X126387498Y-84756806D01*
X126575856Y-84678785D01*
X126745374Y-84565517D01*
X126889537Y-84421354D01*
X127002805Y-84251836D01*
X127080826Y-84063478D01*
X127120600Y-83863519D01*
X127120600Y-83659641D01*
X127080826Y-83459682D01*
X127002805Y-83271324D01*
X126889537Y-83101806D01*
X126759032Y-82971301D01*
X136770160Y-82971301D01*
X136770160Y-83175179D01*
X136809934Y-83375138D01*
X136887955Y-83563496D01*
X137001223Y-83733014D01*
X137145386Y-83877177D01*
X137314904Y-83990445D01*
X137503262Y-84068466D01*
X137703221Y-84108240D01*
X137907099Y-84108240D01*
X138107058Y-84068466D01*
X138295416Y-83990445D01*
X138464934Y-83877177D01*
X138609097Y-83733014D01*
X138722365Y-83563496D01*
X138800386Y-83375138D01*
X138814527Y-83304041D01*
X187107880Y-83304041D01*
X187107880Y-83507919D01*
X187147654Y-83707878D01*
X187225675Y-83896236D01*
X187338943Y-84065754D01*
X187483106Y-84209917D01*
X187652624Y-84323185D01*
X187840982Y-84401206D01*
X188040941Y-84440980D01*
X188244819Y-84440980D01*
X188444778Y-84401206D01*
X188633136Y-84323185D01*
X188802654Y-84209917D01*
X188946817Y-84065754D01*
X189060085Y-83896236D01*
X189138106Y-83707878D01*
X189177880Y-83507919D01*
X189177880Y-83304041D01*
X189138106Y-83104082D01*
X189060085Y-82915724D01*
X188946817Y-82746206D01*
X188802654Y-82602043D01*
X188633136Y-82488775D01*
X188444778Y-82410754D01*
X188244819Y-82370980D01*
X188040941Y-82370980D01*
X187840982Y-82410754D01*
X187652624Y-82488775D01*
X187483106Y-82602043D01*
X187338943Y-82746206D01*
X187225675Y-82915724D01*
X187147654Y-83104082D01*
X187107880Y-83304041D01*
X138814527Y-83304041D01*
X138840160Y-83175179D01*
X138840160Y-82971301D01*
X138800386Y-82771342D01*
X138722365Y-82582984D01*
X138609097Y-82413466D01*
X138464934Y-82269303D01*
X138295416Y-82156035D01*
X138107058Y-82078014D01*
X137907099Y-82038240D01*
X137703221Y-82038240D01*
X137503262Y-82078014D01*
X137314904Y-82156035D01*
X137145386Y-82269303D01*
X137001223Y-82413466D01*
X136887955Y-82582984D01*
X136809934Y-82771342D01*
X136770160Y-82971301D01*
X126759032Y-82971301D01*
X126745374Y-82957643D01*
X126575856Y-82844375D01*
X126387498Y-82766354D01*
X126187539Y-82726580D01*
X125983661Y-82726580D01*
X125783702Y-82766354D01*
X125595344Y-82844375D01*
X125425826Y-82957643D01*
X125281663Y-83101806D01*
X125168395Y-83271324D01*
X125090374Y-83459682D01*
X125050600Y-83659641D01*
X80389868Y-83659641D01*
X80276565Y-83583935D01*
X80231478Y-83565259D01*
X80335370Y-83509728D01*
X80403924Y-83268309D01*
X79608680Y-82473065D01*
X78813436Y-83268309D01*
X78881990Y-83509728D01*
X78993304Y-83562185D01*
X78940795Y-83583935D01*
X78709858Y-83738242D01*
X78513462Y-83934638D01*
X78359155Y-84165575D01*
X78252866Y-84422178D01*
X78198680Y-84694587D01*
X75933608Y-84694587D01*
X75902559Y-84487276D01*
X75808623Y-84225898D01*
X75744948Y-84106770D01*
X75503529Y-84038216D01*
X74708285Y-84833460D01*
X74349075Y-84833460D01*
X73553831Y-84038216D01*
X73312412Y-84106770D01*
X73194012Y-84358016D01*
X73126902Y-84627531D01*
X73113662Y-84904962D01*
X69912700Y-84904962D01*
X69912700Y-83268309D01*
X73733436Y-83268309D01*
X73801990Y-83509728D01*
X73908839Y-83560080D01*
X73801990Y-83617192D01*
X73733436Y-83858611D01*
X74528680Y-84653855D01*
X75323924Y-83858611D01*
X75255370Y-83617192D01*
X75148521Y-83566840D01*
X75255370Y-83509728D01*
X75323924Y-83268309D01*
X74528680Y-82473065D01*
X73733436Y-83268309D01*
X69912700Y-83268309D01*
X69912700Y-82364962D01*
X73113662Y-82364962D01*
X73154801Y-82639644D01*
X73248737Y-82901022D01*
X73312412Y-83020150D01*
X73553831Y-83088704D01*
X74349075Y-82293460D01*
X74708285Y-82293460D01*
X75503529Y-83088704D01*
X75744948Y-83020150D01*
X75863348Y-82768904D01*
X75930458Y-82499389D01*
X75936873Y-82364962D01*
X78193662Y-82364962D01*
X78234801Y-82639644D01*
X78328737Y-82901022D01*
X78392412Y-83020150D01*
X78633831Y-83088704D01*
X79429075Y-82293460D01*
X79788285Y-82293460D01*
X80583529Y-83088704D01*
X80824948Y-83020150D01*
X80943348Y-82768904D01*
X81010458Y-82499389D01*
X81023698Y-82221958D01*
X80982559Y-81947276D01*
X80888623Y-81685898D01*
X80824948Y-81566770D01*
X80583529Y-81498216D01*
X79788285Y-82293460D01*
X79429075Y-82293460D01*
X78633831Y-81498216D01*
X78392412Y-81566770D01*
X78274012Y-81818016D01*
X78206902Y-82087531D01*
X78193662Y-82364962D01*
X75936873Y-82364962D01*
X75943698Y-82221958D01*
X75902559Y-81947276D01*
X75808623Y-81685898D01*
X75744948Y-81566770D01*
X75503529Y-81498216D01*
X74708285Y-82293460D01*
X74349075Y-82293460D01*
X73553831Y-81498216D01*
X73312412Y-81566770D01*
X73194012Y-81818016D01*
X73126902Y-82087531D01*
X73113662Y-82364962D01*
X69912700Y-82364962D01*
X69912700Y-80728309D01*
X73733436Y-80728309D01*
X73801990Y-80969728D01*
X73908839Y-81020080D01*
X73801990Y-81077192D01*
X73733436Y-81318611D01*
X74528680Y-82113855D01*
X75323924Y-81318611D01*
X75255370Y-81077192D01*
X75148521Y-81026840D01*
X75255370Y-80969728D01*
X75323924Y-80728309D01*
X74528680Y-79933065D01*
X73733436Y-80728309D01*
X69912700Y-80728309D01*
X69912700Y-79824962D01*
X73113662Y-79824962D01*
X73154801Y-80099644D01*
X73248737Y-80361022D01*
X73312412Y-80480150D01*
X73553831Y-80548704D01*
X74349075Y-79753460D01*
X74708285Y-79753460D01*
X75503529Y-80548704D01*
X75744948Y-80480150D01*
X75863348Y-80228904D01*
X75930458Y-79959389D01*
X75943698Y-79681958D01*
X75933608Y-79614587D01*
X78198680Y-79614587D01*
X78198680Y-79892333D01*
X78252866Y-80164742D01*
X78359155Y-80421345D01*
X78513462Y-80652282D01*
X78709858Y-80848678D01*
X78940795Y-81002985D01*
X78985882Y-81021661D01*
X78881990Y-81077192D01*
X78813436Y-81318611D01*
X79608680Y-82113855D01*
X80403924Y-81318611D01*
X80335370Y-81077192D01*
X80224056Y-81024735D01*
X80276565Y-81002985D01*
X80507502Y-80848678D01*
X80703898Y-80652282D01*
X80858205Y-80421345D01*
X80886696Y-80352561D01*
X179617420Y-80352561D01*
X179617420Y-80556439D01*
X179657194Y-80756398D01*
X179735215Y-80944756D01*
X179848483Y-81114274D01*
X179992646Y-81258437D01*
X180162164Y-81371705D01*
X180350522Y-81449726D01*
X180550481Y-81489500D01*
X180754359Y-81489500D01*
X180954318Y-81449726D01*
X181142676Y-81371705D01*
X181312194Y-81258437D01*
X181456357Y-81114274D01*
X181569625Y-80944756D01*
X181647646Y-80756398D01*
X181687420Y-80556439D01*
X181687420Y-80352561D01*
X181647646Y-80152602D01*
X181569625Y-79964244D01*
X181456357Y-79794726D01*
X181312194Y-79650563D01*
X181142676Y-79537295D01*
X180954318Y-79459274D01*
X180754359Y-79419500D01*
X180550481Y-79419500D01*
X180350522Y-79459274D01*
X180162164Y-79537295D01*
X179992646Y-79650563D01*
X179848483Y-79794726D01*
X179735215Y-79964244D01*
X179657194Y-80152602D01*
X179617420Y-80352561D01*
X80886696Y-80352561D01*
X80964494Y-80164742D01*
X81018680Y-79892333D01*
X81018680Y-79614587D01*
X80964494Y-79342178D01*
X80858205Y-79085575D01*
X80703898Y-78854638D01*
X80507502Y-78658242D01*
X80276565Y-78503935D01*
X80231478Y-78485259D01*
X80335370Y-78429728D01*
X80403924Y-78188309D01*
X79608680Y-77393065D01*
X78813436Y-78188309D01*
X78881990Y-78429728D01*
X78993304Y-78482185D01*
X78940795Y-78503935D01*
X78709858Y-78658242D01*
X78513462Y-78854638D01*
X78359155Y-79085575D01*
X78252866Y-79342178D01*
X78198680Y-79614587D01*
X75933608Y-79614587D01*
X75902559Y-79407276D01*
X75808623Y-79145898D01*
X75744948Y-79026770D01*
X75503529Y-78958216D01*
X74708285Y-79753460D01*
X74349075Y-79753460D01*
X73553831Y-78958216D01*
X73312412Y-79026770D01*
X73194012Y-79278016D01*
X73126902Y-79547531D01*
X73113662Y-79824962D01*
X69912700Y-79824962D01*
X69912700Y-78188309D01*
X73733436Y-78188309D01*
X73801990Y-78429728D01*
X73908839Y-78480080D01*
X73801990Y-78537192D01*
X73733436Y-78778611D01*
X74528680Y-79573855D01*
X75323924Y-78778611D01*
X75255370Y-78537192D01*
X75148521Y-78486840D01*
X75255370Y-78429728D01*
X75323924Y-78188309D01*
X74528680Y-77393065D01*
X73733436Y-78188309D01*
X69912700Y-78188309D01*
X69912700Y-77284962D01*
X73113662Y-77284962D01*
X73154801Y-77559644D01*
X73248737Y-77821022D01*
X73312412Y-77940150D01*
X73553831Y-78008704D01*
X74349075Y-77213460D01*
X74708285Y-77213460D01*
X75503529Y-78008704D01*
X75744948Y-77940150D01*
X75863348Y-77688904D01*
X75930458Y-77419389D01*
X75936873Y-77284962D01*
X78193662Y-77284962D01*
X78234801Y-77559644D01*
X78328737Y-77821022D01*
X78392412Y-77940150D01*
X78633831Y-78008704D01*
X79429075Y-77213460D01*
X79788285Y-77213460D01*
X80583529Y-78008704D01*
X80824948Y-77940150D01*
X80943348Y-77688904D01*
X81010458Y-77419389D01*
X81023698Y-77141958D01*
X80982559Y-76867276D01*
X80888623Y-76605898D01*
X80824948Y-76486770D01*
X80583529Y-76418216D01*
X79788285Y-77213460D01*
X79429075Y-77213460D01*
X78633831Y-76418216D01*
X78392412Y-76486770D01*
X78274012Y-76738016D01*
X78206902Y-77007531D01*
X78193662Y-77284962D01*
X75936873Y-77284962D01*
X75943698Y-77141958D01*
X75902559Y-76867276D01*
X75808623Y-76605898D01*
X75744948Y-76486770D01*
X75503529Y-76418216D01*
X74708285Y-77213460D01*
X74349075Y-77213460D01*
X73553831Y-76418216D01*
X73312412Y-76486770D01*
X73194012Y-76738016D01*
X73126902Y-77007531D01*
X73113662Y-77284962D01*
X69912700Y-77284962D01*
X69912700Y-75648309D01*
X73733436Y-75648309D01*
X73801990Y-75889728D01*
X73908839Y-75940080D01*
X73801990Y-75997192D01*
X73733436Y-76238611D01*
X74528680Y-77033855D01*
X75323924Y-76238611D01*
X75255370Y-75997192D01*
X75148521Y-75946840D01*
X75255370Y-75889728D01*
X75323924Y-75648309D01*
X78813436Y-75648309D01*
X78881990Y-75889728D01*
X78988839Y-75940080D01*
X78881990Y-75997192D01*
X78813436Y-76238611D01*
X79608680Y-77033855D01*
X80403924Y-76238611D01*
X80335370Y-75997192D01*
X80228521Y-75946840D01*
X80335370Y-75889728D01*
X80403924Y-75648309D01*
X79608680Y-74853065D01*
X78813436Y-75648309D01*
X75323924Y-75648309D01*
X74528680Y-74853065D01*
X73733436Y-75648309D01*
X69912700Y-75648309D01*
X69912700Y-74744962D01*
X73113662Y-74744962D01*
X73154801Y-75019644D01*
X73248737Y-75281022D01*
X73312412Y-75400150D01*
X73553831Y-75468704D01*
X74349075Y-74673460D01*
X74708285Y-74673460D01*
X75503529Y-75468704D01*
X75744948Y-75400150D01*
X75863348Y-75148904D01*
X75930458Y-74879389D01*
X75936873Y-74744962D01*
X78193662Y-74744962D01*
X78234801Y-75019644D01*
X78328737Y-75281022D01*
X78392412Y-75400150D01*
X78633831Y-75468704D01*
X79429075Y-74673460D01*
X79788285Y-74673460D01*
X80583529Y-75468704D01*
X80824948Y-75400150D01*
X80943348Y-75148904D01*
X81010458Y-74879389D01*
X81023698Y-74601958D01*
X80982559Y-74327276D01*
X80888623Y-74065898D01*
X80824948Y-73946770D01*
X80583529Y-73878216D01*
X79788285Y-74673460D01*
X79429075Y-74673460D01*
X78633831Y-73878216D01*
X78392412Y-73946770D01*
X78274012Y-74198016D01*
X78206902Y-74467531D01*
X78193662Y-74744962D01*
X75936873Y-74744962D01*
X75943698Y-74601958D01*
X75902559Y-74327276D01*
X75808623Y-74065898D01*
X75744948Y-73946770D01*
X75503529Y-73878216D01*
X74708285Y-74673460D01*
X74349075Y-74673460D01*
X73553831Y-73878216D01*
X73312412Y-73946770D01*
X73194012Y-74198016D01*
X73126902Y-74467531D01*
X73113662Y-74744962D01*
X69912700Y-74744962D01*
X69912700Y-71994587D01*
X73118680Y-71994587D01*
X73118680Y-72272333D01*
X73172866Y-72544742D01*
X73279155Y-72801345D01*
X73433462Y-73032282D01*
X73629858Y-73228678D01*
X73860795Y-73382985D01*
X73905882Y-73401661D01*
X73801990Y-73457192D01*
X73733436Y-73698611D01*
X74528680Y-74493855D01*
X75323924Y-73698611D01*
X75255370Y-73457192D01*
X75144056Y-73404735D01*
X75196565Y-73382985D01*
X75427502Y-73228678D01*
X75547871Y-73108309D01*
X78813436Y-73108309D01*
X78881990Y-73349728D01*
X78988839Y-73400080D01*
X78881990Y-73457192D01*
X78813436Y-73698611D01*
X79608680Y-74493855D01*
X80403924Y-73698611D01*
X80335370Y-73457192D01*
X80228521Y-73406840D01*
X80335370Y-73349728D01*
X80380972Y-73189134D01*
X218226591Y-73189134D01*
X218401547Y-73520819D01*
X218803140Y-73727339D01*
X219237306Y-73851544D01*
X219687361Y-73888661D01*
X220136009Y-73837263D01*
X220566010Y-73699326D01*
X220899973Y-73520819D01*
X221074929Y-73189134D01*
X224826591Y-73189134D01*
X225001547Y-73520819D01*
X225403140Y-73727339D01*
X225837306Y-73851544D01*
X226287361Y-73888661D01*
X226736009Y-73837263D01*
X227166010Y-73699326D01*
X227499973Y-73520819D01*
X227674929Y-73189134D01*
X226250760Y-71764965D01*
X224826591Y-73189134D01*
X221074929Y-73189134D01*
X219650760Y-71764965D01*
X218226591Y-73189134D01*
X80380972Y-73189134D01*
X80403924Y-73108309D01*
X79608680Y-72313065D01*
X78813436Y-73108309D01*
X75547871Y-73108309D01*
X75623898Y-73032282D01*
X75778205Y-72801345D01*
X75884494Y-72544742D01*
X75938680Y-72272333D01*
X75938680Y-72204962D01*
X78193662Y-72204962D01*
X78234801Y-72479644D01*
X78328737Y-72741022D01*
X78392412Y-72860150D01*
X78633831Y-72928704D01*
X79429075Y-72133460D01*
X79788285Y-72133460D01*
X80583529Y-72928704D01*
X80824948Y-72860150D01*
X80943348Y-72608904D01*
X81010458Y-72339389D01*
X81023698Y-72061958D01*
X80982559Y-71787276D01*
X80888623Y-71525898D01*
X80824948Y-71406770D01*
X80583529Y-71338216D01*
X79788285Y-72133460D01*
X79429075Y-72133460D01*
X78633831Y-71338216D01*
X78392412Y-71406770D01*
X78274012Y-71658016D01*
X78206902Y-71927531D01*
X78193662Y-72204962D01*
X75938680Y-72204962D01*
X75938680Y-71994587D01*
X75884494Y-71722178D01*
X75778205Y-71465575D01*
X75623898Y-71234638D01*
X75547871Y-71158611D01*
X78813436Y-71158611D01*
X79608680Y-71953855D01*
X80403924Y-71158611D01*
X80335370Y-70917192D01*
X80084124Y-70798792D01*
X79814609Y-70731682D01*
X79537178Y-70718442D01*
X79262496Y-70759581D01*
X79001118Y-70853517D01*
X78881990Y-70917192D01*
X78813436Y-71158611D01*
X75547871Y-71158611D01*
X75427502Y-71038242D01*
X75196565Y-70883935D01*
X74939962Y-70777646D01*
X74667553Y-70723460D01*
X74389807Y-70723460D01*
X74117398Y-70777646D01*
X73860795Y-70883935D01*
X73629858Y-71038242D01*
X73433462Y-71234638D01*
X73279155Y-71465575D01*
X73172866Y-71722178D01*
X73118680Y-71994587D01*
X69912700Y-71994587D01*
X69912700Y-69825500D01*
X206403308Y-69825500D01*
X206403308Y-71525500D01*
X206415568Y-71649982D01*
X206451878Y-71769680D01*
X206510843Y-71879994D01*
X206590195Y-71976685D01*
X206686886Y-72056037D01*
X206797200Y-72115002D01*
X206916898Y-72151312D01*
X207041380Y-72163572D01*
X208741380Y-72163572D01*
X208865862Y-72151312D01*
X208985560Y-72115002D01*
X209095874Y-72056037D01*
X209192565Y-71976685D01*
X209271917Y-71879994D01*
X209330882Y-71769680D01*
X209367192Y-71649982D01*
X209369951Y-71621961D01*
X217347459Y-71621961D01*
X217398857Y-72070609D01*
X217536794Y-72500610D01*
X217715301Y-72834573D01*
X218046986Y-73009529D01*
X219471155Y-71585360D01*
X219830365Y-71585360D01*
X221254534Y-73009529D01*
X221586219Y-72834573D01*
X221792739Y-72432980D01*
X221916944Y-71998814D01*
X221948023Y-71621961D01*
X223947459Y-71621961D01*
X223998857Y-72070609D01*
X224136794Y-72500610D01*
X224315301Y-72834573D01*
X224646986Y-73009529D01*
X226071155Y-71585360D01*
X224646986Y-70161191D01*
X224315301Y-70336147D01*
X224108781Y-70737740D01*
X223984576Y-71171906D01*
X223947459Y-71621961D01*
X221948023Y-71621961D01*
X221954061Y-71548759D01*
X221902663Y-71100111D01*
X221764726Y-70670110D01*
X221586219Y-70336147D01*
X221254534Y-70161191D01*
X219830365Y-71585360D01*
X219471155Y-71585360D01*
X218046986Y-70161191D01*
X217715301Y-70336147D01*
X217508781Y-70737740D01*
X217384576Y-71171906D01*
X217347459Y-71621961D01*
X209369951Y-71621961D01*
X209379452Y-71525500D01*
X209379452Y-69981586D01*
X218226591Y-69981586D01*
X219650760Y-71405755D01*
X221074929Y-69981586D01*
X224826591Y-69981586D01*
X226250760Y-71405755D01*
X227674929Y-69981586D01*
X227499973Y-69649901D01*
X227098380Y-69443381D01*
X226664214Y-69319176D01*
X226214159Y-69282059D01*
X225765511Y-69333457D01*
X225335510Y-69471394D01*
X225001547Y-69649901D01*
X224826591Y-69981586D01*
X221074929Y-69981586D01*
X220899973Y-69649901D01*
X220498380Y-69443381D01*
X220064214Y-69319176D01*
X219614159Y-69282059D01*
X219165511Y-69333457D01*
X218735510Y-69471394D01*
X218401547Y-69649901D01*
X218226591Y-69981586D01*
X209379452Y-69981586D01*
X209379452Y-69825500D01*
X209367192Y-69701018D01*
X209330882Y-69581320D01*
X209271917Y-69471006D01*
X209192565Y-69374315D01*
X209095874Y-69294963D01*
X208985560Y-69235998D01*
X208913000Y-69213987D01*
X209044855Y-69082132D01*
X209207370Y-68838911D01*
X209319312Y-68568658D01*
X209376380Y-68281760D01*
X209376380Y-68129005D01*
X221363260Y-68129005D01*
X221363260Y-68441715D01*
X221424267Y-68748417D01*
X221543936Y-69037323D01*
X221717668Y-69297332D01*
X221938788Y-69518452D01*
X222198797Y-69692184D01*
X222487703Y-69811853D01*
X222794405Y-69872860D01*
X223107115Y-69872860D01*
X223413817Y-69811853D01*
X223702723Y-69692184D01*
X223962732Y-69518452D01*
X224183852Y-69297332D01*
X224357584Y-69037323D01*
X224477253Y-68748417D01*
X224538260Y-68441715D01*
X224538260Y-68129005D01*
X224477253Y-67822303D01*
X224357584Y-67533397D01*
X224183852Y-67273388D01*
X223962732Y-67052268D01*
X223702723Y-66878536D01*
X223413817Y-66758867D01*
X223107115Y-66697860D01*
X222794405Y-66697860D01*
X222487703Y-66758867D01*
X222198797Y-66878536D01*
X221938788Y-67052268D01*
X221717668Y-67273388D01*
X221543936Y-67533397D01*
X221424267Y-67822303D01*
X221363260Y-68129005D01*
X209376380Y-68129005D01*
X209376380Y-67989240D01*
X209319312Y-67702342D01*
X209207370Y-67432089D01*
X209044855Y-67188868D01*
X208838012Y-66982025D01*
X208663620Y-66865500D01*
X208838012Y-66748975D01*
X208997853Y-66589134D01*
X218226591Y-66589134D01*
X218401547Y-66920819D01*
X218803140Y-67127339D01*
X219237306Y-67251544D01*
X219687361Y-67288661D01*
X220136009Y-67237263D01*
X220566010Y-67099326D01*
X220899973Y-66920819D01*
X221074929Y-66589134D01*
X224826591Y-66589134D01*
X225001547Y-66920819D01*
X225403140Y-67127339D01*
X225837306Y-67251544D01*
X226287361Y-67288661D01*
X226736009Y-67237263D01*
X227166010Y-67099326D01*
X227499973Y-66920819D01*
X227674929Y-66589134D01*
X226250760Y-65164965D01*
X224826591Y-66589134D01*
X221074929Y-66589134D01*
X219650760Y-65164965D01*
X218226591Y-66589134D01*
X208997853Y-66589134D01*
X209044855Y-66542132D01*
X209207370Y-66298911D01*
X209319312Y-66028658D01*
X209376380Y-65741760D01*
X209376380Y-65449240D01*
X209319312Y-65162342D01*
X209261165Y-65021961D01*
X217347459Y-65021961D01*
X217398857Y-65470609D01*
X217536794Y-65900610D01*
X217715301Y-66234573D01*
X218046986Y-66409529D01*
X219471155Y-64985360D01*
X219830365Y-64985360D01*
X221254534Y-66409529D01*
X221586219Y-66234573D01*
X221792739Y-65832980D01*
X221916944Y-65398814D01*
X221948023Y-65021961D01*
X223947459Y-65021961D01*
X223998857Y-65470609D01*
X224136794Y-65900610D01*
X224315301Y-66234573D01*
X224646986Y-66409529D01*
X226071155Y-64985360D01*
X224646986Y-63561191D01*
X224315301Y-63736147D01*
X224108781Y-64137740D01*
X223984576Y-64571906D01*
X223947459Y-65021961D01*
X221948023Y-65021961D01*
X221954061Y-64948759D01*
X221902663Y-64500111D01*
X221764726Y-64070110D01*
X221586219Y-63736147D01*
X221254534Y-63561191D01*
X219830365Y-64985360D01*
X219471155Y-64985360D01*
X218046986Y-63561191D01*
X217715301Y-63736147D01*
X217508781Y-64137740D01*
X217384576Y-64571906D01*
X217347459Y-65021961D01*
X209261165Y-65021961D01*
X209207370Y-64892089D01*
X209044855Y-64648868D01*
X208838012Y-64442025D01*
X208594791Y-64279510D01*
X208324538Y-64167568D01*
X208037640Y-64110500D01*
X207745120Y-64110500D01*
X207458222Y-64167568D01*
X207187969Y-64279510D01*
X206944748Y-64442025D01*
X206737905Y-64648868D01*
X206575390Y-64892089D01*
X206463448Y-65162342D01*
X206406380Y-65449240D01*
X206406380Y-65741760D01*
X206463448Y-66028658D01*
X206575390Y-66298911D01*
X206737905Y-66542132D01*
X206944748Y-66748975D01*
X207119140Y-66865500D01*
X206944748Y-66982025D01*
X206737905Y-67188868D01*
X206575390Y-67432089D01*
X206463448Y-67702342D01*
X206406380Y-67989240D01*
X206406380Y-68281760D01*
X206463448Y-68568658D01*
X206575390Y-68838911D01*
X206737905Y-69082132D01*
X206869760Y-69213987D01*
X206797200Y-69235998D01*
X206686886Y-69294963D01*
X206590195Y-69374315D01*
X206510843Y-69471006D01*
X206451878Y-69581320D01*
X206415568Y-69701018D01*
X206403308Y-69825500D01*
X69912700Y-69825500D01*
X69912700Y-66850568D01*
X69928680Y-66850568D01*
X69928680Y-67256352D01*
X70007845Y-67654340D01*
X70163132Y-68029236D01*
X70388574Y-68366633D01*
X70675507Y-68653566D01*
X71012904Y-68879008D01*
X71387800Y-69034295D01*
X71785788Y-69113460D01*
X72191572Y-69113460D01*
X72589560Y-69034295D01*
X72964456Y-68879008D01*
X73301853Y-68653566D01*
X73588786Y-68366633D01*
X73814228Y-68029236D01*
X73838739Y-67970061D01*
X89190880Y-67970061D01*
X89190880Y-68173939D01*
X89230654Y-68373898D01*
X89308675Y-68562256D01*
X89421943Y-68731774D01*
X89566106Y-68875937D01*
X89735624Y-68989205D01*
X89923982Y-69067226D01*
X90123941Y-69107000D01*
X90327819Y-69107000D01*
X90527778Y-69067226D01*
X90716136Y-68989205D01*
X90885654Y-68875937D01*
X91029817Y-68731774D01*
X91143085Y-68562256D01*
X91221106Y-68373898D01*
X91260880Y-68173939D01*
X91260880Y-67970061D01*
X91221106Y-67770102D01*
X91143085Y-67581744D01*
X91029817Y-67412226D01*
X90885654Y-67268063D01*
X90716136Y-67154795D01*
X90527778Y-67076774D01*
X90327819Y-67037000D01*
X90123941Y-67037000D01*
X89923982Y-67076774D01*
X89735624Y-67154795D01*
X89566106Y-67268063D01*
X89421943Y-67412226D01*
X89308675Y-67581744D01*
X89230654Y-67770102D01*
X89190880Y-67970061D01*
X73838739Y-67970061D01*
X73969515Y-67654340D01*
X74048680Y-67256352D01*
X74048680Y-66850568D01*
X73969515Y-66452580D01*
X73814228Y-66077684D01*
X73588786Y-65740287D01*
X73301853Y-65453354D01*
X72964456Y-65227912D01*
X72589560Y-65072625D01*
X72191572Y-64993460D01*
X71785788Y-64993460D01*
X71387800Y-65072625D01*
X71012904Y-65227912D01*
X70675507Y-65453354D01*
X70388574Y-65740287D01*
X70163132Y-66077684D01*
X70007845Y-66452580D01*
X69928680Y-66850568D01*
X69912700Y-66850568D01*
X69912700Y-63381586D01*
X218226591Y-63381586D01*
X219650760Y-64805755D01*
X221074929Y-63381586D01*
X224826591Y-63381586D01*
X226250760Y-64805755D01*
X227674929Y-63381586D01*
X227499973Y-63049901D01*
X227098380Y-62843381D01*
X226664214Y-62719176D01*
X226214159Y-62682059D01*
X225765511Y-62733457D01*
X225335510Y-62871394D01*
X225001547Y-63049901D01*
X224826591Y-63381586D01*
X221074929Y-63381586D01*
X220899973Y-63049901D01*
X220498380Y-62843381D01*
X220064214Y-62719176D01*
X219614159Y-62682059D01*
X219165511Y-62733457D01*
X218735510Y-62871394D01*
X218401547Y-63049901D01*
X218226591Y-63381586D01*
X69912700Y-63381586D01*
X69912700Y-46966340D01*
X228544920Y-46966340D01*
X228544920Y-64868970D01*
G04 #@! TA.AperFunction,Conductor*
D19*
G36*
X228544920Y-64868970D02*
G01*
X228502663Y-64500111D01*
X228364726Y-64070110D01*
X228186219Y-63736147D01*
X227854534Y-63561191D01*
X226430365Y-64985360D01*
X227854534Y-66409529D01*
X228186219Y-66234573D01*
X228392739Y-65832980D01*
X228516944Y-65398814D01*
X228544920Y-65059594D01*
X228544920Y-71468970D01*
X228502663Y-71100111D01*
X228364726Y-70670110D01*
X228186219Y-70336147D01*
X227854534Y-70161191D01*
X226430365Y-71585360D01*
X227854534Y-73009529D01*
X228186219Y-72834573D01*
X228392739Y-72432980D01*
X228516944Y-71998814D01*
X228544920Y-71659593D01*
X228544921Y-145598680D01*
X69912700Y-145598680D01*
X69912700Y-134218119D01*
X102666420Y-134218119D01*
X102666420Y-134471241D01*
X102715801Y-134719501D01*
X102812667Y-134953356D01*
X102953295Y-135163820D01*
X103132280Y-135342805D01*
X103342744Y-135483433D01*
X103576599Y-135580299D01*
X103824859Y-135629680D01*
X104077981Y-135629680D01*
X104326241Y-135580299D01*
X104560096Y-135483433D01*
X104770560Y-135342805D01*
X104883158Y-135230207D01*
X105785498Y-135230207D01*
X105838886Y-135458881D01*
X106068794Y-135564775D01*
X106314944Y-135623782D01*
X106567875Y-135633632D01*
X106817869Y-135593950D01*
X107055316Y-135506258D01*
X107143954Y-135458881D01*
X107197342Y-135230207D01*
X106491420Y-134524285D01*
X105785498Y-135230207D01*
X104883158Y-135230207D01*
X104949545Y-135163820D01*
X105090173Y-134953356D01*
X105187039Y-134719501D01*
X105221960Y-134543936D01*
X105242150Y-134671129D01*
X105329842Y-134908576D01*
X105377219Y-134997214D01*
X105605893Y-135050602D01*
X106311815Y-134344680D01*
X106671025Y-134344680D01*
X107376947Y-135050602D01*
X107605621Y-134997214D01*
X107711515Y-134767306D01*
X107743348Y-134634513D01*
X107743348Y-134994680D01*
X107755608Y-135119162D01*
X107791918Y-135238860D01*
X107850883Y-135349174D01*
X107930235Y-135445865D01*
X108026926Y-135525217D01*
X108137240Y-135584182D01*
X108256938Y-135620492D01*
X108381420Y-135632752D01*
X109681420Y-135632752D01*
X109805902Y-135620492D01*
X109925600Y-135584182D01*
X110035914Y-135525217D01*
X110132605Y-135445865D01*
X110211957Y-135349174D01*
X110270922Y-135238860D01*
X110307232Y-135119162D01*
X110319492Y-134994680D01*
X110319492Y-133694680D01*
X110307232Y-133570198D01*
X110270922Y-133450500D01*
X110211957Y-133340186D01*
X110132605Y-133243495D01*
X110035914Y-133164143D01*
X109925600Y-133105178D01*
X109805902Y-133068868D01*
X109681420Y-133056608D01*
X108381420Y-133056608D01*
X108256938Y-133068868D01*
X108137240Y-133105178D01*
X108026926Y-133164143D01*
X107930235Y-133243495D01*
X107850883Y-133340186D01*
X107791918Y-133450500D01*
X107755608Y-133570198D01*
X107743348Y-133694680D01*
X107743348Y-134034976D01*
X107740690Y-134018231D01*
X107652998Y-133780784D01*
X107605621Y-133692146D01*
X107376947Y-133638758D01*
X106671025Y-134344680D01*
X106311815Y-134344680D01*
X105605893Y-133638758D01*
X105377219Y-133692146D01*
X105271325Y-133922054D01*
X105220064Y-134135891D01*
X105187039Y-133969859D01*
X105090173Y-133736004D01*
X104949545Y-133525540D01*
X104883158Y-133459153D01*
X105785498Y-133459153D01*
X106491420Y-134165075D01*
X107197342Y-133459153D01*
X107143954Y-133230479D01*
X106914046Y-133124585D01*
X106667896Y-133065578D01*
X106414965Y-133055728D01*
X106164971Y-133095410D01*
X105927524Y-133183102D01*
X105838886Y-133230479D01*
X105785498Y-133459153D01*
X104883158Y-133459153D01*
X104770560Y-133346555D01*
X104560096Y-133205927D01*
X104326241Y-133109061D01*
X104077981Y-133059680D01*
X103824859Y-133059680D01*
X103576599Y-133109061D01*
X103342744Y-133205927D01*
X103132280Y-133346555D01*
X102953295Y-133525540D01*
X102812667Y-133736004D01*
X102715801Y-133969859D01*
X102666420Y-134218119D01*
X69912700Y-134218119D01*
X69912700Y-132936220D01*
X117921748Y-132936220D01*
X117921748Y-134236220D01*
X117934008Y-134360702D01*
X117970318Y-134480400D01*
X118029283Y-134590714D01*
X118108635Y-134687405D01*
X118205326Y-134766757D01*
X118315640Y-134825722D01*
X118435338Y-134862032D01*
X118559820Y-134874292D01*
X119859820Y-134874292D01*
X119984302Y-134862032D01*
X120104000Y-134825722D01*
X120214314Y-134766757D01*
X120311005Y-134687405D01*
X120390357Y-134590714D01*
X120449322Y-134480400D01*
X120451946Y-134471747D01*
X121043898Y-134471747D01*
X121097286Y-134700421D01*
X121327194Y-134806315D01*
X121573344Y-134865322D01*
X121826275Y-134875172D01*
X122076269Y-134835490D01*
X122313716Y-134747798D01*
X122402354Y-134700421D01*
X122455742Y-134471747D01*
X121749820Y-133765825D01*
X121043898Y-134471747D01*
X120451946Y-134471747D01*
X120485632Y-134360702D01*
X120497892Y-134236220D01*
X120497892Y-133895924D01*
X120500550Y-133912669D01*
X120588242Y-134150116D01*
X120635619Y-134238754D01*
X120864293Y-134292142D01*
X121570215Y-133586220D01*
X121929425Y-133586220D01*
X122635347Y-134292142D01*
X122864021Y-134238754D01*
X122969915Y-134008846D01*
X123028922Y-133762696D01*
X123038772Y-133509765D01*
X123030819Y-133459659D01*
X125544820Y-133459659D01*
X125544820Y-133712781D01*
X125594201Y-133961041D01*
X125691067Y-134194896D01*
X125831695Y-134405360D01*
X126010680Y-134584345D01*
X126221144Y-134724973D01*
X126454999Y-134821839D01*
X126703259Y-134871220D01*
X126956381Y-134871220D01*
X127204641Y-134821839D01*
X127438496Y-134724973D01*
X127648960Y-134584345D01*
X127761558Y-134471747D01*
X128663898Y-134471747D01*
X128717286Y-134700421D01*
X128947194Y-134806315D01*
X129193344Y-134865322D01*
X129446275Y-134875172D01*
X129696269Y-134835490D01*
X129933716Y-134747798D01*
X130022354Y-134700421D01*
X130075742Y-134471747D01*
X129369820Y-133765825D01*
X128663898Y-134471747D01*
X127761558Y-134471747D01*
X127827945Y-134405360D01*
X127968573Y-134194896D01*
X128065439Y-133961041D01*
X128100360Y-133785476D01*
X128120550Y-133912669D01*
X128208242Y-134150116D01*
X128255619Y-134238754D01*
X128484293Y-134292142D01*
X129190215Y-133586220D01*
X129549425Y-133586220D01*
X130255347Y-134292142D01*
X130484021Y-134238754D01*
X130589915Y-134008846D01*
X130641176Y-133795009D01*
X130674201Y-133961041D01*
X130771067Y-134194896D01*
X130911695Y-134405360D01*
X131090680Y-134584345D01*
X131301144Y-134724973D01*
X131534999Y-134821839D01*
X131783259Y-134871220D01*
X132036381Y-134871220D01*
X132284641Y-134821839D01*
X132518496Y-134724973D01*
X132728960Y-134584345D01*
X132907945Y-134405360D01*
X133048573Y-134194896D01*
X133145439Y-133961041D01*
X133194820Y-133712781D01*
X133194820Y-133459659D01*
X133145439Y-133211399D01*
X133048573Y-132977544D01*
X132907945Y-132767080D01*
X132774246Y-132633381D01*
X139650520Y-132633381D01*
X139650520Y-132837259D01*
X139690294Y-133037218D01*
X139768315Y-133225576D01*
X139881583Y-133395094D01*
X140025746Y-133539257D01*
X140195264Y-133652525D01*
X140383622Y-133730546D01*
X140583581Y-133770320D01*
X140787459Y-133770320D01*
X140987418Y-133730546D01*
X141175776Y-133652525D01*
X141345294Y-133539257D01*
X141489457Y-133395094D01*
X141602725Y-133225576D01*
X141680746Y-133037218D01*
X141720520Y-132837259D01*
X141720520Y-132633381D01*
X141680746Y-132433422D01*
X141602725Y-132245064D01*
X141489457Y-132075546D01*
X141345294Y-131931383D01*
X141175776Y-131818115D01*
X140987418Y-131740094D01*
X140787459Y-131700320D01*
X140583581Y-131700320D01*
X140383622Y-131740094D01*
X140195264Y-131818115D01*
X140025746Y-131931383D01*
X139881583Y-132075546D01*
X139768315Y-132245064D01*
X139690294Y-132433422D01*
X139650520Y-132633381D01*
X132774246Y-132633381D01*
X132728960Y-132588095D01*
X132518496Y-132447467D01*
X132284641Y-132350601D01*
X132036381Y-132301220D01*
X131783259Y-132301220D01*
X131534999Y-132350601D01*
X131301144Y-132447467D01*
X131090680Y-132588095D01*
X130911695Y-132767080D01*
X130771067Y-132977544D01*
X130674201Y-133211399D01*
X130639280Y-133386964D01*
X130619090Y-133259771D01*
X130531398Y-133022324D01*
X130484021Y-132933686D01*
X130255347Y-132880298D01*
X129549425Y-133586220D01*
X129190215Y-133586220D01*
X128484293Y-132880298D01*
X128255619Y-132933686D01*
X128149725Y-133163594D01*
X128098464Y-133377431D01*
X128065439Y-133211399D01*
X127968573Y-132977544D01*
X127827945Y-132767080D01*
X127761558Y-132700693D01*
X128663898Y-132700693D01*
X129369820Y-133406615D01*
X130075742Y-132700693D01*
X130022354Y-132472019D01*
X129792446Y-132366125D01*
X129546296Y-132307118D01*
X129293365Y-132297268D01*
X129043371Y-132336950D01*
X128805924Y-132424642D01*
X128717286Y-132472019D01*
X128663898Y-132700693D01*
X127761558Y-132700693D01*
X127648960Y-132588095D01*
X127438496Y-132447467D01*
X127204641Y-132350601D01*
X126956381Y-132301220D01*
X126703259Y-132301220D01*
X126454999Y-132350601D01*
X126221144Y-132447467D01*
X126010680Y-132588095D01*
X125831695Y-132767080D01*
X125691067Y-132977544D01*
X125594201Y-133211399D01*
X125544820Y-133459659D01*
X123030819Y-133459659D01*
X122999090Y-133259771D01*
X122911398Y-133022324D01*
X122864021Y-132933686D01*
X122635347Y-132880298D01*
X121929425Y-133586220D01*
X121570215Y-133586220D01*
X120864293Y-132880298D01*
X120635619Y-132933686D01*
X120529725Y-133163594D01*
X120497892Y-133296387D01*
X120497892Y-132936220D01*
X120485632Y-132811738D01*
X120451947Y-132700693D01*
X121043898Y-132700693D01*
X121749820Y-133406615D01*
X122455742Y-132700693D01*
X122402354Y-132472019D01*
X122172446Y-132366125D01*
X121926296Y-132307118D01*
X121673365Y-132297268D01*
X121423371Y-132336950D01*
X121185924Y-132424642D01*
X121097286Y-132472019D01*
X121043898Y-132700693D01*
X120451947Y-132700693D01*
X120449322Y-132692040D01*
X120390357Y-132581726D01*
X120311005Y-132485035D01*
X120214314Y-132405683D01*
X120104000Y-132346718D01*
X119984302Y-132310408D01*
X119859820Y-132298148D01*
X118559820Y-132298148D01*
X118435338Y-132310408D01*
X118315640Y-132346718D01*
X118205326Y-132405683D01*
X118108635Y-132485035D01*
X118029283Y-132581726D01*
X117970318Y-132692040D01*
X117934008Y-132811738D01*
X117921748Y-132936220D01*
X69912700Y-132936220D01*
X69912700Y-129175814D01*
X218170711Y-129175814D01*
X218345667Y-129507499D01*
X218747260Y-129714019D01*
X219181426Y-129838224D01*
X219631481Y-129875341D01*
X220080129Y-129823943D01*
X220510130Y-129686006D01*
X220844093Y-129507499D01*
X221019049Y-129175814D01*
X224770711Y-129175814D01*
X224945667Y-129507499D01*
X225347260Y-129714019D01*
X225781426Y-129838224D01*
X226231481Y-129875341D01*
X226680129Y-129823943D01*
X227110130Y-129686006D01*
X227444093Y-129507499D01*
X227619049Y-129175814D01*
X226194880Y-127751645D01*
X224770711Y-129175814D01*
X221019049Y-129175814D01*
X219594880Y-127751645D01*
X218170711Y-129175814D01*
X69912700Y-129175814D01*
X69912700Y-127474641D01*
X142157500Y-127474641D01*
X142157500Y-127678519D01*
X142197274Y-127878478D01*
X142275295Y-128066836D01*
X142388563Y-128236354D01*
X142532726Y-128380517D01*
X142702244Y-128493785D01*
X142890602Y-128571806D01*
X143090561Y-128611580D01*
X143294439Y-128611580D01*
X143494398Y-128571806D01*
X143682756Y-128493785D01*
X143852274Y-128380517D01*
X143996437Y-128236354D01*
X144109705Y-128066836D01*
X144187726Y-127878478D01*
X144227500Y-127678519D01*
X144227500Y-127474641D01*
X144187726Y-127274682D01*
X144109705Y-127086324D01*
X143996437Y-126916806D01*
X143852274Y-126772643D01*
X143682756Y-126659375D01*
X143494398Y-126581354D01*
X143294439Y-126541580D01*
X143090561Y-126541580D01*
X142890602Y-126581354D01*
X142702244Y-126659375D01*
X142532726Y-126772643D01*
X142388563Y-126916806D01*
X142275295Y-127086324D01*
X142197274Y-127274682D01*
X142157500Y-127474641D01*
X69912700Y-127474641D01*
X69912700Y-126302400D01*
X206362668Y-126302400D01*
X206362668Y-128002400D01*
X206374928Y-128126882D01*
X206411238Y-128246580D01*
X206470203Y-128356894D01*
X206549555Y-128453585D01*
X206646246Y-128532937D01*
X206756560Y-128591902D01*
X206876258Y-128628212D01*
X207000740Y-128640472D01*
X208700740Y-128640472D01*
X208825222Y-128628212D01*
X208944920Y-128591902D01*
X209055234Y-128532937D01*
X209151925Y-128453585D01*
X209231277Y-128356894D01*
X209290242Y-128246580D01*
X209326552Y-128126882D01*
X209338812Y-128002400D01*
X209338812Y-127608641D01*
X217291579Y-127608641D01*
X217342977Y-128057289D01*
X217480914Y-128487290D01*
X217659421Y-128821253D01*
X217991106Y-128996209D01*
X219415275Y-127572040D01*
X219774485Y-127572040D01*
X221198654Y-128996209D01*
X221530339Y-128821253D01*
X221736859Y-128419660D01*
X221861064Y-127985494D01*
X221892143Y-127608641D01*
X223891579Y-127608641D01*
X223942977Y-128057289D01*
X224080914Y-128487290D01*
X224259421Y-128821253D01*
X224591106Y-128996209D01*
X226015275Y-127572040D01*
X226374485Y-127572040D01*
X227798654Y-128996209D01*
X228130339Y-128821253D01*
X228336859Y-128419660D01*
X228461064Y-127985494D01*
X228498181Y-127535439D01*
X228446783Y-127086791D01*
X228308846Y-126656790D01*
X228130339Y-126322827D01*
X227798654Y-126147871D01*
X226374485Y-127572040D01*
X226015275Y-127572040D01*
X224591106Y-126147871D01*
X224259421Y-126322827D01*
X224052901Y-126724420D01*
X223928696Y-127158586D01*
X223891579Y-127608641D01*
X221892143Y-127608641D01*
X221898181Y-127535439D01*
X221846783Y-127086791D01*
X221708846Y-126656790D01*
X221530339Y-126322827D01*
X221198654Y-126147871D01*
X219774485Y-127572040D01*
X219415275Y-127572040D01*
X217991106Y-126147871D01*
X217659421Y-126322827D01*
X217452901Y-126724420D01*
X217328696Y-127158586D01*
X217291579Y-127608641D01*
X209338812Y-127608641D01*
X209338812Y-126302400D01*
X209326552Y-126177918D01*
X209290242Y-126058220D01*
X209242160Y-125968266D01*
X218170711Y-125968266D01*
X219594880Y-127392435D01*
X221019049Y-125968266D01*
X224770711Y-125968266D01*
X226194880Y-127392435D01*
X227619049Y-125968266D01*
X227444093Y-125636581D01*
X227042500Y-125430061D01*
X226608334Y-125305856D01*
X226158279Y-125268739D01*
X225709631Y-125320137D01*
X225279630Y-125458074D01*
X224945667Y-125636581D01*
X224770711Y-125968266D01*
X221019049Y-125968266D01*
X220844093Y-125636581D01*
X220442500Y-125430061D01*
X220008334Y-125305856D01*
X219558279Y-125268739D01*
X219109631Y-125320137D01*
X218679630Y-125458074D01*
X218345667Y-125636581D01*
X218170711Y-125968266D01*
X209242160Y-125968266D01*
X209231277Y-125947906D01*
X209151925Y-125851215D01*
X209055234Y-125771863D01*
X208944920Y-125712898D01*
X208872360Y-125690887D01*
X209004215Y-125559032D01*
X209166730Y-125315811D01*
X209278672Y-125045558D01*
X209335740Y-124758660D01*
X209335740Y-124466140D01*
X209278672Y-124179242D01*
X209252346Y-124115685D01*
X221307380Y-124115685D01*
X221307380Y-124428395D01*
X221368387Y-124735097D01*
X221488056Y-125024003D01*
X221661788Y-125284012D01*
X221882908Y-125505132D01*
X222142917Y-125678864D01*
X222431823Y-125798533D01*
X222738525Y-125859540D01*
X223051235Y-125859540D01*
X223357937Y-125798533D01*
X223646843Y-125678864D01*
X223906852Y-125505132D01*
X224127972Y-125284012D01*
X224301704Y-125024003D01*
X224421373Y-124735097D01*
X224482380Y-124428395D01*
X224482380Y-124115685D01*
X224421373Y-123808983D01*
X224301704Y-123520077D01*
X224127972Y-123260068D01*
X223906852Y-123038948D01*
X223646843Y-122865216D01*
X223357937Y-122745547D01*
X223051235Y-122684540D01*
X222738525Y-122684540D01*
X222431823Y-122745547D01*
X222142917Y-122865216D01*
X221882908Y-123038948D01*
X221661788Y-123260068D01*
X221488056Y-123520077D01*
X221368387Y-123808983D01*
X221307380Y-124115685D01*
X209252346Y-124115685D01*
X209166730Y-123908989D01*
X209004215Y-123665768D01*
X208797372Y-123458925D01*
X208622980Y-123342400D01*
X208797372Y-123225875D01*
X209004215Y-123019032D01*
X209166730Y-122775811D01*
X209249571Y-122575814D01*
X218170711Y-122575814D01*
X218345667Y-122907499D01*
X218747260Y-123114019D01*
X219181426Y-123238224D01*
X219631481Y-123275341D01*
X220080129Y-123223943D01*
X220510130Y-123086006D01*
X220844093Y-122907499D01*
X221019049Y-122575814D01*
X224770711Y-122575814D01*
X224945667Y-122907499D01*
X225347260Y-123114019D01*
X225781426Y-123238224D01*
X226231481Y-123275341D01*
X226680129Y-123223943D01*
X227110130Y-123086006D01*
X227444093Y-122907499D01*
X227619049Y-122575814D01*
X226194880Y-121151645D01*
X224770711Y-122575814D01*
X221019049Y-122575814D01*
X219594880Y-121151645D01*
X218170711Y-122575814D01*
X209249571Y-122575814D01*
X209278672Y-122505558D01*
X209335740Y-122218660D01*
X209335740Y-121926140D01*
X209278672Y-121639242D01*
X209166730Y-121368989D01*
X209004215Y-121125768D01*
X208887088Y-121008641D01*
X217291579Y-121008641D01*
X217342977Y-121457289D01*
X217480914Y-121887290D01*
X217659421Y-122221253D01*
X217991106Y-122396209D01*
X219415275Y-120972040D01*
X219774485Y-120972040D01*
X221198654Y-122396209D01*
X221530339Y-122221253D01*
X221736859Y-121819660D01*
X221861064Y-121385494D01*
X221892143Y-121008641D01*
X223891579Y-121008641D01*
X223942977Y-121457289D01*
X224080914Y-121887290D01*
X224259421Y-122221253D01*
X224591106Y-122396209D01*
X226015275Y-120972040D01*
X226374485Y-120972040D01*
X227798654Y-122396209D01*
X228130339Y-122221253D01*
X228336859Y-121819660D01*
X228461064Y-121385494D01*
X228498181Y-120935439D01*
X228446783Y-120486791D01*
X228308846Y-120056790D01*
X228130339Y-119722827D01*
X227798654Y-119547871D01*
X226374485Y-120972040D01*
X226015275Y-120972040D01*
X224591106Y-119547871D01*
X224259421Y-119722827D01*
X224052901Y-120124420D01*
X223928696Y-120558586D01*
X223891579Y-121008641D01*
X221892143Y-121008641D01*
X221898181Y-120935439D01*
X221846783Y-120486791D01*
X221708846Y-120056790D01*
X221530339Y-119722827D01*
X221198654Y-119547871D01*
X219774485Y-120972040D01*
X219415275Y-120972040D01*
X217991106Y-119547871D01*
X217659421Y-119722827D01*
X217452901Y-120124420D01*
X217328696Y-120558586D01*
X217291579Y-121008641D01*
X208887088Y-121008641D01*
X208797372Y-120918925D01*
X208554151Y-120756410D01*
X208283898Y-120644468D01*
X207997000Y-120587400D01*
X207704480Y-120587400D01*
X207417582Y-120644468D01*
X207147329Y-120756410D01*
X206904108Y-120918925D01*
X206697265Y-121125768D01*
X206534750Y-121368989D01*
X206422808Y-121639242D01*
X206365740Y-121926140D01*
X206365740Y-122218660D01*
X206422808Y-122505558D01*
X206534750Y-122775811D01*
X206697265Y-123019032D01*
X206904108Y-123225875D01*
X207078500Y-123342400D01*
X206904108Y-123458925D01*
X206697265Y-123665768D01*
X206534750Y-123908989D01*
X206422808Y-124179242D01*
X206365740Y-124466140D01*
X206365740Y-124758660D01*
X206422808Y-125045558D01*
X206534750Y-125315811D01*
X206697265Y-125559032D01*
X206829120Y-125690887D01*
X206756560Y-125712898D01*
X206646246Y-125771863D01*
X206549555Y-125851215D01*
X206470203Y-125947906D01*
X206411238Y-126058220D01*
X206374928Y-126177918D01*
X206362668Y-126302400D01*
X69912700Y-126302400D01*
X69912700Y-118927541D01*
X105627220Y-118927541D01*
X105627220Y-119131419D01*
X105666994Y-119331378D01*
X105745015Y-119519736D01*
X105858283Y-119689254D01*
X106002446Y-119833417D01*
X106171964Y-119946685D01*
X106360322Y-120024706D01*
X106560281Y-120064480D01*
X106764159Y-120064480D01*
X106964118Y-120024706D01*
X107152476Y-119946685D01*
X107321994Y-119833417D01*
X107466157Y-119689254D01*
X107489725Y-119653981D01*
X135190280Y-119653981D01*
X135190280Y-119857859D01*
X135230054Y-120057818D01*
X135308075Y-120246176D01*
X135421343Y-120415694D01*
X135565506Y-120559857D01*
X135735024Y-120673125D01*
X135923382Y-120751146D01*
X136123341Y-120790920D01*
X136327219Y-120790920D01*
X136527178Y-120751146D01*
X136715536Y-120673125D01*
X136885054Y-120559857D01*
X137029217Y-120415694D01*
X137142485Y-120246176D01*
X137220506Y-120057818D01*
X137260280Y-119857859D01*
X137260280Y-119653981D01*
X137220506Y-119454022D01*
X137142485Y-119265664D01*
X137029217Y-119096146D01*
X136885054Y-118951983D01*
X136715536Y-118838715D01*
X136527178Y-118760694D01*
X136327219Y-118720920D01*
X136123341Y-118720920D01*
X135923382Y-118760694D01*
X135735024Y-118838715D01*
X135565506Y-118951983D01*
X135421343Y-119096146D01*
X135308075Y-119265664D01*
X135230054Y-119454022D01*
X135190280Y-119653981D01*
X107489725Y-119653981D01*
X107579425Y-119519736D01*
X107657446Y-119331378D01*
X107697220Y-119131419D01*
X107697220Y-118927541D01*
X107657446Y-118727582D01*
X107579425Y-118539224D01*
X107519822Y-118450021D01*
X179985720Y-118450021D01*
X179985720Y-118653899D01*
X180025494Y-118853858D01*
X180103515Y-119042216D01*
X180216783Y-119211734D01*
X180360946Y-119355897D01*
X180530464Y-119469165D01*
X180718822Y-119547186D01*
X180918781Y-119586960D01*
X181122659Y-119586960D01*
X181322618Y-119547186D01*
X181510976Y-119469165D01*
X181661982Y-119368266D01*
X218170711Y-119368266D01*
X219594880Y-120792435D01*
X221019049Y-119368266D01*
X224770711Y-119368266D01*
X226194880Y-120792435D01*
X227619049Y-119368266D01*
X227444093Y-119036581D01*
X227042500Y-118830061D01*
X226608334Y-118705856D01*
X226158279Y-118668739D01*
X225709631Y-118720137D01*
X225279630Y-118858074D01*
X224945667Y-119036581D01*
X224770711Y-119368266D01*
X221019049Y-119368266D01*
X220844093Y-119036581D01*
X220442500Y-118830061D01*
X220008334Y-118705856D01*
X219558279Y-118668739D01*
X219109631Y-118720137D01*
X218679630Y-118858074D01*
X218345667Y-119036581D01*
X218170711Y-119368266D01*
X181661982Y-119368266D01*
X181680494Y-119355897D01*
X181824657Y-119211734D01*
X181937925Y-119042216D01*
X182015946Y-118853858D01*
X182055720Y-118653899D01*
X182055720Y-118450021D01*
X182015946Y-118250062D01*
X181937925Y-118061704D01*
X181824657Y-117892186D01*
X181680494Y-117748023D01*
X181510976Y-117634755D01*
X181322618Y-117556734D01*
X181122659Y-117516960D01*
X180918781Y-117516960D01*
X180718822Y-117556734D01*
X180530464Y-117634755D01*
X180360946Y-117748023D01*
X180216783Y-117892186D01*
X180103515Y-118061704D01*
X180025494Y-118250062D01*
X179985720Y-118450021D01*
X107519822Y-118450021D01*
X107466157Y-118369706D01*
X107321994Y-118225543D01*
X107152476Y-118112275D01*
X106964118Y-118034254D01*
X106764159Y-117994480D01*
X106560281Y-117994480D01*
X106360322Y-118034254D01*
X106171964Y-118112275D01*
X106002446Y-118225543D01*
X105858283Y-118369706D01*
X105745015Y-118539224D01*
X105666994Y-118727582D01*
X105627220Y-118927541D01*
X69912700Y-118927541D01*
X69912700Y-115110568D01*
X69928680Y-115110568D01*
X69928680Y-115516352D01*
X70007845Y-115914340D01*
X70163132Y-116289236D01*
X70388574Y-116626633D01*
X70675507Y-116913566D01*
X71012904Y-117139008D01*
X71387800Y-117294295D01*
X71785788Y-117373460D01*
X72191572Y-117373460D01*
X72589560Y-117294295D01*
X72964456Y-117139008D01*
X73301853Y-116913566D01*
X73588786Y-116626633D01*
X73814228Y-116289236D01*
X73969515Y-115914340D01*
X74048680Y-115516352D01*
X74048680Y-115110568D01*
X73969515Y-114712580D01*
X73814228Y-114337684D01*
X73588786Y-114000287D01*
X73301853Y-113713354D01*
X72964456Y-113487912D01*
X72589560Y-113332625D01*
X72191572Y-113253460D01*
X71785788Y-113253460D01*
X71387800Y-113332625D01*
X71012904Y-113487912D01*
X70675507Y-113713354D01*
X70388574Y-114000287D01*
X70163132Y-114337684D01*
X70007845Y-114712580D01*
X69928680Y-115110568D01*
X69912700Y-115110568D01*
X69912700Y-109708459D01*
X73115608Y-109708459D01*
X73115608Y-110758461D01*
X73132672Y-110931715D01*
X73183208Y-111098311D01*
X73265275Y-111251847D01*
X73375718Y-111386422D01*
X73510293Y-111496865D01*
X73663829Y-111578932D01*
X73830425Y-111629468D01*
X74003679Y-111646532D01*
X75053681Y-111646532D01*
X75226935Y-111629468D01*
X75393531Y-111578932D01*
X75547067Y-111496865D01*
X75681642Y-111386422D01*
X75792085Y-111251847D01*
X75874152Y-111098311D01*
X75924688Y-110931715D01*
X75941752Y-110758461D01*
X75941752Y-110094587D01*
X78198680Y-110094587D01*
X78198680Y-110372333D01*
X78252866Y-110644742D01*
X78359155Y-110901345D01*
X78513462Y-111132282D01*
X78709858Y-111328678D01*
X78940795Y-111482985D01*
X79197398Y-111589274D01*
X79469807Y-111643460D01*
X79747553Y-111643460D01*
X80019962Y-111589274D01*
X80276565Y-111482985D01*
X80507502Y-111328678D01*
X80703898Y-111132282D01*
X80858205Y-110901345D01*
X80964494Y-110644742D01*
X80992310Y-110504901D01*
X187372040Y-110504901D01*
X187372040Y-110708779D01*
X187411814Y-110908738D01*
X187489835Y-111097096D01*
X187603103Y-111266614D01*
X187747266Y-111410777D01*
X187916784Y-111524045D01*
X188105142Y-111602066D01*
X188305101Y-111641840D01*
X188508979Y-111641840D01*
X188708938Y-111602066D01*
X188897296Y-111524045D01*
X189066814Y-111410777D01*
X189210977Y-111266614D01*
X189324245Y-111097096D01*
X189402266Y-110908738D01*
X189442040Y-110708779D01*
X189442040Y-110504901D01*
X189402266Y-110304942D01*
X189324245Y-110116584D01*
X189210977Y-109947066D01*
X189066814Y-109802903D01*
X188897296Y-109689635D01*
X188708938Y-109611614D01*
X188508979Y-109571840D01*
X188305101Y-109571840D01*
X188105142Y-109611614D01*
X187916784Y-109689635D01*
X187747266Y-109802903D01*
X187603103Y-109947066D01*
X187489835Y-110116584D01*
X187411814Y-110304942D01*
X187372040Y-110504901D01*
X80992310Y-110504901D01*
X81018680Y-110372333D01*
X81018680Y-110094587D01*
X80964494Y-109822178D01*
X80858205Y-109565575D01*
X80703898Y-109334638D01*
X80507502Y-109138242D01*
X80276565Y-108983935D01*
X80231478Y-108965259D01*
X80335370Y-108909728D01*
X80403924Y-108668309D01*
X79608680Y-107873065D01*
X78813436Y-108668309D01*
X78881990Y-108909728D01*
X78993304Y-108962185D01*
X78940795Y-108983935D01*
X78709858Y-109138242D01*
X78513462Y-109334638D01*
X78359155Y-109565575D01*
X78252866Y-109822178D01*
X78198680Y-110094587D01*
X75941752Y-110094587D01*
X75941752Y-109708459D01*
X75924688Y-109535205D01*
X75874152Y-109368609D01*
X75792085Y-109215073D01*
X75681642Y-109080498D01*
X75547067Y-108970055D01*
X75393531Y-108887988D01*
X75272011Y-108851126D01*
X75323924Y-108668309D01*
X74528680Y-107873065D01*
X73733436Y-108668309D01*
X73785349Y-108851126D01*
X73663829Y-108887988D01*
X73510293Y-108970055D01*
X73375718Y-109080498D01*
X73265275Y-109215073D01*
X73183208Y-109368609D01*
X73132672Y-109535205D01*
X73115608Y-109708459D01*
X69912700Y-109708459D01*
X69912700Y-107764962D01*
X73113662Y-107764962D01*
X73154801Y-108039644D01*
X73248737Y-108301022D01*
X73312412Y-108420150D01*
X73553831Y-108488704D01*
X74349075Y-107693460D01*
X74708285Y-107693460D01*
X75503529Y-108488704D01*
X75744948Y-108420150D01*
X75863348Y-108168904D01*
X75930458Y-107899389D01*
X75936873Y-107764962D01*
X78193662Y-107764962D01*
X78234801Y-108039644D01*
X78328737Y-108301022D01*
X78392412Y-108420150D01*
X78633831Y-108488704D01*
X79429075Y-107693460D01*
X79788285Y-107693460D01*
X80583529Y-108488704D01*
X80824948Y-108420150D01*
X80943348Y-108168904D01*
X81010458Y-107899389D01*
X81023698Y-107621958D01*
X80982559Y-107347276D01*
X80888623Y-107085898D01*
X80824948Y-106966770D01*
X80583529Y-106898216D01*
X79788285Y-107693460D01*
X79429075Y-107693460D01*
X78633831Y-106898216D01*
X78392412Y-106966770D01*
X78274012Y-107218016D01*
X78206902Y-107487531D01*
X78193662Y-107764962D01*
X75936873Y-107764962D01*
X75943698Y-107621958D01*
X75902559Y-107347276D01*
X75808623Y-107085898D01*
X75744948Y-106966770D01*
X75503529Y-106898216D01*
X74708285Y-107693460D01*
X74349075Y-107693460D01*
X73553831Y-106898216D01*
X73312412Y-106966770D01*
X73194012Y-107218016D01*
X73126902Y-107487531D01*
X73113662Y-107764962D01*
X69912700Y-107764962D01*
X69912700Y-106128309D01*
X73733436Y-106128309D01*
X73801990Y-106369728D01*
X73908839Y-106420080D01*
X73801990Y-106477192D01*
X73733436Y-106718611D01*
X74528680Y-107513855D01*
X75323924Y-106718611D01*
X75255370Y-106477192D01*
X75148521Y-106426840D01*
X75255370Y-106369728D01*
X75323924Y-106128309D01*
X78813436Y-106128309D01*
X78881990Y-106369728D01*
X78988839Y-106420080D01*
X78881990Y-106477192D01*
X78813436Y-106718611D01*
X79608680Y-107513855D01*
X80403924Y-106718611D01*
X80335370Y-106477192D01*
X80228521Y-106426840D01*
X80335370Y-106369728D01*
X80403924Y-106128309D01*
X79608680Y-105333065D01*
X78813436Y-106128309D01*
X75323924Y-106128309D01*
X74528680Y-105333065D01*
X73733436Y-106128309D01*
X69912700Y-106128309D01*
X69912700Y-105224962D01*
X73113662Y-105224962D01*
X73154801Y-105499644D01*
X73248737Y-105761022D01*
X73312412Y-105880150D01*
X73553831Y-105948704D01*
X74349075Y-105153460D01*
X74708285Y-105153460D01*
X75503529Y-105948704D01*
X75744948Y-105880150D01*
X75863348Y-105628904D01*
X75930458Y-105359389D01*
X75936873Y-105224962D01*
X78193662Y-105224962D01*
X78234801Y-105499644D01*
X78328737Y-105761022D01*
X78392412Y-105880150D01*
X78633831Y-105948704D01*
X79429075Y-105153460D01*
X79788285Y-105153460D01*
X80583529Y-105948704D01*
X80824948Y-105880150D01*
X80943348Y-105628904D01*
X81010458Y-105359389D01*
X81023698Y-105081958D01*
X80982559Y-104807276D01*
X80888623Y-104545898D01*
X80824948Y-104426770D01*
X80583529Y-104358216D01*
X79788285Y-105153460D01*
X79429075Y-105153460D01*
X78633831Y-104358216D01*
X78392412Y-104426770D01*
X78274012Y-104678016D01*
X78206902Y-104947531D01*
X78193662Y-105224962D01*
X75936873Y-105224962D01*
X75943698Y-105081958D01*
X75902559Y-104807276D01*
X75808623Y-104545898D01*
X75744948Y-104426770D01*
X75503529Y-104358216D01*
X74708285Y-105153460D01*
X74349075Y-105153460D01*
X73553831Y-104358216D01*
X73312412Y-104426770D01*
X73194012Y-104678016D01*
X73126902Y-104947531D01*
X73113662Y-105224962D01*
X69912700Y-105224962D01*
X69912700Y-103588309D01*
X73733436Y-103588309D01*
X73801990Y-103829728D01*
X73908839Y-103880080D01*
X73801990Y-103937192D01*
X73733436Y-104178611D01*
X74528680Y-104973855D01*
X75323924Y-104178611D01*
X75255370Y-103937192D01*
X75148521Y-103886840D01*
X75255370Y-103829728D01*
X75323924Y-103588309D01*
X78813436Y-103588309D01*
X78881990Y-103829728D01*
X78988839Y-103880080D01*
X78881990Y-103937192D01*
X78813436Y-104178611D01*
X79608680Y-104973855D01*
X80403924Y-104178611D01*
X80335370Y-103937192D01*
X80228521Y-103886840D01*
X80335370Y-103829728D01*
X80403924Y-103588309D01*
X79608680Y-102793065D01*
X78813436Y-103588309D01*
X75323924Y-103588309D01*
X74528680Y-102793065D01*
X73733436Y-103588309D01*
X69912700Y-103588309D01*
X69912700Y-102684962D01*
X73113662Y-102684962D01*
X73154801Y-102959644D01*
X73248737Y-103221022D01*
X73312412Y-103340150D01*
X73553831Y-103408704D01*
X74349075Y-102613460D01*
X74708285Y-102613460D01*
X75503529Y-103408704D01*
X75744948Y-103340150D01*
X75863348Y-103088904D01*
X75930458Y-102819389D01*
X75936873Y-102684962D01*
X78193662Y-102684962D01*
X78234801Y-102959644D01*
X78328737Y-103221022D01*
X78392412Y-103340150D01*
X78633831Y-103408704D01*
X79429075Y-102613460D01*
X79788285Y-102613460D01*
X80583529Y-103408704D01*
X80824948Y-103340150D01*
X80943348Y-103088904D01*
X81010458Y-102819389D01*
X81023698Y-102541958D01*
X80982559Y-102267276D01*
X80888623Y-102005898D01*
X80824948Y-101886770D01*
X80583529Y-101818216D01*
X79788285Y-102613460D01*
X79429075Y-102613460D01*
X78633831Y-101818216D01*
X78392412Y-101886770D01*
X78274012Y-102138016D01*
X78206902Y-102407531D01*
X78193662Y-102684962D01*
X75936873Y-102684962D01*
X75943698Y-102541958D01*
X75902559Y-102267276D01*
X75808623Y-102005898D01*
X75744948Y-101886770D01*
X75503529Y-101818216D01*
X74708285Y-102613460D01*
X74349075Y-102613460D01*
X73553831Y-101818216D01*
X73312412Y-101886770D01*
X73194012Y-102138016D01*
X73126902Y-102407531D01*
X73113662Y-102684962D01*
X69912700Y-102684962D01*
X69912700Y-101048309D01*
X73733436Y-101048309D01*
X73801990Y-101289728D01*
X73908839Y-101340080D01*
X73801990Y-101397192D01*
X73733436Y-101638611D01*
X74528680Y-102433855D01*
X75323924Y-101638611D01*
X75255370Y-101397192D01*
X75148521Y-101346840D01*
X75255370Y-101289728D01*
X75323924Y-101048309D01*
X78813436Y-101048309D01*
X78881990Y-101289728D01*
X78988839Y-101340080D01*
X78881990Y-101397192D01*
X78813436Y-101638611D01*
X79608680Y-102433855D01*
X80351434Y-101691101D01*
X186574480Y-101691101D01*
X186574480Y-101894979D01*
X186614254Y-102094938D01*
X186692275Y-102283296D01*
X186805543Y-102452814D01*
X186949706Y-102596977D01*
X187119224Y-102710245D01*
X187307582Y-102788266D01*
X187507541Y-102828040D01*
X187711419Y-102828040D01*
X187911378Y-102788266D01*
X188099736Y-102710245D01*
X188269254Y-102596977D01*
X188413417Y-102452814D01*
X188526685Y-102283296D01*
X188604706Y-102094938D01*
X188644480Y-101894979D01*
X188644480Y-101691101D01*
X188604706Y-101491142D01*
X188526685Y-101302784D01*
X188431023Y-101159614D01*
X218155471Y-101159614D01*
X218330427Y-101491299D01*
X218732020Y-101697819D01*
X219166186Y-101822024D01*
X219616241Y-101859141D01*
X220064889Y-101807743D01*
X220494890Y-101669806D01*
X220828853Y-101491299D01*
X221003809Y-101159614D01*
X224755471Y-101159614D01*
X224930427Y-101491299D01*
X225332020Y-101697819D01*
X225766186Y-101822024D01*
X226216241Y-101859141D01*
X226664889Y-101807743D01*
X227094890Y-101669806D01*
X227428853Y-101491299D01*
X227603809Y-101159614D01*
X226179640Y-99735445D01*
X224755471Y-101159614D01*
X221003809Y-101159614D01*
X219579640Y-99735445D01*
X218155471Y-101159614D01*
X188431023Y-101159614D01*
X188413417Y-101133266D01*
X188269254Y-100989103D01*
X188099736Y-100875835D01*
X187911378Y-100797814D01*
X187711419Y-100758040D01*
X187507541Y-100758040D01*
X187307582Y-100797814D01*
X187119224Y-100875835D01*
X186949706Y-100989103D01*
X186805543Y-101133266D01*
X186692275Y-101302784D01*
X186614254Y-101491142D01*
X186574480Y-101691101D01*
X80351434Y-101691101D01*
X80403924Y-101638611D01*
X80335370Y-101397192D01*
X80228521Y-101346840D01*
X80335370Y-101289728D01*
X80403924Y-101048309D01*
X79608680Y-100253065D01*
X78813436Y-101048309D01*
X75323924Y-101048309D01*
X74528680Y-100253065D01*
X73733436Y-101048309D01*
X69912700Y-101048309D01*
X69912700Y-100144962D01*
X73113662Y-100144962D01*
X73154801Y-100419644D01*
X73248737Y-100681022D01*
X73312412Y-100800150D01*
X73553831Y-100868704D01*
X74349075Y-100073460D01*
X74708285Y-100073460D01*
X75503529Y-100868704D01*
X75744948Y-100800150D01*
X75863348Y-100548904D01*
X75930458Y-100279389D01*
X75936873Y-100144962D01*
X78193662Y-100144962D01*
X78234801Y-100419644D01*
X78328737Y-100681022D01*
X78392412Y-100800150D01*
X78633831Y-100868704D01*
X79429075Y-100073460D01*
X79788285Y-100073460D01*
X80583529Y-100868704D01*
X80824948Y-100800150D01*
X80943348Y-100548904D01*
X81010458Y-100279389D01*
X81023698Y-100001958D01*
X80982559Y-99727276D01*
X80888623Y-99465898D01*
X80824948Y-99346770D01*
X80583529Y-99278216D01*
X79788285Y-100073460D01*
X79429075Y-100073460D01*
X78633831Y-99278216D01*
X78392412Y-99346770D01*
X78274012Y-99598016D01*
X78206902Y-99867531D01*
X78193662Y-100144962D01*
X75936873Y-100144962D01*
X75943698Y-100001958D01*
X75902559Y-99727276D01*
X75808623Y-99465898D01*
X75744948Y-99346770D01*
X75503529Y-99278216D01*
X74708285Y-100073460D01*
X74349075Y-100073460D01*
X73553831Y-99278216D01*
X73312412Y-99346770D01*
X73194012Y-99598016D01*
X73126902Y-99867531D01*
X73113662Y-100144962D01*
X69912700Y-100144962D01*
X69912700Y-98508309D01*
X73733436Y-98508309D01*
X73801990Y-98749728D01*
X73908839Y-98800080D01*
X73801990Y-98857192D01*
X73733436Y-99098611D01*
X74528680Y-99893855D01*
X75323924Y-99098611D01*
X75255370Y-98857192D01*
X75148521Y-98806840D01*
X75255370Y-98749728D01*
X75323924Y-98508309D01*
X78813436Y-98508309D01*
X78881990Y-98749728D01*
X78988839Y-98800080D01*
X78881990Y-98857192D01*
X78813436Y-99098611D01*
X79608680Y-99893855D01*
X80403924Y-99098611D01*
X80335370Y-98857192D01*
X80306869Y-98843761D01*
X125431600Y-98843761D01*
X125431600Y-99047639D01*
X125471374Y-99247598D01*
X125549395Y-99435956D01*
X125662663Y-99605474D01*
X125806826Y-99749637D01*
X125976344Y-99862905D01*
X126164702Y-99940926D01*
X126364661Y-99980700D01*
X126568539Y-99980700D01*
X126768498Y-99940926D01*
X126956856Y-99862905D01*
X127126374Y-99749637D01*
X127270537Y-99605474D01*
X127383805Y-99435956D01*
X127461826Y-99247598D01*
X127501600Y-99047639D01*
X127501600Y-98843761D01*
X127461826Y-98643802D01*
X127383805Y-98455444D01*
X127270537Y-98285926D01*
X127126374Y-98141763D01*
X126956856Y-98028495D01*
X126768498Y-97950474D01*
X126568539Y-97910700D01*
X126364661Y-97910700D01*
X126164702Y-97950474D01*
X125976344Y-98028495D01*
X125806826Y-98141763D01*
X125662663Y-98285926D01*
X125549395Y-98455444D01*
X125471374Y-98643802D01*
X125431600Y-98843761D01*
X80306869Y-98843761D01*
X80228521Y-98806840D01*
X80335370Y-98749728D01*
X80403924Y-98508309D01*
X79608680Y-97713065D01*
X78813436Y-98508309D01*
X75323924Y-98508309D01*
X74528680Y-97713065D01*
X73733436Y-98508309D01*
X69912700Y-98508309D01*
X69912700Y-97604962D01*
X73113662Y-97604962D01*
X73154801Y-97879644D01*
X73248737Y-98141022D01*
X73312412Y-98260150D01*
X73553831Y-98328704D01*
X74349075Y-97533460D01*
X74708285Y-97533460D01*
X75503529Y-98328704D01*
X75744948Y-98260150D01*
X75863348Y-98008904D01*
X75930458Y-97739389D01*
X75936873Y-97604962D01*
X78193662Y-97604962D01*
X78234801Y-97879644D01*
X78328737Y-98141022D01*
X78392412Y-98260150D01*
X78633831Y-98328704D01*
X79429075Y-97533460D01*
X79788285Y-97533460D01*
X80583529Y-98328704D01*
X80824948Y-98260150D01*
X80943348Y-98008904D01*
X80989100Y-97825160D01*
X206124568Y-97825160D01*
X206124568Y-99525160D01*
X206136828Y-99649642D01*
X206173138Y-99769340D01*
X206232103Y-99879654D01*
X206311455Y-99976345D01*
X206408146Y-100055697D01*
X206518460Y-100114662D01*
X206638158Y-100150972D01*
X206762640Y-100163232D01*
X208462640Y-100163232D01*
X208587122Y-100150972D01*
X208706820Y-100114662D01*
X208817134Y-100055697D01*
X208913825Y-99976345D01*
X208993177Y-99879654D01*
X209052142Y-99769340D01*
X209088452Y-99649642D01*
X209094085Y-99592441D01*
X217276339Y-99592441D01*
X217327737Y-100041089D01*
X217465674Y-100471090D01*
X217644181Y-100805053D01*
X217975866Y-100980009D01*
X219400035Y-99555840D01*
X219759245Y-99555840D01*
X221183414Y-100980009D01*
X221515099Y-100805053D01*
X221721619Y-100403460D01*
X221845824Y-99969294D01*
X221876903Y-99592441D01*
X223876339Y-99592441D01*
X223927737Y-100041089D01*
X224065674Y-100471090D01*
X224244181Y-100805053D01*
X224575866Y-100980009D01*
X226000035Y-99555840D01*
X226359245Y-99555840D01*
X227783414Y-100980009D01*
X228115099Y-100805053D01*
X228321619Y-100403460D01*
X228445824Y-99969294D01*
X228482941Y-99519239D01*
X228431543Y-99070591D01*
X228293606Y-98640590D01*
X228115099Y-98306627D01*
X227783414Y-98131671D01*
X226359245Y-99555840D01*
X226000035Y-99555840D01*
X224575866Y-98131671D01*
X224244181Y-98306627D01*
X224037661Y-98708220D01*
X223913456Y-99142386D01*
X223876339Y-99592441D01*
X221876903Y-99592441D01*
X221882941Y-99519239D01*
X221831543Y-99070591D01*
X221693606Y-98640590D01*
X221515099Y-98306627D01*
X221183414Y-98131671D01*
X219759245Y-99555840D01*
X219400035Y-99555840D01*
X217975866Y-98131671D01*
X217644181Y-98306627D01*
X217437661Y-98708220D01*
X217313456Y-99142386D01*
X217276339Y-99592441D01*
X209094085Y-99592441D01*
X209100712Y-99525160D01*
X209100712Y-97952066D01*
X218155471Y-97952066D01*
X219579640Y-99376235D01*
X221003809Y-97952066D01*
X224755471Y-97952066D01*
X226179640Y-99376235D01*
X227603809Y-97952066D01*
X227428853Y-97620381D01*
X227027260Y-97413861D01*
X226593094Y-97289656D01*
X226143039Y-97252539D01*
X225694391Y-97303937D01*
X225264390Y-97441874D01*
X224930427Y-97620381D01*
X224755471Y-97952066D01*
X221003809Y-97952066D01*
X220828853Y-97620381D01*
X220427260Y-97413861D01*
X219993094Y-97289656D01*
X219543039Y-97252539D01*
X219094391Y-97303937D01*
X218664390Y-97441874D01*
X218330427Y-97620381D01*
X218155471Y-97952066D01*
X209100712Y-97952066D01*
X209100712Y-97825160D01*
X209088452Y-97700678D01*
X209052142Y-97580980D01*
X208993177Y-97470666D01*
X208913825Y-97373975D01*
X208817134Y-97294623D01*
X208706820Y-97235658D01*
X208634260Y-97213647D01*
X208766115Y-97081792D01*
X208928630Y-96838571D01*
X209040572Y-96568318D01*
X209097640Y-96281420D01*
X209097640Y-96099485D01*
X221292140Y-96099485D01*
X221292140Y-96412195D01*
X221353147Y-96718897D01*
X221472816Y-97007803D01*
X221646548Y-97267812D01*
X221867668Y-97488932D01*
X222127677Y-97662664D01*
X222416583Y-97782333D01*
X222723285Y-97843340D01*
X223035995Y-97843340D01*
X223342697Y-97782333D01*
X223631603Y-97662664D01*
X223891612Y-97488932D01*
X224112732Y-97267812D01*
X224286464Y-97007803D01*
X224406133Y-96718897D01*
X224467140Y-96412195D01*
X224467140Y-96099485D01*
X224406133Y-95792783D01*
X224286464Y-95503877D01*
X224112732Y-95243868D01*
X223891612Y-95022748D01*
X223631603Y-94849016D01*
X223342697Y-94729347D01*
X223035995Y-94668340D01*
X222723285Y-94668340D01*
X222416583Y-94729347D01*
X222127677Y-94849016D01*
X221867668Y-95022748D01*
X221646548Y-95243868D01*
X221472816Y-95503877D01*
X221353147Y-95792783D01*
X221292140Y-96099485D01*
X209097640Y-96099485D01*
X209097640Y-95988900D01*
X209040572Y-95702002D01*
X208928630Y-95431749D01*
X208766115Y-95188528D01*
X208559272Y-94981685D01*
X208384880Y-94865160D01*
X208559272Y-94748635D01*
X208748293Y-94559614D01*
X218155471Y-94559614D01*
X218330427Y-94891299D01*
X218732020Y-95097819D01*
X219166186Y-95222024D01*
X219616241Y-95259141D01*
X220064889Y-95207743D01*
X220494890Y-95069806D01*
X220828853Y-94891299D01*
X221003809Y-94559614D01*
X224755471Y-94559614D01*
X224930427Y-94891299D01*
X225332020Y-95097819D01*
X225766186Y-95222024D01*
X226216241Y-95259141D01*
X226664889Y-95207743D01*
X227094890Y-95069806D01*
X227428853Y-94891299D01*
X227603809Y-94559614D01*
X226179640Y-93135445D01*
X224755471Y-94559614D01*
X221003809Y-94559614D01*
X219579640Y-93135445D01*
X218155471Y-94559614D01*
X208748293Y-94559614D01*
X208766115Y-94541792D01*
X208928630Y-94298571D01*
X209040572Y-94028318D01*
X209097640Y-93741420D01*
X209097640Y-93448900D01*
X209040572Y-93162002D01*
X208970338Y-92992441D01*
X217276339Y-92992441D01*
X217327737Y-93441089D01*
X217465674Y-93871090D01*
X217644181Y-94205053D01*
X217975866Y-94380009D01*
X219400035Y-92955840D01*
X219759245Y-92955840D01*
X221183414Y-94380009D01*
X221515099Y-94205053D01*
X221721619Y-93803460D01*
X221845824Y-93369294D01*
X221876903Y-92992441D01*
X223876339Y-92992441D01*
X223927737Y-93441089D01*
X224065674Y-93871090D01*
X224244181Y-94205053D01*
X224575866Y-94380009D01*
X226000035Y-92955840D01*
X226359245Y-92955840D01*
X227783414Y-94380009D01*
X228115099Y-94205053D01*
X228321619Y-93803460D01*
X228445824Y-93369294D01*
X228482941Y-92919239D01*
X228431543Y-92470591D01*
X228293606Y-92040590D01*
X228115099Y-91706627D01*
X227783414Y-91531671D01*
X226359245Y-92955840D01*
X226000035Y-92955840D01*
X224575866Y-91531671D01*
X224244181Y-91706627D01*
X224037661Y-92108220D01*
X223913456Y-92542386D01*
X223876339Y-92992441D01*
X221876903Y-92992441D01*
X221882941Y-92919239D01*
X221831543Y-92470591D01*
X221693606Y-92040590D01*
X221515099Y-91706627D01*
X221183414Y-91531671D01*
X219759245Y-92955840D01*
X219400035Y-92955840D01*
X217975866Y-91531671D01*
X217644181Y-91706627D01*
X217437661Y-92108220D01*
X217313456Y-92542386D01*
X217276339Y-92992441D01*
X208970338Y-92992441D01*
X208928630Y-92891749D01*
X208766115Y-92648528D01*
X208559272Y-92441685D01*
X208316051Y-92279170D01*
X208045798Y-92167228D01*
X207758900Y-92110160D01*
X207466380Y-92110160D01*
X207179482Y-92167228D01*
X206909229Y-92279170D01*
X206666008Y-92441685D01*
X206459165Y-92648528D01*
X206296650Y-92891749D01*
X206184708Y-93162002D01*
X206127640Y-93448900D01*
X206127640Y-93741420D01*
X206184708Y-94028318D01*
X206296650Y-94298571D01*
X206459165Y-94541792D01*
X206666008Y-94748635D01*
X206840400Y-94865160D01*
X206666008Y-94981685D01*
X206459165Y-95188528D01*
X206296650Y-95431749D01*
X206184708Y-95702002D01*
X206127640Y-95988900D01*
X206127640Y-96281420D01*
X206184708Y-96568318D01*
X206296650Y-96838571D01*
X206459165Y-97081792D01*
X206591020Y-97213647D01*
X206518460Y-97235658D01*
X206408146Y-97294623D01*
X206311455Y-97373975D01*
X206232103Y-97470666D01*
X206173138Y-97580980D01*
X206136828Y-97700678D01*
X206124568Y-97825160D01*
X80989100Y-97825160D01*
X81010458Y-97739389D01*
X81023698Y-97461958D01*
X80982559Y-97187276D01*
X80888623Y-96925898D01*
X80824948Y-96806770D01*
X80583529Y-96738216D01*
X79788285Y-97533460D01*
X79429075Y-97533460D01*
X78633831Y-96738216D01*
X78392412Y-96806770D01*
X78274012Y-97058016D01*
X78206902Y-97327531D01*
X78193662Y-97604962D01*
X75936873Y-97604962D01*
X75943698Y-97461958D01*
X75902559Y-97187276D01*
X75808623Y-96925898D01*
X75744948Y-96806770D01*
X75503529Y-96738216D01*
X74708285Y-97533460D01*
X74349075Y-97533460D01*
X73553831Y-96738216D01*
X73312412Y-96806770D01*
X73194012Y-97058016D01*
X73126902Y-97327531D01*
X73113662Y-97604962D01*
X69912700Y-97604962D01*
X69912700Y-95968309D01*
X73733436Y-95968309D01*
X73801990Y-96209728D01*
X73908839Y-96260080D01*
X73801990Y-96317192D01*
X73733436Y-96558611D01*
X74528680Y-97353855D01*
X75323924Y-96558611D01*
X75255370Y-96317192D01*
X75148521Y-96266840D01*
X75255370Y-96209728D01*
X75323924Y-95968309D01*
X78813436Y-95968309D01*
X78881990Y-96209728D01*
X78988839Y-96260080D01*
X78881990Y-96317192D01*
X78813436Y-96558611D01*
X79608680Y-97353855D01*
X80403924Y-96558611D01*
X80335370Y-96317192D01*
X80228521Y-96266840D01*
X80335370Y-96209728D01*
X80403924Y-95968309D01*
X79608680Y-95173065D01*
X78813436Y-95968309D01*
X75323924Y-95968309D01*
X74528680Y-95173065D01*
X73733436Y-95968309D01*
X69912700Y-95968309D01*
X69912700Y-95064962D01*
X73113662Y-95064962D01*
X73154801Y-95339644D01*
X73248737Y-95601022D01*
X73312412Y-95720150D01*
X73553831Y-95788704D01*
X74349075Y-94993460D01*
X74708285Y-94993460D01*
X75503529Y-95788704D01*
X75744948Y-95720150D01*
X75863348Y-95468904D01*
X75930458Y-95199389D01*
X75936873Y-95064962D01*
X78193662Y-95064962D01*
X78234801Y-95339644D01*
X78328737Y-95601022D01*
X78392412Y-95720150D01*
X78633831Y-95788704D01*
X79429075Y-94993460D01*
X79788285Y-94993460D01*
X80583529Y-95788704D01*
X80824948Y-95720150D01*
X80943348Y-95468904D01*
X81010458Y-95199389D01*
X81023698Y-94921958D01*
X80982559Y-94647276D01*
X80888623Y-94385898D01*
X80824948Y-94266770D01*
X80583529Y-94198216D01*
X79788285Y-94993460D01*
X79429075Y-94993460D01*
X78633831Y-94198216D01*
X78392412Y-94266770D01*
X78274012Y-94518016D01*
X78206902Y-94787531D01*
X78193662Y-95064962D01*
X75936873Y-95064962D01*
X75943698Y-94921958D01*
X75902559Y-94647276D01*
X75808623Y-94385898D01*
X75744948Y-94266770D01*
X75503529Y-94198216D01*
X74708285Y-94993460D01*
X74349075Y-94993460D01*
X73553831Y-94198216D01*
X73312412Y-94266770D01*
X73194012Y-94518016D01*
X73126902Y-94787531D01*
X73113662Y-95064962D01*
X69912700Y-95064962D01*
X69912700Y-93428309D01*
X73733436Y-93428309D01*
X73801990Y-93669728D01*
X73908839Y-93720080D01*
X73801990Y-93777192D01*
X73733436Y-94018611D01*
X74528680Y-94813855D01*
X75323924Y-94018611D01*
X75255370Y-93777192D01*
X75148521Y-93726840D01*
X75255370Y-93669728D01*
X75323924Y-93428309D01*
X78813436Y-93428309D01*
X78881990Y-93669728D01*
X78988839Y-93720080D01*
X78881990Y-93777192D01*
X78813436Y-94018611D01*
X79608680Y-94813855D01*
X80371754Y-94050781D01*
X179856180Y-94050781D01*
X179856180Y-94254659D01*
X179895954Y-94454618D01*
X179973975Y-94642976D01*
X180087243Y-94812494D01*
X180231406Y-94956657D01*
X180400924Y-95069925D01*
X180589282Y-95147946D01*
X180789241Y-95187720D01*
X180993119Y-95187720D01*
X181193078Y-95147946D01*
X181381436Y-95069925D01*
X181550954Y-94956657D01*
X181695117Y-94812494D01*
X181808385Y-94642976D01*
X181886406Y-94454618D01*
X181926180Y-94254659D01*
X181926180Y-94050781D01*
X181886406Y-93850822D01*
X181808385Y-93662464D01*
X181695117Y-93492946D01*
X181550954Y-93348783D01*
X181381436Y-93235515D01*
X181193078Y-93157494D01*
X180993119Y-93117720D01*
X180789241Y-93117720D01*
X180589282Y-93157494D01*
X180400924Y-93235515D01*
X180231406Y-93348783D01*
X180087243Y-93492946D01*
X179973975Y-93662464D01*
X179895954Y-93850822D01*
X179856180Y-94050781D01*
X80371754Y-94050781D01*
X80403924Y-94018611D01*
X80335370Y-93777192D01*
X80228521Y-93726840D01*
X80335370Y-93669728D01*
X80403924Y-93428309D01*
X79608680Y-92633065D01*
X78813436Y-93428309D01*
X75323924Y-93428309D01*
X74528680Y-92633065D01*
X73733436Y-93428309D01*
X69912700Y-93428309D01*
X69912700Y-92524962D01*
X73113662Y-92524962D01*
X73154801Y-92799644D01*
X73248737Y-93061022D01*
X73312412Y-93180150D01*
X73553831Y-93248704D01*
X74349075Y-92453460D01*
X74708285Y-92453460D01*
X75503529Y-93248704D01*
X75744948Y-93180150D01*
X75863348Y-92928904D01*
X75930458Y-92659389D01*
X75936873Y-92524962D01*
X78193662Y-92524962D01*
X78234801Y-92799644D01*
X78328737Y-93061022D01*
X78392412Y-93180150D01*
X78633831Y-93248704D01*
X79429075Y-92453460D01*
X79788285Y-92453460D01*
X80583529Y-93248704D01*
X80824948Y-93180150D01*
X80943348Y-92928904D01*
X81010458Y-92659389D01*
X81023698Y-92381958D01*
X80982559Y-92107276D01*
X80888623Y-91845898D01*
X80824948Y-91726770D01*
X80583529Y-91658216D01*
X79788285Y-92453460D01*
X79429075Y-92453460D01*
X78633831Y-91658216D01*
X78392412Y-91726770D01*
X78274012Y-91978016D01*
X78206902Y-92247531D01*
X78193662Y-92524962D01*
X75936873Y-92524962D01*
X75943698Y-92381958D01*
X75902559Y-92107276D01*
X75808623Y-91845898D01*
X75744948Y-91726770D01*
X75503529Y-91658216D01*
X74708285Y-92453460D01*
X74349075Y-92453460D01*
X73553831Y-91658216D01*
X73312412Y-91726770D01*
X73194012Y-91978016D01*
X73126902Y-92247531D01*
X73113662Y-92524962D01*
X69912700Y-92524962D01*
X69912700Y-90888309D01*
X73733436Y-90888309D01*
X73801990Y-91129728D01*
X73908839Y-91180080D01*
X73801990Y-91237192D01*
X73733436Y-91478611D01*
X74528680Y-92273855D01*
X75323924Y-91478611D01*
X75255370Y-91237192D01*
X75148521Y-91186840D01*
X75255370Y-91129728D01*
X75323924Y-90888309D01*
X74528680Y-90093065D01*
X73733436Y-90888309D01*
X69912700Y-90888309D01*
X69912700Y-89984962D01*
X73113662Y-89984962D01*
X73154801Y-90259644D01*
X73248737Y-90521022D01*
X73312412Y-90640150D01*
X73553831Y-90708704D01*
X74349075Y-89913460D01*
X74708285Y-89913460D01*
X75503529Y-90708704D01*
X75744948Y-90640150D01*
X75863348Y-90388904D01*
X75930458Y-90119389D01*
X75943698Y-89841958D01*
X75933608Y-89774587D01*
X78198680Y-89774587D01*
X78198680Y-90052333D01*
X78252866Y-90324742D01*
X78359155Y-90581345D01*
X78513462Y-90812282D01*
X78709858Y-91008678D01*
X78940795Y-91162985D01*
X78985882Y-91181661D01*
X78881990Y-91237192D01*
X78813436Y-91478611D01*
X79608680Y-92273855D01*
X80403924Y-91478611D01*
X80335370Y-91237192D01*
X80224056Y-91184735D01*
X80276565Y-91162985D01*
X80507502Y-91008678D01*
X80642939Y-90873241D01*
X177849580Y-90873241D01*
X177849580Y-91077119D01*
X177889354Y-91277078D01*
X177967375Y-91465436D01*
X178080643Y-91634954D01*
X178224806Y-91779117D01*
X178394324Y-91892385D01*
X178582682Y-91970406D01*
X178782641Y-92010180D01*
X178986519Y-92010180D01*
X179186478Y-91970406D01*
X179374836Y-91892385D01*
X179544354Y-91779117D01*
X179688517Y-91634954D01*
X179801785Y-91465436D01*
X179848744Y-91352066D01*
X218155471Y-91352066D01*
X219579640Y-92776235D01*
X221003809Y-91352066D01*
X224755471Y-91352066D01*
X226179640Y-92776235D01*
X227603809Y-91352066D01*
X227428853Y-91020381D01*
X227027260Y-90813861D01*
X226593094Y-90689656D01*
X226143039Y-90652539D01*
X225694391Y-90703937D01*
X225264390Y-90841874D01*
X224930427Y-91020381D01*
X224755471Y-91352066D01*
X221003809Y-91352066D01*
X220828853Y-91020381D01*
X220427260Y-90813861D01*
X219993094Y-90689656D01*
X219543039Y-90652539D01*
X219094391Y-90703937D01*
X218664390Y-90841874D01*
X218330427Y-91020381D01*
X218155471Y-91352066D01*
X179848744Y-91352066D01*
X179879806Y-91277078D01*
X179919580Y-91077119D01*
X179919580Y-90873241D01*
X179879806Y-90673282D01*
X179801785Y-90484924D01*
X179688517Y-90315406D01*
X179544354Y-90171243D01*
X179374836Y-90057975D01*
X179186478Y-89979954D01*
X178986519Y-89940180D01*
X178782641Y-89940180D01*
X178582682Y-89979954D01*
X178394324Y-90057975D01*
X178224806Y-90171243D01*
X178080643Y-90315406D01*
X177967375Y-90484924D01*
X177889354Y-90673282D01*
X177849580Y-90873241D01*
X80642939Y-90873241D01*
X80703898Y-90812282D01*
X80858205Y-90581345D01*
X80964494Y-90324742D01*
X81018680Y-90052333D01*
X81018680Y-89774587D01*
X80964494Y-89502178D01*
X80858205Y-89245575D01*
X80703898Y-89014638D01*
X80507502Y-88818242D01*
X80276565Y-88663935D01*
X80231478Y-88645259D01*
X80335370Y-88589728D01*
X80403924Y-88348309D01*
X79608680Y-87553065D01*
X78813436Y-88348309D01*
X78881990Y-88589728D01*
X78993304Y-88642185D01*
X78940795Y-88663935D01*
X78709858Y-88818242D01*
X78513462Y-89014638D01*
X78359155Y-89245575D01*
X78252866Y-89502178D01*
X78198680Y-89774587D01*
X75933608Y-89774587D01*
X75902559Y-89567276D01*
X75808623Y-89305898D01*
X75744948Y-89186770D01*
X75503529Y-89118216D01*
X74708285Y-89913460D01*
X74349075Y-89913460D01*
X73553831Y-89118216D01*
X73312412Y-89186770D01*
X73194012Y-89438016D01*
X73126902Y-89707531D01*
X73113662Y-89984962D01*
X69912700Y-89984962D01*
X69912700Y-88348309D01*
X73733436Y-88348309D01*
X73801990Y-88589728D01*
X73908839Y-88640080D01*
X73801990Y-88697192D01*
X73733436Y-88938611D01*
X74528680Y-89733855D01*
X75323924Y-88938611D01*
X75255370Y-88697192D01*
X75148521Y-88646840D01*
X75255370Y-88589728D01*
X75323924Y-88348309D01*
X74528680Y-87553065D01*
X73733436Y-88348309D01*
X69912700Y-88348309D01*
X69912700Y-87444962D01*
X73113662Y-87444962D01*
X73154801Y-87719644D01*
X73248737Y-87981022D01*
X73312412Y-88100150D01*
X73553831Y-88168704D01*
X74349075Y-87373460D01*
X74708285Y-87373460D01*
X75503529Y-88168704D01*
X75744948Y-88100150D01*
X75863348Y-87848904D01*
X75930458Y-87579389D01*
X75936873Y-87444962D01*
X78193662Y-87444962D01*
X78234801Y-87719644D01*
X78328737Y-87981022D01*
X78392412Y-88100150D01*
X78633831Y-88168704D01*
X79429075Y-87373460D01*
X79788285Y-87373460D01*
X80583529Y-88168704D01*
X80824948Y-88100150D01*
X80941332Y-87853181D01*
X187232340Y-87853181D01*
X187232340Y-88057059D01*
X187272114Y-88257018D01*
X187350135Y-88445376D01*
X187463403Y-88614894D01*
X187607566Y-88759057D01*
X187777084Y-88872325D01*
X187965442Y-88950346D01*
X188165401Y-88990120D01*
X188369279Y-88990120D01*
X188569238Y-88950346D01*
X188757596Y-88872325D01*
X188927114Y-88759057D01*
X189071277Y-88614894D01*
X189184545Y-88445376D01*
X189262566Y-88257018D01*
X189302340Y-88057059D01*
X189302340Y-87853181D01*
X189262566Y-87653222D01*
X189184545Y-87464864D01*
X189071277Y-87295346D01*
X188927114Y-87151183D01*
X188757596Y-87037915D01*
X188569238Y-86959894D01*
X188369279Y-86920120D01*
X188165401Y-86920120D01*
X187965442Y-86959894D01*
X187777084Y-87037915D01*
X187607566Y-87151183D01*
X187463403Y-87295346D01*
X187350135Y-87464864D01*
X187272114Y-87653222D01*
X187232340Y-87853181D01*
X80941332Y-87853181D01*
X80943348Y-87848904D01*
X81010458Y-87579389D01*
X81023698Y-87301958D01*
X80982559Y-87027276D01*
X80888623Y-86765898D01*
X80824948Y-86646770D01*
X80583529Y-86578216D01*
X79788285Y-87373460D01*
X79429075Y-87373460D01*
X78633831Y-86578216D01*
X78392412Y-86646770D01*
X78274012Y-86898016D01*
X78206902Y-87167531D01*
X78193662Y-87444962D01*
X75936873Y-87444962D01*
X75943698Y-87301958D01*
X75902559Y-87027276D01*
X75808623Y-86765898D01*
X75744948Y-86646770D01*
X75503529Y-86578216D01*
X74708285Y-87373460D01*
X74349075Y-87373460D01*
X73553831Y-86578216D01*
X73312412Y-86646770D01*
X73194012Y-86898016D01*
X73126902Y-87167531D01*
X73113662Y-87444962D01*
X69912700Y-87444962D01*
X69912700Y-85808309D01*
X73733436Y-85808309D01*
X73801990Y-86049728D01*
X73908839Y-86100080D01*
X73801990Y-86157192D01*
X73733436Y-86398611D01*
X74528680Y-87193855D01*
X75323924Y-86398611D01*
X75255370Y-86157192D01*
X75148521Y-86106840D01*
X75255370Y-86049728D01*
X75323924Y-85808309D01*
X74528680Y-85013065D01*
X73733436Y-85808309D01*
X69912700Y-85808309D01*
X69912700Y-84904962D01*
X73113662Y-84904962D01*
X73154801Y-85179644D01*
X73248737Y-85441022D01*
X73312412Y-85560150D01*
X73553831Y-85628704D01*
X74349075Y-84833460D01*
X74708285Y-84833460D01*
X75503529Y-85628704D01*
X75744948Y-85560150D01*
X75863348Y-85308904D01*
X75930458Y-85039389D01*
X75943698Y-84761958D01*
X75933608Y-84694587D01*
X78198680Y-84694587D01*
X78198680Y-84972333D01*
X78252866Y-85244742D01*
X78359155Y-85501345D01*
X78513462Y-85732282D01*
X78709858Y-85928678D01*
X78940795Y-86082985D01*
X78985882Y-86101661D01*
X78881990Y-86157192D01*
X78813436Y-86398611D01*
X79608680Y-87193855D01*
X80403924Y-86398611D01*
X80335370Y-86157192D01*
X80224056Y-86104735D01*
X80276565Y-86082985D01*
X80507502Y-85928678D01*
X80703898Y-85732282D01*
X80858205Y-85501345D01*
X80964494Y-85244742D01*
X81018680Y-84972333D01*
X81018680Y-84694587D01*
X80964494Y-84422178D01*
X80858205Y-84165575D01*
X80703898Y-83934638D01*
X80507502Y-83738242D01*
X80389868Y-83659641D01*
X125050600Y-83659641D01*
X125050600Y-83863519D01*
X125090374Y-84063478D01*
X125168395Y-84251836D01*
X125281663Y-84421354D01*
X125425826Y-84565517D01*
X125595344Y-84678785D01*
X125783702Y-84756806D01*
X125983661Y-84796580D01*
X126187539Y-84796580D01*
X126387498Y-84756806D01*
X126575856Y-84678785D01*
X126745374Y-84565517D01*
X126889537Y-84421354D01*
X127002805Y-84251836D01*
X127080826Y-84063478D01*
X127120600Y-83863519D01*
X127120600Y-83659641D01*
X127080826Y-83459682D01*
X127002805Y-83271324D01*
X126889537Y-83101806D01*
X126759032Y-82971301D01*
X136770160Y-82971301D01*
X136770160Y-83175179D01*
X136809934Y-83375138D01*
X136887955Y-83563496D01*
X137001223Y-83733014D01*
X137145386Y-83877177D01*
X137314904Y-83990445D01*
X137503262Y-84068466D01*
X137703221Y-84108240D01*
X137907099Y-84108240D01*
X138107058Y-84068466D01*
X138295416Y-83990445D01*
X138464934Y-83877177D01*
X138609097Y-83733014D01*
X138722365Y-83563496D01*
X138800386Y-83375138D01*
X138814527Y-83304041D01*
X187107880Y-83304041D01*
X187107880Y-83507919D01*
X187147654Y-83707878D01*
X187225675Y-83896236D01*
X187338943Y-84065754D01*
X187483106Y-84209917D01*
X187652624Y-84323185D01*
X187840982Y-84401206D01*
X188040941Y-84440980D01*
X188244819Y-84440980D01*
X188444778Y-84401206D01*
X188633136Y-84323185D01*
X188802654Y-84209917D01*
X188946817Y-84065754D01*
X189060085Y-83896236D01*
X189138106Y-83707878D01*
X189177880Y-83507919D01*
X189177880Y-83304041D01*
X189138106Y-83104082D01*
X189060085Y-82915724D01*
X188946817Y-82746206D01*
X188802654Y-82602043D01*
X188633136Y-82488775D01*
X188444778Y-82410754D01*
X188244819Y-82370980D01*
X188040941Y-82370980D01*
X187840982Y-82410754D01*
X187652624Y-82488775D01*
X187483106Y-82602043D01*
X187338943Y-82746206D01*
X187225675Y-82915724D01*
X187147654Y-83104082D01*
X187107880Y-83304041D01*
X138814527Y-83304041D01*
X138840160Y-83175179D01*
X138840160Y-82971301D01*
X138800386Y-82771342D01*
X138722365Y-82582984D01*
X138609097Y-82413466D01*
X138464934Y-82269303D01*
X138295416Y-82156035D01*
X138107058Y-82078014D01*
X137907099Y-82038240D01*
X137703221Y-82038240D01*
X137503262Y-82078014D01*
X137314904Y-82156035D01*
X137145386Y-82269303D01*
X137001223Y-82413466D01*
X136887955Y-82582984D01*
X136809934Y-82771342D01*
X136770160Y-82971301D01*
X126759032Y-82971301D01*
X126745374Y-82957643D01*
X126575856Y-82844375D01*
X126387498Y-82766354D01*
X126187539Y-82726580D01*
X125983661Y-82726580D01*
X125783702Y-82766354D01*
X125595344Y-82844375D01*
X125425826Y-82957643D01*
X125281663Y-83101806D01*
X125168395Y-83271324D01*
X125090374Y-83459682D01*
X125050600Y-83659641D01*
X80389868Y-83659641D01*
X80276565Y-83583935D01*
X80231478Y-83565259D01*
X80335370Y-83509728D01*
X80403924Y-83268309D01*
X79608680Y-82473065D01*
X78813436Y-83268309D01*
X78881990Y-83509728D01*
X78993304Y-83562185D01*
X78940795Y-83583935D01*
X78709858Y-83738242D01*
X78513462Y-83934638D01*
X78359155Y-84165575D01*
X78252866Y-84422178D01*
X78198680Y-84694587D01*
X75933608Y-84694587D01*
X75902559Y-84487276D01*
X75808623Y-84225898D01*
X75744948Y-84106770D01*
X75503529Y-84038216D01*
X74708285Y-84833460D01*
X74349075Y-84833460D01*
X73553831Y-84038216D01*
X73312412Y-84106770D01*
X73194012Y-84358016D01*
X73126902Y-84627531D01*
X73113662Y-84904962D01*
X69912700Y-84904962D01*
X69912700Y-83268309D01*
X73733436Y-83268309D01*
X73801990Y-83509728D01*
X73908839Y-83560080D01*
X73801990Y-83617192D01*
X73733436Y-83858611D01*
X74528680Y-84653855D01*
X75323924Y-83858611D01*
X75255370Y-83617192D01*
X75148521Y-83566840D01*
X75255370Y-83509728D01*
X75323924Y-83268309D01*
X74528680Y-82473065D01*
X73733436Y-83268309D01*
X69912700Y-83268309D01*
X69912700Y-82364962D01*
X73113662Y-82364962D01*
X73154801Y-82639644D01*
X73248737Y-82901022D01*
X73312412Y-83020150D01*
X73553831Y-83088704D01*
X74349075Y-82293460D01*
X74708285Y-82293460D01*
X75503529Y-83088704D01*
X75744948Y-83020150D01*
X75863348Y-82768904D01*
X75930458Y-82499389D01*
X75936873Y-82364962D01*
X78193662Y-82364962D01*
X78234801Y-82639644D01*
X78328737Y-82901022D01*
X78392412Y-83020150D01*
X78633831Y-83088704D01*
X79429075Y-82293460D01*
X79788285Y-82293460D01*
X80583529Y-83088704D01*
X80824948Y-83020150D01*
X80943348Y-82768904D01*
X81010458Y-82499389D01*
X81023698Y-82221958D01*
X80982559Y-81947276D01*
X80888623Y-81685898D01*
X80824948Y-81566770D01*
X80583529Y-81498216D01*
X79788285Y-82293460D01*
X79429075Y-82293460D01*
X78633831Y-81498216D01*
X78392412Y-81566770D01*
X78274012Y-81818016D01*
X78206902Y-82087531D01*
X78193662Y-82364962D01*
X75936873Y-82364962D01*
X75943698Y-82221958D01*
X75902559Y-81947276D01*
X75808623Y-81685898D01*
X75744948Y-81566770D01*
X75503529Y-81498216D01*
X74708285Y-82293460D01*
X74349075Y-82293460D01*
X73553831Y-81498216D01*
X73312412Y-81566770D01*
X73194012Y-81818016D01*
X73126902Y-82087531D01*
X73113662Y-82364962D01*
X69912700Y-82364962D01*
X69912700Y-80728309D01*
X73733436Y-80728309D01*
X73801990Y-80969728D01*
X73908839Y-81020080D01*
X73801990Y-81077192D01*
X73733436Y-81318611D01*
X74528680Y-82113855D01*
X75323924Y-81318611D01*
X75255370Y-81077192D01*
X75148521Y-81026840D01*
X75255370Y-80969728D01*
X75323924Y-80728309D01*
X74528680Y-79933065D01*
X73733436Y-80728309D01*
X69912700Y-80728309D01*
X69912700Y-79824962D01*
X73113662Y-79824962D01*
X73154801Y-80099644D01*
X73248737Y-80361022D01*
X73312412Y-80480150D01*
X73553831Y-80548704D01*
X74349075Y-79753460D01*
X74708285Y-79753460D01*
X75503529Y-80548704D01*
X75744948Y-80480150D01*
X75863348Y-80228904D01*
X75930458Y-79959389D01*
X75943698Y-79681958D01*
X75933608Y-79614587D01*
X78198680Y-79614587D01*
X78198680Y-79892333D01*
X78252866Y-80164742D01*
X78359155Y-80421345D01*
X78513462Y-80652282D01*
X78709858Y-80848678D01*
X78940795Y-81002985D01*
X78985882Y-81021661D01*
X78881990Y-81077192D01*
X78813436Y-81318611D01*
X79608680Y-82113855D01*
X80403924Y-81318611D01*
X80335370Y-81077192D01*
X80224056Y-81024735D01*
X80276565Y-81002985D01*
X80507502Y-80848678D01*
X80703898Y-80652282D01*
X80858205Y-80421345D01*
X80886696Y-80352561D01*
X179617420Y-80352561D01*
X179617420Y-80556439D01*
X179657194Y-80756398D01*
X179735215Y-80944756D01*
X179848483Y-81114274D01*
X179992646Y-81258437D01*
X180162164Y-81371705D01*
X180350522Y-81449726D01*
X180550481Y-81489500D01*
X180754359Y-81489500D01*
X180954318Y-81449726D01*
X181142676Y-81371705D01*
X181312194Y-81258437D01*
X181456357Y-81114274D01*
X181569625Y-80944756D01*
X181647646Y-80756398D01*
X181687420Y-80556439D01*
X181687420Y-80352561D01*
X181647646Y-80152602D01*
X181569625Y-79964244D01*
X181456357Y-79794726D01*
X181312194Y-79650563D01*
X181142676Y-79537295D01*
X180954318Y-79459274D01*
X180754359Y-79419500D01*
X180550481Y-79419500D01*
X180350522Y-79459274D01*
X180162164Y-79537295D01*
X179992646Y-79650563D01*
X179848483Y-79794726D01*
X179735215Y-79964244D01*
X179657194Y-80152602D01*
X179617420Y-80352561D01*
X80886696Y-80352561D01*
X80964494Y-80164742D01*
X81018680Y-79892333D01*
X81018680Y-79614587D01*
X80964494Y-79342178D01*
X80858205Y-79085575D01*
X80703898Y-78854638D01*
X80507502Y-78658242D01*
X80276565Y-78503935D01*
X80231478Y-78485259D01*
X80335370Y-78429728D01*
X80403924Y-78188309D01*
X79608680Y-77393065D01*
X78813436Y-78188309D01*
X78881990Y-78429728D01*
X78993304Y-78482185D01*
X78940795Y-78503935D01*
X78709858Y-78658242D01*
X78513462Y-78854638D01*
X78359155Y-79085575D01*
X78252866Y-79342178D01*
X78198680Y-79614587D01*
X75933608Y-79614587D01*
X75902559Y-79407276D01*
X75808623Y-79145898D01*
X75744948Y-79026770D01*
X75503529Y-78958216D01*
X74708285Y-79753460D01*
X74349075Y-79753460D01*
X73553831Y-78958216D01*
X73312412Y-79026770D01*
X73194012Y-79278016D01*
X73126902Y-79547531D01*
X73113662Y-79824962D01*
X69912700Y-79824962D01*
X69912700Y-78188309D01*
X73733436Y-78188309D01*
X73801990Y-78429728D01*
X73908839Y-78480080D01*
X73801990Y-78537192D01*
X73733436Y-78778611D01*
X74528680Y-79573855D01*
X75323924Y-78778611D01*
X75255370Y-78537192D01*
X75148521Y-78486840D01*
X75255370Y-78429728D01*
X75323924Y-78188309D01*
X74528680Y-77393065D01*
X73733436Y-78188309D01*
X69912700Y-78188309D01*
X69912700Y-77284962D01*
X73113662Y-77284962D01*
X73154801Y-77559644D01*
X73248737Y-77821022D01*
X73312412Y-77940150D01*
X73553831Y-78008704D01*
X74349075Y-77213460D01*
X74708285Y-77213460D01*
X75503529Y-78008704D01*
X75744948Y-77940150D01*
X75863348Y-77688904D01*
X75930458Y-77419389D01*
X75936873Y-77284962D01*
X78193662Y-77284962D01*
X78234801Y-77559644D01*
X78328737Y-77821022D01*
X78392412Y-77940150D01*
X78633831Y-78008704D01*
X79429075Y-77213460D01*
X79788285Y-77213460D01*
X80583529Y-78008704D01*
X80824948Y-77940150D01*
X80943348Y-77688904D01*
X81010458Y-77419389D01*
X81023698Y-77141958D01*
X80982559Y-76867276D01*
X80888623Y-76605898D01*
X80824948Y-76486770D01*
X80583529Y-76418216D01*
X79788285Y-77213460D01*
X79429075Y-77213460D01*
X78633831Y-76418216D01*
X78392412Y-76486770D01*
X78274012Y-76738016D01*
X78206902Y-77007531D01*
X78193662Y-77284962D01*
X75936873Y-77284962D01*
X75943698Y-77141958D01*
X75902559Y-76867276D01*
X75808623Y-76605898D01*
X75744948Y-76486770D01*
X75503529Y-76418216D01*
X74708285Y-77213460D01*
X74349075Y-77213460D01*
X73553831Y-76418216D01*
X73312412Y-76486770D01*
X73194012Y-76738016D01*
X73126902Y-77007531D01*
X73113662Y-77284962D01*
X69912700Y-77284962D01*
X69912700Y-75648309D01*
X73733436Y-75648309D01*
X73801990Y-75889728D01*
X73908839Y-75940080D01*
X73801990Y-75997192D01*
X73733436Y-76238611D01*
X74528680Y-77033855D01*
X75323924Y-76238611D01*
X75255370Y-75997192D01*
X75148521Y-75946840D01*
X75255370Y-75889728D01*
X75323924Y-75648309D01*
X78813436Y-75648309D01*
X78881990Y-75889728D01*
X78988839Y-75940080D01*
X78881990Y-75997192D01*
X78813436Y-76238611D01*
X79608680Y-77033855D01*
X80403924Y-76238611D01*
X80335370Y-75997192D01*
X80228521Y-75946840D01*
X80335370Y-75889728D01*
X80403924Y-75648309D01*
X79608680Y-74853065D01*
X78813436Y-75648309D01*
X75323924Y-75648309D01*
X74528680Y-74853065D01*
X73733436Y-75648309D01*
X69912700Y-75648309D01*
X69912700Y-74744962D01*
X73113662Y-74744962D01*
X73154801Y-75019644D01*
X73248737Y-75281022D01*
X73312412Y-75400150D01*
X73553831Y-75468704D01*
X74349075Y-74673460D01*
X74708285Y-74673460D01*
X75503529Y-75468704D01*
X75744948Y-75400150D01*
X75863348Y-75148904D01*
X75930458Y-74879389D01*
X75936873Y-74744962D01*
X78193662Y-74744962D01*
X78234801Y-75019644D01*
X78328737Y-75281022D01*
X78392412Y-75400150D01*
X78633831Y-75468704D01*
X79429075Y-74673460D01*
X79788285Y-74673460D01*
X80583529Y-75468704D01*
X80824948Y-75400150D01*
X80943348Y-75148904D01*
X81010458Y-74879389D01*
X81023698Y-74601958D01*
X80982559Y-74327276D01*
X80888623Y-74065898D01*
X80824948Y-73946770D01*
X80583529Y-73878216D01*
X79788285Y-74673460D01*
X79429075Y-74673460D01*
X78633831Y-73878216D01*
X78392412Y-73946770D01*
X78274012Y-74198016D01*
X78206902Y-74467531D01*
X78193662Y-74744962D01*
X75936873Y-74744962D01*
X75943698Y-74601958D01*
X75902559Y-74327276D01*
X75808623Y-74065898D01*
X75744948Y-73946770D01*
X75503529Y-73878216D01*
X74708285Y-74673460D01*
X74349075Y-74673460D01*
X73553831Y-73878216D01*
X73312412Y-73946770D01*
X73194012Y-74198016D01*
X73126902Y-74467531D01*
X73113662Y-74744962D01*
X69912700Y-74744962D01*
X69912700Y-71994587D01*
X73118680Y-71994587D01*
X73118680Y-72272333D01*
X73172866Y-72544742D01*
X73279155Y-72801345D01*
X73433462Y-73032282D01*
X73629858Y-73228678D01*
X73860795Y-73382985D01*
X73905882Y-73401661D01*
X73801990Y-73457192D01*
X73733436Y-73698611D01*
X74528680Y-74493855D01*
X75323924Y-73698611D01*
X75255370Y-73457192D01*
X75144056Y-73404735D01*
X75196565Y-73382985D01*
X75427502Y-73228678D01*
X75547871Y-73108309D01*
X78813436Y-73108309D01*
X78881990Y-73349728D01*
X78988839Y-73400080D01*
X78881990Y-73457192D01*
X78813436Y-73698611D01*
X79608680Y-74493855D01*
X80403924Y-73698611D01*
X80335370Y-73457192D01*
X80228521Y-73406840D01*
X80335370Y-73349728D01*
X80380972Y-73189134D01*
X218226591Y-73189134D01*
X218401547Y-73520819D01*
X218803140Y-73727339D01*
X219237306Y-73851544D01*
X219687361Y-73888661D01*
X220136009Y-73837263D01*
X220566010Y-73699326D01*
X220899973Y-73520819D01*
X221074929Y-73189134D01*
X224826591Y-73189134D01*
X225001547Y-73520819D01*
X225403140Y-73727339D01*
X225837306Y-73851544D01*
X226287361Y-73888661D01*
X226736009Y-73837263D01*
X227166010Y-73699326D01*
X227499973Y-73520819D01*
X227674929Y-73189134D01*
X226250760Y-71764965D01*
X224826591Y-73189134D01*
X221074929Y-73189134D01*
X219650760Y-71764965D01*
X218226591Y-73189134D01*
X80380972Y-73189134D01*
X80403924Y-73108309D01*
X79608680Y-72313065D01*
X78813436Y-73108309D01*
X75547871Y-73108309D01*
X75623898Y-73032282D01*
X75778205Y-72801345D01*
X75884494Y-72544742D01*
X75938680Y-72272333D01*
X75938680Y-72204962D01*
X78193662Y-72204962D01*
X78234801Y-72479644D01*
X78328737Y-72741022D01*
X78392412Y-72860150D01*
X78633831Y-72928704D01*
X79429075Y-72133460D01*
X79788285Y-72133460D01*
X80583529Y-72928704D01*
X80824948Y-72860150D01*
X80943348Y-72608904D01*
X81010458Y-72339389D01*
X81023698Y-72061958D01*
X80982559Y-71787276D01*
X80888623Y-71525898D01*
X80824948Y-71406770D01*
X80583529Y-71338216D01*
X79788285Y-72133460D01*
X79429075Y-72133460D01*
X78633831Y-71338216D01*
X78392412Y-71406770D01*
X78274012Y-71658016D01*
X78206902Y-71927531D01*
X78193662Y-72204962D01*
X75938680Y-72204962D01*
X75938680Y-71994587D01*
X75884494Y-71722178D01*
X75778205Y-71465575D01*
X75623898Y-71234638D01*
X75547871Y-71158611D01*
X78813436Y-71158611D01*
X79608680Y-71953855D01*
X80403924Y-71158611D01*
X80335370Y-70917192D01*
X80084124Y-70798792D01*
X79814609Y-70731682D01*
X79537178Y-70718442D01*
X79262496Y-70759581D01*
X79001118Y-70853517D01*
X78881990Y-70917192D01*
X78813436Y-71158611D01*
X75547871Y-71158611D01*
X75427502Y-71038242D01*
X75196565Y-70883935D01*
X74939962Y-70777646D01*
X74667553Y-70723460D01*
X74389807Y-70723460D01*
X74117398Y-70777646D01*
X73860795Y-70883935D01*
X73629858Y-71038242D01*
X73433462Y-71234638D01*
X73279155Y-71465575D01*
X73172866Y-71722178D01*
X73118680Y-71994587D01*
X69912700Y-71994587D01*
X69912700Y-69825500D01*
X206403308Y-69825500D01*
X206403308Y-71525500D01*
X206415568Y-71649982D01*
X206451878Y-71769680D01*
X206510843Y-71879994D01*
X206590195Y-71976685D01*
X206686886Y-72056037D01*
X206797200Y-72115002D01*
X206916898Y-72151312D01*
X207041380Y-72163572D01*
X208741380Y-72163572D01*
X208865862Y-72151312D01*
X208985560Y-72115002D01*
X209095874Y-72056037D01*
X209192565Y-71976685D01*
X209271917Y-71879994D01*
X209330882Y-71769680D01*
X209367192Y-71649982D01*
X209369951Y-71621961D01*
X217347459Y-71621961D01*
X217398857Y-72070609D01*
X217536794Y-72500610D01*
X217715301Y-72834573D01*
X218046986Y-73009529D01*
X219471155Y-71585360D01*
X219830365Y-71585360D01*
X221254534Y-73009529D01*
X221586219Y-72834573D01*
X221792739Y-72432980D01*
X221916944Y-71998814D01*
X221948023Y-71621961D01*
X223947459Y-71621961D01*
X223998857Y-72070609D01*
X224136794Y-72500610D01*
X224315301Y-72834573D01*
X224646986Y-73009529D01*
X226071155Y-71585360D01*
X224646986Y-70161191D01*
X224315301Y-70336147D01*
X224108781Y-70737740D01*
X223984576Y-71171906D01*
X223947459Y-71621961D01*
X221948023Y-71621961D01*
X221954061Y-71548759D01*
X221902663Y-71100111D01*
X221764726Y-70670110D01*
X221586219Y-70336147D01*
X221254534Y-70161191D01*
X219830365Y-71585360D01*
X219471155Y-71585360D01*
X218046986Y-70161191D01*
X217715301Y-70336147D01*
X217508781Y-70737740D01*
X217384576Y-71171906D01*
X217347459Y-71621961D01*
X209369951Y-71621961D01*
X209379452Y-71525500D01*
X209379452Y-69981586D01*
X218226591Y-69981586D01*
X219650760Y-71405755D01*
X221074929Y-69981586D01*
X224826591Y-69981586D01*
X226250760Y-71405755D01*
X227674929Y-69981586D01*
X227499973Y-69649901D01*
X227098380Y-69443381D01*
X226664214Y-69319176D01*
X226214159Y-69282059D01*
X225765511Y-69333457D01*
X225335510Y-69471394D01*
X225001547Y-69649901D01*
X224826591Y-69981586D01*
X221074929Y-69981586D01*
X220899973Y-69649901D01*
X220498380Y-69443381D01*
X220064214Y-69319176D01*
X219614159Y-69282059D01*
X219165511Y-69333457D01*
X218735510Y-69471394D01*
X218401547Y-69649901D01*
X218226591Y-69981586D01*
X209379452Y-69981586D01*
X209379452Y-69825500D01*
X209367192Y-69701018D01*
X209330882Y-69581320D01*
X209271917Y-69471006D01*
X209192565Y-69374315D01*
X209095874Y-69294963D01*
X208985560Y-69235998D01*
X208913000Y-69213987D01*
X209044855Y-69082132D01*
X209207370Y-68838911D01*
X209319312Y-68568658D01*
X209376380Y-68281760D01*
X209376380Y-68129005D01*
X221363260Y-68129005D01*
X221363260Y-68441715D01*
X221424267Y-68748417D01*
X221543936Y-69037323D01*
X221717668Y-69297332D01*
X221938788Y-69518452D01*
X222198797Y-69692184D01*
X222487703Y-69811853D01*
X222794405Y-69872860D01*
X223107115Y-69872860D01*
X223413817Y-69811853D01*
X223702723Y-69692184D01*
X223962732Y-69518452D01*
X224183852Y-69297332D01*
X224357584Y-69037323D01*
X224477253Y-68748417D01*
X224538260Y-68441715D01*
X224538260Y-68129005D01*
X224477253Y-67822303D01*
X224357584Y-67533397D01*
X224183852Y-67273388D01*
X223962732Y-67052268D01*
X223702723Y-66878536D01*
X223413817Y-66758867D01*
X223107115Y-66697860D01*
X222794405Y-66697860D01*
X222487703Y-66758867D01*
X222198797Y-66878536D01*
X221938788Y-67052268D01*
X221717668Y-67273388D01*
X221543936Y-67533397D01*
X221424267Y-67822303D01*
X221363260Y-68129005D01*
X209376380Y-68129005D01*
X209376380Y-67989240D01*
X209319312Y-67702342D01*
X209207370Y-67432089D01*
X209044855Y-67188868D01*
X208838012Y-66982025D01*
X208663620Y-66865500D01*
X208838012Y-66748975D01*
X208997853Y-66589134D01*
X218226591Y-66589134D01*
X218401547Y-66920819D01*
X218803140Y-67127339D01*
X219237306Y-67251544D01*
X219687361Y-67288661D01*
X220136009Y-67237263D01*
X220566010Y-67099326D01*
X220899973Y-66920819D01*
X221074929Y-66589134D01*
X224826591Y-66589134D01*
X225001547Y-66920819D01*
X225403140Y-67127339D01*
X225837306Y-67251544D01*
X226287361Y-67288661D01*
X226736009Y-67237263D01*
X227166010Y-67099326D01*
X227499973Y-66920819D01*
X227674929Y-66589134D01*
X226250760Y-65164965D01*
X224826591Y-66589134D01*
X221074929Y-66589134D01*
X219650760Y-65164965D01*
X218226591Y-66589134D01*
X208997853Y-66589134D01*
X209044855Y-66542132D01*
X209207370Y-66298911D01*
X209319312Y-66028658D01*
X209376380Y-65741760D01*
X209376380Y-65449240D01*
X209319312Y-65162342D01*
X209261165Y-65021961D01*
X217347459Y-65021961D01*
X217398857Y-65470609D01*
X217536794Y-65900610D01*
X217715301Y-66234573D01*
X218046986Y-66409529D01*
X219471155Y-64985360D01*
X219830365Y-64985360D01*
X221254534Y-66409529D01*
X221586219Y-66234573D01*
X221792739Y-65832980D01*
X221916944Y-65398814D01*
X221948023Y-65021961D01*
X223947459Y-65021961D01*
X223998857Y-65470609D01*
X224136794Y-65900610D01*
X224315301Y-66234573D01*
X224646986Y-66409529D01*
X226071155Y-64985360D01*
X224646986Y-63561191D01*
X224315301Y-63736147D01*
X224108781Y-64137740D01*
X223984576Y-64571906D01*
X223947459Y-65021961D01*
X221948023Y-65021961D01*
X221954061Y-64948759D01*
X221902663Y-64500111D01*
X221764726Y-64070110D01*
X221586219Y-63736147D01*
X221254534Y-63561191D01*
X219830365Y-64985360D01*
X219471155Y-64985360D01*
X218046986Y-63561191D01*
X217715301Y-63736147D01*
X217508781Y-64137740D01*
X217384576Y-64571906D01*
X217347459Y-65021961D01*
X209261165Y-65021961D01*
X209207370Y-64892089D01*
X209044855Y-64648868D01*
X208838012Y-64442025D01*
X208594791Y-64279510D01*
X208324538Y-64167568D01*
X208037640Y-64110500D01*
X207745120Y-64110500D01*
X207458222Y-64167568D01*
X207187969Y-64279510D01*
X206944748Y-64442025D01*
X206737905Y-64648868D01*
X206575390Y-64892089D01*
X206463448Y-65162342D01*
X206406380Y-65449240D01*
X206406380Y-65741760D01*
X206463448Y-66028658D01*
X206575390Y-66298911D01*
X206737905Y-66542132D01*
X206944748Y-66748975D01*
X207119140Y-66865500D01*
X206944748Y-66982025D01*
X206737905Y-67188868D01*
X206575390Y-67432089D01*
X206463448Y-67702342D01*
X206406380Y-67989240D01*
X206406380Y-68281760D01*
X206463448Y-68568658D01*
X206575390Y-68838911D01*
X206737905Y-69082132D01*
X206869760Y-69213987D01*
X206797200Y-69235998D01*
X206686886Y-69294963D01*
X206590195Y-69374315D01*
X206510843Y-69471006D01*
X206451878Y-69581320D01*
X206415568Y-69701018D01*
X206403308Y-69825500D01*
X69912700Y-69825500D01*
X69912700Y-66850568D01*
X69928680Y-66850568D01*
X69928680Y-67256352D01*
X70007845Y-67654340D01*
X70163132Y-68029236D01*
X70388574Y-68366633D01*
X70675507Y-68653566D01*
X71012904Y-68879008D01*
X71387800Y-69034295D01*
X71785788Y-69113460D01*
X72191572Y-69113460D01*
X72589560Y-69034295D01*
X72964456Y-68879008D01*
X73301853Y-68653566D01*
X73588786Y-68366633D01*
X73814228Y-68029236D01*
X73838739Y-67970061D01*
X89190880Y-67970061D01*
X89190880Y-68173939D01*
X89230654Y-68373898D01*
X89308675Y-68562256D01*
X89421943Y-68731774D01*
X89566106Y-68875937D01*
X89735624Y-68989205D01*
X89923982Y-69067226D01*
X90123941Y-69107000D01*
X90327819Y-69107000D01*
X90527778Y-69067226D01*
X90716136Y-68989205D01*
X90885654Y-68875937D01*
X91029817Y-68731774D01*
X91143085Y-68562256D01*
X91221106Y-68373898D01*
X91260880Y-68173939D01*
X91260880Y-67970061D01*
X91221106Y-67770102D01*
X91143085Y-67581744D01*
X91029817Y-67412226D01*
X90885654Y-67268063D01*
X90716136Y-67154795D01*
X90527778Y-67076774D01*
X90327819Y-67037000D01*
X90123941Y-67037000D01*
X89923982Y-67076774D01*
X89735624Y-67154795D01*
X89566106Y-67268063D01*
X89421943Y-67412226D01*
X89308675Y-67581744D01*
X89230654Y-67770102D01*
X89190880Y-67970061D01*
X73838739Y-67970061D01*
X73969515Y-67654340D01*
X74048680Y-67256352D01*
X74048680Y-66850568D01*
X73969515Y-66452580D01*
X73814228Y-66077684D01*
X73588786Y-65740287D01*
X73301853Y-65453354D01*
X72964456Y-65227912D01*
X72589560Y-65072625D01*
X72191572Y-64993460D01*
X71785788Y-64993460D01*
X71387800Y-65072625D01*
X71012904Y-65227912D01*
X70675507Y-65453354D01*
X70388574Y-65740287D01*
X70163132Y-66077684D01*
X70007845Y-66452580D01*
X69928680Y-66850568D01*
X69912700Y-66850568D01*
X69912700Y-63381586D01*
X218226591Y-63381586D01*
X219650760Y-64805755D01*
X221074929Y-63381586D01*
X224826591Y-63381586D01*
X226250760Y-64805755D01*
X227674929Y-63381586D01*
X227499973Y-63049901D01*
X227098380Y-62843381D01*
X226664214Y-62719176D01*
X226214159Y-62682059D01*
X225765511Y-62733457D01*
X225335510Y-62871394D01*
X225001547Y-63049901D01*
X224826591Y-63381586D01*
X221074929Y-63381586D01*
X220899973Y-63049901D01*
X220498380Y-62843381D01*
X220064214Y-62719176D01*
X219614159Y-62682059D01*
X219165511Y-62733457D01*
X218735510Y-62871394D01*
X218401547Y-63049901D01*
X218226591Y-63381586D01*
X69912700Y-63381586D01*
X69912700Y-46966340D01*
X228544920Y-46966340D01*
X228544920Y-64868970D01*
G37*
G04 #@! TD.AperFunction*
M02*
