G04 #@! TF.GenerationSoftware,KiCad,Pcbnew,(5.1.10)-1*
G04 #@! TF.CreationDate,2022-03-21T21:51:29-04:00*
G04 #@! TF.ProjectId,MC-ADC,4d432d41-4443-42e6-9b69-6361645f7063,rev?*
G04 #@! TF.SameCoordinates,Original*
G04 #@! TF.FileFunction,Copper,L1,Top*
G04 #@! TF.FilePolarity,Positive*
%FSLAX46Y46*%
G04 Gerber Fmt 4.6, Leading zero omitted, Abs format (unit mm)*
G04 Created by KiCad (PCBNEW (5.1.10)-1) date 2022-03-21 21:51:29*
%MOMM*%
%LPD*%
G01*
G04 APERTURE LIST*
G04 #@! TA.AperFunction,SMDPad,CuDef*
%ADD10R,0.850000X1.050000*%
G04 #@! TD*
G04 #@! TA.AperFunction,SMDPad,CuDef*
%ADD11R,1.050000X0.850000*%
G04 #@! TD*
G04 #@! TA.AperFunction,SMDPad,CuDef*
%ADD12R,0.900000X0.800000*%
G04 #@! TD*
G04 #@! TA.AperFunction,ComponentPad*
%ADD13C,3.315000*%
G04 #@! TD*
G04 #@! TA.AperFunction,ComponentPad*
%ADD14C,1.905000*%
G04 #@! TD*
G04 #@! TA.AperFunction,SMDPad,CuDef*
%ADD15R,1.200000X0.400000*%
G04 #@! TD*
G04 #@! TA.AperFunction,SMDPad,CuDef*
%ADD16R,0.450000X1.450000*%
G04 #@! TD*
G04 #@! TA.AperFunction,ComponentPad*
%ADD17C,1.300000*%
G04 #@! TD*
G04 #@! TA.AperFunction,ComponentPad*
%ADD18R,1.300000X1.300000*%
G04 #@! TD*
G04 #@! TA.AperFunction,SMDPad,CuDef*
%ADD19R,3.250000X2.150000*%
G04 #@! TD*
G04 #@! TA.AperFunction,ComponentPad*
%ADD20O,1.700000X1.700000*%
G04 #@! TD*
G04 #@! TA.AperFunction,ComponentPad*
%ADD21R,1.700000X1.700000*%
G04 #@! TD*
G04 #@! TA.AperFunction,ComponentPad*
%ADD22C,1.550000*%
G04 #@! TD*
G04 #@! TA.AperFunction,ViaPad*
%ADD23C,0.800000*%
G04 #@! TD*
G04 #@! TA.AperFunction,Conductor*
%ADD24C,0.508000*%
G04 #@! TD*
G04 #@! TA.AperFunction,Conductor*
%ADD25C,0.250000*%
G04 #@! TD*
G04 APERTURE END LIST*
G04 #@! TA.AperFunction,SMDPad,CuDef*
G36*
G01*
X142542099Y-122439000D02*
X143792101Y-122439000D01*
G75*
G02*
X144042100Y-122688999I0J-249999D01*
G01*
X144042100Y-123314001D01*
G75*
G02*
X143792101Y-123564000I-249999J0D01*
G01*
X142542099Y-123564000D01*
G75*
G02*
X142292100Y-123314001I0J249999D01*
G01*
X142292100Y-122688999D01*
G75*
G02*
X142542099Y-122439000I249999J0D01*
G01*
G37*
G04 #@! TD.AperFunction*
G04 #@! TA.AperFunction,SMDPad,CuDef*
G36*
G01*
X142542099Y-119514000D02*
X143792101Y-119514000D01*
G75*
G02*
X144042100Y-119763999I0J-249999D01*
G01*
X144042100Y-120389001D01*
G75*
G02*
X143792101Y-120639000I-249999J0D01*
G01*
X142542099Y-120639000D01*
G75*
G02*
X142292100Y-120389001I0J249999D01*
G01*
X142292100Y-119763999D01*
G75*
G02*
X142542099Y-119514000I249999J0D01*
G01*
G37*
G04 #@! TD.AperFunction*
D10*
X125275340Y-119650920D03*
X125275340Y-116050920D03*
X131216400Y-116162680D03*
X131216400Y-119762680D03*
D11*
X126503020Y-111267240D03*
X130103020Y-111267240D03*
G04 #@! TA.AperFunction,SMDPad,CuDef*
G36*
G01*
X140556161Y-120572960D02*
X138356159Y-120572960D01*
G75*
G02*
X138106160Y-120322961I0J249999D01*
G01*
X138106160Y-119672959D01*
G75*
G02*
X138356159Y-119422960I249999J0D01*
G01*
X140556161Y-119422960D01*
G75*
G02*
X140806160Y-119672959I0J-249999D01*
G01*
X140806160Y-120322961D01*
G75*
G02*
X140556161Y-120572960I-249999J0D01*
G01*
G37*
G04 #@! TD.AperFunction*
G04 #@! TA.AperFunction,SMDPad,CuDef*
G36*
G01*
X140556161Y-123522960D02*
X138356159Y-123522960D01*
G75*
G02*
X138106160Y-123272961I0J249999D01*
G01*
X138106160Y-122622959D01*
G75*
G02*
X138356159Y-122372960I249999J0D01*
G01*
X140556161Y-122372960D01*
G75*
G02*
X140806160Y-122622959I0J-249999D01*
G01*
X140806160Y-123272961D01*
G75*
G02*
X140556161Y-123522960I-249999J0D01*
G01*
G37*
G04 #@! TD.AperFunction*
D12*
X185136280Y-118562080D03*
X185136280Y-120462080D03*
X187136280Y-119512080D03*
X191524380Y-113733540D03*
X191524380Y-115633540D03*
X193524380Y-114683540D03*
X184991500Y-90050580D03*
X184991500Y-91950580D03*
X186991500Y-91000580D03*
X192843660Y-88135500D03*
X192843660Y-86235500D03*
X190843660Y-87185500D03*
X185375040Y-79857560D03*
X185375040Y-81757560D03*
X187375040Y-80807560D03*
X191570100Y-75740220D03*
X191570100Y-77640220D03*
X193570100Y-76690220D03*
D13*
X226250760Y-64985360D03*
X226250760Y-71585360D03*
X219650760Y-71585360D03*
X219650760Y-64985360D03*
D14*
X222950760Y-68285360D03*
D13*
X226194880Y-120972040D03*
X226194880Y-127572040D03*
X219594880Y-127572040D03*
X219594880Y-120972040D03*
D14*
X222894880Y-124272040D03*
D13*
X226179640Y-92955840D03*
X226179640Y-99555840D03*
X219579640Y-99555840D03*
X219579640Y-92955840D03*
D14*
X222879640Y-96255840D03*
G04 #@! TA.AperFunction,SMDPad,CuDef*
G36*
G01*
X100511740Y-110749220D02*
X100511740Y-110449220D01*
G75*
G02*
X100661740Y-110299220I150000J0D01*
G01*
X102311740Y-110299220D01*
G75*
G02*
X102461740Y-110449220I0J-150000D01*
G01*
X102461740Y-110749220D01*
G75*
G02*
X102311740Y-110899220I-150000J0D01*
G01*
X100661740Y-110899220D01*
G75*
G02*
X100511740Y-110749220I0J150000D01*
G01*
G37*
G04 #@! TD.AperFunction*
G04 #@! TA.AperFunction,SMDPad,CuDef*
G36*
G01*
X100511740Y-112019220D02*
X100511740Y-111719220D01*
G75*
G02*
X100661740Y-111569220I150000J0D01*
G01*
X102311740Y-111569220D01*
G75*
G02*
X102461740Y-111719220I0J-150000D01*
G01*
X102461740Y-112019220D01*
G75*
G02*
X102311740Y-112169220I-150000J0D01*
G01*
X100661740Y-112169220D01*
G75*
G02*
X100511740Y-112019220I0J150000D01*
G01*
G37*
G04 #@! TD.AperFunction*
G04 #@! TA.AperFunction,SMDPad,CuDef*
G36*
G01*
X100511740Y-113289220D02*
X100511740Y-112989220D01*
G75*
G02*
X100661740Y-112839220I150000J0D01*
G01*
X102311740Y-112839220D01*
G75*
G02*
X102461740Y-112989220I0J-150000D01*
G01*
X102461740Y-113289220D01*
G75*
G02*
X102311740Y-113439220I-150000J0D01*
G01*
X100661740Y-113439220D01*
G75*
G02*
X100511740Y-113289220I0J150000D01*
G01*
G37*
G04 #@! TD.AperFunction*
G04 #@! TA.AperFunction,SMDPad,CuDef*
G36*
G01*
X100511740Y-114559220D02*
X100511740Y-114259220D01*
G75*
G02*
X100661740Y-114109220I150000J0D01*
G01*
X102311740Y-114109220D01*
G75*
G02*
X102461740Y-114259220I0J-150000D01*
G01*
X102461740Y-114559220D01*
G75*
G02*
X102311740Y-114709220I-150000J0D01*
G01*
X100661740Y-114709220D01*
G75*
G02*
X100511740Y-114559220I0J150000D01*
G01*
G37*
G04 #@! TD.AperFunction*
G04 #@! TA.AperFunction,SMDPad,CuDef*
G36*
G01*
X95561740Y-114559220D02*
X95561740Y-114259220D01*
G75*
G02*
X95711740Y-114109220I150000J0D01*
G01*
X97361740Y-114109220D01*
G75*
G02*
X97511740Y-114259220I0J-150000D01*
G01*
X97511740Y-114559220D01*
G75*
G02*
X97361740Y-114709220I-150000J0D01*
G01*
X95711740Y-114709220D01*
G75*
G02*
X95561740Y-114559220I0J150000D01*
G01*
G37*
G04 #@! TD.AperFunction*
G04 #@! TA.AperFunction,SMDPad,CuDef*
G36*
G01*
X95561740Y-113289220D02*
X95561740Y-112989220D01*
G75*
G02*
X95711740Y-112839220I150000J0D01*
G01*
X97361740Y-112839220D01*
G75*
G02*
X97511740Y-112989220I0J-150000D01*
G01*
X97511740Y-113289220D01*
G75*
G02*
X97361740Y-113439220I-150000J0D01*
G01*
X95711740Y-113439220D01*
G75*
G02*
X95561740Y-113289220I0J150000D01*
G01*
G37*
G04 #@! TD.AperFunction*
G04 #@! TA.AperFunction,SMDPad,CuDef*
G36*
G01*
X95561740Y-112019220D02*
X95561740Y-111719220D01*
G75*
G02*
X95711740Y-111569220I150000J0D01*
G01*
X97361740Y-111569220D01*
G75*
G02*
X97511740Y-111719220I0J-150000D01*
G01*
X97511740Y-112019220D01*
G75*
G02*
X97361740Y-112169220I-150000J0D01*
G01*
X95711740Y-112169220D01*
G75*
G02*
X95561740Y-112019220I0J150000D01*
G01*
G37*
G04 #@! TD.AperFunction*
G04 #@! TA.AperFunction,SMDPad,CuDef*
G36*
G01*
X95561740Y-110749220D02*
X95561740Y-110449220D01*
G75*
G02*
X95711740Y-110299220I150000J0D01*
G01*
X97361740Y-110299220D01*
G75*
G02*
X97511740Y-110449220I0J-150000D01*
G01*
X97511740Y-110749220D01*
G75*
G02*
X97361740Y-110899220I-150000J0D01*
G01*
X95711740Y-110899220D01*
G75*
G02*
X95561740Y-110749220I0J150000D01*
G01*
G37*
G04 #@! TD.AperFunction*
G04 #@! TA.AperFunction,SMDPad,CuDef*
G36*
G01*
X140274880Y-91061721D02*
X140274880Y-88861719D01*
G75*
G02*
X140524879Y-88611720I249999J0D01*
G01*
X141174881Y-88611720D01*
G75*
G02*
X141424880Y-88861719I0J-249999D01*
G01*
X141424880Y-91061721D01*
G75*
G02*
X141174881Y-91311720I-249999J0D01*
G01*
X140524879Y-91311720D01*
G75*
G02*
X140274880Y-91061721I0J249999D01*
G01*
G37*
G04 #@! TD.AperFunction*
G04 #@! TA.AperFunction,SMDPad,CuDef*
G36*
G01*
X137324880Y-91061721D02*
X137324880Y-88861719D01*
G75*
G02*
X137574879Y-88611720I249999J0D01*
G01*
X138224881Y-88611720D01*
G75*
G02*
X138474880Y-88861719I0J-249999D01*
G01*
X138474880Y-91061721D01*
G75*
G02*
X138224881Y-91311720I-249999J0D01*
G01*
X137574879Y-91311720D01*
G75*
G02*
X137324880Y-91061721I0J249999D01*
G01*
G37*
G04 #@! TD.AperFunction*
G04 #@! TA.AperFunction,SMDPad,CuDef*
G36*
G01*
X140264720Y-87414281D02*
X140264720Y-85214279D01*
G75*
G02*
X140514719Y-84964280I249999J0D01*
G01*
X141164721Y-84964280D01*
G75*
G02*
X141414720Y-85214279I0J-249999D01*
G01*
X141414720Y-87414281D01*
G75*
G02*
X141164721Y-87664280I-249999J0D01*
G01*
X140514719Y-87664280D01*
G75*
G02*
X140264720Y-87414281I0J249999D01*
G01*
G37*
G04 #@! TD.AperFunction*
G04 #@! TA.AperFunction,SMDPad,CuDef*
G36*
G01*
X137314720Y-87414281D02*
X137314720Y-85214279D01*
G75*
G02*
X137564719Y-84964280I249999J0D01*
G01*
X138214721Y-84964280D01*
G75*
G02*
X138464720Y-85214279I0J-249999D01*
G01*
X138464720Y-87414281D01*
G75*
G02*
X138214721Y-87664280I-249999J0D01*
G01*
X137564719Y-87664280D01*
G75*
G02*
X137314720Y-87414281I0J249999D01*
G01*
G37*
G04 #@! TD.AperFunction*
G04 #@! TA.AperFunction,SMDPad,CuDef*
G36*
G01*
X140287580Y-94546601D02*
X140287580Y-92346599D01*
G75*
G02*
X140537579Y-92096600I249999J0D01*
G01*
X141187581Y-92096600D01*
G75*
G02*
X141437580Y-92346599I0J-249999D01*
G01*
X141437580Y-94546601D01*
G75*
G02*
X141187581Y-94796600I-249999J0D01*
G01*
X140537579Y-94796600D01*
G75*
G02*
X140287580Y-94546601I0J249999D01*
G01*
G37*
G04 #@! TD.AperFunction*
G04 #@! TA.AperFunction,SMDPad,CuDef*
G36*
G01*
X137337580Y-94546601D02*
X137337580Y-92346599D01*
G75*
G02*
X137587579Y-92096600I249999J0D01*
G01*
X138237581Y-92096600D01*
G75*
G02*
X138487580Y-92346599I0J-249999D01*
G01*
X138487580Y-94546601D01*
G75*
G02*
X138237581Y-94796600I-249999J0D01*
G01*
X137587579Y-94796600D01*
G75*
G02*
X137337580Y-94546601I0J249999D01*
G01*
G37*
G04 #@! TD.AperFunction*
G04 #@! TA.AperFunction,SMDPad,CuDef*
G36*
G01*
X123701500Y-87170079D02*
X123701500Y-89370081D01*
G75*
G02*
X123451501Y-89620080I-249999J0D01*
G01*
X122801499Y-89620080D01*
G75*
G02*
X122551500Y-89370081I0J249999D01*
G01*
X122551500Y-87170079D01*
G75*
G02*
X122801499Y-86920080I249999J0D01*
G01*
X123451501Y-86920080D01*
G75*
G02*
X123701500Y-87170079I0J-249999D01*
G01*
G37*
G04 #@! TD.AperFunction*
G04 #@! TA.AperFunction,SMDPad,CuDef*
G36*
G01*
X126651500Y-87170079D02*
X126651500Y-89370081D01*
G75*
G02*
X126401501Y-89620080I-249999J0D01*
G01*
X125751499Y-89620080D01*
G75*
G02*
X125501500Y-89370081I0J249999D01*
G01*
X125501500Y-87170079D01*
G75*
G02*
X125751499Y-86920080I249999J0D01*
G01*
X126401501Y-86920080D01*
G75*
G02*
X126651500Y-87170079I0J-249999D01*
G01*
G37*
G04 #@! TD.AperFunction*
G04 #@! TA.AperFunction,SMDPad,CuDef*
G36*
G01*
X123768280Y-94274459D02*
X123768280Y-96474461D01*
G75*
G02*
X123518281Y-96724460I-249999J0D01*
G01*
X122868279Y-96724460D01*
G75*
G02*
X122618280Y-96474461I0J249999D01*
G01*
X122618280Y-94274459D01*
G75*
G02*
X122868279Y-94024460I249999J0D01*
G01*
X123518281Y-94024460D01*
G75*
G02*
X123768280Y-94274459I0J-249999D01*
G01*
G37*
G04 #@! TD.AperFunction*
G04 #@! TA.AperFunction,SMDPad,CuDef*
G36*
G01*
X126718280Y-94274459D02*
X126718280Y-96474461D01*
G75*
G02*
X126468281Y-96724460I-249999J0D01*
G01*
X125818279Y-96724460D01*
G75*
G02*
X125568280Y-96474461I0J249999D01*
G01*
X125568280Y-94274459D01*
G75*
G02*
X125818279Y-94024460I249999J0D01*
G01*
X126468281Y-94024460D01*
G75*
G02*
X126718280Y-94274459I0J-249999D01*
G01*
G37*
G04 #@! TD.AperFunction*
G04 #@! TA.AperFunction,SMDPad,CuDef*
G36*
G01*
X123745420Y-90726079D02*
X123745420Y-92926081D01*
G75*
G02*
X123495421Y-93176080I-249999J0D01*
G01*
X122845419Y-93176080D01*
G75*
G02*
X122595420Y-92926081I0J249999D01*
G01*
X122595420Y-90726079D01*
G75*
G02*
X122845419Y-90476080I249999J0D01*
G01*
X123495421Y-90476080D01*
G75*
G02*
X123745420Y-90726079I0J-249999D01*
G01*
G37*
G04 #@! TD.AperFunction*
G04 #@! TA.AperFunction,SMDPad,CuDef*
G36*
G01*
X126695420Y-90726079D02*
X126695420Y-92926081D01*
G75*
G02*
X126445421Y-93176080I-249999J0D01*
G01*
X125795419Y-93176080D01*
G75*
G02*
X125545420Y-92926081I0J249999D01*
G01*
X125545420Y-90726079D01*
G75*
G02*
X125795419Y-90476080I249999J0D01*
G01*
X126445421Y-90476080D01*
G75*
G02*
X126695420Y-90726079I0J-249999D01*
G01*
G37*
G04 #@! TD.AperFunction*
G04 #@! TA.AperFunction,SMDPad,CuDef*
G36*
G01*
X170791300Y-102242439D02*
X170791300Y-104442441D01*
G75*
G02*
X170541301Y-104692440I-249999J0D01*
G01*
X169891299Y-104692440D01*
G75*
G02*
X169641300Y-104442441I0J249999D01*
G01*
X169641300Y-102242439D01*
G75*
G02*
X169891299Y-101992440I249999J0D01*
G01*
X170541301Y-101992440D01*
G75*
G02*
X170791300Y-102242439I0J-249999D01*
G01*
G37*
G04 #@! TD.AperFunction*
G04 #@! TA.AperFunction,SMDPad,CuDef*
G36*
G01*
X173741300Y-102242439D02*
X173741300Y-104442441D01*
G75*
G02*
X173491301Y-104692440I-249999J0D01*
G01*
X172841299Y-104692440D01*
G75*
G02*
X172591300Y-104442441I0J249999D01*
G01*
X172591300Y-102242439D01*
G75*
G02*
X172841299Y-101992440I249999J0D01*
G01*
X173491301Y-101992440D01*
G75*
G02*
X173741300Y-102242439I0J-249999D01*
G01*
G37*
G04 #@! TD.AperFunction*
G04 #@! TA.AperFunction,SMDPad,CuDef*
G36*
G01*
X170791300Y-105793359D02*
X170791300Y-107993361D01*
G75*
G02*
X170541301Y-108243360I-249999J0D01*
G01*
X169891299Y-108243360D01*
G75*
G02*
X169641300Y-107993361I0J249999D01*
G01*
X169641300Y-105793359D01*
G75*
G02*
X169891299Y-105543360I249999J0D01*
G01*
X170541301Y-105543360D01*
G75*
G02*
X170791300Y-105793359I0J-249999D01*
G01*
G37*
G04 #@! TD.AperFunction*
G04 #@! TA.AperFunction,SMDPad,CuDef*
G36*
G01*
X173741300Y-105793359D02*
X173741300Y-107993361D01*
G75*
G02*
X173491301Y-108243360I-249999J0D01*
G01*
X172841299Y-108243360D01*
G75*
G02*
X172591300Y-107993361I0J249999D01*
G01*
X172591300Y-105793359D01*
G75*
G02*
X172841299Y-105543360I249999J0D01*
G01*
X173491301Y-105543360D01*
G75*
G02*
X173741300Y-105793359I0J-249999D01*
G01*
G37*
G04 #@! TD.AperFunction*
G04 #@! TA.AperFunction,SMDPad,CuDef*
G36*
G01*
X175029041Y-88568960D02*
X172829039Y-88568960D01*
G75*
G02*
X172579040Y-88318961I0J249999D01*
G01*
X172579040Y-87668959D01*
G75*
G02*
X172829039Y-87418960I249999J0D01*
G01*
X175029041Y-87418960D01*
G75*
G02*
X175279040Y-87668959I0J-249999D01*
G01*
X175279040Y-88318961D01*
G75*
G02*
X175029041Y-88568960I-249999J0D01*
G01*
G37*
G04 #@! TD.AperFunction*
G04 #@! TA.AperFunction,SMDPad,CuDef*
G36*
G01*
X175029041Y-91518960D02*
X172829039Y-91518960D01*
G75*
G02*
X172579040Y-91268961I0J249999D01*
G01*
X172579040Y-90618959D01*
G75*
G02*
X172829039Y-90368960I249999J0D01*
G01*
X175029041Y-90368960D01*
G75*
G02*
X175279040Y-90618959I0J-249999D01*
G01*
X175279040Y-91268961D01*
G75*
G02*
X175029041Y-91518960I-249999J0D01*
G01*
G37*
G04 #@! TD.AperFunction*
G04 #@! TA.AperFunction,SMDPad,CuDef*
G36*
G01*
X171457801Y-88579120D02*
X169257799Y-88579120D01*
G75*
G02*
X169007800Y-88329121I0J249999D01*
G01*
X169007800Y-87679119D01*
G75*
G02*
X169257799Y-87429120I249999J0D01*
G01*
X171457801Y-87429120D01*
G75*
G02*
X171707800Y-87679119I0J-249999D01*
G01*
X171707800Y-88329121D01*
G75*
G02*
X171457801Y-88579120I-249999J0D01*
G01*
G37*
G04 #@! TD.AperFunction*
G04 #@! TA.AperFunction,SMDPad,CuDef*
G36*
G01*
X171457801Y-91529120D02*
X169257799Y-91529120D01*
G75*
G02*
X169007800Y-91279121I0J249999D01*
G01*
X169007800Y-90629119D01*
G75*
G02*
X169257799Y-90379120I249999J0D01*
G01*
X171457801Y-90379120D01*
G75*
G02*
X171707800Y-90629119I0J-249999D01*
G01*
X171707800Y-91279121D01*
G75*
G02*
X171457801Y-91529120I-249999J0D01*
G01*
G37*
G04 #@! TD.AperFunction*
G04 #@! TA.AperFunction,SMDPad,CuDef*
G36*
G01*
X87051720Y-68943381D02*
X87051720Y-67693379D01*
G75*
G02*
X87301719Y-67443380I249999J0D01*
G01*
X87926721Y-67443380D01*
G75*
G02*
X88176720Y-67693379I0J-249999D01*
G01*
X88176720Y-68943381D01*
G75*
G02*
X87926721Y-69193380I-249999J0D01*
G01*
X87301719Y-69193380D01*
G75*
G02*
X87051720Y-68943381I0J249999D01*
G01*
G37*
G04 #@! TD.AperFunction*
G04 #@! TA.AperFunction,SMDPad,CuDef*
G36*
G01*
X84126720Y-68943381D02*
X84126720Y-67693379D01*
G75*
G02*
X84376719Y-67443380I249999J0D01*
G01*
X85001721Y-67443380D01*
G75*
G02*
X85251720Y-67693379I0J-249999D01*
G01*
X85251720Y-68943381D01*
G75*
G02*
X85001721Y-69193380I-249999J0D01*
G01*
X84376719Y-69193380D01*
G75*
G02*
X84126720Y-68943381I0J249999D01*
G01*
G37*
G04 #@! TD.AperFunction*
D15*
X134804460Y-90947240D03*
X134804460Y-91582240D03*
X134804460Y-92217240D03*
X134804460Y-92852240D03*
X134804460Y-93487240D03*
X134804460Y-94122240D03*
X134804460Y-94757240D03*
X134804460Y-95392240D03*
X129604460Y-95392240D03*
X129604460Y-94757240D03*
X129604460Y-94122240D03*
X129604460Y-93487240D03*
X129604460Y-92852240D03*
X129604460Y-92217240D03*
X129604460Y-91582240D03*
X129604460Y-90947240D03*
D16*
X170312800Y-94003940D03*
X170962800Y-94003940D03*
X171612800Y-94003940D03*
X172262800Y-94003940D03*
X172912800Y-94003940D03*
X173562800Y-94003940D03*
X174212800Y-94003940D03*
X174212800Y-99853940D03*
X173562800Y-99853940D03*
X172912800Y-99853940D03*
X172262800Y-99853940D03*
X171612800Y-99853940D03*
X170962800Y-99853940D03*
X170312800Y-99853940D03*
D17*
X131909820Y-133586220D03*
X129369820Y-133586220D03*
X126829820Y-133586220D03*
X121749820Y-133586220D03*
D18*
X119209820Y-133586220D03*
D17*
X106491420Y-134344680D03*
D18*
X109031420Y-134344680D03*
D17*
X103951420Y-134344680D03*
G04 #@! TA.AperFunction,SMDPad,CuDef*
G36*
G01*
X153479661Y-107715480D02*
X152229659Y-107715480D01*
G75*
G02*
X151979660Y-107465481I0J249999D01*
G01*
X151979660Y-106840479D01*
G75*
G02*
X152229659Y-106590480I249999J0D01*
G01*
X153479661Y-106590480D01*
G75*
G02*
X153729660Y-106840479I0J-249999D01*
G01*
X153729660Y-107465481D01*
G75*
G02*
X153479661Y-107715480I-249999J0D01*
G01*
G37*
G04 #@! TD.AperFunction*
G04 #@! TA.AperFunction,SMDPad,CuDef*
G36*
G01*
X153479661Y-110640480D02*
X152229659Y-110640480D01*
G75*
G02*
X151979660Y-110390481I0J249999D01*
G01*
X151979660Y-109765479D01*
G75*
G02*
X152229659Y-109515480I249999J0D01*
G01*
X153479661Y-109515480D01*
G75*
G02*
X153729660Y-109765479I0J-249999D01*
G01*
X153729660Y-110390481D01*
G75*
G02*
X153479661Y-110640480I-249999J0D01*
G01*
G37*
G04 #@! TD.AperFunction*
G04 #@! TA.AperFunction,SMDPad,CuDef*
G36*
G01*
X130339260Y-97761899D02*
X130339260Y-99011901D01*
G75*
G02*
X130089261Y-99261900I-249999J0D01*
G01*
X129464259Y-99261900D01*
G75*
G02*
X129214260Y-99011901I0J249999D01*
G01*
X129214260Y-97761899D01*
G75*
G02*
X129464259Y-97511900I249999J0D01*
G01*
X130089261Y-97511900D01*
G75*
G02*
X130339260Y-97761899I0J-249999D01*
G01*
G37*
G04 #@! TD.AperFunction*
G04 #@! TA.AperFunction,SMDPad,CuDef*
G36*
G01*
X133264260Y-97761899D02*
X133264260Y-99011901D01*
G75*
G02*
X133014261Y-99261900I-249999J0D01*
G01*
X132389259Y-99261900D01*
G75*
G02*
X132139260Y-99011901I0J249999D01*
G01*
X132139260Y-97761899D01*
G75*
G02*
X132389259Y-97511900I249999J0D01*
G01*
X133014261Y-97511900D01*
G75*
G02*
X133264260Y-97761899I0J-249999D01*
G01*
G37*
G04 #@! TD.AperFunction*
G04 #@! TA.AperFunction,SMDPad,CuDef*
G36*
G01*
X118398880Y-95832480D02*
X118948880Y-95832480D01*
G75*
G02*
X119148880Y-96032480I0J-200000D01*
G01*
X119148880Y-96432480D01*
G75*
G02*
X118948880Y-96632480I-200000J0D01*
G01*
X118398880Y-96632480D01*
G75*
G02*
X118198880Y-96432480I0J200000D01*
G01*
X118198880Y-96032480D01*
G75*
G02*
X118398880Y-95832480I200000J0D01*
G01*
G37*
G04 #@! TD.AperFunction*
G04 #@! TA.AperFunction,SMDPad,CuDef*
G36*
G01*
X118398880Y-94182480D02*
X118948880Y-94182480D01*
G75*
G02*
X119148880Y-94382480I0J-200000D01*
G01*
X119148880Y-94782480D01*
G75*
G02*
X118948880Y-94982480I-200000J0D01*
G01*
X118398880Y-94982480D01*
G75*
G02*
X118198880Y-94782480I0J200000D01*
G01*
X118198880Y-94382480D01*
G75*
G02*
X118398880Y-94182480I200000J0D01*
G01*
G37*
G04 #@! TD.AperFunction*
G04 #@! TA.AperFunction,SMDPad,CuDef*
G36*
G01*
X139856800Y-97961000D02*
X140406800Y-97961000D01*
G75*
G02*
X140606800Y-98161000I0J-200000D01*
G01*
X140606800Y-98561000D01*
G75*
G02*
X140406800Y-98761000I-200000J0D01*
G01*
X139856800Y-98761000D01*
G75*
G02*
X139656800Y-98561000I0J200000D01*
G01*
X139656800Y-98161000D01*
G75*
G02*
X139856800Y-97961000I200000J0D01*
G01*
G37*
G04 #@! TD.AperFunction*
G04 #@! TA.AperFunction,SMDPad,CuDef*
G36*
G01*
X139856800Y-96311000D02*
X140406800Y-96311000D01*
G75*
G02*
X140606800Y-96511000I0J-200000D01*
G01*
X140606800Y-96911000D01*
G75*
G02*
X140406800Y-97111000I-200000J0D01*
G01*
X139856800Y-97111000D01*
G75*
G02*
X139656800Y-96911000I0J200000D01*
G01*
X139656800Y-96511000D01*
G75*
G02*
X139856800Y-96311000I200000J0D01*
G01*
G37*
G04 #@! TD.AperFunction*
G04 #@! TA.AperFunction,SMDPad,CuDef*
G36*
G01*
X118859980Y-90369340D02*
X118309980Y-90369340D01*
G75*
G02*
X118109980Y-90169340I0J200000D01*
G01*
X118109980Y-89769340D01*
G75*
G02*
X118309980Y-89569340I200000J0D01*
G01*
X118859980Y-89569340D01*
G75*
G02*
X119059980Y-89769340I0J-200000D01*
G01*
X119059980Y-90169340D01*
G75*
G02*
X118859980Y-90369340I-200000J0D01*
G01*
G37*
G04 #@! TD.AperFunction*
G04 #@! TA.AperFunction,SMDPad,CuDef*
G36*
G01*
X118859980Y-92019340D02*
X118309980Y-92019340D01*
G75*
G02*
X118109980Y-91819340I0J200000D01*
G01*
X118109980Y-91419340D01*
G75*
G02*
X118309980Y-91219340I200000J0D01*
G01*
X118859980Y-91219340D01*
G75*
G02*
X119059980Y-91419340I0J-200000D01*
G01*
X119059980Y-91819340D01*
G75*
G02*
X118859980Y-92019340I-200000J0D01*
G01*
G37*
G04 #@! TD.AperFunction*
G04 #@! TA.AperFunction,SMDPad,CuDef*
G36*
G01*
X130364660Y-86738299D02*
X130364660Y-87988301D01*
G75*
G02*
X130114661Y-88238300I-249999J0D01*
G01*
X129489659Y-88238300D01*
G75*
G02*
X129239660Y-87988301I0J249999D01*
G01*
X129239660Y-86738299D01*
G75*
G02*
X129489659Y-86488300I249999J0D01*
G01*
X130114661Y-86488300D01*
G75*
G02*
X130364660Y-86738299I0J-249999D01*
G01*
G37*
G04 #@! TD.AperFunction*
G04 #@! TA.AperFunction,SMDPad,CuDef*
G36*
G01*
X133289660Y-86738299D02*
X133289660Y-87988301D01*
G75*
G02*
X133039661Y-88238300I-249999J0D01*
G01*
X132414659Y-88238300D01*
G75*
G02*
X132164660Y-87988301I0J249999D01*
G01*
X132164660Y-86738299D01*
G75*
G02*
X132414659Y-86488300I249999J0D01*
G01*
X133039661Y-86488300D01*
G75*
G02*
X133289660Y-86738299I0J-249999D01*
G01*
G37*
G04 #@! TD.AperFunction*
G04 #@! TA.AperFunction,SMDPad,CuDef*
G36*
G01*
X204180279Y-136190560D02*
X205430281Y-136190560D01*
G75*
G02*
X205680280Y-136440559I0J-249999D01*
G01*
X205680280Y-137065561D01*
G75*
G02*
X205430281Y-137315560I-249999J0D01*
G01*
X204180279Y-137315560D01*
G75*
G02*
X203930280Y-137065561I0J249999D01*
G01*
X203930280Y-136440559D01*
G75*
G02*
X204180279Y-136190560I249999J0D01*
G01*
G37*
G04 #@! TD.AperFunction*
G04 #@! TA.AperFunction,SMDPad,CuDef*
G36*
G01*
X204180279Y-133265560D02*
X205430281Y-133265560D01*
G75*
G02*
X205680280Y-133515559I0J-249999D01*
G01*
X205680280Y-134140561D01*
G75*
G02*
X205430281Y-134390560I-249999J0D01*
G01*
X204180279Y-134390560D01*
G75*
G02*
X203930280Y-134140561I0J249999D01*
G01*
X203930280Y-133515559D01*
G75*
G02*
X204180279Y-133265560I249999J0D01*
G01*
G37*
G04 #@! TD.AperFunction*
G04 #@! TA.AperFunction,SMDPad,CuDef*
G36*
G01*
X193832641Y-125129720D02*
X192582639Y-125129720D01*
G75*
G02*
X192332640Y-124879721I0J249999D01*
G01*
X192332640Y-124254719D01*
G75*
G02*
X192582639Y-124004720I249999J0D01*
G01*
X193832641Y-124004720D01*
G75*
G02*
X194082640Y-124254719I0J-249999D01*
G01*
X194082640Y-124879721D01*
G75*
G02*
X193832641Y-125129720I-249999J0D01*
G01*
G37*
G04 #@! TD.AperFunction*
G04 #@! TA.AperFunction,SMDPad,CuDef*
G36*
G01*
X193832641Y-128054720D02*
X192582639Y-128054720D01*
G75*
G02*
X192332640Y-127804721I0J249999D01*
G01*
X192332640Y-127179719D01*
G75*
G02*
X192582639Y-126929720I249999J0D01*
G01*
X193832641Y-126929720D01*
G75*
G02*
X194082640Y-127179719I0J-249999D01*
G01*
X194082640Y-127804721D01*
G75*
G02*
X193832641Y-128054720I-249999J0D01*
G01*
G37*
G04 #@! TD.AperFunction*
G04 #@! TA.AperFunction,SMDPad,CuDef*
G36*
G01*
X201517700Y-121548480D02*
X201517700Y-122098480D01*
G75*
G02*
X201317700Y-122298480I-200000J0D01*
G01*
X200917700Y-122298480D01*
G75*
G02*
X200717700Y-122098480I0J200000D01*
G01*
X200717700Y-121548480D01*
G75*
G02*
X200917700Y-121348480I200000J0D01*
G01*
X201317700Y-121348480D01*
G75*
G02*
X201517700Y-121548480I0J-200000D01*
G01*
G37*
G04 #@! TD.AperFunction*
G04 #@! TA.AperFunction,SMDPad,CuDef*
G36*
G01*
X203167700Y-121548480D02*
X203167700Y-122098480D01*
G75*
G02*
X202967700Y-122298480I-200000J0D01*
G01*
X202567700Y-122298480D01*
G75*
G02*
X202367700Y-122098480I0J200000D01*
G01*
X202367700Y-121548480D01*
G75*
G02*
X202567700Y-121348480I200000J0D01*
G01*
X202967700Y-121348480D01*
G75*
G02*
X203167700Y-121548480I0J-200000D01*
G01*
G37*
G04 #@! TD.AperFunction*
G04 #@! TA.AperFunction,SMDPad,CuDef*
G36*
G01*
X201009680Y-126232759D02*
X201009680Y-127482761D01*
G75*
G02*
X200759681Y-127732760I-249999J0D01*
G01*
X200134679Y-127732760D01*
G75*
G02*
X199884680Y-127482761I0J249999D01*
G01*
X199884680Y-126232759D01*
G75*
G02*
X200134679Y-125982760I249999J0D01*
G01*
X200759681Y-125982760D01*
G75*
G02*
X201009680Y-126232759I0J-249999D01*
G01*
G37*
G04 #@! TD.AperFunction*
G04 #@! TA.AperFunction,SMDPad,CuDef*
G36*
G01*
X203934680Y-126232759D02*
X203934680Y-127482761D01*
G75*
G02*
X203684681Y-127732760I-249999J0D01*
G01*
X203059679Y-127732760D01*
G75*
G02*
X202809680Y-127482761I0J249999D01*
G01*
X202809680Y-126232759D01*
G75*
G02*
X203059679Y-125982760I249999J0D01*
G01*
X203684681Y-125982760D01*
G75*
G02*
X203934680Y-126232759I0J-249999D01*
G01*
G37*
G04 #@! TD.AperFunction*
G04 #@! TA.AperFunction,SMDPad,CuDef*
G36*
G01*
X159699280Y-122581220D02*
X160249280Y-122581220D01*
G75*
G02*
X160449280Y-122781220I0J-200000D01*
G01*
X160449280Y-123181220D01*
G75*
G02*
X160249280Y-123381220I-200000J0D01*
G01*
X159699280Y-123381220D01*
G75*
G02*
X159499280Y-123181220I0J200000D01*
G01*
X159499280Y-122781220D01*
G75*
G02*
X159699280Y-122581220I200000J0D01*
G01*
G37*
G04 #@! TD.AperFunction*
G04 #@! TA.AperFunction,SMDPad,CuDef*
G36*
G01*
X159699280Y-120931220D02*
X160249280Y-120931220D01*
G75*
G02*
X160449280Y-121131220I0J-200000D01*
G01*
X160449280Y-121531220D01*
G75*
G02*
X160249280Y-121731220I-200000J0D01*
G01*
X159699280Y-121731220D01*
G75*
G02*
X159499280Y-121531220I0J200000D01*
G01*
X159499280Y-121131220D01*
G75*
G02*
X159699280Y-120931220I200000J0D01*
G01*
G37*
G04 #@! TD.AperFunction*
G04 #@! TA.AperFunction,SMDPad,CuDef*
G36*
G01*
X159734840Y-126406460D02*
X160284840Y-126406460D01*
G75*
G02*
X160484840Y-126606460I0J-200000D01*
G01*
X160484840Y-127006460D01*
G75*
G02*
X160284840Y-127206460I-200000J0D01*
G01*
X159734840Y-127206460D01*
G75*
G02*
X159534840Y-127006460I0J200000D01*
G01*
X159534840Y-126606460D01*
G75*
G02*
X159734840Y-126406460I200000J0D01*
G01*
G37*
G04 #@! TD.AperFunction*
G04 #@! TA.AperFunction,SMDPad,CuDef*
G36*
G01*
X159734840Y-124756460D02*
X160284840Y-124756460D01*
G75*
G02*
X160484840Y-124956460I0J-200000D01*
G01*
X160484840Y-125356460D01*
G75*
G02*
X160284840Y-125556460I-200000J0D01*
G01*
X159734840Y-125556460D01*
G75*
G02*
X159534840Y-125356460I0J200000D01*
G01*
X159534840Y-124956460D01*
G75*
G02*
X159734840Y-124756460I200000J0D01*
G01*
G37*
G04 #@! TD.AperFunction*
G04 #@! TA.AperFunction,SMDPad,CuDef*
G36*
G01*
X103002760Y-97918720D02*
X102452760Y-97918720D01*
G75*
G02*
X102252760Y-97718720I0J200000D01*
G01*
X102252760Y-97318720D01*
G75*
G02*
X102452760Y-97118720I200000J0D01*
G01*
X103002760Y-97118720D01*
G75*
G02*
X103202760Y-97318720I0J-200000D01*
G01*
X103202760Y-97718720D01*
G75*
G02*
X103002760Y-97918720I-200000J0D01*
G01*
G37*
G04 #@! TD.AperFunction*
G04 #@! TA.AperFunction,SMDPad,CuDef*
G36*
G01*
X103002760Y-99568720D02*
X102452760Y-99568720D01*
G75*
G02*
X102252760Y-99368720I0J200000D01*
G01*
X102252760Y-98968720D01*
G75*
G02*
X102452760Y-98768720I200000J0D01*
G01*
X103002760Y-98768720D01*
G75*
G02*
X103202760Y-98968720I0J-200000D01*
G01*
X103202760Y-99368720D01*
G75*
G02*
X103002760Y-99568720I-200000J0D01*
G01*
G37*
G04 #@! TD.AperFunction*
G04 #@! TA.AperFunction,SMDPad,CuDef*
G36*
G01*
X204078679Y-107762880D02*
X205328681Y-107762880D01*
G75*
G02*
X205578680Y-108012879I0J-249999D01*
G01*
X205578680Y-108637881D01*
G75*
G02*
X205328681Y-108887880I-249999J0D01*
G01*
X204078679Y-108887880D01*
G75*
G02*
X203828680Y-108637881I0J249999D01*
G01*
X203828680Y-108012879D01*
G75*
G02*
X204078679Y-107762880I249999J0D01*
G01*
G37*
G04 #@! TD.AperFunction*
G04 #@! TA.AperFunction,SMDPad,CuDef*
G36*
G01*
X204078679Y-104837880D02*
X205328681Y-104837880D01*
G75*
G02*
X205578680Y-105087879I0J-249999D01*
G01*
X205578680Y-105712881D01*
G75*
G02*
X205328681Y-105962880I-249999J0D01*
G01*
X204078679Y-105962880D01*
G75*
G02*
X203828680Y-105712881I0J249999D01*
G01*
X203828680Y-105087879D01*
G75*
G02*
X204078679Y-104837880I249999J0D01*
G01*
G37*
G04 #@! TD.AperFunction*
G04 #@! TA.AperFunction,SMDPad,CuDef*
G36*
G01*
X194787681Y-96986520D02*
X193537679Y-96986520D01*
G75*
G02*
X193287680Y-96736521I0J249999D01*
G01*
X193287680Y-96111519D01*
G75*
G02*
X193537679Y-95861520I249999J0D01*
G01*
X194787681Y-95861520D01*
G75*
G02*
X195037680Y-96111519I0J-249999D01*
G01*
X195037680Y-96736521D01*
G75*
G02*
X194787681Y-96986520I-249999J0D01*
G01*
G37*
G04 #@! TD.AperFunction*
G04 #@! TA.AperFunction,SMDPad,CuDef*
G36*
G01*
X194787681Y-99911520D02*
X193537679Y-99911520D01*
G75*
G02*
X193287680Y-99661521I0J249999D01*
G01*
X193287680Y-99036519D01*
G75*
G02*
X193537679Y-98786520I249999J0D01*
G01*
X194787681Y-98786520D01*
G75*
G02*
X195037680Y-99036519I0J-249999D01*
G01*
X195037680Y-99661521D01*
G75*
G02*
X194787681Y-99911520I-249999J0D01*
G01*
G37*
G04 #@! TD.AperFunction*
G04 #@! TA.AperFunction,SMDPad,CuDef*
G36*
G01*
X201433880Y-93318920D02*
X201433880Y-93868920D01*
G75*
G02*
X201233880Y-94068920I-200000J0D01*
G01*
X200833880Y-94068920D01*
G75*
G02*
X200633880Y-93868920I0J200000D01*
G01*
X200633880Y-93318920D01*
G75*
G02*
X200833880Y-93118920I200000J0D01*
G01*
X201233880Y-93118920D01*
G75*
G02*
X201433880Y-93318920I0J-200000D01*
G01*
G37*
G04 #@! TD.AperFunction*
G04 #@! TA.AperFunction,SMDPad,CuDef*
G36*
G01*
X203083880Y-93318920D02*
X203083880Y-93868920D01*
G75*
G02*
X202883880Y-94068920I-200000J0D01*
G01*
X202483880Y-94068920D01*
G75*
G02*
X202283880Y-93868920I0J200000D01*
G01*
X202283880Y-93318920D01*
G75*
G02*
X202483880Y-93118920I200000J0D01*
G01*
X202883880Y-93118920D01*
G75*
G02*
X203083880Y-93318920I0J-200000D01*
G01*
G37*
G04 #@! TD.AperFunction*
G04 #@! TA.AperFunction,SMDPad,CuDef*
G36*
G01*
X201080800Y-98059079D02*
X201080800Y-99309081D01*
G75*
G02*
X200830801Y-99559080I-249999J0D01*
G01*
X200205799Y-99559080D01*
G75*
G02*
X199955800Y-99309081I0J249999D01*
G01*
X199955800Y-98059079D01*
G75*
G02*
X200205799Y-97809080I249999J0D01*
G01*
X200830801Y-97809080D01*
G75*
G02*
X201080800Y-98059079I0J-249999D01*
G01*
G37*
G04 #@! TD.AperFunction*
G04 #@! TA.AperFunction,SMDPad,CuDef*
G36*
G01*
X204005800Y-98059079D02*
X204005800Y-99309081D01*
G75*
G02*
X203755801Y-99559080I-249999J0D01*
G01*
X203130799Y-99559080D01*
G75*
G02*
X202880800Y-99309081I0J249999D01*
G01*
X202880800Y-98059079D01*
G75*
G02*
X203130799Y-97809080I249999J0D01*
G01*
X203755801Y-97809080D01*
G75*
G02*
X204005800Y-98059079I0J-249999D01*
G01*
G37*
G04 #@! TD.AperFunction*
G04 #@! TA.AperFunction,SMDPad,CuDef*
G36*
G01*
X161063120Y-94710840D02*
X161063120Y-95260840D01*
G75*
G02*
X160863120Y-95460840I-200000J0D01*
G01*
X160463120Y-95460840D01*
G75*
G02*
X160263120Y-95260840I0J200000D01*
G01*
X160263120Y-94710840D01*
G75*
G02*
X160463120Y-94510840I200000J0D01*
G01*
X160863120Y-94510840D01*
G75*
G02*
X161063120Y-94710840I0J-200000D01*
G01*
G37*
G04 #@! TD.AperFunction*
G04 #@! TA.AperFunction,SMDPad,CuDef*
G36*
G01*
X162713120Y-94710840D02*
X162713120Y-95260840D01*
G75*
G02*
X162513120Y-95460840I-200000J0D01*
G01*
X162113120Y-95460840D01*
G75*
G02*
X161913120Y-95260840I0J200000D01*
G01*
X161913120Y-94710840D01*
G75*
G02*
X162113120Y-94510840I200000J0D01*
G01*
X162513120Y-94510840D01*
G75*
G02*
X162713120Y-94710840I0J-200000D01*
G01*
G37*
G04 #@! TD.AperFunction*
G04 #@! TA.AperFunction,SMDPad,CuDef*
G36*
G01*
X160326660Y-98895720D02*
X160876660Y-98895720D01*
G75*
G02*
X161076660Y-99095720I0J-200000D01*
G01*
X161076660Y-99495720D01*
G75*
G02*
X160876660Y-99695720I-200000J0D01*
G01*
X160326660Y-99695720D01*
G75*
G02*
X160126660Y-99495720I0J200000D01*
G01*
X160126660Y-99095720D01*
G75*
G02*
X160326660Y-98895720I200000J0D01*
G01*
G37*
G04 #@! TD.AperFunction*
G04 #@! TA.AperFunction,SMDPad,CuDef*
G36*
G01*
X160326660Y-97245720D02*
X160876660Y-97245720D01*
G75*
G02*
X161076660Y-97445720I0J-200000D01*
G01*
X161076660Y-97845720D01*
G75*
G02*
X160876660Y-98045720I-200000J0D01*
G01*
X160326660Y-98045720D01*
G75*
G02*
X160126660Y-97845720I0J200000D01*
G01*
X160126660Y-97445720D01*
G75*
G02*
X160326660Y-97245720I200000J0D01*
G01*
G37*
G04 #@! TD.AperFunction*
G04 #@! TA.AperFunction,SMDPad,CuDef*
G36*
G01*
X102921480Y-86524280D02*
X102371480Y-86524280D01*
G75*
G02*
X102171480Y-86324280I0J200000D01*
G01*
X102171480Y-85924280D01*
G75*
G02*
X102371480Y-85724280I200000J0D01*
G01*
X102921480Y-85724280D01*
G75*
G02*
X103121480Y-85924280I0J-200000D01*
G01*
X103121480Y-86324280D01*
G75*
G02*
X102921480Y-86524280I-200000J0D01*
G01*
G37*
G04 #@! TD.AperFunction*
G04 #@! TA.AperFunction,SMDPad,CuDef*
G36*
G01*
X102921480Y-88174280D02*
X102371480Y-88174280D01*
G75*
G02*
X102171480Y-87974280I0J200000D01*
G01*
X102171480Y-87574280D01*
G75*
G02*
X102371480Y-87374280I200000J0D01*
G01*
X102921480Y-87374280D01*
G75*
G02*
X103121480Y-87574280I0J-200000D01*
G01*
X103121480Y-87974280D01*
G75*
G02*
X102921480Y-88174280I-200000J0D01*
G01*
G37*
G04 #@! TD.AperFunction*
G04 #@! TA.AperFunction,SMDPad,CuDef*
G36*
G01*
X204739079Y-79594280D02*
X205989081Y-79594280D01*
G75*
G02*
X206239080Y-79844279I0J-249999D01*
G01*
X206239080Y-80469281D01*
G75*
G02*
X205989081Y-80719280I-249999J0D01*
G01*
X204739079Y-80719280D01*
G75*
G02*
X204489080Y-80469281I0J249999D01*
G01*
X204489080Y-79844279D01*
G75*
G02*
X204739079Y-79594280I249999J0D01*
G01*
G37*
G04 #@! TD.AperFunction*
G04 #@! TA.AperFunction,SMDPad,CuDef*
G36*
G01*
X204739079Y-76669280D02*
X205989081Y-76669280D01*
G75*
G02*
X206239080Y-76919279I0J-249999D01*
G01*
X206239080Y-77544281D01*
G75*
G02*
X205989081Y-77794280I-249999J0D01*
G01*
X204739079Y-77794280D01*
G75*
G02*
X204489080Y-77544281I0J249999D01*
G01*
X204489080Y-76919279D01*
G75*
G02*
X204739079Y-76669280I249999J0D01*
G01*
G37*
G04 #@! TD.AperFunction*
G04 #@! TA.AperFunction,SMDPad,CuDef*
G36*
G01*
X194259361Y-68883960D02*
X193009359Y-68883960D01*
G75*
G02*
X192759360Y-68633961I0J249999D01*
G01*
X192759360Y-68008959D01*
G75*
G02*
X193009359Y-67758960I249999J0D01*
G01*
X194259361Y-67758960D01*
G75*
G02*
X194509360Y-68008959I0J-249999D01*
G01*
X194509360Y-68633961D01*
G75*
G02*
X194259361Y-68883960I-249999J0D01*
G01*
G37*
G04 #@! TD.AperFunction*
G04 #@! TA.AperFunction,SMDPad,CuDef*
G36*
G01*
X194259361Y-71808960D02*
X193009359Y-71808960D01*
G75*
G02*
X192759360Y-71558961I0J249999D01*
G01*
X192759360Y-70933959D01*
G75*
G02*
X193009359Y-70683960I249999J0D01*
G01*
X194259361Y-70683960D01*
G75*
G02*
X194509360Y-70933959I0J-249999D01*
G01*
X194509360Y-71558961D01*
G75*
G02*
X194259361Y-71808960I-249999J0D01*
G01*
G37*
G04 #@! TD.AperFunction*
G04 #@! TA.AperFunction,SMDPad,CuDef*
G36*
G01*
X201797100Y-65028400D02*
X201797100Y-65578400D01*
G75*
G02*
X201597100Y-65778400I-200000J0D01*
G01*
X201197100Y-65778400D01*
G75*
G02*
X200997100Y-65578400I0J200000D01*
G01*
X200997100Y-65028400D01*
G75*
G02*
X201197100Y-64828400I200000J0D01*
G01*
X201597100Y-64828400D01*
G75*
G02*
X201797100Y-65028400I0J-200000D01*
G01*
G37*
G04 #@! TD.AperFunction*
G04 #@! TA.AperFunction,SMDPad,CuDef*
G36*
G01*
X203447100Y-65028400D02*
X203447100Y-65578400D01*
G75*
G02*
X203247100Y-65778400I-200000J0D01*
G01*
X202847100Y-65778400D01*
G75*
G02*
X202647100Y-65578400I0J200000D01*
G01*
X202647100Y-65028400D01*
G75*
G02*
X202847100Y-64828400I200000J0D01*
G01*
X203247100Y-64828400D01*
G75*
G02*
X203447100Y-65028400I0J-200000D01*
G01*
G37*
G04 #@! TD.AperFunction*
G04 #@! TA.AperFunction,SMDPad,CuDef*
G36*
G01*
X201322100Y-70009859D02*
X201322100Y-71259861D01*
G75*
G02*
X201072101Y-71509860I-249999J0D01*
G01*
X200447099Y-71509860D01*
G75*
G02*
X200197100Y-71259861I0J249999D01*
G01*
X200197100Y-70009859D01*
G75*
G02*
X200447099Y-69759860I249999J0D01*
G01*
X201072101Y-69759860D01*
G75*
G02*
X201322100Y-70009859I0J-249999D01*
G01*
G37*
G04 #@! TD.AperFunction*
G04 #@! TA.AperFunction,SMDPad,CuDef*
G36*
G01*
X204247100Y-70009859D02*
X204247100Y-71259861D01*
G75*
G02*
X203997101Y-71509860I-249999J0D01*
G01*
X203372099Y-71509860D01*
G75*
G02*
X203122100Y-71259861I0J249999D01*
G01*
X203122100Y-70009859D01*
G75*
G02*
X203372099Y-69759860I249999J0D01*
G01*
X203997101Y-69759860D01*
G75*
G02*
X204247100Y-70009859I0J-249999D01*
G01*
G37*
G04 #@! TD.AperFunction*
G04 #@! TA.AperFunction,SMDPad,CuDef*
G36*
G01*
X161290680Y-69590100D02*
X160740680Y-69590100D01*
G75*
G02*
X160540680Y-69390100I0J200000D01*
G01*
X160540680Y-68990100D01*
G75*
G02*
X160740680Y-68790100I200000J0D01*
G01*
X161290680Y-68790100D01*
G75*
G02*
X161490680Y-68990100I0J-200000D01*
G01*
X161490680Y-69390100D01*
G75*
G02*
X161290680Y-69590100I-200000J0D01*
G01*
G37*
G04 #@! TD.AperFunction*
G04 #@! TA.AperFunction,SMDPad,CuDef*
G36*
G01*
X161290680Y-71240100D02*
X160740680Y-71240100D01*
G75*
G02*
X160540680Y-71040100I0J200000D01*
G01*
X160540680Y-70640100D01*
G75*
G02*
X160740680Y-70440100I200000J0D01*
G01*
X161290680Y-70440100D01*
G75*
G02*
X161490680Y-70640100I0J-200000D01*
G01*
X161490680Y-71040100D01*
G75*
G02*
X161290680Y-71240100I-200000J0D01*
G01*
G37*
G04 #@! TD.AperFunction*
G04 #@! TA.AperFunction,SMDPad,CuDef*
G36*
G01*
X164049120Y-71294440D02*
X163499120Y-71294440D01*
G75*
G02*
X163299120Y-71094440I0J200000D01*
G01*
X163299120Y-70694440D01*
G75*
G02*
X163499120Y-70494440I200000J0D01*
G01*
X164049120Y-70494440D01*
G75*
G02*
X164249120Y-70694440I0J-200000D01*
G01*
X164249120Y-71094440D01*
G75*
G02*
X164049120Y-71294440I-200000J0D01*
G01*
G37*
G04 #@! TD.AperFunction*
G04 #@! TA.AperFunction,SMDPad,CuDef*
G36*
G01*
X164049120Y-72944440D02*
X163499120Y-72944440D01*
G75*
G02*
X163299120Y-72744440I0J200000D01*
G01*
X163299120Y-72344440D01*
G75*
G02*
X163499120Y-72144440I200000J0D01*
G01*
X164049120Y-72144440D01*
G75*
G02*
X164249120Y-72344440I0J-200000D01*
G01*
X164249120Y-72744440D01*
G75*
G02*
X164049120Y-72944440I-200000J0D01*
G01*
G37*
G04 #@! TD.AperFunction*
G04 #@! TA.AperFunction,SMDPad,CuDef*
G36*
G01*
X103170400Y-75381800D02*
X102620400Y-75381800D01*
G75*
G02*
X102420400Y-75181800I0J200000D01*
G01*
X102420400Y-74781800D01*
G75*
G02*
X102620400Y-74581800I200000J0D01*
G01*
X103170400Y-74581800D01*
G75*
G02*
X103370400Y-74781800I0J-200000D01*
G01*
X103370400Y-75181800D01*
G75*
G02*
X103170400Y-75381800I-200000J0D01*
G01*
G37*
G04 #@! TD.AperFunction*
G04 #@! TA.AperFunction,SMDPad,CuDef*
G36*
G01*
X103170400Y-77031800D02*
X102620400Y-77031800D01*
G75*
G02*
X102420400Y-76831800I0J200000D01*
G01*
X102420400Y-76431800D01*
G75*
G02*
X102620400Y-76231800I200000J0D01*
G01*
X103170400Y-76231800D01*
G75*
G02*
X103370400Y-76431800I0J-200000D01*
G01*
X103370400Y-76831800D01*
G75*
G02*
X103170400Y-77031800I-200000J0D01*
G01*
G37*
G04 #@! TD.AperFunction*
G04 #@! TA.AperFunction,SMDPad,CuDef*
G36*
G01*
X108864720Y-116378400D02*
X108864720Y-115828400D01*
G75*
G02*
X109064720Y-115628400I200000J0D01*
G01*
X109464720Y-115628400D01*
G75*
G02*
X109664720Y-115828400I0J-200000D01*
G01*
X109664720Y-116378400D01*
G75*
G02*
X109464720Y-116578400I-200000J0D01*
G01*
X109064720Y-116578400D01*
G75*
G02*
X108864720Y-116378400I0J200000D01*
G01*
G37*
G04 #@! TD.AperFunction*
G04 #@! TA.AperFunction,SMDPad,CuDef*
G36*
G01*
X107214720Y-116378400D02*
X107214720Y-115828400D01*
G75*
G02*
X107414720Y-115628400I200000J0D01*
G01*
X107814720Y-115628400D01*
G75*
G02*
X108014720Y-115828400I0J-200000D01*
G01*
X108014720Y-116378400D01*
G75*
G02*
X107814720Y-116578400I-200000J0D01*
G01*
X107414720Y-116578400D01*
G75*
G02*
X107214720Y-116378400I0J200000D01*
G01*
G37*
G04 #@! TD.AperFunction*
G04 #@! TA.AperFunction,SMDPad,CuDef*
G36*
G01*
X105304140Y-116289500D02*
X105304140Y-115739500D01*
G75*
G02*
X105504140Y-115539500I200000J0D01*
G01*
X105904140Y-115539500D01*
G75*
G02*
X106104140Y-115739500I0J-200000D01*
G01*
X106104140Y-116289500D01*
G75*
G02*
X105904140Y-116489500I-200000J0D01*
G01*
X105504140Y-116489500D01*
G75*
G02*
X105304140Y-116289500I0J200000D01*
G01*
G37*
G04 #@! TD.AperFunction*
G04 #@! TA.AperFunction,SMDPad,CuDef*
G36*
G01*
X103654140Y-116289500D02*
X103654140Y-115739500D01*
G75*
G02*
X103854140Y-115539500I200000J0D01*
G01*
X104254140Y-115539500D01*
G75*
G02*
X104454140Y-115739500I0J-200000D01*
G01*
X104454140Y-116289500D01*
G75*
G02*
X104254140Y-116489500I-200000J0D01*
G01*
X103854140Y-116489500D01*
G75*
G02*
X103654140Y-116289500I0J200000D01*
G01*
G37*
G04 #@! TD.AperFunction*
D19*
X117708680Y-128557620D03*
X117708680Y-125457620D03*
G04 #@! TA.AperFunction,SMDPad,CuDef*
G36*
G01*
X109461640Y-129138880D02*
X112361640Y-129138880D01*
G75*
G02*
X112611640Y-129388880I0J-250000D01*
G01*
X112611640Y-130188880D01*
G75*
G02*
X112361640Y-130438880I-250000J0D01*
G01*
X109461640Y-130438880D01*
G75*
G02*
X109211640Y-130188880I0J250000D01*
G01*
X109211640Y-129388880D01*
G75*
G02*
X109461640Y-129138880I250000J0D01*
G01*
G37*
G04 #@! TD.AperFunction*
G04 #@! TA.AperFunction,SMDPad,CuDef*
G36*
G01*
X109461640Y-124688880D02*
X112361640Y-124688880D01*
G75*
G02*
X112611640Y-124938880I0J-250000D01*
G01*
X112611640Y-125738880D01*
G75*
G02*
X112361640Y-125988880I-250000J0D01*
G01*
X109461640Y-125988880D01*
G75*
G02*
X109211640Y-125738880I0J250000D01*
G01*
X109211640Y-124938880D01*
G75*
G02*
X109461640Y-124688880I250000J0D01*
G01*
G37*
G04 #@! TD.AperFunction*
D20*
X207850740Y-122072400D03*
X207850740Y-124612400D03*
D21*
X207850740Y-127152400D03*
D20*
X207612640Y-93595160D03*
X207612640Y-96135160D03*
D21*
X207612640Y-98675160D03*
D20*
X207891380Y-65595500D03*
X207891380Y-68135500D03*
D21*
X207891380Y-70675500D03*
D22*
X79608680Y-72133460D03*
X79608680Y-74673460D03*
X79608680Y-77213460D03*
X79608680Y-79753460D03*
X79608680Y-82293460D03*
X79608680Y-84833460D03*
X79608680Y-87373460D03*
X79608680Y-89913460D03*
X79608680Y-92453460D03*
X79608680Y-94993460D03*
X79608680Y-97533460D03*
X79608680Y-100073460D03*
X79608680Y-102613460D03*
X79608680Y-105153460D03*
X79608680Y-107693460D03*
X79608680Y-110233460D03*
X74528680Y-72133460D03*
X74528680Y-74673460D03*
X74528680Y-77213460D03*
X74528680Y-79753460D03*
X74528680Y-82293460D03*
X74528680Y-84833460D03*
X74528680Y-87373460D03*
X74528680Y-89913460D03*
X74528680Y-92453460D03*
X74528680Y-94993460D03*
X74528680Y-97533460D03*
X74528680Y-100073460D03*
X74528680Y-102613460D03*
X74528680Y-105153460D03*
X74528680Y-107693460D03*
G04 #@! TA.AperFunction,ComponentPad*
G36*
G01*
X75053681Y-111008460D02*
X74003679Y-111008460D01*
G75*
G02*
X73753680Y-110758461I0J249999D01*
G01*
X73753680Y-109708459D01*
G75*
G02*
X74003679Y-109458460I249999J0D01*
G01*
X75053681Y-109458460D01*
G75*
G02*
X75303680Y-109708459I0J-249999D01*
G01*
X75303680Y-110758461D01*
G75*
G02*
X75053681Y-111008460I-249999J0D01*
G01*
G37*
G04 #@! TD.AperFunction*
G04 #@! TA.AperFunction,SMDPad,CuDef*
G36*
G01*
X145361640Y-98610840D02*
X146311640Y-98610840D01*
G75*
G02*
X146561640Y-98860840I0J-250000D01*
G01*
X146561640Y-99360840D01*
G75*
G02*
X146311640Y-99610840I-250000J0D01*
G01*
X145361640Y-99610840D01*
G75*
G02*
X145111640Y-99360840I0J250000D01*
G01*
X145111640Y-98860840D01*
G75*
G02*
X145361640Y-98610840I250000J0D01*
G01*
G37*
G04 #@! TD.AperFunction*
G04 #@! TA.AperFunction,SMDPad,CuDef*
G36*
G01*
X145361640Y-96710840D02*
X146311640Y-96710840D01*
G75*
G02*
X146561640Y-96960840I0J-250000D01*
G01*
X146561640Y-97460840D01*
G75*
G02*
X146311640Y-97710840I-250000J0D01*
G01*
X145361640Y-97710840D01*
G75*
G02*
X145111640Y-97460840I0J250000D01*
G01*
X145111640Y-96960840D01*
G75*
G02*
X145361640Y-96710840I250000J0D01*
G01*
G37*
G04 #@! TD.AperFunction*
G04 #@! TA.AperFunction,SMDPad,CuDef*
G36*
G01*
X113647240Y-96301140D02*
X112697240Y-96301140D01*
G75*
G02*
X112447240Y-96051140I0J250000D01*
G01*
X112447240Y-95551140D01*
G75*
G02*
X112697240Y-95301140I250000J0D01*
G01*
X113647240Y-95301140D01*
G75*
G02*
X113897240Y-95551140I0J-250000D01*
G01*
X113897240Y-96051140D01*
G75*
G02*
X113647240Y-96301140I-250000J0D01*
G01*
G37*
G04 #@! TD.AperFunction*
G04 #@! TA.AperFunction,SMDPad,CuDef*
G36*
G01*
X113647240Y-98201140D02*
X112697240Y-98201140D01*
G75*
G02*
X112447240Y-97951140I0J250000D01*
G01*
X112447240Y-97451140D01*
G75*
G02*
X112697240Y-97201140I250000J0D01*
G01*
X113647240Y-97201140D01*
G75*
G02*
X113897240Y-97451140I0J-250000D01*
G01*
X113897240Y-97951140D01*
G75*
G02*
X113647240Y-98201140I-250000J0D01*
G01*
G37*
G04 #@! TD.AperFunction*
G04 #@! TA.AperFunction,SMDPad,CuDef*
G36*
G01*
X115407679Y-97101760D02*
X116707681Y-97101760D01*
G75*
G02*
X116957680Y-97351759I0J-249999D01*
G01*
X116957680Y-98001761D01*
G75*
G02*
X116707681Y-98251760I-249999J0D01*
G01*
X115407679Y-98251760D01*
G75*
G02*
X115157680Y-98001761I0J249999D01*
G01*
X115157680Y-97351759D01*
G75*
G02*
X115407679Y-97101760I249999J0D01*
G01*
G37*
G04 #@! TD.AperFunction*
G04 #@! TA.AperFunction,SMDPad,CuDef*
G36*
G01*
X115407679Y-94151760D02*
X116707681Y-94151760D01*
G75*
G02*
X116957680Y-94401759I0J-249999D01*
G01*
X116957680Y-95051761D01*
G75*
G02*
X116707681Y-95301760I-249999J0D01*
G01*
X115407679Y-95301760D01*
G75*
G02*
X115157680Y-95051761I0J249999D01*
G01*
X115157680Y-94401759D01*
G75*
G02*
X115407679Y-94151760I249999J0D01*
G01*
G37*
G04 #@! TD.AperFunction*
G04 #@! TA.AperFunction,SMDPad,CuDef*
G36*
G01*
X141950679Y-99129420D02*
X143250681Y-99129420D01*
G75*
G02*
X143500680Y-99379419I0J-249999D01*
G01*
X143500680Y-100029421D01*
G75*
G02*
X143250681Y-100279420I-249999J0D01*
G01*
X141950679Y-100279420D01*
G75*
G02*
X141700680Y-100029421I0J249999D01*
G01*
X141700680Y-99379419D01*
G75*
G02*
X141950679Y-99129420I249999J0D01*
G01*
G37*
G04 #@! TD.AperFunction*
G04 #@! TA.AperFunction,SMDPad,CuDef*
G36*
G01*
X141950679Y-96179420D02*
X143250681Y-96179420D01*
G75*
G02*
X143500680Y-96429419I0J-249999D01*
G01*
X143500680Y-97079421D01*
G75*
G02*
X143250681Y-97329420I-249999J0D01*
G01*
X141950679Y-97329420D01*
G75*
G02*
X141700680Y-97079421I0J249999D01*
G01*
X141700680Y-96429419D01*
G75*
G02*
X141950679Y-96179420I249999J0D01*
G01*
G37*
G04 #@! TD.AperFunction*
G04 #@! TA.AperFunction,SMDPad,CuDef*
G36*
G01*
X116639101Y-89868700D02*
X115339099Y-89868700D01*
G75*
G02*
X115089100Y-89618701I0J249999D01*
G01*
X115089100Y-88968699D01*
G75*
G02*
X115339099Y-88718700I249999J0D01*
G01*
X116639101Y-88718700D01*
G75*
G02*
X116889100Y-88968699I0J-249999D01*
G01*
X116889100Y-89618701D01*
G75*
G02*
X116639101Y-89868700I-249999J0D01*
G01*
G37*
G04 #@! TD.AperFunction*
G04 #@! TA.AperFunction,SMDPad,CuDef*
G36*
G01*
X116639101Y-92818700D02*
X115339099Y-92818700D01*
G75*
G02*
X115089100Y-92568701I0J249999D01*
G01*
X115089100Y-91918699D01*
G75*
G02*
X115339099Y-91668700I249999J0D01*
G01*
X116639101Y-91668700D01*
G75*
G02*
X116889100Y-91918699I0J-249999D01*
G01*
X116889100Y-92568701D01*
G75*
G02*
X116639101Y-92818700I-249999J0D01*
G01*
G37*
G04 #@! TD.AperFunction*
G04 #@! TA.AperFunction,SMDPad,CuDef*
G36*
G01*
X113560880Y-90863000D02*
X112610880Y-90863000D01*
G75*
G02*
X112360880Y-90613000I0J250000D01*
G01*
X112360880Y-90113000D01*
G75*
G02*
X112610880Y-89863000I250000J0D01*
G01*
X113560880Y-89863000D01*
G75*
G02*
X113810880Y-90113000I0J-250000D01*
G01*
X113810880Y-90613000D01*
G75*
G02*
X113560880Y-90863000I-250000J0D01*
G01*
G37*
G04 #@! TD.AperFunction*
G04 #@! TA.AperFunction,SMDPad,CuDef*
G36*
G01*
X113560880Y-92763000D02*
X112610880Y-92763000D01*
G75*
G02*
X112360880Y-92513000I0J250000D01*
G01*
X112360880Y-92013000D01*
G75*
G02*
X112610880Y-91763000I250000J0D01*
G01*
X113560880Y-91763000D01*
G75*
G02*
X113810880Y-92013000I0J-250000D01*
G01*
X113810880Y-92513000D01*
G75*
G02*
X113560880Y-92763000I-250000J0D01*
G01*
G37*
G04 #@! TD.AperFunction*
G04 #@! TA.AperFunction,SMDPad,CuDef*
G36*
G01*
X102432040Y-102077400D02*
X102932040Y-102077400D01*
G75*
G02*
X103157040Y-102302400I0J-225000D01*
G01*
X103157040Y-102752400D01*
G75*
G02*
X102932040Y-102977400I-225000J0D01*
G01*
X102432040Y-102977400D01*
G75*
G02*
X102207040Y-102752400I0J225000D01*
G01*
X102207040Y-102302400D01*
G75*
G02*
X102432040Y-102077400I225000J0D01*
G01*
G37*
G04 #@! TD.AperFunction*
G04 #@! TA.AperFunction,SMDPad,CuDef*
G36*
G01*
X102432040Y-100527400D02*
X102932040Y-100527400D01*
G75*
G02*
X103157040Y-100752400I0J-225000D01*
G01*
X103157040Y-101202400D01*
G75*
G02*
X102932040Y-101427400I-225000J0D01*
G01*
X102432040Y-101427400D01*
G75*
G02*
X102207040Y-101202400I0J225000D01*
G01*
X102207040Y-100752400D01*
G75*
G02*
X102432040Y-100527400I225000J0D01*
G01*
G37*
G04 #@! TD.AperFunction*
G04 #@! TA.AperFunction,SMDPad,CuDef*
G36*
G01*
X102358380Y-91505920D02*
X102858380Y-91505920D01*
G75*
G02*
X103083380Y-91730920I0J-225000D01*
G01*
X103083380Y-92180920D01*
G75*
G02*
X102858380Y-92405920I-225000J0D01*
G01*
X102358380Y-92405920D01*
G75*
G02*
X102133380Y-92180920I0J225000D01*
G01*
X102133380Y-91730920D01*
G75*
G02*
X102358380Y-91505920I225000J0D01*
G01*
G37*
G04 #@! TD.AperFunction*
G04 #@! TA.AperFunction,SMDPad,CuDef*
G36*
G01*
X102358380Y-89955920D02*
X102858380Y-89955920D01*
G75*
G02*
X103083380Y-90180920I0J-225000D01*
G01*
X103083380Y-90630920D01*
G75*
G02*
X102858380Y-90855920I-225000J0D01*
G01*
X102358380Y-90855920D01*
G75*
G02*
X102133380Y-90630920I0J225000D01*
G01*
X102133380Y-90180920D01*
G75*
G02*
X102358380Y-89955920I225000J0D01*
G01*
G37*
G04 #@! TD.AperFunction*
G04 #@! TA.AperFunction,SMDPad,CuDef*
G36*
G01*
X102490460Y-79819380D02*
X102990460Y-79819380D01*
G75*
G02*
X103215460Y-80044380I0J-225000D01*
G01*
X103215460Y-80494380D01*
G75*
G02*
X102990460Y-80719380I-225000J0D01*
G01*
X102490460Y-80719380D01*
G75*
G02*
X102265460Y-80494380I0J225000D01*
G01*
X102265460Y-80044380D01*
G75*
G02*
X102490460Y-79819380I225000J0D01*
G01*
G37*
G04 #@! TD.AperFunction*
G04 #@! TA.AperFunction,SMDPad,CuDef*
G36*
G01*
X102490460Y-78269380D02*
X102990460Y-78269380D01*
G75*
G02*
X103215460Y-78494380I0J-225000D01*
G01*
X103215460Y-78944380D01*
G75*
G02*
X102990460Y-79169380I-225000J0D01*
G01*
X102490460Y-79169380D01*
G75*
G02*
X102265460Y-78944380I0J225000D01*
G01*
X102265460Y-78494380D01*
G75*
G02*
X102490460Y-78269380I225000J0D01*
G01*
G37*
G04 #@! TD.AperFunction*
G04 #@! TA.AperFunction,SMDPad,CuDef*
G36*
G01*
X98750301Y-129546780D02*
X96550299Y-129546780D01*
G75*
G02*
X96300300Y-129296781I0J249999D01*
G01*
X96300300Y-128646779D01*
G75*
G02*
X96550299Y-128396780I249999J0D01*
G01*
X98750301Y-128396780D01*
G75*
G02*
X99000300Y-128646779I0J-249999D01*
G01*
X99000300Y-129296781D01*
G75*
G02*
X98750301Y-129546780I-249999J0D01*
G01*
G37*
G04 #@! TD.AperFunction*
G04 #@! TA.AperFunction,SMDPad,CuDef*
G36*
G01*
X98750301Y-132496780D02*
X96550299Y-132496780D01*
G75*
G02*
X96300300Y-132246781I0J249999D01*
G01*
X96300300Y-131596779D01*
G75*
G02*
X96550299Y-131346780I249999J0D01*
G01*
X98750301Y-131346780D01*
G75*
G02*
X99000300Y-131596779I0J-249999D01*
G01*
X99000300Y-132246781D01*
G75*
G02*
X98750301Y-132496780I-249999J0D01*
G01*
G37*
G04 #@! TD.AperFunction*
G04 #@! TA.AperFunction,SMDPad,CuDef*
G36*
G01*
X106636920Y-114058881D02*
X106636920Y-111858879D01*
G75*
G02*
X106886919Y-111608880I249999J0D01*
G01*
X107536921Y-111608880D01*
G75*
G02*
X107786920Y-111858879I0J-249999D01*
G01*
X107786920Y-114058881D01*
G75*
G02*
X107536921Y-114308880I-249999J0D01*
G01*
X106886919Y-114308880D01*
G75*
G02*
X106636920Y-114058881I0J249999D01*
G01*
G37*
G04 #@! TD.AperFunction*
G04 #@! TA.AperFunction,SMDPad,CuDef*
G36*
G01*
X103686920Y-114058881D02*
X103686920Y-111858879D01*
G75*
G02*
X103936919Y-111608880I249999J0D01*
G01*
X104586921Y-111608880D01*
G75*
G02*
X104836920Y-111858879I0J-249999D01*
G01*
X104836920Y-114058881D01*
G75*
G02*
X104586921Y-114308880I-249999J0D01*
G01*
X103936919Y-114308880D01*
G75*
G02*
X103686920Y-114058881I0J249999D01*
G01*
G37*
G04 #@! TD.AperFunction*
G04 #@! TA.AperFunction,SMDPad,CuDef*
G36*
G01*
X106652900Y-110518121D02*
X106652900Y-108318119D01*
G75*
G02*
X106902899Y-108068120I249999J0D01*
G01*
X107552901Y-108068120D01*
G75*
G02*
X107802900Y-108318119I0J-249999D01*
G01*
X107802900Y-110518121D01*
G75*
G02*
X107552901Y-110768120I-249999J0D01*
G01*
X106902899Y-110768120D01*
G75*
G02*
X106652900Y-110518121I0J249999D01*
G01*
G37*
G04 #@! TD.AperFunction*
G04 #@! TA.AperFunction,SMDPad,CuDef*
G36*
G01*
X103702900Y-110518121D02*
X103702900Y-108318119D01*
G75*
G02*
X103952899Y-108068120I249999J0D01*
G01*
X104602901Y-108068120D01*
G75*
G02*
X104852900Y-108318119I0J-249999D01*
G01*
X104852900Y-110518121D01*
G75*
G02*
X104602901Y-110768120I-249999J0D01*
G01*
X103952899Y-110768120D01*
G75*
G02*
X103702900Y-110518121I0J249999D01*
G01*
G37*
G04 #@! TD.AperFunction*
G04 #@! TA.AperFunction,SMDPad,CuDef*
G36*
G01*
X91764939Y-116142340D02*
X93964941Y-116142340D01*
G75*
G02*
X94214940Y-116392339I0J-249999D01*
G01*
X94214940Y-117042341D01*
G75*
G02*
X93964941Y-117292340I-249999J0D01*
G01*
X91764939Y-117292340D01*
G75*
G02*
X91514940Y-117042341I0J249999D01*
G01*
X91514940Y-116392339D01*
G75*
G02*
X91764939Y-116142340I249999J0D01*
G01*
G37*
G04 #@! TD.AperFunction*
G04 #@! TA.AperFunction,SMDPad,CuDef*
G36*
G01*
X91764939Y-113192340D02*
X93964941Y-113192340D01*
G75*
G02*
X94214940Y-113442339I0J-249999D01*
G01*
X94214940Y-114092341D01*
G75*
G02*
X93964941Y-114342340I-249999J0D01*
G01*
X91764939Y-114342340D01*
G75*
G02*
X91514940Y-114092341I0J249999D01*
G01*
X91514940Y-113442339D01*
G75*
G02*
X91764939Y-113192340I249999J0D01*
G01*
G37*
G04 #@! TD.AperFunction*
G04 #@! TA.AperFunction,SMDPad,CuDef*
G36*
G01*
X93858261Y-108581620D02*
X91658259Y-108581620D01*
G75*
G02*
X91408260Y-108331621I0J249999D01*
G01*
X91408260Y-107681619D01*
G75*
G02*
X91658259Y-107431620I249999J0D01*
G01*
X93858261Y-107431620D01*
G75*
G02*
X94108260Y-107681619I0J-249999D01*
G01*
X94108260Y-108331621D01*
G75*
G02*
X93858261Y-108581620I-249999J0D01*
G01*
G37*
G04 #@! TD.AperFunction*
G04 #@! TA.AperFunction,SMDPad,CuDef*
G36*
G01*
X93858261Y-111531620D02*
X91658259Y-111531620D01*
G75*
G02*
X91408260Y-111281621I0J249999D01*
G01*
X91408260Y-110631619D01*
G75*
G02*
X91658259Y-110381620I249999J0D01*
G01*
X93858261Y-110381620D01*
G75*
G02*
X94108260Y-110631619I0J-249999D01*
G01*
X94108260Y-111281621D01*
G75*
G02*
X93858261Y-111531620I-249999J0D01*
G01*
G37*
G04 #@! TD.AperFunction*
G04 #@! TA.AperFunction,SMDPad,CuDef*
G36*
G01*
X143212920Y-136680121D02*
X143212920Y-134480119D01*
G75*
G02*
X143462919Y-134230120I249999J0D01*
G01*
X144112921Y-134230120D01*
G75*
G02*
X144362920Y-134480119I0J-249999D01*
G01*
X144362920Y-136680121D01*
G75*
G02*
X144112921Y-136930120I-249999J0D01*
G01*
X143462919Y-136930120D01*
G75*
G02*
X143212920Y-136680121I0J249999D01*
G01*
G37*
G04 #@! TD.AperFunction*
G04 #@! TA.AperFunction,SMDPad,CuDef*
G36*
G01*
X140262920Y-136680121D02*
X140262920Y-134480119D01*
G75*
G02*
X140512919Y-134230120I249999J0D01*
G01*
X141162921Y-134230120D01*
G75*
G02*
X141412920Y-134480119I0J-249999D01*
G01*
X141412920Y-136680121D01*
G75*
G02*
X141162921Y-136930120I-249999J0D01*
G01*
X140512919Y-136930120D01*
G75*
G02*
X140262920Y-136680121I0J249999D01*
G01*
G37*
G04 #@! TD.AperFunction*
G04 #@! TA.AperFunction,SMDPad,CuDef*
G36*
G01*
X127020139Y-127607900D02*
X129220141Y-127607900D01*
G75*
G02*
X129470140Y-127857899I0J-249999D01*
G01*
X129470140Y-128507901D01*
G75*
G02*
X129220141Y-128757900I-249999J0D01*
G01*
X127020139Y-128757900D01*
G75*
G02*
X126770140Y-128507901I0J249999D01*
G01*
X126770140Y-127857899D01*
G75*
G02*
X127020139Y-127607900I249999J0D01*
G01*
G37*
G04 #@! TD.AperFunction*
G04 #@! TA.AperFunction,SMDPad,CuDef*
G36*
G01*
X127020139Y-124657900D02*
X129220141Y-124657900D01*
G75*
G02*
X129470140Y-124907899I0J-249999D01*
G01*
X129470140Y-125557901D01*
G75*
G02*
X129220141Y-125807900I-249999J0D01*
G01*
X127020139Y-125807900D01*
G75*
G02*
X126770140Y-125557901I0J249999D01*
G01*
X126770140Y-124907899D01*
G75*
G02*
X127020139Y-124657900I249999J0D01*
G01*
G37*
G04 #@! TD.AperFunction*
G04 #@! TA.AperFunction,SMDPad,CuDef*
G36*
G01*
X121886799Y-127630760D02*
X124086801Y-127630760D01*
G75*
G02*
X124336800Y-127880759I0J-249999D01*
G01*
X124336800Y-128530761D01*
G75*
G02*
X124086801Y-128780760I-249999J0D01*
G01*
X121886799Y-128780760D01*
G75*
G02*
X121636800Y-128530761I0J249999D01*
G01*
X121636800Y-127880759D01*
G75*
G02*
X121886799Y-127630760I249999J0D01*
G01*
G37*
G04 #@! TD.AperFunction*
G04 #@! TA.AperFunction,SMDPad,CuDef*
G36*
G01*
X121886799Y-124680760D02*
X124086801Y-124680760D01*
G75*
G02*
X124336800Y-124930759I0J-249999D01*
G01*
X124336800Y-125580761D01*
G75*
G02*
X124086801Y-125830760I-249999J0D01*
G01*
X121886799Y-125830760D01*
G75*
G02*
X121636800Y-125580761I0J249999D01*
G01*
X121636800Y-124930759D01*
G75*
G02*
X121886799Y-124680760I249999J0D01*
G01*
G37*
G04 #@! TD.AperFunction*
G04 #@! TA.AperFunction,SMDPad,CuDef*
G36*
G01*
X105234559Y-129253820D02*
X107434561Y-129253820D01*
G75*
G02*
X107684560Y-129503819I0J-249999D01*
G01*
X107684560Y-130153821D01*
G75*
G02*
X107434561Y-130403820I-249999J0D01*
G01*
X105234559Y-130403820D01*
G75*
G02*
X104984560Y-130153821I0J249999D01*
G01*
X104984560Y-129503819D01*
G75*
G02*
X105234559Y-129253820I249999J0D01*
G01*
G37*
G04 #@! TD.AperFunction*
G04 #@! TA.AperFunction,SMDPad,CuDef*
G36*
G01*
X105234559Y-126303820D02*
X107434561Y-126303820D01*
G75*
G02*
X107684560Y-126553819I0J-249999D01*
G01*
X107684560Y-127203821D01*
G75*
G02*
X107434561Y-127453820I-249999J0D01*
G01*
X105234559Y-127453820D01*
G75*
G02*
X104984560Y-127203821I0J249999D01*
G01*
X104984560Y-126553819D01*
G75*
G02*
X105234559Y-126303820I249999J0D01*
G01*
G37*
G04 #@! TD.AperFunction*
D23*
X199415400Y-121813320D03*
X198231760Y-126801880D03*
X204810360Y-139192000D03*
X198765160Y-93568520D03*
X198455280Y-98679000D03*
X204668120Y-110789720D03*
X198770240Y-65323720D03*
X198567040Y-70652640D03*
X205318360Y-82570320D03*
X134858760Y-89529920D03*
X140853160Y-83621880D03*
X160588960Y-101305360D03*
X170192700Y-110683040D03*
X143855440Y-139049760D03*
X167919400Y-93888560D03*
X166827200Y-87899240D03*
X160916620Y-66532760D03*
X148242020Y-99159060D03*
X159999680Y-129374900D03*
X96268540Y-116646960D03*
X92753180Y-105742740D03*
X109428280Y-106702860D03*
X102552500Y-104734360D03*
X102798880Y-82125820D03*
X102585520Y-94018100D03*
X110703360Y-90431620D03*
X110670340Y-95780860D03*
X124170440Y-98945700D03*
X121866660Y-113157000D03*
X126466600Y-98945700D03*
X90225880Y-68072000D03*
X106662220Y-119029480D03*
X126085600Y-83761580D03*
X136225280Y-119755920D03*
X137805160Y-83073240D03*
X143192500Y-127576580D03*
X178884580Y-90975180D03*
X180891180Y-94152720D03*
X180652420Y-80454500D03*
X181020720Y-118551960D03*
X140685520Y-132735320D03*
X187609480Y-101793040D03*
X188267340Y-87955120D03*
X188142880Y-83405980D03*
X188407040Y-110606840D03*
D24*
X222897420Y-96282510D02*
X214725250Y-96282510D01*
X214725250Y-96282510D02*
X213050120Y-97957640D01*
X213050120Y-97957640D02*
X213050120Y-99786440D01*
X213050120Y-99786440D02*
X209824320Y-103012240D01*
X207091820Y-103012240D02*
X204703680Y-105400380D01*
X209824320Y-103012240D02*
X207091820Y-103012240D01*
X204703680Y-105400380D02*
X198415180Y-105400380D01*
X194162680Y-101147880D02*
X194162680Y-99349020D01*
X198415180Y-105400380D02*
X194162680Y-101147880D01*
X222930440Y-124261595D02*
X214569325Y-124261595D01*
X214569325Y-124261595D02*
X212608160Y-126222760D01*
X212608160Y-126222760D02*
X212608160Y-129072640D01*
X212608160Y-129072640D02*
X210555840Y-131124960D01*
X207508380Y-131124960D02*
X204805280Y-133828060D01*
X210555840Y-131124960D02*
X207508380Y-131124960D01*
X204805280Y-133828060D02*
X202457780Y-131480560D01*
X202457780Y-131480560D02*
X195005960Y-131480560D01*
X193207640Y-129682240D02*
X193207640Y-127492220D01*
X195005960Y-131480560D02*
X193207640Y-129682240D01*
X222953760Y-68303425D02*
X215521255Y-68303425D01*
X215521255Y-68303425D02*
X213705440Y-70119240D01*
X213705440Y-70119240D02*
X213705440Y-72247760D01*
X213705440Y-72247760D02*
X210865720Y-75087480D01*
X207508380Y-75087480D02*
X205364080Y-77231780D01*
X210865720Y-75087480D02*
X207508380Y-75087480D01*
X193634360Y-71246460D02*
X197083680Y-74695780D01*
X197083680Y-74695780D02*
X200730580Y-74695780D01*
X203266580Y-77231780D02*
X205364080Y-77231780D01*
X200730580Y-74695780D02*
X203266580Y-77231780D01*
X201107540Y-121813320D02*
X201117700Y-121823480D01*
X199415400Y-121813320D02*
X201107540Y-121813320D01*
X200391300Y-126801880D02*
X200447180Y-126857760D01*
X198231760Y-126801880D02*
X200391300Y-126801880D01*
X204810360Y-136758140D02*
X204805280Y-136753060D01*
X204810360Y-139192000D02*
X204810360Y-136758140D01*
X200513220Y-98679000D02*
X200518300Y-98684080D01*
X198455280Y-98679000D02*
X200513220Y-98679000D01*
X201008480Y-93568520D02*
X201033880Y-93593920D01*
X198765160Y-93568520D02*
X201008480Y-93568520D01*
X204668120Y-108360940D02*
X204703680Y-108325380D01*
X204668120Y-110789720D02*
X204668120Y-108360940D01*
X201376780Y-65323720D02*
X201397100Y-65303400D01*
X198770240Y-65323720D02*
X201376780Y-65323720D01*
X205318360Y-80202500D02*
X205364080Y-80156780D01*
X205318360Y-82570320D02*
X205318360Y-80202500D01*
X200741820Y-70652640D02*
X200759600Y-70634860D01*
X198567040Y-70652640D02*
X200741820Y-70652640D01*
D25*
X134804460Y-92217240D02*
X134804460Y-91582240D01*
X134804460Y-91582240D02*
X134804460Y-90947240D01*
X134858760Y-90892940D02*
X134804460Y-90947240D01*
X134858760Y-89529920D02*
X134858760Y-90892940D01*
D24*
X140853160Y-86300840D02*
X140839720Y-86314280D01*
X140853160Y-83621880D02*
X140853160Y-86300840D01*
X140839720Y-89951560D02*
X140849880Y-89961720D01*
X140839720Y-86314280D02*
X140839720Y-89951560D01*
X140849880Y-93433900D02*
X140862580Y-93446600D01*
X140849880Y-89961720D02*
X140849880Y-93433900D01*
X160588960Y-99308420D02*
X160601660Y-99295720D01*
X160588960Y-101305360D02*
X160588960Y-99308420D01*
X170119040Y-103245180D02*
X170216300Y-103342440D01*
X170216300Y-103342440D02*
X170216300Y-106893360D01*
X143855440Y-135647640D02*
X143787920Y-135580120D01*
X143855440Y-139049760D02*
X143855440Y-135647640D01*
D25*
X171612800Y-94003940D02*
X170962800Y-94003940D01*
X170962800Y-94003940D02*
X170312800Y-94003940D01*
X170197420Y-93888560D02*
X170312800Y-94003940D01*
X167919400Y-93888560D02*
X170197420Y-93888560D01*
D24*
X170252920Y-87899240D02*
X170357800Y-88004120D01*
X166827200Y-87899240D02*
X170252920Y-87899240D01*
X173918880Y-88004120D02*
X173929040Y-87993960D01*
X170357800Y-88004120D02*
X173918880Y-88004120D01*
X160916620Y-69091040D02*
X161015680Y-69190100D01*
X160916620Y-66532760D02*
X160916620Y-69091040D01*
X145884860Y-99159060D02*
X145836640Y-99110840D01*
X148242020Y-99159060D02*
X145884860Y-99159060D01*
X170192700Y-106916960D02*
X170216300Y-106893360D01*
X170192700Y-110683040D02*
X170192700Y-106916960D01*
X159999680Y-126816620D02*
X160009840Y-126806460D01*
X159999680Y-129374900D02*
X159999680Y-126816620D01*
X128120140Y-125232900D02*
X126620800Y-125232900D01*
X126620800Y-125232900D02*
X125409960Y-126443740D01*
X125409960Y-126443740D02*
X125409960Y-127777240D01*
X124981440Y-128205760D02*
X122986800Y-128205760D01*
X125409960Y-127777240D02*
X124981440Y-128205760D01*
X106334560Y-134187820D02*
X106491420Y-134344680D01*
X106334560Y-129828820D02*
X106334560Y-134187820D01*
X97650300Y-128971780D02*
X102253520Y-128971780D01*
X103110560Y-129828820D02*
X106334560Y-129828820D01*
X102253520Y-128971780D02*
X103110560Y-129828820D01*
X96198160Y-116717340D02*
X96268540Y-116646960D01*
X92864940Y-116717340D02*
X96198160Y-116717340D01*
D25*
X96268540Y-116646960D02*
X96268540Y-116075460D01*
X96536740Y-115807260D02*
X96536740Y-114409220D01*
X96268540Y-116075460D02*
X96536740Y-115807260D01*
X96536740Y-114409220D02*
X96536740Y-113139220D01*
D24*
X92753180Y-108001540D02*
X92758260Y-108006620D01*
X92753180Y-105742740D02*
X92753180Y-108001540D01*
X109428280Y-106702860D02*
X107823000Y-106702860D01*
X107227900Y-107297960D02*
X107227900Y-109418120D01*
X107823000Y-106702860D02*
X107227900Y-107297960D01*
X107227900Y-112942900D02*
X107211920Y-112958880D01*
X107227900Y-109418120D02*
X107227900Y-112942900D01*
X107211920Y-112958880D02*
X107211920Y-114057220D01*
X107211920Y-114057220D02*
X107706160Y-114551460D01*
X107706160Y-114551460D02*
X108836460Y-114551460D01*
X109264720Y-114979720D02*
X109264720Y-116103400D01*
X108836460Y-114551460D02*
X109264720Y-114979720D01*
X102552500Y-102656940D02*
X102682040Y-102527400D01*
X102552500Y-104734360D02*
X102552500Y-102656940D01*
X102585520Y-91978780D02*
X102608380Y-91955920D01*
X102585520Y-94018100D02*
X102585520Y-91978780D01*
X113017260Y-90431620D02*
X113085880Y-90363000D01*
X110703360Y-90431620D02*
X113017260Y-90431620D01*
X113151960Y-95780860D02*
X113172240Y-95801140D01*
X110670340Y-95780860D02*
X113151960Y-95780860D01*
X102740460Y-82067400D02*
X102798880Y-82125820D01*
X102740460Y-80269380D02*
X102740460Y-82067400D01*
X123126500Y-91782160D02*
X123170420Y-91826080D01*
X123126500Y-88270080D02*
X123126500Y-91782160D01*
X123170420Y-95351600D02*
X123193280Y-95374460D01*
X123170420Y-91826080D02*
X123170420Y-95351600D01*
X122986800Y-132349240D02*
X121749820Y-133586220D01*
X122986800Y-128205760D02*
X122986800Y-132349240D01*
X128120140Y-125232900D02*
X131789700Y-125232900D01*
X131789700Y-125232900D02*
X133832600Y-123190000D01*
X139214120Y-123190000D02*
X139456160Y-122947960D01*
X133832600Y-123190000D02*
X139214120Y-123190000D01*
X124048520Y-114824100D02*
X125275340Y-116050920D01*
X126449680Y-111320580D02*
X126503020Y-111267240D01*
X122844560Y-111320580D02*
X126449680Y-111320580D01*
X121866660Y-112298480D02*
X122844560Y-111320580D01*
X121866660Y-113157000D02*
X121866660Y-112298480D01*
X121866660Y-113157000D02*
X121866660Y-113840260D01*
X122850500Y-114824100D02*
X124048520Y-114824100D01*
X121866660Y-113840260D02*
X122850500Y-114824100D01*
X123156980Y-98722180D02*
X123156980Y-95410760D01*
X123156980Y-95410760D02*
X123193280Y-95374460D01*
X123380500Y-98945700D02*
X123156980Y-98722180D01*
X124170440Y-98945700D02*
X123380500Y-98945700D01*
X117910540Y-125255760D02*
X117708680Y-125457620D01*
X122986800Y-125255760D02*
X117910540Y-125255760D01*
X89752840Y-125457620D02*
X101871180Y-125457620D01*
X103292380Y-126878820D02*
X106334560Y-126878820D01*
X101871180Y-125457620D02*
X103292380Y-126878820D01*
X109371700Y-126878820D02*
X110911640Y-125338880D01*
X106334560Y-126878820D02*
X109371700Y-126878820D01*
X117589940Y-125338880D02*
X117708680Y-125457620D01*
X110911640Y-125338880D02*
X117589940Y-125338880D01*
X81361280Y-117066060D02*
X82814160Y-117066060D01*
X89752840Y-125457620D02*
X81361280Y-117066060D01*
X86112880Y-113767340D02*
X92864940Y-113767340D01*
X82814160Y-117066060D02*
X86112880Y-113767340D01*
D25*
X92864940Y-113767340D02*
X94375500Y-113767340D01*
X94375500Y-113767340D02*
X94818200Y-113324640D01*
X95561740Y-111869220D02*
X96536740Y-111869220D01*
X94818200Y-112612760D02*
X95561740Y-111869220D01*
X94818200Y-113324640D02*
X94818200Y-112612760D01*
D24*
X79608680Y-111950500D02*
X77927200Y-113631980D01*
X77927200Y-113631980D02*
X74528680Y-110233460D01*
X79608680Y-110233460D02*
X79608680Y-111950500D01*
X81361280Y-117066060D02*
X77927200Y-113631980D01*
X96536740Y-110599220D02*
X95029020Y-110599220D01*
X94671620Y-110956620D02*
X92758260Y-110956620D01*
X95029020Y-110599220D02*
X94671620Y-110956620D01*
X104277900Y-112942900D02*
X104261920Y-112958880D01*
X104277900Y-109418120D02*
X104277900Y-112942900D01*
X104261920Y-115806720D02*
X104054140Y-116014500D01*
X104261920Y-112958880D02*
X104261920Y-115806720D01*
X101667080Y-112958880D02*
X101486740Y-113139220D01*
X104261920Y-112958880D02*
X101667080Y-112958880D01*
X101486740Y-113139220D02*
X101486740Y-111869220D01*
X97650300Y-131921780D02*
X100363760Y-134635240D01*
X103660860Y-134635240D02*
X103951420Y-134344680D01*
X100363760Y-134635240D02*
X103660860Y-134635240D01*
X103951420Y-133344300D02*
X103951420Y-134344680D01*
X126466600Y-98945700D02*
X126466600Y-97678240D01*
X126143280Y-97354920D02*
X126143280Y-95374460D01*
X126466600Y-97678240D02*
X126143280Y-97354920D01*
X126143280Y-91848940D02*
X126120420Y-91826080D01*
X126143280Y-95374460D02*
X126143280Y-91848940D01*
X87860600Y-68072000D02*
X87614220Y-68318380D01*
X90225880Y-68072000D02*
X87860600Y-68072000D01*
D25*
X129604460Y-92852240D02*
X127721360Y-92852240D01*
X126695200Y-91826080D02*
X126120420Y-91826080D01*
X127721360Y-92852240D02*
X126695200Y-91826080D01*
D24*
X102740460Y-76786740D02*
X102895400Y-76631800D01*
X102740460Y-78719380D02*
X102740460Y-76786740D01*
X87271860Y-79753460D02*
X79608680Y-79753460D01*
X88305940Y-78719380D02*
X87271860Y-79753460D01*
X102740460Y-78719380D02*
X88305940Y-78719380D01*
X102646480Y-90367820D02*
X102608380Y-90405920D01*
X102646480Y-87774280D02*
X102646480Y-90367820D01*
X88284820Y-87774280D02*
X85344000Y-84833460D01*
X85344000Y-84833460D02*
X79608680Y-84833460D01*
X102646480Y-87774280D02*
X88284820Y-87774280D01*
X102727760Y-100931680D02*
X102682040Y-100977400D01*
X102727760Y-99168720D02*
X102727760Y-100931680D01*
X83347560Y-89913460D02*
X79608680Y-89913460D01*
X92602820Y-99168720D02*
X83347560Y-89913460D01*
X102727760Y-99168720D02*
X92602820Y-99168720D01*
D25*
X129604460Y-91582240D02*
X131246880Y-91582240D01*
X131246880Y-91582240D02*
X131419600Y-91409520D01*
X131419600Y-88980740D02*
X129802160Y-87363300D01*
X131419600Y-91409520D02*
X131419600Y-88980740D01*
D24*
X115969800Y-92263000D02*
X115989100Y-92243700D01*
X113085880Y-92263000D02*
X115969800Y-92263000D01*
X117960620Y-92243700D02*
X118584980Y-91619340D01*
X115989100Y-92243700D02*
X117960620Y-92243700D01*
D25*
X129604460Y-91582240D02*
X128798320Y-91582240D01*
X128798320Y-91582240D02*
X128447800Y-91231720D01*
X128447800Y-91231720D02*
X128447800Y-89542620D01*
X128447800Y-89542620D02*
X127553720Y-88648540D01*
X127553720Y-88648540D02*
X127553720Y-83616800D01*
X127553720Y-83616800D02*
X126550420Y-82613500D01*
X126550420Y-82613500D02*
X123136660Y-82613500D01*
X123136660Y-82613500D02*
X121683780Y-84066380D01*
X121683780Y-84066380D02*
X121683780Y-90429080D01*
X120493520Y-91619340D02*
X118584980Y-91619340D01*
X121683780Y-90429080D02*
X120493520Y-91619340D01*
D24*
X118584980Y-89969340D02*
X117937280Y-89969340D01*
X117261640Y-89293700D02*
X115989100Y-89293700D01*
X117937280Y-89969340D02*
X117261640Y-89293700D01*
D25*
X120025160Y-89969340D02*
X118584980Y-89969340D01*
X120589040Y-89405460D02*
X120025160Y-89969340D01*
X120589040Y-83555840D02*
X120589040Y-89405460D01*
X122438160Y-81706720D02*
X120589040Y-83555840D01*
X126814580Y-81706720D02*
X122438160Y-81706720D01*
X128493520Y-83385660D02*
X126814580Y-81706720D01*
X128493520Y-88712040D02*
X128493520Y-83385660D01*
X129604460Y-89822980D02*
X128493520Y-88712040D01*
X129604460Y-90947240D02*
X129604460Y-89822980D01*
D24*
X115989100Y-89293700D02*
X115989100Y-87088980D01*
X115989100Y-87088980D02*
X107033060Y-78132940D01*
X107033060Y-78132940D02*
X107033060Y-75585320D01*
X106429540Y-74981800D02*
X102895400Y-74981800D01*
X107033060Y-75585320D02*
X106429540Y-74981800D01*
D25*
X135654460Y-94757240D02*
X136142140Y-95244920D01*
X134804460Y-94757240D02*
X135654460Y-94757240D01*
X136142140Y-95244920D02*
X136142140Y-95812020D01*
X138691120Y-98361000D02*
X140131800Y-98361000D01*
X136142140Y-95812020D02*
X138691120Y-98361000D01*
X134804460Y-94757240D02*
X133761480Y-94757240D01*
X133761480Y-94757240D02*
X133672580Y-94846140D01*
X133672580Y-94846140D02*
X133672580Y-96276160D01*
X133672580Y-96276160D02*
X133073140Y-96875600D01*
X133073140Y-96875600D02*
X131810760Y-96875600D01*
X131810760Y-96875600D02*
X131104640Y-97581720D01*
X131104640Y-97581720D02*
X131104640Y-100850700D01*
D24*
X142600680Y-99704420D02*
X141354280Y-98458020D01*
X140228820Y-98458020D02*
X140131800Y-98361000D01*
X141354280Y-98458020D02*
X140228820Y-98458020D01*
D25*
X102727760Y-97518720D02*
X107231680Y-97518720D01*
X107231680Y-97518720D02*
X112844580Y-103131620D01*
X128823720Y-103131620D02*
X131104640Y-100850700D01*
X112844580Y-103131620D02*
X128823720Y-103131620D01*
X134804460Y-94122240D02*
X136174480Y-94122240D01*
X136174480Y-94122240D02*
X136733280Y-94681040D01*
X136733280Y-94681040D02*
X136733280Y-95194120D01*
X136733280Y-95194120D02*
X137190480Y-95651320D01*
X137190480Y-95651320D02*
X137876280Y-95651320D01*
X138935960Y-96711000D02*
X140131800Y-96711000D01*
X137876280Y-95651320D02*
X138935960Y-96711000D01*
X142557260Y-96711000D02*
X142600680Y-96754420D01*
X140131800Y-96711000D02*
X142557260Y-96711000D01*
D24*
X152854660Y-107152980D02*
X152854660Y-100472240D01*
X149593260Y-97210840D02*
X145836640Y-97210840D01*
X152854660Y-100472240D02*
X149593260Y-97210840D01*
X145836640Y-97210840D02*
X144614860Y-97210840D01*
X144158440Y-96754420D02*
X142600680Y-96754420D01*
X144614860Y-97210840D02*
X144158440Y-96754420D01*
D25*
X129604460Y-94122240D02*
X130804920Y-94122240D01*
X130804920Y-94122240D02*
X130977640Y-94294960D01*
X130977640Y-94294960D02*
X130977640Y-95973900D01*
X129776760Y-97174780D02*
X129776760Y-98386900D01*
X130977640Y-95973900D02*
X129776760Y-97174780D01*
D24*
X116033300Y-97701140D02*
X116057680Y-97676760D01*
X113172240Y-97701140D02*
X116033300Y-97701140D01*
X117229600Y-97676760D02*
X118673880Y-96232480D01*
X116057680Y-97676760D02*
X117229600Y-97676760D01*
X129776760Y-98386900D02*
X129776760Y-100339620D01*
X129776760Y-100339620D02*
X128473200Y-101643180D01*
X128473200Y-101643180D02*
X117736620Y-101643180D01*
X116057680Y-99964240D02*
X116057680Y-97676760D01*
X117736620Y-101643180D02*
X116057680Y-99964240D01*
D25*
X128754460Y-94757240D02*
X128122680Y-95389020D01*
X129604460Y-94757240D02*
X128754460Y-94757240D01*
X128122680Y-95389020D02*
X128122680Y-99921060D01*
X128122680Y-99921060D02*
X127497840Y-100545900D01*
X127497840Y-100545900D02*
X123085860Y-100545900D01*
X123085860Y-100545900D02*
X120149620Y-97609660D01*
X120149620Y-96058220D02*
X118673880Y-94582480D01*
X120149620Y-97609660D02*
X120149620Y-96058220D01*
D24*
X116201960Y-94582480D02*
X116057680Y-94726760D01*
X118673880Y-94582480D02*
X116201960Y-94582480D01*
X116057680Y-94726760D02*
X115331240Y-94000320D01*
X115331240Y-94000320D02*
X108343700Y-94000320D01*
X108343700Y-94000320D02*
X106055160Y-91711780D01*
X106055160Y-91711780D02*
X106055160Y-87927180D01*
X104252260Y-86124280D02*
X102646480Y-86124280D01*
X106055160Y-87927180D02*
X104252260Y-86124280D01*
X193252820Y-124612400D02*
X193207640Y-124567220D01*
X207850740Y-124612400D02*
X193252820Y-124612400D01*
D25*
X171612800Y-99853940D02*
X171612800Y-100828940D01*
X171612800Y-100828940D02*
X171612800Y-108189000D01*
D24*
X187136280Y-119512080D02*
X188371480Y-119512080D01*
X188371480Y-119512080D02*
X189293500Y-118590060D01*
X189293500Y-118590060D02*
X189293500Y-114345720D01*
X189905680Y-113733540D02*
X191524380Y-113733540D01*
X189293500Y-114345720D02*
X189905680Y-113733540D01*
X188371480Y-119512080D02*
X188371480Y-122801380D01*
X190137320Y-124567220D02*
X193207640Y-124567220D01*
X188371480Y-122801380D02*
X190137320Y-124567220D01*
D25*
X171612800Y-108189000D02*
X171612800Y-109115620D01*
D24*
X171612800Y-110716300D02*
X171612800Y-109115620D01*
X175242220Y-114345720D02*
X171612800Y-110716300D01*
X189293500Y-114345720D02*
X175242220Y-114345720D01*
X193820320Y-68135500D02*
X193634360Y-68321460D01*
X207891380Y-68135500D02*
X193820320Y-68135500D01*
D25*
X172912800Y-94003940D02*
X172912800Y-92758500D01*
X172912800Y-92758500D02*
X173200060Y-92471240D01*
D24*
X191297020Y-68321460D02*
X193634360Y-68321460D01*
X189961520Y-69656960D02*
X191297020Y-68321460D01*
X189961520Y-75153520D02*
X189961520Y-69656960D01*
X189961520Y-76050140D02*
X189961520Y-75153520D01*
X190588940Y-75740220D02*
X189961520Y-76367640D01*
X189961520Y-76367640D02*
X189961520Y-75153520D01*
X191570100Y-75740220D02*
X190588940Y-75740220D01*
X189961520Y-76367640D02*
X189961520Y-77035660D01*
X189961520Y-77035660D02*
X188897260Y-78099920D01*
X188897260Y-78099920D02*
X188219080Y-78099920D01*
X187375040Y-78943960D02*
X187375040Y-80807560D01*
X188219080Y-78099920D02*
X187375040Y-78943960D01*
D25*
X187375040Y-80807560D02*
X187375040Y-82647280D01*
X187375040Y-82647280D02*
X181112160Y-88910160D01*
X181112160Y-88910160D02*
X181112160Y-91056460D01*
X179697380Y-92471240D02*
X173200060Y-92471240D01*
X181112160Y-91056460D02*
X179697380Y-92471240D01*
D24*
X194451540Y-96135160D02*
X194162680Y-96424020D01*
X207612640Y-96135160D02*
X194451540Y-96135160D01*
D25*
X173130140Y-101046280D02*
X182748680Y-101046280D01*
X182748680Y-101046280D02*
X183002680Y-100792280D01*
X172912800Y-100828940D02*
X173130140Y-101046280D01*
X172912800Y-99853940D02*
X172912800Y-100828940D01*
D24*
X194162680Y-96424020D02*
X192203800Y-94465140D01*
X192203800Y-94465140D02*
X190372200Y-94465140D01*
X190372200Y-94465140D02*
X185178700Y-94465140D01*
X183002680Y-96641160D02*
X183002680Y-100792280D01*
X185178700Y-94465140D02*
X183002680Y-96641160D01*
X186991500Y-91000580D02*
X188727080Y-91000580D01*
X190372200Y-92645700D02*
X190372200Y-94465140D01*
X188727080Y-91000580D02*
X190372200Y-92645700D01*
X192843660Y-88135500D02*
X192843660Y-89672920D01*
X190372200Y-92144380D02*
X190372200Y-92645700D01*
X192843660Y-89672920D02*
X190372200Y-92144380D01*
X84689220Y-68318380D02*
X78450440Y-68318380D01*
X78450440Y-68318380D02*
X76812140Y-69956680D01*
X203339200Y-65595500D02*
X203047100Y-65303400D01*
X207891380Y-65595500D02*
X203339200Y-65595500D01*
X203725240Y-70675500D02*
X203684600Y-70634860D01*
X207891380Y-70675500D02*
X203725240Y-70675500D01*
X202685120Y-93595160D02*
X202683880Y-93593920D01*
X207612640Y-93595160D02*
X202685120Y-93595160D01*
X203452220Y-98675160D02*
X203443300Y-98684080D01*
X207612640Y-98675160D02*
X203452220Y-98675160D01*
X207850740Y-122072400D02*
X205125320Y-122072400D01*
X204876400Y-121823480D02*
X202767700Y-121823480D01*
X205125320Y-122072400D02*
X204876400Y-121823480D01*
X207850740Y-127152400D02*
X204917040Y-127152400D01*
X204622400Y-126857760D02*
X203372180Y-126857760D01*
X204917040Y-127152400D02*
X204622400Y-126857760D01*
X110911640Y-132464460D02*
X109031420Y-134344680D01*
X110911640Y-129788880D02*
X110911640Y-132464460D01*
X119209820Y-133586220D02*
X119209820Y-132598160D01*
X117708680Y-131097020D02*
X117708680Y-128557620D01*
X119209820Y-132598160D02*
X117708680Y-131097020D01*
D25*
X131927600Y-93487240D02*
X131927600Y-92623640D01*
X131927600Y-93487240D02*
X129604460Y-93487240D01*
X131521200Y-92217240D02*
X129604460Y-92217240D01*
X131927600Y-92623640D02*
X131521200Y-92217240D01*
X137871940Y-93487240D02*
X137912580Y-93446600D01*
X134804460Y-93487240D02*
X137871940Y-93487240D01*
D24*
X105793040Y-116103400D02*
X105704140Y-116014500D01*
X107614720Y-116103400D02*
X105793040Y-116103400D01*
X106662220Y-116972580D02*
X105704140Y-116014500D01*
X106662220Y-119029480D02*
X106662220Y-116972580D01*
X126085600Y-88260980D02*
X126076500Y-88270080D01*
X126085600Y-83761580D02*
X126085600Y-88260980D01*
D25*
X126076500Y-88270080D02*
X127830580Y-90024160D01*
X127830580Y-90024160D02*
X127830580Y-91821000D01*
X128226820Y-92217240D02*
X129604460Y-92217240D01*
X127830580Y-91821000D02*
X128226820Y-92217240D01*
X134804460Y-93487240D02*
X131927600Y-93487240D01*
X134804460Y-92852240D02*
X135859520Y-92852240D01*
X135859520Y-92852240D02*
X136347200Y-92364560D01*
X136347200Y-92364560D02*
X136347200Y-90586560D01*
X136972040Y-89961720D02*
X137899880Y-89961720D01*
X136347200Y-90586560D02*
X136972040Y-89961720D01*
D24*
X137805160Y-86229720D02*
X137889720Y-86314280D01*
X137805160Y-83073240D02*
X137805160Y-86229720D01*
X137889720Y-89951560D02*
X137899880Y-89961720D01*
X137889720Y-86314280D02*
X137889720Y-89951560D01*
X125275340Y-119650920D02*
X125275340Y-120769380D01*
X125275340Y-120769380D02*
X126075440Y-121569480D01*
X126075440Y-121569480D02*
X130520440Y-121569480D01*
X131216400Y-120873520D02*
X131216400Y-119762680D01*
X130520440Y-121569480D02*
X131216400Y-120873520D01*
X136218520Y-119762680D02*
X136225280Y-119755920D01*
X131216400Y-119762680D02*
X136218520Y-119762680D01*
X139214120Y-119755920D02*
X139456160Y-119997960D01*
X136225280Y-119755920D02*
X139214120Y-119755920D01*
X143088560Y-119997960D02*
X143167100Y-120076500D01*
X139456160Y-119997960D02*
X143088560Y-119997960D01*
X163719780Y-70840100D02*
X163774120Y-70894440D01*
X161015680Y-70840100D02*
X163719780Y-70840100D01*
X132727160Y-81521840D02*
X132727160Y-87363300D01*
X141295120Y-72953880D02*
X132727160Y-81521840D01*
X159882840Y-72953880D02*
X141295120Y-72953880D01*
X161015680Y-71821040D02*
X159882840Y-72953880D01*
X161015680Y-70840100D02*
X161015680Y-71821040D01*
D25*
X173562800Y-94003940D02*
X174212800Y-94003940D01*
X164061140Y-72831460D02*
X163774120Y-72544440D01*
X163774120Y-93212920D02*
X163774120Y-72544440D01*
X166463980Y-95902780D02*
X163774120Y-93212920D01*
X168840298Y-95902780D02*
X166463980Y-95902780D01*
X168850458Y-95892620D02*
X168840298Y-95902780D01*
X173164500Y-95892620D02*
X168850458Y-95892620D01*
X173562800Y-95494320D02*
X173164500Y-95892620D01*
X173562800Y-94003940D02*
X173562800Y-95494320D01*
D24*
X160601660Y-95047300D02*
X160663120Y-94985840D01*
X160601660Y-97645720D02*
X160601660Y-95047300D01*
X158701240Y-97645720D02*
X160601660Y-97645720D01*
X158033720Y-98313240D02*
X158701240Y-97645720D01*
X158033720Y-106766360D02*
X158033720Y-98313240D01*
X156220160Y-108579920D02*
X158033720Y-106766360D01*
X138948160Y-108579920D02*
X156220160Y-108579920D01*
X134609300Y-104241060D02*
X138948160Y-108579920D01*
X134609300Y-100294440D02*
X134609300Y-104241060D01*
X132701760Y-98386900D02*
X134609300Y-100294440D01*
D25*
X174212800Y-99853940D02*
X173562800Y-99853940D01*
X173562800Y-99908840D02*
X173558200Y-99913440D01*
X173562800Y-99853940D02*
X173562800Y-99908840D01*
X174212800Y-97962000D02*
X174212800Y-99853940D01*
X173106080Y-96855280D02*
X174212800Y-97962000D01*
X165779138Y-96855280D02*
X173106080Y-96855280D01*
X163909698Y-94985840D02*
X165779138Y-96855280D01*
X162313120Y-94985840D02*
X163909698Y-94985840D01*
D24*
X152854660Y-110077980D02*
X152854660Y-118676420D01*
X157159460Y-122981220D02*
X159974280Y-122981220D01*
X152854660Y-118676420D02*
X157159460Y-122981220D01*
X159974280Y-125120900D02*
X160009840Y-125156460D01*
X159974280Y-122981220D02*
X159974280Y-125120900D01*
X159974280Y-108036360D02*
X159974280Y-121331220D01*
X168156700Y-99853940D02*
X159974280Y-108036360D01*
X170312800Y-99853940D02*
X168156700Y-99853940D01*
D25*
X170312800Y-99853940D02*
X170962800Y-99853940D01*
D24*
X128120140Y-132295900D02*
X126829820Y-133586220D01*
X128120140Y-128182900D02*
X128120140Y-132295900D01*
D25*
X172262800Y-94003940D02*
X172262800Y-92425520D01*
X170791400Y-90954120D02*
X170357800Y-90954120D01*
X172262800Y-92425520D02*
X170791400Y-90954120D01*
X170367960Y-90943960D02*
X170357800Y-90954120D01*
X173929040Y-90943960D02*
X170367960Y-90943960D01*
D24*
X173960260Y-90975180D02*
X173929040Y-90943960D01*
X178884580Y-90975180D02*
X173960260Y-90975180D01*
X180891180Y-94152720D02*
X181775100Y-94152720D01*
X181775100Y-94152720D02*
X183349900Y-92577920D01*
X183349900Y-92577920D02*
X183349900Y-90490040D01*
X183799480Y-90040460D02*
X184897520Y-90040460D01*
X183349900Y-90490040D02*
X183799480Y-90040460D01*
X180652420Y-80454500D02*
X182140860Y-80454500D01*
X182737800Y-79857560D02*
X185375040Y-79857560D01*
X182140860Y-80454500D02*
X182737800Y-79857560D01*
X185126160Y-118551960D02*
X185136280Y-118562080D01*
X181020720Y-118551960D02*
X185126160Y-118551960D01*
X143189960Y-127579120D02*
X143192500Y-127576580D01*
X135199120Y-127579120D02*
X143189960Y-127579120D01*
X134569740Y-128208500D02*
X135199120Y-127579120D01*
X128145740Y-128208500D02*
X134569740Y-128208500D01*
X128120140Y-128182900D02*
X128145740Y-128208500D01*
X143167100Y-127551180D02*
X143192500Y-127576580D01*
X143167100Y-123001500D02*
X143167100Y-127551180D01*
X140685520Y-135427720D02*
X140837920Y-135580120D01*
X140685520Y-132735320D02*
X140685520Y-135427720D01*
X187530000Y-101713560D02*
X187609480Y-101793040D01*
X184950360Y-101713560D02*
X187530000Y-101713560D01*
X173303460Y-103479600D02*
X173166300Y-103342440D01*
X184322720Y-103479600D02*
X173303460Y-103479600D01*
X184950360Y-102851960D02*
X184322720Y-103479600D01*
X184950360Y-101713560D02*
X184950360Y-102851960D01*
X173166300Y-103342440D02*
X173166300Y-106893360D01*
D25*
X172262800Y-99853940D02*
X172262800Y-101038660D01*
X173166300Y-101942160D02*
X173166300Y-103342440D01*
X172262800Y-101038660D02*
X173166300Y-101942160D01*
D24*
X188267340Y-87955120D02*
X188998860Y-87223600D01*
X190805560Y-87223600D02*
X190843660Y-87185500D01*
X188998860Y-87223600D02*
X190805560Y-87223600D01*
X188142880Y-83405980D02*
X189684660Y-83405980D01*
X193570100Y-79520540D02*
X193570100Y-76690220D01*
X189684660Y-83405980D02*
X193570100Y-79520540D01*
X193524380Y-111962440D02*
X193524380Y-114683540D01*
X192168780Y-110606840D02*
X193524380Y-111962440D01*
X188407040Y-110606840D02*
X192168780Y-110606840D01*
X130103020Y-111267240D02*
X130103020Y-113537140D01*
X131216400Y-114650520D02*
X131216400Y-116162680D01*
X130103020Y-113537140D02*
X131216400Y-114650520D01*
X76705460Y-69956680D02*
X74528680Y-72133460D01*
X76812140Y-69956680D02*
X76705460Y-69956680D01*
M02*
