G04 #@! TF.GenerationSoftware,KiCad,Pcbnew,(5.1.9)-1*
G04 #@! TF.CreationDate,2022-04-01T17:50:07-04:00*
G04 #@! TF.ProjectId,MC-DSP,4d432d44-5350-42e6-9b69-6361645f7063,rev?*
G04 #@! TF.SameCoordinates,Original*
G04 #@! TF.FileFunction,Soldermask,Top*
G04 #@! TF.FilePolarity,Negative*
%FSLAX46Y46*%
G04 Gerber Fmt 4.6, Leading zero omitted, Abs format (unit mm)*
G04 Created by KiCad (PCBNEW (5.1.9)-1) date 2022-04-01 17:50:07*
%MOMM*%
%LPD*%
G01*
G04 APERTURE LIST*
%ADD10C,0.500000*%
%ADD11C,4.350000*%
%ADD12C,1.650000*%
%ADD13O,1.700000X1.700000*%
%ADD14R,1.700000X1.700000*%
%ADD15R,1.800000X1.540000*%
%ADD16C,1.800000*%
%ADD17R,1.800000X1.800000*%
%ADD18C,3.315000*%
%ADD19C,1.905000*%
%ADD20O,1.700000X2.500000*%
%ADD21R,1.700000X2.500000*%
%ADD22C,0.100000*%
%ADD23R,0.900000X2.300000*%
%ADD24C,3.500000*%
%ADD25C,1.700000*%
%ADD26R,0.650000X1.060000*%
%ADD27R,0.700000X0.510000*%
%ADD28R,0.700000X0.400000*%
%ADD29O,1.000000X1.000000*%
%ADD30R,1.000000X1.000000*%
%ADD31C,1.500000*%
%ADD32C,1.524000*%
%ADD33C,2.600000*%
%ADD34R,1.400000X1.300000*%
G04 APERTURE END LIST*
D10*
X170600000Y-76200000D03*
X169800000Y-76200000D03*
X169000000Y-76200000D03*
X168200000Y-76200000D03*
X167400000Y-76200000D03*
X166600000Y-76200000D03*
X165800000Y-76200000D03*
X165000000Y-76200000D03*
X164200000Y-76200000D03*
X163400000Y-76200000D03*
X162600000Y-76200000D03*
X161800000Y-76200000D03*
X161000000Y-76200000D03*
X160200000Y-76200000D03*
X159400000Y-76200000D03*
X158600000Y-76200000D03*
X157800000Y-76200000D03*
X157000000Y-76200000D03*
X156200000Y-76200000D03*
X170600000Y-75400000D03*
X169800000Y-75400000D03*
X169000000Y-75400000D03*
X168200000Y-75400000D03*
X167400000Y-75400000D03*
X166600000Y-75400000D03*
X165800000Y-75400000D03*
X165000000Y-75400000D03*
X164200000Y-75400000D03*
X163400000Y-75400000D03*
X162600000Y-75400000D03*
X161800000Y-75400000D03*
X161000000Y-75400000D03*
X160200000Y-75400000D03*
X159400000Y-75400000D03*
X158600000Y-75400000D03*
X157800000Y-75400000D03*
X157000000Y-75400000D03*
X156200000Y-75400000D03*
X170600000Y-74600000D03*
X169800000Y-74600000D03*
X169000000Y-74600000D03*
X168200000Y-74600000D03*
X167400000Y-74600000D03*
X166600000Y-74600000D03*
X165800000Y-74600000D03*
X165000000Y-74600000D03*
X164200000Y-74600000D03*
X163400000Y-74600000D03*
X162600000Y-74600000D03*
X161800000Y-74600000D03*
X161000000Y-74600000D03*
X160200000Y-74600000D03*
X159400000Y-74600000D03*
X158600000Y-74600000D03*
X157800000Y-74600000D03*
X157000000Y-74600000D03*
X156200000Y-74600000D03*
X170600000Y-73800000D03*
X169800000Y-73800000D03*
X169000000Y-73800000D03*
X168200000Y-73800000D03*
X167400000Y-73800000D03*
X166600000Y-73800000D03*
X165800000Y-73800000D03*
X165000000Y-73800000D03*
X164200000Y-73800000D03*
X163400000Y-73800000D03*
X162600000Y-73800000D03*
X161800000Y-73800000D03*
X161000000Y-73800000D03*
X160200000Y-73800000D03*
X159400000Y-73800000D03*
X158600000Y-73800000D03*
X157800000Y-73800000D03*
X157000000Y-73800000D03*
X156200000Y-73800000D03*
X170600000Y-73000000D03*
X169800000Y-73000000D03*
X169000000Y-73000000D03*
X168200000Y-73000000D03*
X167400000Y-73000000D03*
X166600000Y-73000000D03*
X165800000Y-73000000D03*
X165000000Y-73000000D03*
X164200000Y-73000000D03*
X163400000Y-73000000D03*
X162600000Y-73000000D03*
X161800000Y-73000000D03*
X161000000Y-73000000D03*
X160200000Y-73000000D03*
X159400000Y-73000000D03*
X158600000Y-73000000D03*
X157800000Y-73000000D03*
X157000000Y-73000000D03*
X156200000Y-73000000D03*
X170600000Y-72200000D03*
X169800000Y-72200000D03*
X169000000Y-72200000D03*
X168200000Y-72200000D03*
X167400000Y-72200000D03*
X166600000Y-72200000D03*
X165800000Y-72200000D03*
X165000000Y-72200000D03*
X164200000Y-72200000D03*
X163400000Y-72200000D03*
X162600000Y-72200000D03*
X161800000Y-72200000D03*
X161000000Y-72200000D03*
X160200000Y-72200000D03*
X159400000Y-72200000D03*
X158600000Y-72200000D03*
X157800000Y-72200000D03*
X157000000Y-72200000D03*
X156200000Y-72200000D03*
X170600000Y-71400000D03*
X169800000Y-71400000D03*
X169000000Y-71400000D03*
X168200000Y-71400000D03*
X167400000Y-71400000D03*
X166600000Y-71400000D03*
X160200000Y-71400000D03*
X159400000Y-71400000D03*
X158600000Y-71400000D03*
X157800000Y-71400000D03*
X157000000Y-71400000D03*
X156200000Y-71400000D03*
X170600000Y-70600000D03*
X169800000Y-70600000D03*
X169000000Y-70600000D03*
X168200000Y-70600000D03*
X167400000Y-70600000D03*
X166600000Y-70600000D03*
X165000000Y-70600000D03*
X164200000Y-70600000D03*
X163400000Y-70600000D03*
X162600000Y-70600000D03*
X161800000Y-70600000D03*
X160200000Y-70600000D03*
X159400000Y-70600000D03*
X158600000Y-70600000D03*
X157800000Y-70600000D03*
X157000000Y-70600000D03*
X156200000Y-70600000D03*
X170600000Y-69800000D03*
X169800000Y-69800000D03*
X169000000Y-69800000D03*
X168200000Y-69800000D03*
X167400000Y-69800000D03*
X166600000Y-69800000D03*
X165000000Y-69800000D03*
X164200000Y-69800000D03*
X163400000Y-69800000D03*
X162600000Y-69800000D03*
X161800000Y-69800000D03*
X160200000Y-69800000D03*
X159400000Y-69800000D03*
X158600000Y-69800000D03*
X157800000Y-69800000D03*
X157000000Y-69800000D03*
X156200000Y-69800000D03*
X170600000Y-69000000D03*
X169800000Y-69000000D03*
X169000000Y-69000000D03*
X168200000Y-69000000D03*
X167400000Y-69000000D03*
X166600000Y-69000000D03*
X165000000Y-69000000D03*
X164200000Y-69000000D03*
X163400000Y-69000000D03*
X162600000Y-69000000D03*
X161800000Y-69000000D03*
X160200000Y-69000000D03*
X159400000Y-69000000D03*
X158600000Y-69000000D03*
X157800000Y-69000000D03*
X157000000Y-69000000D03*
X156200000Y-69000000D03*
X170600000Y-68200000D03*
X169800000Y-68200000D03*
X169000000Y-68200000D03*
X168200000Y-68200000D03*
X167400000Y-68200000D03*
X166600000Y-68200000D03*
X165000000Y-68200000D03*
X164200000Y-68200000D03*
X163400000Y-68200000D03*
X162600000Y-68200000D03*
X161800000Y-68200000D03*
X160200000Y-68200000D03*
X159400000Y-68200000D03*
X158600000Y-68200000D03*
X157800000Y-68200000D03*
X157000000Y-68200000D03*
X156200000Y-68200000D03*
X170600000Y-67400000D03*
X169800000Y-67400000D03*
X169000000Y-67400000D03*
X168200000Y-67400000D03*
X167400000Y-67400000D03*
X166600000Y-67400000D03*
X165000000Y-67400000D03*
X164200000Y-67400000D03*
X163400000Y-67400000D03*
X162600000Y-67400000D03*
X161800000Y-67400000D03*
X160200000Y-67400000D03*
X159400000Y-67400000D03*
X158600000Y-67400000D03*
X157800000Y-67400000D03*
X157000000Y-67400000D03*
X156200000Y-67400000D03*
X170600000Y-66600000D03*
X169800000Y-66600000D03*
X169000000Y-66600000D03*
X168200000Y-66600000D03*
X167400000Y-66600000D03*
X166600000Y-66600000D03*
X160200000Y-66600000D03*
X159400000Y-66600000D03*
X158600000Y-66600000D03*
X157800000Y-66600000D03*
X157000000Y-66600000D03*
X156200000Y-66600000D03*
X170600000Y-65800000D03*
X169800000Y-65800000D03*
X169000000Y-65800000D03*
X168200000Y-65800000D03*
X167400000Y-65800000D03*
X166600000Y-65800000D03*
X165800000Y-65800000D03*
X165000000Y-65800000D03*
X164200000Y-65800000D03*
X163400000Y-65800000D03*
X162600000Y-65800000D03*
X161800000Y-65800000D03*
X161000000Y-65800000D03*
X160200000Y-65800000D03*
X159400000Y-65800000D03*
X158600000Y-65800000D03*
X157800000Y-65800000D03*
X157000000Y-65800000D03*
X156200000Y-65800000D03*
X170600000Y-65000000D03*
X169800000Y-65000000D03*
X169000000Y-65000000D03*
X168200000Y-65000000D03*
X167400000Y-65000000D03*
X166600000Y-65000000D03*
X165800000Y-65000000D03*
X165000000Y-65000000D03*
X164200000Y-65000000D03*
X163400000Y-65000000D03*
X162600000Y-65000000D03*
X161800000Y-65000000D03*
X161000000Y-65000000D03*
X160200000Y-65000000D03*
X159400000Y-65000000D03*
X158600000Y-65000000D03*
X157800000Y-65000000D03*
X157000000Y-65000000D03*
X156200000Y-65000000D03*
X170600000Y-64200000D03*
X169800000Y-64200000D03*
X169000000Y-64200000D03*
X168200000Y-64200000D03*
X167400000Y-64200000D03*
X166600000Y-64200000D03*
X165800000Y-64200000D03*
X165000000Y-64200000D03*
X164200000Y-64200000D03*
X163400000Y-64200000D03*
X162600000Y-64200000D03*
X161800000Y-64200000D03*
X161000000Y-64200000D03*
X160200000Y-64200000D03*
X159400000Y-64200000D03*
X158600000Y-64200000D03*
X157800000Y-64200000D03*
X157000000Y-64200000D03*
X156200000Y-64200000D03*
X170600000Y-63400000D03*
X169800000Y-63400000D03*
X169000000Y-63400000D03*
X168200000Y-63400000D03*
X167400000Y-63400000D03*
X166600000Y-63400000D03*
X165800000Y-63400000D03*
X165000000Y-63400000D03*
X164200000Y-63400000D03*
X163400000Y-63400000D03*
X162600000Y-63400000D03*
X161800000Y-63400000D03*
X161000000Y-63400000D03*
X160200000Y-63400000D03*
X159400000Y-63400000D03*
X158600000Y-63400000D03*
X157800000Y-63400000D03*
X157000000Y-63400000D03*
X156200000Y-63400000D03*
X170600000Y-62600000D03*
X169800000Y-62600000D03*
X169000000Y-62600000D03*
X168200000Y-62600000D03*
X167400000Y-62600000D03*
X166600000Y-62600000D03*
X165800000Y-62600000D03*
X165000000Y-62600000D03*
X164200000Y-62600000D03*
X163400000Y-62600000D03*
X162600000Y-62600000D03*
X161800000Y-62600000D03*
X161000000Y-62600000D03*
X160200000Y-62600000D03*
X159400000Y-62600000D03*
X158600000Y-62600000D03*
X157800000Y-62600000D03*
X157000000Y-62600000D03*
X156200000Y-62600000D03*
X170600000Y-61800000D03*
X169800000Y-61800000D03*
X169000000Y-61800000D03*
X168200000Y-61800000D03*
X167400000Y-61800000D03*
X166600000Y-61800000D03*
X165800000Y-61800000D03*
X165000000Y-61800000D03*
X164200000Y-61800000D03*
X163400000Y-61800000D03*
X162600000Y-61800000D03*
X161800000Y-61800000D03*
X161000000Y-61800000D03*
X160200000Y-61800000D03*
X159400000Y-61800000D03*
X158600000Y-61800000D03*
X157800000Y-61800000D03*
X157000000Y-61800000D03*
X156200000Y-61800000D03*
G36*
G01*
X155362500Y-82125000D02*
X155837500Y-82125000D01*
G75*
G02*
X156075000Y-82362500I0J-237500D01*
G01*
X156075000Y-82862500D01*
G75*
G02*
X155837500Y-83100000I-237500J0D01*
G01*
X155362500Y-83100000D01*
G75*
G02*
X155125000Y-82862500I0J237500D01*
G01*
X155125000Y-82362500D01*
G75*
G02*
X155362500Y-82125000I237500J0D01*
G01*
G37*
G36*
G01*
X155362500Y-80300000D02*
X155837500Y-80300000D01*
G75*
G02*
X156075000Y-80537500I0J-237500D01*
G01*
X156075000Y-81037500D01*
G75*
G02*
X155837500Y-81275000I-237500J0D01*
G01*
X155362500Y-81275000D01*
G75*
G02*
X155125000Y-81037500I0J237500D01*
G01*
X155125000Y-80537500D01*
G75*
G02*
X155362500Y-80300000I237500J0D01*
G01*
G37*
G36*
G01*
X162825000Y-84537500D02*
X162825000Y-84062500D01*
G75*
G02*
X163062500Y-83825000I237500J0D01*
G01*
X163562500Y-83825000D01*
G75*
G02*
X163800000Y-84062500I0J-237500D01*
G01*
X163800000Y-84537500D01*
G75*
G02*
X163562500Y-84775000I-237500J0D01*
G01*
X163062500Y-84775000D01*
G75*
G02*
X162825000Y-84537500I0J237500D01*
G01*
G37*
G36*
G01*
X161000000Y-84537500D02*
X161000000Y-84062500D01*
G75*
G02*
X161237500Y-83825000I237500J0D01*
G01*
X161737500Y-83825000D01*
G75*
G02*
X161975000Y-84062500I0J-237500D01*
G01*
X161975000Y-84537500D01*
G75*
G02*
X161737500Y-84775000I-237500J0D01*
G01*
X161237500Y-84775000D01*
G75*
G02*
X161000000Y-84537500I0J237500D01*
G01*
G37*
G36*
G01*
X174225000Y-83050001D02*
X174225000Y-82349999D01*
G75*
G02*
X174474999Y-82100000I249999J0D01*
G01*
X175025001Y-82100000D01*
G75*
G02*
X175275000Y-82349999I0J-249999D01*
G01*
X175275000Y-83050001D01*
G75*
G02*
X175025001Y-83300000I-249999J0D01*
G01*
X174474999Y-83300000D01*
G75*
G02*
X174225000Y-83050001I0J249999D01*
G01*
G37*
G36*
G01*
X171925000Y-83050001D02*
X171925000Y-82349999D01*
G75*
G02*
X172174999Y-82100000I249999J0D01*
G01*
X172725001Y-82100000D01*
G75*
G02*
X172975000Y-82349999I0J-249999D01*
G01*
X172975000Y-83050001D01*
G75*
G02*
X172725001Y-83300000I-249999J0D01*
G01*
X172174999Y-83300000D01*
G75*
G02*
X171925000Y-83050001I0J249999D01*
G01*
G37*
G36*
G01*
X174225000Y-84650001D02*
X174225000Y-83949999D01*
G75*
G02*
X174474999Y-83700000I249999J0D01*
G01*
X175025001Y-83700000D01*
G75*
G02*
X175275000Y-83949999I0J-249999D01*
G01*
X175275000Y-84650001D01*
G75*
G02*
X175025001Y-84900000I-249999J0D01*
G01*
X174474999Y-84900000D01*
G75*
G02*
X174225000Y-84650001I0J249999D01*
G01*
G37*
G36*
G01*
X171925000Y-84650001D02*
X171925000Y-83949999D01*
G75*
G02*
X172174999Y-83700000I249999J0D01*
G01*
X172725001Y-83700000D01*
G75*
G02*
X172975000Y-83949999I0J-249999D01*
G01*
X172975000Y-84650001D01*
G75*
G02*
X172725001Y-84900000I-249999J0D01*
G01*
X172174999Y-84900000D01*
G75*
G02*
X171925000Y-84650001I0J249999D01*
G01*
G37*
G36*
G01*
X148000001Y-71175000D02*
X147299999Y-71175000D01*
G75*
G02*
X147050000Y-70925001I0J249999D01*
G01*
X147050000Y-70374999D01*
G75*
G02*
X147299999Y-70125000I249999J0D01*
G01*
X148000001Y-70125000D01*
G75*
G02*
X148250000Y-70374999I0J-249999D01*
G01*
X148250000Y-70925001D01*
G75*
G02*
X148000001Y-71175000I-249999J0D01*
G01*
G37*
G36*
G01*
X148000001Y-73475000D02*
X147299999Y-73475000D01*
G75*
G02*
X147050000Y-73225001I0J249999D01*
G01*
X147050000Y-72674999D01*
G75*
G02*
X147299999Y-72425000I249999J0D01*
G01*
X148000001Y-72425000D01*
G75*
G02*
X148250000Y-72674999I0J-249999D01*
G01*
X148250000Y-73225001D01*
G75*
G02*
X148000001Y-73475000I-249999J0D01*
G01*
G37*
G36*
G01*
X169475000Y-82462500D02*
X169475000Y-82937500D01*
G75*
G02*
X169237500Y-83175000I-237500J0D01*
G01*
X168637500Y-83175000D01*
G75*
G02*
X168400000Y-82937500I0J237500D01*
G01*
X168400000Y-82462500D01*
G75*
G02*
X168637500Y-82225000I237500J0D01*
G01*
X169237500Y-82225000D01*
G75*
G02*
X169475000Y-82462500I0J-237500D01*
G01*
G37*
G36*
G01*
X171200000Y-82462500D02*
X171200000Y-82937500D01*
G75*
G02*
X170962500Y-83175000I-237500J0D01*
G01*
X170362500Y-83175000D01*
G75*
G02*
X170125000Y-82937500I0J237500D01*
G01*
X170125000Y-82462500D01*
G75*
G02*
X170362500Y-82225000I237500J0D01*
G01*
X170962500Y-82225000D01*
G75*
G02*
X171200000Y-82462500I0J-237500D01*
G01*
G37*
G36*
G01*
X176875000Y-82462500D02*
X176875000Y-82937500D01*
G75*
G02*
X176637500Y-83175000I-237500J0D01*
G01*
X176037500Y-83175000D01*
G75*
G02*
X175800000Y-82937500I0J237500D01*
G01*
X175800000Y-82462500D01*
G75*
G02*
X176037500Y-82225000I237500J0D01*
G01*
X176637500Y-82225000D01*
G75*
G02*
X176875000Y-82462500I0J-237500D01*
G01*
G37*
G36*
G01*
X178600000Y-82462500D02*
X178600000Y-82937500D01*
G75*
G02*
X178362500Y-83175000I-237500J0D01*
G01*
X177762500Y-83175000D01*
G75*
G02*
X177525000Y-82937500I0J237500D01*
G01*
X177525000Y-82462500D01*
G75*
G02*
X177762500Y-82225000I237500J0D01*
G01*
X178362500Y-82225000D01*
G75*
G02*
X178600000Y-82462500I0J-237500D01*
G01*
G37*
G36*
G01*
X169475000Y-84062500D02*
X169475000Y-84537500D01*
G75*
G02*
X169237500Y-84775000I-237500J0D01*
G01*
X168637500Y-84775000D01*
G75*
G02*
X168400000Y-84537500I0J237500D01*
G01*
X168400000Y-84062500D01*
G75*
G02*
X168637500Y-83825000I237500J0D01*
G01*
X169237500Y-83825000D01*
G75*
G02*
X169475000Y-84062500I0J-237500D01*
G01*
G37*
G36*
G01*
X171200000Y-84062500D02*
X171200000Y-84537500D01*
G75*
G02*
X170962500Y-84775000I-237500J0D01*
G01*
X170362500Y-84775000D01*
G75*
G02*
X170125000Y-84537500I0J237500D01*
G01*
X170125000Y-84062500D01*
G75*
G02*
X170362500Y-83825000I237500J0D01*
G01*
X170962500Y-83825000D01*
G75*
G02*
X171200000Y-84062500I0J-237500D01*
G01*
G37*
G36*
G01*
X176875000Y-84062500D02*
X176875000Y-84537500D01*
G75*
G02*
X176637500Y-84775000I-237500J0D01*
G01*
X176037500Y-84775000D01*
G75*
G02*
X175800000Y-84537500I0J237500D01*
G01*
X175800000Y-84062500D01*
G75*
G02*
X176037500Y-83825000I237500J0D01*
G01*
X176637500Y-83825000D01*
G75*
G02*
X176875000Y-84062500I0J-237500D01*
G01*
G37*
G36*
G01*
X178600000Y-84062500D02*
X178600000Y-84537500D01*
G75*
G02*
X178362500Y-84775000I-237500J0D01*
G01*
X177762500Y-84775000D01*
G75*
G02*
X177525000Y-84537500I0J237500D01*
G01*
X177525000Y-84062500D01*
G75*
G02*
X177762500Y-83825000I237500J0D01*
G01*
X178362500Y-83825000D01*
G75*
G02*
X178600000Y-84062500I0J-237500D01*
G01*
G37*
G36*
G01*
X144675000Y-72712500D02*
X144675000Y-73187500D01*
G75*
G02*
X144437500Y-73425000I-237500J0D01*
G01*
X143837500Y-73425000D01*
G75*
G02*
X143600000Y-73187500I0J237500D01*
G01*
X143600000Y-72712500D01*
G75*
G02*
X143837500Y-72475000I237500J0D01*
G01*
X144437500Y-72475000D01*
G75*
G02*
X144675000Y-72712500I0J-237500D01*
G01*
G37*
G36*
G01*
X146400000Y-72712500D02*
X146400000Y-73187500D01*
G75*
G02*
X146162500Y-73425000I-237500J0D01*
G01*
X145562500Y-73425000D01*
G75*
G02*
X145325000Y-73187500I0J237500D01*
G01*
X145325000Y-72712500D01*
G75*
G02*
X145562500Y-72475000I237500J0D01*
G01*
X146162500Y-72475000D01*
G75*
G02*
X146400000Y-72712500I0J-237500D01*
G01*
G37*
G36*
G01*
X145325000Y-70987500D02*
X145325000Y-70512500D01*
G75*
G02*
X145562500Y-70275000I237500J0D01*
G01*
X146162500Y-70275000D01*
G75*
G02*
X146400000Y-70512500I0J-237500D01*
G01*
X146400000Y-70987500D01*
G75*
G02*
X146162500Y-71225000I-237500J0D01*
G01*
X145562500Y-71225000D01*
G75*
G02*
X145325000Y-70987500I0J237500D01*
G01*
G37*
G36*
G01*
X143600000Y-70987500D02*
X143600000Y-70512500D01*
G75*
G02*
X143837500Y-70275000I237500J0D01*
G01*
X144437500Y-70275000D01*
G75*
G02*
X144675000Y-70512500I0J-237500D01*
G01*
X144675000Y-70987500D01*
G75*
G02*
X144437500Y-71225000I-237500J0D01*
G01*
X143837500Y-71225000D01*
G75*
G02*
X143600000Y-70987500I0J237500D01*
G01*
G37*
G36*
G01*
X203200000Y-93099999D02*
X203200000Y-96000001D01*
G75*
G02*
X202950001Y-96250000I-249999J0D01*
G01*
X201874999Y-96250000D01*
G75*
G02*
X201625000Y-96000001I0J249999D01*
G01*
X201625000Y-93099999D01*
G75*
G02*
X201874999Y-92850000I249999J0D01*
G01*
X202950001Y-92850000D01*
G75*
G02*
X203200000Y-93099999I0J-249999D01*
G01*
G37*
G36*
G01*
X207475000Y-93099999D02*
X207475000Y-96000001D01*
G75*
G02*
X207225001Y-96250000I-249999J0D01*
G01*
X206149999Y-96250000D01*
G75*
G02*
X205900000Y-96000001I0J249999D01*
G01*
X205900000Y-93099999D01*
G75*
G02*
X206149999Y-92850000I249999J0D01*
G01*
X207225001Y-92850000D01*
G75*
G02*
X207475000Y-93099999I0J-249999D01*
G01*
G37*
D11*
X111379000Y-17272000D03*
X111379000Y-106172000D03*
D12*
X124079000Y-22352000D03*
X124079000Y-24892000D03*
X124079000Y-27432000D03*
X124079000Y-29972000D03*
X124079000Y-32512000D03*
X124079000Y-35052000D03*
X124079000Y-37592000D03*
X124079000Y-40132000D03*
X124079000Y-42672000D03*
X124079000Y-45212000D03*
X124079000Y-47752000D03*
X124079000Y-50292000D03*
X124079000Y-52832000D03*
X124079000Y-55372000D03*
X124079000Y-57912000D03*
X124079000Y-60452000D03*
X124079000Y-62992000D03*
X124079000Y-65532000D03*
X124079000Y-68072000D03*
X124079000Y-70612000D03*
X124079000Y-73152000D03*
X124079000Y-75692000D03*
X124079000Y-78232000D03*
X124079000Y-80772000D03*
X124079000Y-83312000D03*
X124079000Y-85852000D03*
X124079000Y-88392000D03*
X124079000Y-90932000D03*
X124079000Y-93472000D03*
X124079000Y-96012000D03*
X124079000Y-98552000D03*
X124079000Y-101092000D03*
X121539000Y-22352000D03*
X121539000Y-24892000D03*
X121539000Y-27432000D03*
X121539000Y-29972000D03*
X121539000Y-32512000D03*
X121539000Y-35052000D03*
X121539000Y-37592000D03*
X121539000Y-40132000D03*
X121539000Y-42672000D03*
X121539000Y-45212000D03*
X121539000Y-47752000D03*
X121539000Y-50292000D03*
X121539000Y-52832000D03*
X121539000Y-55372000D03*
X121539000Y-57912000D03*
X121539000Y-60452000D03*
X121539000Y-62992000D03*
X121539000Y-65532000D03*
X121539000Y-68072000D03*
X121539000Y-70612000D03*
X121539000Y-73152000D03*
X121539000Y-75692000D03*
X121539000Y-78232000D03*
X121539000Y-80772000D03*
X121539000Y-83312000D03*
X121539000Y-85852000D03*
X121539000Y-88392000D03*
X121539000Y-90932000D03*
X121539000Y-93472000D03*
X121539000Y-96012000D03*
X121539000Y-98552000D03*
X121539000Y-101092000D03*
X118999000Y-22352000D03*
X118999000Y-24892000D03*
X118999000Y-27432000D03*
X118999000Y-29972000D03*
X118999000Y-32512000D03*
X118999000Y-35052000D03*
X118999000Y-37592000D03*
X118999000Y-40132000D03*
X118999000Y-42672000D03*
X118999000Y-45212000D03*
X118999000Y-47752000D03*
X118999000Y-50292000D03*
X118999000Y-52832000D03*
X118999000Y-55372000D03*
X118999000Y-57912000D03*
X118999000Y-60452000D03*
X118999000Y-62992000D03*
X118999000Y-65532000D03*
X118999000Y-68072000D03*
X118999000Y-70612000D03*
X118999000Y-73152000D03*
X118999000Y-75692000D03*
X118999000Y-78232000D03*
X118999000Y-80772000D03*
X118999000Y-83312000D03*
X118999000Y-85852000D03*
X118999000Y-88392000D03*
X118999000Y-90932000D03*
X118999000Y-93472000D03*
X118999000Y-96012000D03*
X118999000Y-98552000D03*
X118999000Y-101092000D03*
X116459000Y-22352000D03*
X116459000Y-24892000D03*
X116459000Y-27432000D03*
X116459000Y-29972000D03*
X116459000Y-32512000D03*
X116459000Y-35052000D03*
X116459000Y-37592000D03*
X116459000Y-40132000D03*
X116459000Y-42672000D03*
X116459000Y-45212000D03*
X116459000Y-47752000D03*
X116459000Y-50292000D03*
X116459000Y-52832000D03*
X116459000Y-55372000D03*
X116459000Y-57912000D03*
X116459000Y-60452000D03*
X116459000Y-62992000D03*
X116459000Y-65532000D03*
X116459000Y-68072000D03*
X116459000Y-70612000D03*
X116459000Y-73152000D03*
X116459000Y-75692000D03*
X116459000Y-78232000D03*
X116459000Y-80772000D03*
X116459000Y-83312000D03*
X116459000Y-85852000D03*
X116459000Y-88392000D03*
X116459000Y-90932000D03*
X116459000Y-93472000D03*
X116459000Y-96012000D03*
X116459000Y-98552000D03*
X116459000Y-101092000D03*
X113919000Y-22352000D03*
X113919000Y-24892000D03*
X113919000Y-27432000D03*
X113919000Y-29972000D03*
X113919000Y-32512000D03*
X113919000Y-35052000D03*
X113919000Y-37592000D03*
X113919000Y-40132000D03*
X113919000Y-42672000D03*
X113919000Y-45212000D03*
X113919000Y-47752000D03*
X113919000Y-50292000D03*
X113919000Y-52832000D03*
X113919000Y-55372000D03*
X113919000Y-57912000D03*
X113919000Y-60452000D03*
X113919000Y-62992000D03*
X113919000Y-65532000D03*
X113919000Y-68072000D03*
X113919000Y-70612000D03*
X113919000Y-73152000D03*
X113919000Y-75692000D03*
X113919000Y-78232000D03*
X113919000Y-80772000D03*
X113919000Y-83312000D03*
X113919000Y-85852000D03*
X113919000Y-88392000D03*
X113919000Y-90932000D03*
X113919000Y-93472000D03*
X113919000Y-96012000D03*
X113919000Y-98552000D03*
X113919000Y-101092000D03*
G36*
G01*
X226871600Y-104761000D02*
X226871600Y-106161000D01*
G75*
G02*
X226796600Y-106236000I-75000J0D01*
G01*
X226646600Y-106236000D01*
G75*
G02*
X226571600Y-106161000I0J75000D01*
G01*
X226571600Y-104761000D01*
G75*
G02*
X226646600Y-104686000I75000J0D01*
G01*
X226796600Y-104686000D01*
G75*
G02*
X226871600Y-104761000I0J-75000D01*
G01*
G37*
G36*
G01*
X226371600Y-104761000D02*
X226371600Y-106161000D01*
G75*
G02*
X226296600Y-106236000I-75000J0D01*
G01*
X226146600Y-106236000D01*
G75*
G02*
X226071600Y-106161000I0J75000D01*
G01*
X226071600Y-104761000D01*
G75*
G02*
X226146600Y-104686000I75000J0D01*
G01*
X226296600Y-104686000D01*
G75*
G02*
X226371600Y-104761000I0J-75000D01*
G01*
G37*
G36*
G01*
X225871600Y-104761000D02*
X225871600Y-106161000D01*
G75*
G02*
X225796600Y-106236000I-75000J0D01*
G01*
X225646600Y-106236000D01*
G75*
G02*
X225571600Y-106161000I0J75000D01*
G01*
X225571600Y-104761000D01*
G75*
G02*
X225646600Y-104686000I75000J0D01*
G01*
X225796600Y-104686000D01*
G75*
G02*
X225871600Y-104761000I0J-75000D01*
G01*
G37*
G36*
G01*
X225371600Y-104761000D02*
X225371600Y-106161000D01*
G75*
G02*
X225296600Y-106236000I-75000J0D01*
G01*
X225146600Y-106236000D01*
G75*
G02*
X225071600Y-106161000I0J75000D01*
G01*
X225071600Y-104761000D01*
G75*
G02*
X225146600Y-104686000I75000J0D01*
G01*
X225296600Y-104686000D01*
G75*
G02*
X225371600Y-104761000I0J-75000D01*
G01*
G37*
G36*
G01*
X224871600Y-104761000D02*
X224871600Y-106161000D01*
G75*
G02*
X224796600Y-106236000I-75000J0D01*
G01*
X224646600Y-106236000D01*
G75*
G02*
X224571600Y-106161000I0J75000D01*
G01*
X224571600Y-104761000D01*
G75*
G02*
X224646600Y-104686000I75000J0D01*
G01*
X224796600Y-104686000D01*
G75*
G02*
X224871600Y-104761000I0J-75000D01*
G01*
G37*
G36*
G01*
X224371600Y-104761000D02*
X224371600Y-106161000D01*
G75*
G02*
X224296600Y-106236000I-75000J0D01*
G01*
X224146600Y-106236000D01*
G75*
G02*
X224071600Y-106161000I0J75000D01*
G01*
X224071600Y-104761000D01*
G75*
G02*
X224146600Y-104686000I75000J0D01*
G01*
X224296600Y-104686000D01*
G75*
G02*
X224371600Y-104761000I0J-75000D01*
G01*
G37*
G36*
G01*
X223871600Y-104761000D02*
X223871600Y-106161000D01*
G75*
G02*
X223796600Y-106236000I-75000J0D01*
G01*
X223646600Y-106236000D01*
G75*
G02*
X223571600Y-106161000I0J75000D01*
G01*
X223571600Y-104761000D01*
G75*
G02*
X223646600Y-104686000I75000J0D01*
G01*
X223796600Y-104686000D01*
G75*
G02*
X223871600Y-104761000I0J-75000D01*
G01*
G37*
G36*
G01*
X223371600Y-104761000D02*
X223371600Y-106161000D01*
G75*
G02*
X223296600Y-106236000I-75000J0D01*
G01*
X223146600Y-106236000D01*
G75*
G02*
X223071600Y-106161000I0J75000D01*
G01*
X223071600Y-104761000D01*
G75*
G02*
X223146600Y-104686000I75000J0D01*
G01*
X223296600Y-104686000D01*
G75*
G02*
X223371600Y-104761000I0J-75000D01*
G01*
G37*
G36*
G01*
X222871600Y-104761000D02*
X222871600Y-106161000D01*
G75*
G02*
X222796600Y-106236000I-75000J0D01*
G01*
X222646600Y-106236000D01*
G75*
G02*
X222571600Y-106161000I0J75000D01*
G01*
X222571600Y-104761000D01*
G75*
G02*
X222646600Y-104686000I75000J0D01*
G01*
X222796600Y-104686000D01*
G75*
G02*
X222871600Y-104761000I0J-75000D01*
G01*
G37*
G36*
G01*
X222371600Y-104761000D02*
X222371600Y-106161000D01*
G75*
G02*
X222296600Y-106236000I-75000J0D01*
G01*
X222146600Y-106236000D01*
G75*
G02*
X222071600Y-106161000I0J75000D01*
G01*
X222071600Y-104761000D01*
G75*
G02*
X222146600Y-104686000I75000J0D01*
G01*
X222296600Y-104686000D01*
G75*
G02*
X222371600Y-104761000I0J-75000D01*
G01*
G37*
G36*
G01*
X221871600Y-104761000D02*
X221871600Y-106161000D01*
G75*
G02*
X221796600Y-106236000I-75000J0D01*
G01*
X221646600Y-106236000D01*
G75*
G02*
X221571600Y-106161000I0J75000D01*
G01*
X221571600Y-104761000D01*
G75*
G02*
X221646600Y-104686000I75000J0D01*
G01*
X221796600Y-104686000D01*
G75*
G02*
X221871600Y-104761000I0J-75000D01*
G01*
G37*
G36*
G01*
X221371600Y-104761000D02*
X221371600Y-106161000D01*
G75*
G02*
X221296600Y-106236000I-75000J0D01*
G01*
X221146600Y-106236000D01*
G75*
G02*
X221071600Y-106161000I0J75000D01*
G01*
X221071600Y-104761000D01*
G75*
G02*
X221146600Y-104686000I75000J0D01*
G01*
X221296600Y-104686000D01*
G75*
G02*
X221371600Y-104761000I0J-75000D01*
G01*
G37*
G36*
G01*
X220871600Y-104761000D02*
X220871600Y-106161000D01*
G75*
G02*
X220796600Y-106236000I-75000J0D01*
G01*
X220646600Y-106236000D01*
G75*
G02*
X220571600Y-106161000I0J75000D01*
G01*
X220571600Y-104761000D01*
G75*
G02*
X220646600Y-104686000I75000J0D01*
G01*
X220796600Y-104686000D01*
G75*
G02*
X220871600Y-104761000I0J-75000D01*
G01*
G37*
G36*
G01*
X220371600Y-104761000D02*
X220371600Y-106161000D01*
G75*
G02*
X220296600Y-106236000I-75000J0D01*
G01*
X220146600Y-106236000D01*
G75*
G02*
X220071600Y-106161000I0J75000D01*
G01*
X220071600Y-104761000D01*
G75*
G02*
X220146600Y-104686000I75000J0D01*
G01*
X220296600Y-104686000D01*
G75*
G02*
X220371600Y-104761000I0J-75000D01*
G01*
G37*
G36*
G01*
X219871600Y-104761000D02*
X219871600Y-106161000D01*
G75*
G02*
X219796600Y-106236000I-75000J0D01*
G01*
X219646600Y-106236000D01*
G75*
G02*
X219571600Y-106161000I0J75000D01*
G01*
X219571600Y-104761000D01*
G75*
G02*
X219646600Y-104686000I75000J0D01*
G01*
X219796600Y-104686000D01*
G75*
G02*
X219871600Y-104761000I0J-75000D01*
G01*
G37*
G36*
G01*
X219371600Y-104761000D02*
X219371600Y-106161000D01*
G75*
G02*
X219296600Y-106236000I-75000J0D01*
G01*
X219146600Y-106236000D01*
G75*
G02*
X219071600Y-106161000I0J75000D01*
G01*
X219071600Y-104761000D01*
G75*
G02*
X219146600Y-104686000I75000J0D01*
G01*
X219296600Y-104686000D01*
G75*
G02*
X219371600Y-104761000I0J-75000D01*
G01*
G37*
G36*
G01*
X218071600Y-103461000D02*
X218071600Y-103611000D01*
G75*
G02*
X217996600Y-103686000I-75000J0D01*
G01*
X216596600Y-103686000D01*
G75*
G02*
X216521600Y-103611000I0J75000D01*
G01*
X216521600Y-103461000D01*
G75*
G02*
X216596600Y-103386000I75000J0D01*
G01*
X217996600Y-103386000D01*
G75*
G02*
X218071600Y-103461000I0J-75000D01*
G01*
G37*
G36*
G01*
X218071600Y-102961000D02*
X218071600Y-103111000D01*
G75*
G02*
X217996600Y-103186000I-75000J0D01*
G01*
X216596600Y-103186000D01*
G75*
G02*
X216521600Y-103111000I0J75000D01*
G01*
X216521600Y-102961000D01*
G75*
G02*
X216596600Y-102886000I75000J0D01*
G01*
X217996600Y-102886000D01*
G75*
G02*
X218071600Y-102961000I0J-75000D01*
G01*
G37*
G36*
G01*
X218071600Y-102461000D02*
X218071600Y-102611000D01*
G75*
G02*
X217996600Y-102686000I-75000J0D01*
G01*
X216596600Y-102686000D01*
G75*
G02*
X216521600Y-102611000I0J75000D01*
G01*
X216521600Y-102461000D01*
G75*
G02*
X216596600Y-102386000I75000J0D01*
G01*
X217996600Y-102386000D01*
G75*
G02*
X218071600Y-102461000I0J-75000D01*
G01*
G37*
G36*
G01*
X218071600Y-101961000D02*
X218071600Y-102111000D01*
G75*
G02*
X217996600Y-102186000I-75000J0D01*
G01*
X216596600Y-102186000D01*
G75*
G02*
X216521600Y-102111000I0J75000D01*
G01*
X216521600Y-101961000D01*
G75*
G02*
X216596600Y-101886000I75000J0D01*
G01*
X217996600Y-101886000D01*
G75*
G02*
X218071600Y-101961000I0J-75000D01*
G01*
G37*
G36*
G01*
X218071600Y-101461000D02*
X218071600Y-101611000D01*
G75*
G02*
X217996600Y-101686000I-75000J0D01*
G01*
X216596600Y-101686000D01*
G75*
G02*
X216521600Y-101611000I0J75000D01*
G01*
X216521600Y-101461000D01*
G75*
G02*
X216596600Y-101386000I75000J0D01*
G01*
X217996600Y-101386000D01*
G75*
G02*
X218071600Y-101461000I0J-75000D01*
G01*
G37*
G36*
G01*
X218071600Y-100961000D02*
X218071600Y-101111000D01*
G75*
G02*
X217996600Y-101186000I-75000J0D01*
G01*
X216596600Y-101186000D01*
G75*
G02*
X216521600Y-101111000I0J75000D01*
G01*
X216521600Y-100961000D01*
G75*
G02*
X216596600Y-100886000I75000J0D01*
G01*
X217996600Y-100886000D01*
G75*
G02*
X218071600Y-100961000I0J-75000D01*
G01*
G37*
G36*
G01*
X218071600Y-100461000D02*
X218071600Y-100611000D01*
G75*
G02*
X217996600Y-100686000I-75000J0D01*
G01*
X216596600Y-100686000D01*
G75*
G02*
X216521600Y-100611000I0J75000D01*
G01*
X216521600Y-100461000D01*
G75*
G02*
X216596600Y-100386000I75000J0D01*
G01*
X217996600Y-100386000D01*
G75*
G02*
X218071600Y-100461000I0J-75000D01*
G01*
G37*
G36*
G01*
X218071600Y-99961000D02*
X218071600Y-100111000D01*
G75*
G02*
X217996600Y-100186000I-75000J0D01*
G01*
X216596600Y-100186000D01*
G75*
G02*
X216521600Y-100111000I0J75000D01*
G01*
X216521600Y-99961000D01*
G75*
G02*
X216596600Y-99886000I75000J0D01*
G01*
X217996600Y-99886000D01*
G75*
G02*
X218071600Y-99961000I0J-75000D01*
G01*
G37*
G36*
G01*
X218071600Y-99461000D02*
X218071600Y-99611000D01*
G75*
G02*
X217996600Y-99686000I-75000J0D01*
G01*
X216596600Y-99686000D01*
G75*
G02*
X216521600Y-99611000I0J75000D01*
G01*
X216521600Y-99461000D01*
G75*
G02*
X216596600Y-99386000I75000J0D01*
G01*
X217996600Y-99386000D01*
G75*
G02*
X218071600Y-99461000I0J-75000D01*
G01*
G37*
G36*
G01*
X218071600Y-98961000D02*
X218071600Y-99111000D01*
G75*
G02*
X217996600Y-99186000I-75000J0D01*
G01*
X216596600Y-99186000D01*
G75*
G02*
X216521600Y-99111000I0J75000D01*
G01*
X216521600Y-98961000D01*
G75*
G02*
X216596600Y-98886000I75000J0D01*
G01*
X217996600Y-98886000D01*
G75*
G02*
X218071600Y-98961000I0J-75000D01*
G01*
G37*
G36*
G01*
X218071600Y-98461000D02*
X218071600Y-98611000D01*
G75*
G02*
X217996600Y-98686000I-75000J0D01*
G01*
X216596600Y-98686000D01*
G75*
G02*
X216521600Y-98611000I0J75000D01*
G01*
X216521600Y-98461000D01*
G75*
G02*
X216596600Y-98386000I75000J0D01*
G01*
X217996600Y-98386000D01*
G75*
G02*
X218071600Y-98461000I0J-75000D01*
G01*
G37*
G36*
G01*
X218071600Y-97961000D02*
X218071600Y-98111000D01*
G75*
G02*
X217996600Y-98186000I-75000J0D01*
G01*
X216596600Y-98186000D01*
G75*
G02*
X216521600Y-98111000I0J75000D01*
G01*
X216521600Y-97961000D01*
G75*
G02*
X216596600Y-97886000I75000J0D01*
G01*
X217996600Y-97886000D01*
G75*
G02*
X218071600Y-97961000I0J-75000D01*
G01*
G37*
G36*
G01*
X218071600Y-97461000D02*
X218071600Y-97611000D01*
G75*
G02*
X217996600Y-97686000I-75000J0D01*
G01*
X216596600Y-97686000D01*
G75*
G02*
X216521600Y-97611000I0J75000D01*
G01*
X216521600Y-97461000D01*
G75*
G02*
X216596600Y-97386000I75000J0D01*
G01*
X217996600Y-97386000D01*
G75*
G02*
X218071600Y-97461000I0J-75000D01*
G01*
G37*
G36*
G01*
X218071600Y-96961000D02*
X218071600Y-97111000D01*
G75*
G02*
X217996600Y-97186000I-75000J0D01*
G01*
X216596600Y-97186000D01*
G75*
G02*
X216521600Y-97111000I0J75000D01*
G01*
X216521600Y-96961000D01*
G75*
G02*
X216596600Y-96886000I75000J0D01*
G01*
X217996600Y-96886000D01*
G75*
G02*
X218071600Y-96961000I0J-75000D01*
G01*
G37*
G36*
G01*
X218071600Y-96461000D02*
X218071600Y-96611000D01*
G75*
G02*
X217996600Y-96686000I-75000J0D01*
G01*
X216596600Y-96686000D01*
G75*
G02*
X216521600Y-96611000I0J75000D01*
G01*
X216521600Y-96461000D01*
G75*
G02*
X216596600Y-96386000I75000J0D01*
G01*
X217996600Y-96386000D01*
G75*
G02*
X218071600Y-96461000I0J-75000D01*
G01*
G37*
G36*
G01*
X218071600Y-95961000D02*
X218071600Y-96111000D01*
G75*
G02*
X217996600Y-96186000I-75000J0D01*
G01*
X216596600Y-96186000D01*
G75*
G02*
X216521600Y-96111000I0J75000D01*
G01*
X216521600Y-95961000D01*
G75*
G02*
X216596600Y-95886000I75000J0D01*
G01*
X217996600Y-95886000D01*
G75*
G02*
X218071600Y-95961000I0J-75000D01*
G01*
G37*
G36*
G01*
X219371600Y-93411000D02*
X219371600Y-94811000D01*
G75*
G02*
X219296600Y-94886000I-75000J0D01*
G01*
X219146600Y-94886000D01*
G75*
G02*
X219071600Y-94811000I0J75000D01*
G01*
X219071600Y-93411000D01*
G75*
G02*
X219146600Y-93336000I75000J0D01*
G01*
X219296600Y-93336000D01*
G75*
G02*
X219371600Y-93411000I0J-75000D01*
G01*
G37*
G36*
G01*
X219871600Y-93411000D02*
X219871600Y-94811000D01*
G75*
G02*
X219796600Y-94886000I-75000J0D01*
G01*
X219646600Y-94886000D01*
G75*
G02*
X219571600Y-94811000I0J75000D01*
G01*
X219571600Y-93411000D01*
G75*
G02*
X219646600Y-93336000I75000J0D01*
G01*
X219796600Y-93336000D01*
G75*
G02*
X219871600Y-93411000I0J-75000D01*
G01*
G37*
G36*
G01*
X220371600Y-93411000D02*
X220371600Y-94811000D01*
G75*
G02*
X220296600Y-94886000I-75000J0D01*
G01*
X220146600Y-94886000D01*
G75*
G02*
X220071600Y-94811000I0J75000D01*
G01*
X220071600Y-93411000D01*
G75*
G02*
X220146600Y-93336000I75000J0D01*
G01*
X220296600Y-93336000D01*
G75*
G02*
X220371600Y-93411000I0J-75000D01*
G01*
G37*
G36*
G01*
X220871600Y-93411000D02*
X220871600Y-94811000D01*
G75*
G02*
X220796600Y-94886000I-75000J0D01*
G01*
X220646600Y-94886000D01*
G75*
G02*
X220571600Y-94811000I0J75000D01*
G01*
X220571600Y-93411000D01*
G75*
G02*
X220646600Y-93336000I75000J0D01*
G01*
X220796600Y-93336000D01*
G75*
G02*
X220871600Y-93411000I0J-75000D01*
G01*
G37*
G36*
G01*
X221371600Y-93411000D02*
X221371600Y-94811000D01*
G75*
G02*
X221296600Y-94886000I-75000J0D01*
G01*
X221146600Y-94886000D01*
G75*
G02*
X221071600Y-94811000I0J75000D01*
G01*
X221071600Y-93411000D01*
G75*
G02*
X221146600Y-93336000I75000J0D01*
G01*
X221296600Y-93336000D01*
G75*
G02*
X221371600Y-93411000I0J-75000D01*
G01*
G37*
G36*
G01*
X221871600Y-93411000D02*
X221871600Y-94811000D01*
G75*
G02*
X221796600Y-94886000I-75000J0D01*
G01*
X221646600Y-94886000D01*
G75*
G02*
X221571600Y-94811000I0J75000D01*
G01*
X221571600Y-93411000D01*
G75*
G02*
X221646600Y-93336000I75000J0D01*
G01*
X221796600Y-93336000D01*
G75*
G02*
X221871600Y-93411000I0J-75000D01*
G01*
G37*
G36*
G01*
X222371600Y-93411000D02*
X222371600Y-94811000D01*
G75*
G02*
X222296600Y-94886000I-75000J0D01*
G01*
X222146600Y-94886000D01*
G75*
G02*
X222071600Y-94811000I0J75000D01*
G01*
X222071600Y-93411000D01*
G75*
G02*
X222146600Y-93336000I75000J0D01*
G01*
X222296600Y-93336000D01*
G75*
G02*
X222371600Y-93411000I0J-75000D01*
G01*
G37*
G36*
G01*
X222871600Y-93411000D02*
X222871600Y-94811000D01*
G75*
G02*
X222796600Y-94886000I-75000J0D01*
G01*
X222646600Y-94886000D01*
G75*
G02*
X222571600Y-94811000I0J75000D01*
G01*
X222571600Y-93411000D01*
G75*
G02*
X222646600Y-93336000I75000J0D01*
G01*
X222796600Y-93336000D01*
G75*
G02*
X222871600Y-93411000I0J-75000D01*
G01*
G37*
G36*
G01*
X223371600Y-93411000D02*
X223371600Y-94811000D01*
G75*
G02*
X223296600Y-94886000I-75000J0D01*
G01*
X223146600Y-94886000D01*
G75*
G02*
X223071600Y-94811000I0J75000D01*
G01*
X223071600Y-93411000D01*
G75*
G02*
X223146600Y-93336000I75000J0D01*
G01*
X223296600Y-93336000D01*
G75*
G02*
X223371600Y-93411000I0J-75000D01*
G01*
G37*
G36*
G01*
X223871600Y-93411000D02*
X223871600Y-94811000D01*
G75*
G02*
X223796600Y-94886000I-75000J0D01*
G01*
X223646600Y-94886000D01*
G75*
G02*
X223571600Y-94811000I0J75000D01*
G01*
X223571600Y-93411000D01*
G75*
G02*
X223646600Y-93336000I75000J0D01*
G01*
X223796600Y-93336000D01*
G75*
G02*
X223871600Y-93411000I0J-75000D01*
G01*
G37*
G36*
G01*
X224371600Y-93411000D02*
X224371600Y-94811000D01*
G75*
G02*
X224296600Y-94886000I-75000J0D01*
G01*
X224146600Y-94886000D01*
G75*
G02*
X224071600Y-94811000I0J75000D01*
G01*
X224071600Y-93411000D01*
G75*
G02*
X224146600Y-93336000I75000J0D01*
G01*
X224296600Y-93336000D01*
G75*
G02*
X224371600Y-93411000I0J-75000D01*
G01*
G37*
G36*
G01*
X224871600Y-93411000D02*
X224871600Y-94811000D01*
G75*
G02*
X224796600Y-94886000I-75000J0D01*
G01*
X224646600Y-94886000D01*
G75*
G02*
X224571600Y-94811000I0J75000D01*
G01*
X224571600Y-93411000D01*
G75*
G02*
X224646600Y-93336000I75000J0D01*
G01*
X224796600Y-93336000D01*
G75*
G02*
X224871600Y-93411000I0J-75000D01*
G01*
G37*
G36*
G01*
X225371600Y-93411000D02*
X225371600Y-94811000D01*
G75*
G02*
X225296600Y-94886000I-75000J0D01*
G01*
X225146600Y-94886000D01*
G75*
G02*
X225071600Y-94811000I0J75000D01*
G01*
X225071600Y-93411000D01*
G75*
G02*
X225146600Y-93336000I75000J0D01*
G01*
X225296600Y-93336000D01*
G75*
G02*
X225371600Y-93411000I0J-75000D01*
G01*
G37*
G36*
G01*
X225871600Y-93411000D02*
X225871600Y-94811000D01*
G75*
G02*
X225796600Y-94886000I-75000J0D01*
G01*
X225646600Y-94886000D01*
G75*
G02*
X225571600Y-94811000I0J75000D01*
G01*
X225571600Y-93411000D01*
G75*
G02*
X225646600Y-93336000I75000J0D01*
G01*
X225796600Y-93336000D01*
G75*
G02*
X225871600Y-93411000I0J-75000D01*
G01*
G37*
G36*
G01*
X226371600Y-93411000D02*
X226371600Y-94811000D01*
G75*
G02*
X226296600Y-94886000I-75000J0D01*
G01*
X226146600Y-94886000D01*
G75*
G02*
X226071600Y-94811000I0J75000D01*
G01*
X226071600Y-93411000D01*
G75*
G02*
X226146600Y-93336000I75000J0D01*
G01*
X226296600Y-93336000D01*
G75*
G02*
X226371600Y-93411000I0J-75000D01*
G01*
G37*
G36*
G01*
X226871600Y-93411000D02*
X226871600Y-94811000D01*
G75*
G02*
X226796600Y-94886000I-75000J0D01*
G01*
X226646600Y-94886000D01*
G75*
G02*
X226571600Y-94811000I0J75000D01*
G01*
X226571600Y-93411000D01*
G75*
G02*
X226646600Y-93336000I75000J0D01*
G01*
X226796600Y-93336000D01*
G75*
G02*
X226871600Y-93411000I0J-75000D01*
G01*
G37*
G36*
G01*
X229421600Y-95961000D02*
X229421600Y-96111000D01*
G75*
G02*
X229346600Y-96186000I-75000J0D01*
G01*
X227946600Y-96186000D01*
G75*
G02*
X227871600Y-96111000I0J75000D01*
G01*
X227871600Y-95961000D01*
G75*
G02*
X227946600Y-95886000I75000J0D01*
G01*
X229346600Y-95886000D01*
G75*
G02*
X229421600Y-95961000I0J-75000D01*
G01*
G37*
G36*
G01*
X229421600Y-96461000D02*
X229421600Y-96611000D01*
G75*
G02*
X229346600Y-96686000I-75000J0D01*
G01*
X227946600Y-96686000D01*
G75*
G02*
X227871600Y-96611000I0J75000D01*
G01*
X227871600Y-96461000D01*
G75*
G02*
X227946600Y-96386000I75000J0D01*
G01*
X229346600Y-96386000D01*
G75*
G02*
X229421600Y-96461000I0J-75000D01*
G01*
G37*
G36*
G01*
X229421600Y-96961000D02*
X229421600Y-97111000D01*
G75*
G02*
X229346600Y-97186000I-75000J0D01*
G01*
X227946600Y-97186000D01*
G75*
G02*
X227871600Y-97111000I0J75000D01*
G01*
X227871600Y-96961000D01*
G75*
G02*
X227946600Y-96886000I75000J0D01*
G01*
X229346600Y-96886000D01*
G75*
G02*
X229421600Y-96961000I0J-75000D01*
G01*
G37*
G36*
G01*
X229421600Y-97461000D02*
X229421600Y-97611000D01*
G75*
G02*
X229346600Y-97686000I-75000J0D01*
G01*
X227946600Y-97686000D01*
G75*
G02*
X227871600Y-97611000I0J75000D01*
G01*
X227871600Y-97461000D01*
G75*
G02*
X227946600Y-97386000I75000J0D01*
G01*
X229346600Y-97386000D01*
G75*
G02*
X229421600Y-97461000I0J-75000D01*
G01*
G37*
G36*
G01*
X229421600Y-97961000D02*
X229421600Y-98111000D01*
G75*
G02*
X229346600Y-98186000I-75000J0D01*
G01*
X227946600Y-98186000D01*
G75*
G02*
X227871600Y-98111000I0J75000D01*
G01*
X227871600Y-97961000D01*
G75*
G02*
X227946600Y-97886000I75000J0D01*
G01*
X229346600Y-97886000D01*
G75*
G02*
X229421600Y-97961000I0J-75000D01*
G01*
G37*
G36*
G01*
X229421600Y-98461000D02*
X229421600Y-98611000D01*
G75*
G02*
X229346600Y-98686000I-75000J0D01*
G01*
X227946600Y-98686000D01*
G75*
G02*
X227871600Y-98611000I0J75000D01*
G01*
X227871600Y-98461000D01*
G75*
G02*
X227946600Y-98386000I75000J0D01*
G01*
X229346600Y-98386000D01*
G75*
G02*
X229421600Y-98461000I0J-75000D01*
G01*
G37*
G36*
G01*
X229421600Y-98961000D02*
X229421600Y-99111000D01*
G75*
G02*
X229346600Y-99186000I-75000J0D01*
G01*
X227946600Y-99186000D01*
G75*
G02*
X227871600Y-99111000I0J75000D01*
G01*
X227871600Y-98961000D01*
G75*
G02*
X227946600Y-98886000I75000J0D01*
G01*
X229346600Y-98886000D01*
G75*
G02*
X229421600Y-98961000I0J-75000D01*
G01*
G37*
G36*
G01*
X229421600Y-99461000D02*
X229421600Y-99611000D01*
G75*
G02*
X229346600Y-99686000I-75000J0D01*
G01*
X227946600Y-99686000D01*
G75*
G02*
X227871600Y-99611000I0J75000D01*
G01*
X227871600Y-99461000D01*
G75*
G02*
X227946600Y-99386000I75000J0D01*
G01*
X229346600Y-99386000D01*
G75*
G02*
X229421600Y-99461000I0J-75000D01*
G01*
G37*
G36*
G01*
X229421600Y-99961000D02*
X229421600Y-100111000D01*
G75*
G02*
X229346600Y-100186000I-75000J0D01*
G01*
X227946600Y-100186000D01*
G75*
G02*
X227871600Y-100111000I0J75000D01*
G01*
X227871600Y-99961000D01*
G75*
G02*
X227946600Y-99886000I75000J0D01*
G01*
X229346600Y-99886000D01*
G75*
G02*
X229421600Y-99961000I0J-75000D01*
G01*
G37*
G36*
G01*
X229421600Y-100461000D02*
X229421600Y-100611000D01*
G75*
G02*
X229346600Y-100686000I-75000J0D01*
G01*
X227946600Y-100686000D01*
G75*
G02*
X227871600Y-100611000I0J75000D01*
G01*
X227871600Y-100461000D01*
G75*
G02*
X227946600Y-100386000I75000J0D01*
G01*
X229346600Y-100386000D01*
G75*
G02*
X229421600Y-100461000I0J-75000D01*
G01*
G37*
G36*
G01*
X229421600Y-100961000D02*
X229421600Y-101111000D01*
G75*
G02*
X229346600Y-101186000I-75000J0D01*
G01*
X227946600Y-101186000D01*
G75*
G02*
X227871600Y-101111000I0J75000D01*
G01*
X227871600Y-100961000D01*
G75*
G02*
X227946600Y-100886000I75000J0D01*
G01*
X229346600Y-100886000D01*
G75*
G02*
X229421600Y-100961000I0J-75000D01*
G01*
G37*
G36*
G01*
X229421600Y-101461000D02*
X229421600Y-101611000D01*
G75*
G02*
X229346600Y-101686000I-75000J0D01*
G01*
X227946600Y-101686000D01*
G75*
G02*
X227871600Y-101611000I0J75000D01*
G01*
X227871600Y-101461000D01*
G75*
G02*
X227946600Y-101386000I75000J0D01*
G01*
X229346600Y-101386000D01*
G75*
G02*
X229421600Y-101461000I0J-75000D01*
G01*
G37*
G36*
G01*
X229421600Y-101961000D02*
X229421600Y-102111000D01*
G75*
G02*
X229346600Y-102186000I-75000J0D01*
G01*
X227946600Y-102186000D01*
G75*
G02*
X227871600Y-102111000I0J75000D01*
G01*
X227871600Y-101961000D01*
G75*
G02*
X227946600Y-101886000I75000J0D01*
G01*
X229346600Y-101886000D01*
G75*
G02*
X229421600Y-101961000I0J-75000D01*
G01*
G37*
G36*
G01*
X229421600Y-102461000D02*
X229421600Y-102611000D01*
G75*
G02*
X229346600Y-102686000I-75000J0D01*
G01*
X227946600Y-102686000D01*
G75*
G02*
X227871600Y-102611000I0J75000D01*
G01*
X227871600Y-102461000D01*
G75*
G02*
X227946600Y-102386000I75000J0D01*
G01*
X229346600Y-102386000D01*
G75*
G02*
X229421600Y-102461000I0J-75000D01*
G01*
G37*
G36*
G01*
X229421600Y-102961000D02*
X229421600Y-103111000D01*
G75*
G02*
X229346600Y-103186000I-75000J0D01*
G01*
X227946600Y-103186000D01*
G75*
G02*
X227871600Y-103111000I0J75000D01*
G01*
X227871600Y-102961000D01*
G75*
G02*
X227946600Y-102886000I75000J0D01*
G01*
X229346600Y-102886000D01*
G75*
G02*
X229421600Y-102961000I0J-75000D01*
G01*
G37*
G36*
G01*
X229421600Y-103461000D02*
X229421600Y-103611000D01*
G75*
G02*
X229346600Y-103686000I-75000J0D01*
G01*
X227946600Y-103686000D01*
G75*
G02*
X227871600Y-103611000I0J75000D01*
G01*
X227871600Y-103461000D01*
G75*
G02*
X227946600Y-103386000I75000J0D01*
G01*
X229346600Y-103386000D01*
G75*
G02*
X229421600Y-103461000I0J-75000D01*
G01*
G37*
D13*
X253746000Y-33782000D03*
X253746000Y-31242000D03*
X253746000Y-28702000D03*
X253746000Y-26162000D03*
D14*
X253746000Y-23622000D03*
D13*
X251206000Y-33782000D03*
X251206000Y-31242000D03*
X251206000Y-28702000D03*
X251206000Y-26162000D03*
D14*
X251206000Y-23622000D03*
D13*
X248666000Y-33782000D03*
X248666000Y-31242000D03*
X248666000Y-28702000D03*
X248666000Y-26162000D03*
D14*
X248666000Y-23622000D03*
G36*
G01*
X143250001Y-34281000D02*
X141049999Y-34281000D01*
G75*
G02*
X140800000Y-34031001I0J249999D01*
G01*
X140800000Y-33380999D01*
G75*
G02*
X141049999Y-33131000I249999J0D01*
G01*
X143250001Y-33131000D01*
G75*
G02*
X143500000Y-33380999I0J-249999D01*
G01*
X143500000Y-34031001D01*
G75*
G02*
X143250001Y-34281000I-249999J0D01*
G01*
G37*
G36*
G01*
X143250001Y-37231000D02*
X141049999Y-37231000D01*
G75*
G02*
X140800000Y-36981001I0J249999D01*
G01*
X140800000Y-36330999D01*
G75*
G02*
X141049999Y-36081000I249999J0D01*
G01*
X143250001Y-36081000D01*
G75*
G02*
X143500000Y-36330999I0J-249999D01*
G01*
X143500000Y-36981001D01*
G75*
G02*
X143250001Y-37231000I-249999J0D01*
G01*
G37*
G36*
G01*
X140649999Y-19981000D02*
X142850001Y-19981000D01*
G75*
G02*
X143100000Y-20230999I0J-249999D01*
G01*
X143100000Y-20881001D01*
G75*
G02*
X142850001Y-21131000I-249999J0D01*
G01*
X140649999Y-21131000D01*
G75*
G02*
X140400000Y-20881001I0J249999D01*
G01*
X140400000Y-20230999D01*
G75*
G02*
X140649999Y-19981000I249999J0D01*
G01*
G37*
G36*
G01*
X140649999Y-17031000D02*
X142850001Y-17031000D01*
G75*
G02*
X143100000Y-17280999I0J-249999D01*
G01*
X143100000Y-17931001D01*
G75*
G02*
X142850001Y-18181000I-249999J0D01*
G01*
X140649999Y-18181000D01*
G75*
G02*
X140400000Y-17931001I0J249999D01*
G01*
X140400000Y-17280999D01*
G75*
G02*
X140649999Y-17031000I249999J0D01*
G01*
G37*
G36*
G01*
X142850001Y-22981000D02*
X140649999Y-22981000D01*
G75*
G02*
X140400000Y-22731001I0J249999D01*
G01*
X140400000Y-22080999D01*
G75*
G02*
X140649999Y-21831000I249999J0D01*
G01*
X142850001Y-21831000D01*
G75*
G02*
X143100000Y-22080999I0J-249999D01*
G01*
X143100000Y-22731001D01*
G75*
G02*
X142850001Y-22981000I-249999J0D01*
G01*
G37*
G36*
G01*
X142850001Y-25931000D02*
X140649999Y-25931000D01*
G75*
G02*
X140400000Y-25681001I0J249999D01*
G01*
X140400000Y-25030999D01*
G75*
G02*
X140649999Y-24781000I249999J0D01*
G01*
X142850001Y-24781000D01*
G75*
G02*
X143100000Y-25030999I0J-249999D01*
G01*
X143100000Y-25681001D01*
G75*
G02*
X142850001Y-25931000I-249999J0D01*
G01*
G37*
D15*
X232200000Y-107040000D03*
X232200000Y-104360000D03*
X235000000Y-104360000D03*
X235000000Y-107040000D03*
G36*
G01*
X178962500Y-66025000D02*
X179437500Y-66025000D01*
G75*
G02*
X179675000Y-66262500I0J-237500D01*
G01*
X179675000Y-66862500D01*
G75*
G02*
X179437500Y-67100000I-237500J0D01*
G01*
X178962500Y-67100000D01*
G75*
G02*
X178725000Y-66862500I0J237500D01*
G01*
X178725000Y-66262500D01*
G75*
G02*
X178962500Y-66025000I237500J0D01*
G01*
G37*
G36*
G01*
X178962500Y-64300000D02*
X179437500Y-64300000D01*
G75*
G02*
X179675000Y-64537500I0J-237500D01*
G01*
X179675000Y-65137500D01*
G75*
G02*
X179437500Y-65375000I-237500J0D01*
G01*
X178962500Y-65375000D01*
G75*
G02*
X178725000Y-65137500I0J237500D01*
G01*
X178725000Y-64537500D01*
G75*
G02*
X178962500Y-64300000I237500J0D01*
G01*
G37*
G36*
G01*
X175525000Y-66025000D02*
X176025000Y-66025000D01*
G75*
G02*
X176225000Y-66225000I0J-200000D01*
G01*
X176225000Y-66625000D01*
G75*
G02*
X176025000Y-66825000I-200000J0D01*
G01*
X175525000Y-66825000D01*
G75*
G02*
X175325000Y-66625000I0J200000D01*
G01*
X175325000Y-66225000D01*
G75*
G02*
X175525000Y-66025000I200000J0D01*
G01*
G37*
G36*
G01*
X175525000Y-64575000D02*
X176025000Y-64575000D01*
G75*
G02*
X176225000Y-64775000I0J-200000D01*
G01*
X176225000Y-65175000D01*
G75*
G02*
X176025000Y-65375000I-200000J0D01*
G01*
X175525000Y-65375000D01*
G75*
G02*
X175325000Y-65175000I0J200000D01*
G01*
X175325000Y-64775000D01*
G75*
G02*
X175525000Y-64575000I200000J0D01*
G01*
G37*
G36*
G01*
X177375000Y-66025000D02*
X177875000Y-66025000D01*
G75*
G02*
X178075000Y-66225000I0J-200000D01*
G01*
X178075000Y-66625000D01*
G75*
G02*
X177875000Y-66825000I-200000J0D01*
G01*
X177375000Y-66825000D01*
G75*
G02*
X177175000Y-66625000I0J200000D01*
G01*
X177175000Y-66225000D01*
G75*
G02*
X177375000Y-66025000I200000J0D01*
G01*
G37*
G36*
G01*
X177375000Y-64575000D02*
X177875000Y-64575000D01*
G75*
G02*
X178075000Y-64775000I0J-200000D01*
G01*
X178075000Y-65175000D01*
G75*
G02*
X177875000Y-65375000I-200000J0D01*
G01*
X177375000Y-65375000D01*
G75*
G02*
X177175000Y-65175000I0J200000D01*
G01*
X177175000Y-64775000D01*
G75*
G02*
X177375000Y-64575000I200000J0D01*
G01*
G37*
G36*
G01*
X253766500Y-16493500D02*
X253766500Y-16018500D01*
G75*
G02*
X254004000Y-15781000I237500J0D01*
G01*
X254504000Y-15781000D01*
G75*
G02*
X254741500Y-16018500I0J-237500D01*
G01*
X254741500Y-16493500D01*
G75*
G02*
X254504000Y-16731000I-237500J0D01*
G01*
X254004000Y-16731000D01*
G75*
G02*
X253766500Y-16493500I0J237500D01*
G01*
G37*
G36*
G01*
X251941500Y-16493500D02*
X251941500Y-16018500D01*
G75*
G02*
X252179000Y-15781000I237500J0D01*
G01*
X252679000Y-15781000D01*
G75*
G02*
X252916500Y-16018500I0J-237500D01*
G01*
X252916500Y-16493500D01*
G75*
G02*
X252679000Y-16731000I-237500J0D01*
G01*
X252179000Y-16731000D01*
G75*
G02*
X251941500Y-16493500I0J237500D01*
G01*
G37*
D16*
X257302000Y-16256000D03*
D17*
X257302000Y-18796000D03*
D18*
X258778000Y-49565500D03*
X258778000Y-56165500D03*
X252178000Y-56165500D03*
X252178000Y-49565500D03*
D19*
X255478000Y-52865500D03*
D18*
X258841500Y-81315500D03*
X258841500Y-87915500D03*
X252241500Y-87915500D03*
X252241500Y-81315500D03*
D19*
X255541500Y-84615500D03*
D18*
X258778000Y-65796000D03*
X258778000Y-72396000D03*
X252178000Y-72396000D03*
X252178000Y-65796000D03*
D19*
X255478000Y-69096000D03*
G36*
G01*
X237437500Y-104675000D02*
X236962500Y-104675000D01*
G75*
G02*
X236725000Y-104437500I0J237500D01*
G01*
X236725000Y-103837500D01*
G75*
G02*
X236962500Y-103600000I237500J0D01*
G01*
X237437500Y-103600000D01*
G75*
G02*
X237675000Y-103837500I0J-237500D01*
G01*
X237675000Y-104437500D01*
G75*
G02*
X237437500Y-104675000I-237500J0D01*
G01*
G37*
G36*
G01*
X237437500Y-106400000D02*
X236962500Y-106400000D01*
G75*
G02*
X236725000Y-106162500I0J237500D01*
G01*
X236725000Y-105562500D01*
G75*
G02*
X236962500Y-105325000I237500J0D01*
G01*
X237437500Y-105325000D01*
G75*
G02*
X237675000Y-105562500I0J-237500D01*
G01*
X237675000Y-106162500D01*
G75*
G02*
X237437500Y-106400000I-237500J0D01*
G01*
G37*
G36*
G01*
X244525000Y-95837500D02*
X244525000Y-95362500D01*
G75*
G02*
X244762500Y-95125000I237500J0D01*
G01*
X245362500Y-95125000D01*
G75*
G02*
X245600000Y-95362500I0J-237500D01*
G01*
X245600000Y-95837500D01*
G75*
G02*
X245362500Y-96075000I-237500J0D01*
G01*
X244762500Y-96075000D01*
G75*
G02*
X244525000Y-95837500I0J237500D01*
G01*
G37*
G36*
G01*
X242800000Y-95837500D02*
X242800000Y-95362500D01*
G75*
G02*
X243037500Y-95125000I237500J0D01*
G01*
X243637500Y-95125000D01*
G75*
G02*
X243875000Y-95362500I0J-237500D01*
G01*
X243875000Y-95837500D01*
G75*
G02*
X243637500Y-96075000I-237500J0D01*
G01*
X243037500Y-96075000D01*
G75*
G02*
X242800000Y-95837500I0J237500D01*
G01*
G37*
G36*
G01*
X240275000Y-95362500D02*
X240275000Y-95837500D01*
G75*
G02*
X240037500Y-96075000I-237500J0D01*
G01*
X239437500Y-96075000D01*
G75*
G02*
X239200000Y-95837500I0J237500D01*
G01*
X239200000Y-95362500D01*
G75*
G02*
X239437500Y-95125000I237500J0D01*
G01*
X240037500Y-95125000D01*
G75*
G02*
X240275000Y-95362500I0J-237500D01*
G01*
G37*
G36*
G01*
X242000000Y-95362500D02*
X242000000Y-95837500D01*
G75*
G02*
X241762500Y-96075000I-237500J0D01*
G01*
X241162500Y-96075000D01*
G75*
G02*
X240925000Y-95837500I0J237500D01*
G01*
X240925000Y-95362500D01*
G75*
G02*
X241162500Y-95125000I237500J0D01*
G01*
X241762500Y-95125000D01*
G75*
G02*
X242000000Y-95362500I0J-237500D01*
G01*
G37*
G36*
G01*
X240275000Y-93662500D02*
X240275000Y-94137500D01*
G75*
G02*
X240037500Y-94375000I-237500J0D01*
G01*
X239437500Y-94375000D01*
G75*
G02*
X239200000Y-94137500I0J237500D01*
G01*
X239200000Y-93662500D01*
G75*
G02*
X239437500Y-93425000I237500J0D01*
G01*
X240037500Y-93425000D01*
G75*
G02*
X240275000Y-93662500I0J-237500D01*
G01*
G37*
G36*
G01*
X242000000Y-93662500D02*
X242000000Y-94137500D01*
G75*
G02*
X241762500Y-94375000I-237500J0D01*
G01*
X241162500Y-94375000D01*
G75*
G02*
X240925000Y-94137500I0J237500D01*
G01*
X240925000Y-93662500D01*
G75*
G02*
X241162500Y-93425000I237500J0D01*
G01*
X241762500Y-93425000D01*
G75*
G02*
X242000000Y-93662500I0J-237500D01*
G01*
G37*
G36*
G01*
X233025000Y-99137500D02*
X233025000Y-98662500D01*
G75*
G02*
X233262500Y-98425000I237500J0D01*
G01*
X233862500Y-98425000D01*
G75*
G02*
X234100000Y-98662500I0J-237500D01*
G01*
X234100000Y-99137500D01*
G75*
G02*
X233862500Y-99375000I-237500J0D01*
G01*
X233262500Y-99375000D01*
G75*
G02*
X233025000Y-99137500I0J237500D01*
G01*
G37*
G36*
G01*
X231300000Y-99137500D02*
X231300000Y-98662500D01*
G75*
G02*
X231537500Y-98425000I237500J0D01*
G01*
X232137500Y-98425000D01*
G75*
G02*
X232375000Y-98662500I0J-237500D01*
G01*
X232375000Y-99137500D01*
G75*
G02*
X232137500Y-99375000I-237500J0D01*
G01*
X231537500Y-99375000D01*
G75*
G02*
X231300000Y-99137500I0J237500D01*
G01*
G37*
G36*
G01*
X233025000Y-102337500D02*
X233025000Y-101862500D01*
G75*
G02*
X233262500Y-101625000I237500J0D01*
G01*
X233862500Y-101625000D01*
G75*
G02*
X234100000Y-101862500I0J-237500D01*
G01*
X234100000Y-102337500D01*
G75*
G02*
X233862500Y-102575000I-237500J0D01*
G01*
X233262500Y-102575000D01*
G75*
G02*
X233025000Y-102337500I0J237500D01*
G01*
G37*
G36*
G01*
X231300000Y-102337500D02*
X231300000Y-101862500D01*
G75*
G02*
X231537500Y-101625000I237500J0D01*
G01*
X232137500Y-101625000D01*
G75*
G02*
X232375000Y-101862500I0J-237500D01*
G01*
X232375000Y-102337500D01*
G75*
G02*
X232137500Y-102575000I-237500J0D01*
G01*
X231537500Y-102575000D01*
G75*
G02*
X231300000Y-102337500I0J237500D01*
G01*
G37*
G36*
G01*
X233025000Y-92937500D02*
X233025000Y-92462500D01*
G75*
G02*
X233262500Y-92225000I237500J0D01*
G01*
X233862500Y-92225000D01*
G75*
G02*
X234100000Y-92462500I0J-237500D01*
G01*
X234100000Y-92937500D01*
G75*
G02*
X233862500Y-93175000I-237500J0D01*
G01*
X233262500Y-93175000D01*
G75*
G02*
X233025000Y-92937500I0J237500D01*
G01*
G37*
G36*
G01*
X231300000Y-92937500D02*
X231300000Y-92462500D01*
G75*
G02*
X231537500Y-92225000I237500J0D01*
G01*
X232137500Y-92225000D01*
G75*
G02*
X232375000Y-92462500I0J-237500D01*
G01*
X232375000Y-92937500D01*
G75*
G02*
X232137500Y-93175000I-237500J0D01*
G01*
X231537500Y-93175000D01*
G75*
G02*
X231300000Y-92937500I0J237500D01*
G01*
G37*
G36*
G01*
X233025000Y-96137500D02*
X233025000Y-95662500D01*
G75*
G02*
X233262500Y-95425000I237500J0D01*
G01*
X233862500Y-95425000D01*
G75*
G02*
X234100000Y-95662500I0J-237500D01*
G01*
X234100000Y-96137500D01*
G75*
G02*
X233862500Y-96375000I-237500J0D01*
G01*
X233262500Y-96375000D01*
G75*
G02*
X233025000Y-96137500I0J237500D01*
G01*
G37*
G36*
G01*
X231300000Y-96137500D02*
X231300000Y-95662500D01*
G75*
G02*
X231537500Y-95425000I237500J0D01*
G01*
X232137500Y-95425000D01*
G75*
G02*
X232375000Y-95662500I0J-237500D01*
G01*
X232375000Y-96137500D01*
G75*
G02*
X232137500Y-96375000I-237500J0D01*
G01*
X231537500Y-96375000D01*
G75*
G02*
X231300000Y-96137500I0J237500D01*
G01*
G37*
G36*
G01*
X208725000Y-89537500D02*
X208725000Y-89062500D01*
G75*
G02*
X208962500Y-88825000I237500J0D01*
G01*
X209562500Y-88825000D01*
G75*
G02*
X209800000Y-89062500I0J-237500D01*
G01*
X209800000Y-89537500D01*
G75*
G02*
X209562500Y-89775000I-237500J0D01*
G01*
X208962500Y-89775000D01*
G75*
G02*
X208725000Y-89537500I0J237500D01*
G01*
G37*
G36*
G01*
X207000000Y-89537500D02*
X207000000Y-89062500D01*
G75*
G02*
X207237500Y-88825000I237500J0D01*
G01*
X207837500Y-88825000D01*
G75*
G02*
X208075000Y-89062500I0J-237500D01*
G01*
X208075000Y-89537500D01*
G75*
G02*
X207837500Y-89775000I-237500J0D01*
G01*
X207237500Y-89775000D01*
G75*
G02*
X207000000Y-89537500I0J237500D01*
G01*
G37*
G36*
G01*
X220525000Y-89391500D02*
X220525000Y-88916500D01*
G75*
G02*
X220762500Y-88679000I237500J0D01*
G01*
X221362500Y-88679000D01*
G75*
G02*
X221600000Y-88916500I0J-237500D01*
G01*
X221600000Y-89391500D01*
G75*
G02*
X221362500Y-89629000I-237500J0D01*
G01*
X220762500Y-89629000D01*
G75*
G02*
X220525000Y-89391500I0J237500D01*
G01*
G37*
G36*
G01*
X218800000Y-89391500D02*
X218800000Y-88916500D01*
G75*
G02*
X219037500Y-88679000I237500J0D01*
G01*
X219637500Y-88679000D01*
G75*
G02*
X219875000Y-88916500I0J-237500D01*
G01*
X219875000Y-89391500D01*
G75*
G02*
X219637500Y-89629000I-237500J0D01*
G01*
X219037500Y-89629000D01*
G75*
G02*
X218800000Y-89391500I0J237500D01*
G01*
G37*
G36*
G01*
X238435000Y-89043500D02*
X238435000Y-89518500D01*
G75*
G02*
X238197500Y-89756000I-237500J0D01*
G01*
X237597500Y-89756000D01*
G75*
G02*
X237360000Y-89518500I0J237500D01*
G01*
X237360000Y-89043500D01*
G75*
G02*
X237597500Y-88806000I237500J0D01*
G01*
X238197500Y-88806000D01*
G75*
G02*
X238435000Y-89043500I0J-237500D01*
G01*
G37*
G36*
G01*
X240160000Y-89043500D02*
X240160000Y-89518500D01*
G75*
G02*
X239922500Y-89756000I-237500J0D01*
G01*
X239322500Y-89756000D01*
G75*
G02*
X239085000Y-89518500I0J237500D01*
G01*
X239085000Y-89043500D01*
G75*
G02*
X239322500Y-88806000I237500J0D01*
G01*
X239922500Y-88806000D01*
G75*
G02*
X240160000Y-89043500I0J-237500D01*
G01*
G37*
G36*
G01*
X223812500Y-108037500D02*
X223812500Y-107562500D01*
G75*
G02*
X224050000Y-107325000I237500J0D01*
G01*
X224650000Y-107325000D01*
G75*
G02*
X224887500Y-107562500I0J-237500D01*
G01*
X224887500Y-108037500D01*
G75*
G02*
X224650000Y-108275000I-237500J0D01*
G01*
X224050000Y-108275000D01*
G75*
G02*
X223812500Y-108037500I0J237500D01*
G01*
G37*
G36*
G01*
X222087500Y-108037500D02*
X222087500Y-107562500D01*
G75*
G02*
X222325000Y-107325000I237500J0D01*
G01*
X222925000Y-107325000D01*
G75*
G02*
X223162500Y-107562500I0J-237500D01*
G01*
X223162500Y-108037500D01*
G75*
G02*
X222925000Y-108275000I-237500J0D01*
G01*
X222325000Y-108275000D01*
G75*
G02*
X222087500Y-108037500I0J237500D01*
G01*
G37*
G36*
G01*
X214512500Y-102125000D02*
X214987500Y-102125000D01*
G75*
G02*
X215225000Y-102362500I0J-237500D01*
G01*
X215225000Y-102962500D01*
G75*
G02*
X214987500Y-103200000I-237500J0D01*
G01*
X214512500Y-103200000D01*
G75*
G02*
X214275000Y-102962500I0J237500D01*
G01*
X214275000Y-102362500D01*
G75*
G02*
X214512500Y-102125000I237500J0D01*
G01*
G37*
G36*
G01*
X214512500Y-100400000D02*
X214987500Y-100400000D01*
G75*
G02*
X215225000Y-100637500I0J-237500D01*
G01*
X215225000Y-101237500D01*
G75*
G02*
X214987500Y-101475000I-237500J0D01*
G01*
X214512500Y-101475000D01*
G75*
G02*
X214275000Y-101237500I0J237500D01*
G01*
X214275000Y-100637500D01*
G75*
G02*
X214512500Y-100400000I237500J0D01*
G01*
G37*
G36*
G01*
X223975000Y-91412500D02*
X223975000Y-91887500D01*
G75*
G02*
X223737500Y-92125000I-237500J0D01*
G01*
X223137500Y-92125000D01*
G75*
G02*
X222900000Y-91887500I0J237500D01*
G01*
X222900000Y-91412500D01*
G75*
G02*
X223137500Y-91175000I237500J0D01*
G01*
X223737500Y-91175000D01*
G75*
G02*
X223975000Y-91412500I0J-237500D01*
G01*
G37*
G36*
G01*
X225700000Y-91412500D02*
X225700000Y-91887500D01*
G75*
G02*
X225462500Y-92125000I-237500J0D01*
G01*
X224862500Y-92125000D01*
G75*
G02*
X224625000Y-91887500I0J237500D01*
G01*
X224625000Y-91412500D01*
G75*
G02*
X224862500Y-91175000I237500J0D01*
G01*
X225462500Y-91175000D01*
G75*
G02*
X225700000Y-91412500I0J-237500D01*
G01*
G37*
G36*
G01*
X219525000Y-108037500D02*
X219525000Y-107562500D01*
G75*
G02*
X219762500Y-107325000I237500J0D01*
G01*
X220362500Y-107325000D01*
G75*
G02*
X220600000Y-107562500I0J-237500D01*
G01*
X220600000Y-108037500D01*
G75*
G02*
X220362500Y-108275000I-237500J0D01*
G01*
X219762500Y-108275000D01*
G75*
G02*
X219525000Y-108037500I0J237500D01*
G01*
G37*
G36*
G01*
X217800000Y-108037500D02*
X217800000Y-107562500D01*
G75*
G02*
X218037500Y-107325000I237500J0D01*
G01*
X218637500Y-107325000D01*
G75*
G02*
X218875000Y-107562500I0J-237500D01*
G01*
X218875000Y-108037500D01*
G75*
G02*
X218637500Y-108275000I-237500J0D01*
G01*
X218037500Y-108275000D01*
G75*
G02*
X217800000Y-108037500I0J237500D01*
G01*
G37*
G36*
G01*
X228544000Y-91931500D02*
X228544000Y-91456500D01*
G75*
G02*
X228781500Y-91219000I237500J0D01*
G01*
X229381500Y-91219000D01*
G75*
G02*
X229619000Y-91456500I0J-237500D01*
G01*
X229619000Y-91931500D01*
G75*
G02*
X229381500Y-92169000I-237500J0D01*
G01*
X228781500Y-92169000D01*
G75*
G02*
X228544000Y-91931500I0J237500D01*
G01*
G37*
G36*
G01*
X226819000Y-91931500D02*
X226819000Y-91456500D01*
G75*
G02*
X227056500Y-91219000I237500J0D01*
G01*
X227656500Y-91219000D01*
G75*
G02*
X227894000Y-91456500I0J-237500D01*
G01*
X227894000Y-91931500D01*
G75*
G02*
X227656500Y-92169000I-237500J0D01*
G01*
X227056500Y-92169000D01*
G75*
G02*
X226819000Y-91931500I0J237500D01*
G01*
G37*
G36*
G01*
X215037500Y-96975000D02*
X214562500Y-96975000D01*
G75*
G02*
X214325000Y-96737500I0J237500D01*
G01*
X214325000Y-96137500D01*
G75*
G02*
X214562500Y-95900000I237500J0D01*
G01*
X215037500Y-95900000D01*
G75*
G02*
X215275000Y-96137500I0J-237500D01*
G01*
X215275000Y-96737500D01*
G75*
G02*
X215037500Y-96975000I-237500J0D01*
G01*
G37*
G36*
G01*
X215037500Y-98700000D02*
X214562500Y-98700000D01*
G75*
G02*
X214325000Y-98462500I0J237500D01*
G01*
X214325000Y-97862500D01*
G75*
G02*
X214562500Y-97625000I237500J0D01*
G01*
X215037500Y-97625000D01*
G75*
G02*
X215275000Y-97862500I0J-237500D01*
G01*
X215275000Y-98462500D01*
G75*
G02*
X215037500Y-98700000I-237500J0D01*
G01*
G37*
G36*
G01*
X227925000Y-108037500D02*
X227925000Y-107562500D01*
G75*
G02*
X228162500Y-107325000I237500J0D01*
G01*
X228762500Y-107325000D01*
G75*
G02*
X229000000Y-107562500I0J-237500D01*
G01*
X229000000Y-108037500D01*
G75*
G02*
X228762500Y-108275000I-237500J0D01*
G01*
X228162500Y-108275000D01*
G75*
G02*
X227925000Y-108037500I0J237500D01*
G01*
G37*
G36*
G01*
X226200000Y-108037500D02*
X226200000Y-107562500D01*
G75*
G02*
X226437500Y-107325000I237500J0D01*
G01*
X227037500Y-107325000D01*
G75*
G02*
X227275000Y-107562500I0J-237500D01*
G01*
X227275000Y-108037500D01*
G75*
G02*
X227037500Y-108275000I-237500J0D01*
G01*
X226437500Y-108275000D01*
G75*
G02*
X226200000Y-108037500I0J237500D01*
G01*
G37*
G36*
G01*
X238625000Y-74762500D02*
X238625000Y-75237500D01*
G75*
G02*
X238387500Y-75475000I-237500J0D01*
G01*
X237787500Y-75475000D01*
G75*
G02*
X237550000Y-75237500I0J237500D01*
G01*
X237550000Y-74762500D01*
G75*
G02*
X237787500Y-74525000I237500J0D01*
G01*
X238387500Y-74525000D01*
G75*
G02*
X238625000Y-74762500I0J-237500D01*
G01*
G37*
G36*
G01*
X240350000Y-74762500D02*
X240350000Y-75237500D01*
G75*
G02*
X240112500Y-75475000I-237500J0D01*
G01*
X239512500Y-75475000D01*
G75*
G02*
X239275000Y-75237500I0J237500D01*
G01*
X239275000Y-74762500D01*
G75*
G02*
X239512500Y-74525000I237500J0D01*
G01*
X240112500Y-74525000D01*
G75*
G02*
X240350000Y-74762500I0J-237500D01*
G01*
G37*
G36*
G01*
X220525000Y-75237500D02*
X220525000Y-74762500D01*
G75*
G02*
X220762500Y-74525000I237500J0D01*
G01*
X221362500Y-74525000D01*
G75*
G02*
X221600000Y-74762500I0J-237500D01*
G01*
X221600000Y-75237500D01*
G75*
G02*
X221362500Y-75475000I-237500J0D01*
G01*
X220762500Y-75475000D01*
G75*
G02*
X220525000Y-75237500I0J237500D01*
G01*
G37*
G36*
G01*
X218800000Y-75237500D02*
X218800000Y-74762500D01*
G75*
G02*
X219037500Y-74525000I237500J0D01*
G01*
X219637500Y-74525000D01*
G75*
G02*
X219875000Y-74762500I0J-237500D01*
G01*
X219875000Y-75237500D01*
G75*
G02*
X219637500Y-75475000I-237500J0D01*
G01*
X219037500Y-75475000D01*
G75*
G02*
X218800000Y-75237500I0J237500D01*
G01*
G37*
G36*
G01*
X208775000Y-75337500D02*
X208775000Y-74862500D01*
G75*
G02*
X209012500Y-74625000I237500J0D01*
G01*
X209612500Y-74625000D01*
G75*
G02*
X209850000Y-74862500I0J-237500D01*
G01*
X209850000Y-75337500D01*
G75*
G02*
X209612500Y-75575000I-237500J0D01*
G01*
X209012500Y-75575000D01*
G75*
G02*
X208775000Y-75337500I0J237500D01*
G01*
G37*
G36*
G01*
X207050000Y-75337500D02*
X207050000Y-74862500D01*
G75*
G02*
X207287500Y-74625000I237500J0D01*
G01*
X207887500Y-74625000D01*
G75*
G02*
X208125000Y-74862500I0J-237500D01*
G01*
X208125000Y-75337500D01*
G75*
G02*
X207887500Y-75575000I-237500J0D01*
G01*
X207287500Y-75575000D01*
G75*
G02*
X207050000Y-75337500I0J237500D01*
G01*
G37*
G36*
G01*
X231577000Y-68342500D02*
X231577000Y-68817500D01*
G75*
G02*
X231339500Y-69055000I-237500J0D01*
G01*
X230739500Y-69055000D01*
G75*
G02*
X230502000Y-68817500I0J237500D01*
G01*
X230502000Y-68342500D01*
G75*
G02*
X230739500Y-68105000I237500J0D01*
G01*
X231339500Y-68105000D01*
G75*
G02*
X231577000Y-68342500I0J-237500D01*
G01*
G37*
G36*
G01*
X233302000Y-68342500D02*
X233302000Y-68817500D01*
G75*
G02*
X233064500Y-69055000I-237500J0D01*
G01*
X232464500Y-69055000D01*
G75*
G02*
X232227000Y-68817500I0J237500D01*
G01*
X232227000Y-68342500D01*
G75*
G02*
X232464500Y-68105000I237500J0D01*
G01*
X233064500Y-68105000D01*
G75*
G02*
X233302000Y-68342500I0J-237500D01*
G01*
G37*
G36*
G01*
X231577000Y-59692500D02*
X231577000Y-60167500D01*
G75*
G02*
X231339500Y-60405000I-237500J0D01*
G01*
X230739500Y-60405000D01*
G75*
G02*
X230502000Y-60167500I0J237500D01*
G01*
X230502000Y-59692500D01*
G75*
G02*
X230739500Y-59455000I237500J0D01*
G01*
X231339500Y-59455000D01*
G75*
G02*
X231577000Y-59692500I0J-237500D01*
G01*
G37*
G36*
G01*
X233302000Y-59692500D02*
X233302000Y-60167500D01*
G75*
G02*
X233064500Y-60405000I-237500J0D01*
G01*
X232464500Y-60405000D01*
G75*
G02*
X232227000Y-60167500I0J237500D01*
G01*
X232227000Y-59692500D01*
G75*
G02*
X232464500Y-59455000I237500J0D01*
G01*
X233064500Y-59455000D01*
G75*
G02*
X233302000Y-59692500I0J-237500D01*
G01*
G37*
G36*
G01*
X231323000Y-51292500D02*
X231323000Y-51767500D01*
G75*
G02*
X231085500Y-52005000I-237500J0D01*
G01*
X230485500Y-52005000D01*
G75*
G02*
X230248000Y-51767500I0J237500D01*
G01*
X230248000Y-51292500D01*
G75*
G02*
X230485500Y-51055000I237500J0D01*
G01*
X231085500Y-51055000D01*
G75*
G02*
X231323000Y-51292500I0J-237500D01*
G01*
G37*
G36*
G01*
X233048000Y-51292500D02*
X233048000Y-51767500D01*
G75*
G02*
X232810500Y-52005000I-237500J0D01*
G01*
X232210500Y-52005000D01*
G75*
G02*
X231973000Y-51767500I0J237500D01*
G01*
X231973000Y-51292500D01*
G75*
G02*
X232210500Y-51055000I237500J0D01*
G01*
X232810500Y-51055000D01*
G75*
G02*
X233048000Y-51292500I0J-237500D01*
G01*
G37*
G36*
G01*
X145975000Y-90162500D02*
X145975000Y-90637500D01*
G75*
G02*
X145737500Y-90875000I-237500J0D01*
G01*
X145137500Y-90875000D01*
G75*
G02*
X144900000Y-90637500I0J237500D01*
G01*
X144900000Y-90162500D01*
G75*
G02*
X145137500Y-89925000I237500J0D01*
G01*
X145737500Y-89925000D01*
G75*
G02*
X145975000Y-90162500I0J-237500D01*
G01*
G37*
G36*
G01*
X147700000Y-90162500D02*
X147700000Y-90637500D01*
G75*
G02*
X147462500Y-90875000I-237500J0D01*
G01*
X146862500Y-90875000D01*
G75*
G02*
X146625000Y-90637500I0J237500D01*
G01*
X146625000Y-90162500D01*
G75*
G02*
X146862500Y-89925000I237500J0D01*
G01*
X147462500Y-89925000D01*
G75*
G02*
X147700000Y-90162500I0J-237500D01*
G01*
G37*
G36*
G01*
X149975000Y-90162500D02*
X149975000Y-90637500D01*
G75*
G02*
X149737500Y-90875000I-237500J0D01*
G01*
X149137500Y-90875000D01*
G75*
G02*
X148900000Y-90637500I0J237500D01*
G01*
X148900000Y-90162500D01*
G75*
G02*
X149137500Y-89925000I237500J0D01*
G01*
X149737500Y-89925000D01*
G75*
G02*
X149975000Y-90162500I0J-237500D01*
G01*
G37*
G36*
G01*
X151700000Y-90162500D02*
X151700000Y-90637500D01*
G75*
G02*
X151462500Y-90875000I-237500J0D01*
G01*
X150862500Y-90875000D01*
G75*
G02*
X150625000Y-90637500I0J237500D01*
G01*
X150625000Y-90162500D01*
G75*
G02*
X150862500Y-89925000I237500J0D01*
G01*
X151462500Y-89925000D01*
G75*
G02*
X151700000Y-90162500I0J-237500D01*
G01*
G37*
G36*
G01*
X147015800Y-99075500D02*
X147015800Y-98600500D01*
G75*
G02*
X147253300Y-98363000I237500J0D01*
G01*
X147853300Y-98363000D01*
G75*
G02*
X148090800Y-98600500I0J-237500D01*
G01*
X148090800Y-99075500D01*
G75*
G02*
X147853300Y-99313000I-237500J0D01*
G01*
X147253300Y-99313000D01*
G75*
G02*
X147015800Y-99075500I0J237500D01*
G01*
G37*
G36*
G01*
X145290800Y-99075500D02*
X145290800Y-98600500D01*
G75*
G02*
X145528300Y-98363000I237500J0D01*
G01*
X146128300Y-98363000D01*
G75*
G02*
X146365800Y-98600500I0J-237500D01*
G01*
X146365800Y-99075500D01*
G75*
G02*
X146128300Y-99313000I-237500J0D01*
G01*
X145528300Y-99313000D01*
G75*
G02*
X145290800Y-99075500I0J237500D01*
G01*
G37*
G36*
G01*
X147015800Y-102758500D02*
X147015800Y-102283500D01*
G75*
G02*
X147253300Y-102046000I237500J0D01*
G01*
X147853300Y-102046000D01*
G75*
G02*
X148090800Y-102283500I0J-237500D01*
G01*
X148090800Y-102758500D01*
G75*
G02*
X147853300Y-102996000I-237500J0D01*
G01*
X147253300Y-102996000D01*
G75*
G02*
X147015800Y-102758500I0J237500D01*
G01*
G37*
G36*
G01*
X145290800Y-102758500D02*
X145290800Y-102283500D01*
G75*
G02*
X145528300Y-102046000I237500J0D01*
G01*
X146128300Y-102046000D01*
G75*
G02*
X146365800Y-102283500I0J-237500D01*
G01*
X146365800Y-102758500D01*
G75*
G02*
X146128300Y-102996000I-237500J0D01*
G01*
X145528300Y-102996000D01*
G75*
G02*
X145290800Y-102758500I0J237500D01*
G01*
G37*
G36*
G01*
X147015800Y-104663500D02*
X147015800Y-104188500D01*
G75*
G02*
X147253300Y-103951000I237500J0D01*
G01*
X147853300Y-103951000D01*
G75*
G02*
X148090800Y-104188500I0J-237500D01*
G01*
X148090800Y-104663500D01*
G75*
G02*
X147853300Y-104901000I-237500J0D01*
G01*
X147253300Y-104901000D01*
G75*
G02*
X147015800Y-104663500I0J237500D01*
G01*
G37*
G36*
G01*
X145290800Y-104663500D02*
X145290800Y-104188500D01*
G75*
G02*
X145528300Y-103951000I237500J0D01*
G01*
X146128300Y-103951000D01*
G75*
G02*
X146365800Y-104188500I0J-237500D01*
G01*
X146365800Y-104663500D01*
G75*
G02*
X146128300Y-104901000I-237500J0D01*
G01*
X145528300Y-104901000D01*
G75*
G02*
X145290800Y-104663500I0J237500D01*
G01*
G37*
G36*
G01*
X156662500Y-79025000D02*
X157137500Y-79025000D01*
G75*
G02*
X157375000Y-79262500I0J-237500D01*
G01*
X157375000Y-79862500D01*
G75*
G02*
X157137500Y-80100000I-237500J0D01*
G01*
X156662500Y-80100000D01*
G75*
G02*
X156425000Y-79862500I0J237500D01*
G01*
X156425000Y-79262500D01*
G75*
G02*
X156662500Y-79025000I237500J0D01*
G01*
G37*
G36*
G01*
X156662500Y-77300000D02*
X157137500Y-77300000D01*
G75*
G02*
X157375000Y-77537500I0J-237500D01*
G01*
X157375000Y-78137500D01*
G75*
G02*
X157137500Y-78375000I-237500J0D01*
G01*
X156662500Y-78375000D01*
G75*
G02*
X156425000Y-78137500I0J237500D01*
G01*
X156425000Y-77537500D01*
G75*
G02*
X156662500Y-77300000I237500J0D01*
G01*
G37*
G36*
G01*
X159262500Y-79025000D02*
X159737500Y-79025000D01*
G75*
G02*
X159975000Y-79262500I0J-237500D01*
G01*
X159975000Y-79862500D01*
G75*
G02*
X159737500Y-80100000I-237500J0D01*
G01*
X159262500Y-80100000D01*
G75*
G02*
X159025000Y-79862500I0J237500D01*
G01*
X159025000Y-79262500D01*
G75*
G02*
X159262500Y-79025000I237500J0D01*
G01*
G37*
G36*
G01*
X159262500Y-77300000D02*
X159737500Y-77300000D01*
G75*
G02*
X159975000Y-77537500I0J-237500D01*
G01*
X159975000Y-78137500D01*
G75*
G02*
X159737500Y-78375000I-237500J0D01*
G01*
X159262500Y-78375000D01*
G75*
G02*
X159025000Y-78137500I0J237500D01*
G01*
X159025000Y-77537500D01*
G75*
G02*
X159262500Y-77300000I237500J0D01*
G01*
G37*
G36*
G01*
X154062500Y-79025000D02*
X154537500Y-79025000D01*
G75*
G02*
X154775000Y-79262500I0J-237500D01*
G01*
X154775000Y-79862500D01*
G75*
G02*
X154537500Y-80100000I-237500J0D01*
G01*
X154062500Y-80100000D01*
G75*
G02*
X153825000Y-79862500I0J237500D01*
G01*
X153825000Y-79262500D01*
G75*
G02*
X154062500Y-79025000I237500J0D01*
G01*
G37*
G36*
G01*
X154062500Y-77300000D02*
X154537500Y-77300000D01*
G75*
G02*
X154775000Y-77537500I0J-237500D01*
G01*
X154775000Y-78137500D01*
G75*
G02*
X154537500Y-78375000I-237500J0D01*
G01*
X154062500Y-78375000D01*
G75*
G02*
X153825000Y-78137500I0J237500D01*
G01*
X153825000Y-77537500D01*
G75*
G02*
X154062500Y-77300000I237500J0D01*
G01*
G37*
G36*
G01*
X157962500Y-79025000D02*
X158437500Y-79025000D01*
G75*
G02*
X158675000Y-79262500I0J-237500D01*
G01*
X158675000Y-79862500D01*
G75*
G02*
X158437500Y-80100000I-237500J0D01*
G01*
X157962500Y-80100000D01*
G75*
G02*
X157725000Y-79862500I0J237500D01*
G01*
X157725000Y-79262500D01*
G75*
G02*
X157962500Y-79025000I237500J0D01*
G01*
G37*
G36*
G01*
X157962500Y-77300000D02*
X158437500Y-77300000D01*
G75*
G02*
X158675000Y-77537500I0J-237500D01*
G01*
X158675000Y-78137500D01*
G75*
G02*
X158437500Y-78375000I-237500J0D01*
G01*
X157962500Y-78375000D01*
G75*
G02*
X157725000Y-78137500I0J237500D01*
G01*
X157725000Y-77537500D01*
G75*
G02*
X157962500Y-77300000I237500J0D01*
G01*
G37*
G36*
G01*
X155362500Y-79025000D02*
X155837500Y-79025000D01*
G75*
G02*
X156075000Y-79262500I0J-237500D01*
G01*
X156075000Y-79862500D01*
G75*
G02*
X155837500Y-80100000I-237500J0D01*
G01*
X155362500Y-80100000D01*
G75*
G02*
X155125000Y-79862500I0J237500D01*
G01*
X155125000Y-79262500D01*
G75*
G02*
X155362500Y-79025000I237500J0D01*
G01*
G37*
G36*
G01*
X155362500Y-77300000D02*
X155837500Y-77300000D01*
G75*
G02*
X156075000Y-77537500I0J-237500D01*
G01*
X156075000Y-78137500D01*
G75*
G02*
X155837500Y-78375000I-237500J0D01*
G01*
X155362500Y-78375000D01*
G75*
G02*
X155125000Y-78137500I0J237500D01*
G01*
X155125000Y-77537500D01*
G75*
G02*
X155362500Y-77300000I237500J0D01*
G01*
G37*
G36*
G01*
X166282500Y-95992200D02*
X166757500Y-95992200D01*
G75*
G02*
X166995000Y-96229700I0J-237500D01*
G01*
X166995000Y-96829700D01*
G75*
G02*
X166757500Y-97067200I-237500J0D01*
G01*
X166282500Y-97067200D01*
G75*
G02*
X166045000Y-96829700I0J237500D01*
G01*
X166045000Y-96229700D01*
G75*
G02*
X166282500Y-95992200I237500J0D01*
G01*
G37*
G36*
G01*
X166282500Y-94267200D02*
X166757500Y-94267200D01*
G75*
G02*
X166995000Y-94504700I0J-237500D01*
G01*
X166995000Y-95104700D01*
G75*
G02*
X166757500Y-95342200I-237500J0D01*
G01*
X166282500Y-95342200D01*
G75*
G02*
X166045000Y-95104700I0J237500D01*
G01*
X166045000Y-94504700D01*
G75*
G02*
X166282500Y-94267200I237500J0D01*
G01*
G37*
G36*
G01*
X178880500Y-95942200D02*
X179355500Y-95942200D01*
G75*
G02*
X179593000Y-96179700I0J-237500D01*
G01*
X179593000Y-96779700D01*
G75*
G02*
X179355500Y-97017200I-237500J0D01*
G01*
X178880500Y-97017200D01*
G75*
G02*
X178643000Y-96779700I0J237500D01*
G01*
X178643000Y-96179700D01*
G75*
G02*
X178880500Y-95942200I237500J0D01*
G01*
G37*
G36*
G01*
X178880500Y-94217200D02*
X179355500Y-94217200D01*
G75*
G02*
X179593000Y-94454700I0J-237500D01*
G01*
X179593000Y-95054700D01*
G75*
G02*
X179355500Y-95292200I-237500J0D01*
G01*
X178880500Y-95292200D01*
G75*
G02*
X178643000Y-95054700I0J237500D01*
G01*
X178643000Y-94454700D01*
G75*
G02*
X178880500Y-94217200I237500J0D01*
G01*
G37*
G36*
G01*
X153857500Y-95967200D02*
X154332500Y-95967200D01*
G75*
G02*
X154570000Y-96204700I0J-237500D01*
G01*
X154570000Y-96804700D01*
G75*
G02*
X154332500Y-97042200I-237500J0D01*
G01*
X153857500Y-97042200D01*
G75*
G02*
X153620000Y-96804700I0J237500D01*
G01*
X153620000Y-96204700D01*
G75*
G02*
X153857500Y-95967200I237500J0D01*
G01*
G37*
G36*
G01*
X153857500Y-94242200D02*
X154332500Y-94242200D01*
G75*
G02*
X154570000Y-94479700I0J-237500D01*
G01*
X154570000Y-95079700D01*
G75*
G02*
X154332500Y-95317200I-237500J0D01*
G01*
X153857500Y-95317200D01*
G75*
G02*
X153620000Y-95079700I0J237500D01*
G01*
X153620000Y-94479700D01*
G75*
G02*
X153857500Y-94242200I237500J0D01*
G01*
G37*
G36*
G01*
X172555500Y-96017200D02*
X173030500Y-96017200D01*
G75*
G02*
X173268000Y-96254700I0J-237500D01*
G01*
X173268000Y-96854700D01*
G75*
G02*
X173030500Y-97092200I-237500J0D01*
G01*
X172555500Y-97092200D01*
G75*
G02*
X172318000Y-96854700I0J237500D01*
G01*
X172318000Y-96254700D01*
G75*
G02*
X172555500Y-96017200I237500J0D01*
G01*
G37*
G36*
G01*
X172555500Y-94292200D02*
X173030500Y-94292200D01*
G75*
G02*
X173268000Y-94529700I0J-237500D01*
G01*
X173268000Y-95129700D01*
G75*
G02*
X173030500Y-95367200I-237500J0D01*
G01*
X172555500Y-95367200D01*
G75*
G02*
X172318000Y-95129700I0J237500D01*
G01*
X172318000Y-94529700D01*
G75*
G02*
X172555500Y-94292200I237500J0D01*
G01*
G37*
G36*
G01*
X160186500Y-95992200D02*
X160661500Y-95992200D01*
G75*
G02*
X160899000Y-96229700I0J-237500D01*
G01*
X160899000Y-96829700D01*
G75*
G02*
X160661500Y-97067200I-237500J0D01*
G01*
X160186500Y-97067200D01*
G75*
G02*
X159949000Y-96829700I0J237500D01*
G01*
X159949000Y-96229700D01*
G75*
G02*
X160186500Y-95992200I237500J0D01*
G01*
G37*
G36*
G01*
X160186500Y-94267200D02*
X160661500Y-94267200D01*
G75*
G02*
X160899000Y-94504700I0J-237500D01*
G01*
X160899000Y-95104700D01*
G75*
G02*
X160661500Y-95342200I-237500J0D01*
G01*
X160186500Y-95342200D01*
G75*
G02*
X159949000Y-95104700I0J237500D01*
G01*
X159949000Y-94504700D01*
G75*
G02*
X160186500Y-94267200I237500J0D01*
G01*
G37*
G36*
G01*
X178745000Y-17923500D02*
X178745000Y-18398500D01*
G75*
G02*
X178507500Y-18636000I-237500J0D01*
G01*
X177907500Y-18636000D01*
G75*
G02*
X177670000Y-18398500I0J237500D01*
G01*
X177670000Y-17923500D01*
G75*
G02*
X177907500Y-17686000I237500J0D01*
G01*
X178507500Y-17686000D01*
G75*
G02*
X178745000Y-17923500I0J-237500D01*
G01*
G37*
G36*
G01*
X180470000Y-17923500D02*
X180470000Y-18398500D01*
G75*
G02*
X180232500Y-18636000I-237500J0D01*
G01*
X179632500Y-18636000D01*
G75*
G02*
X179395000Y-18398500I0J237500D01*
G01*
X179395000Y-17923500D01*
G75*
G02*
X179632500Y-17686000I237500J0D01*
G01*
X180232500Y-17686000D01*
G75*
G02*
X180470000Y-17923500I0J-237500D01*
G01*
G37*
G36*
G01*
X179395000Y-34908500D02*
X179395000Y-34433500D01*
G75*
G02*
X179632500Y-34196000I237500J0D01*
G01*
X180232500Y-34196000D01*
G75*
G02*
X180470000Y-34433500I0J-237500D01*
G01*
X180470000Y-34908500D01*
G75*
G02*
X180232500Y-35146000I-237500J0D01*
G01*
X179632500Y-35146000D01*
G75*
G02*
X179395000Y-34908500I0J237500D01*
G01*
G37*
G36*
G01*
X177670000Y-34908500D02*
X177670000Y-34433500D01*
G75*
G02*
X177907500Y-34196000I237500J0D01*
G01*
X178507500Y-34196000D01*
G75*
G02*
X178745000Y-34433500I0J-237500D01*
G01*
X178745000Y-34908500D01*
G75*
G02*
X178507500Y-35146000I-237500J0D01*
G01*
X177907500Y-35146000D01*
G75*
G02*
X177670000Y-34908500I0J237500D01*
G01*
G37*
G36*
G01*
X179395000Y-24240500D02*
X179395000Y-23765500D01*
G75*
G02*
X179632500Y-23528000I237500J0D01*
G01*
X180232500Y-23528000D01*
G75*
G02*
X180470000Y-23765500I0J-237500D01*
G01*
X180470000Y-24240500D01*
G75*
G02*
X180232500Y-24478000I-237500J0D01*
G01*
X179632500Y-24478000D01*
G75*
G02*
X179395000Y-24240500I0J237500D01*
G01*
G37*
G36*
G01*
X177670000Y-24240500D02*
X177670000Y-23765500D01*
G75*
G02*
X177907500Y-23528000I237500J0D01*
G01*
X178507500Y-23528000D01*
G75*
G02*
X178745000Y-23765500I0J-237500D01*
G01*
X178745000Y-24240500D01*
G75*
G02*
X178507500Y-24478000I-237500J0D01*
G01*
X177907500Y-24478000D01*
G75*
G02*
X177670000Y-24240500I0J237500D01*
G01*
G37*
D20*
X162674600Y-19496400D03*
X160134600Y-19496400D03*
D21*
X157594600Y-19496400D03*
G36*
G01*
X239727800Y-85719400D02*
X240027800Y-85719400D01*
G75*
G02*
X240177800Y-85869400I0J-150000D01*
G01*
X240177800Y-87619400D01*
G75*
G02*
X240027800Y-87769400I-150000J0D01*
G01*
X239727800Y-87769400D01*
G75*
G02*
X239577800Y-87619400I0J150000D01*
G01*
X239577800Y-85869400D01*
G75*
G02*
X239727800Y-85719400I150000J0D01*
G01*
G37*
G36*
G01*
X238457800Y-85719400D02*
X238757800Y-85719400D01*
G75*
G02*
X238907800Y-85869400I0J-150000D01*
G01*
X238907800Y-87619400D01*
G75*
G02*
X238757800Y-87769400I-150000J0D01*
G01*
X238457800Y-87769400D01*
G75*
G02*
X238307800Y-87619400I0J150000D01*
G01*
X238307800Y-85869400D01*
G75*
G02*
X238457800Y-85719400I150000J0D01*
G01*
G37*
G36*
G01*
X237187800Y-85719400D02*
X237487800Y-85719400D01*
G75*
G02*
X237637800Y-85869400I0J-150000D01*
G01*
X237637800Y-87619400D01*
G75*
G02*
X237487800Y-87769400I-150000J0D01*
G01*
X237187800Y-87769400D01*
G75*
G02*
X237037800Y-87619400I0J150000D01*
G01*
X237037800Y-85869400D01*
G75*
G02*
X237187800Y-85719400I150000J0D01*
G01*
G37*
G36*
G01*
X235917800Y-85719400D02*
X236217800Y-85719400D01*
G75*
G02*
X236367800Y-85869400I0J-150000D01*
G01*
X236367800Y-87619400D01*
G75*
G02*
X236217800Y-87769400I-150000J0D01*
G01*
X235917800Y-87769400D01*
G75*
G02*
X235767800Y-87619400I0J150000D01*
G01*
X235767800Y-85869400D01*
G75*
G02*
X235917800Y-85719400I150000J0D01*
G01*
G37*
G36*
G01*
X234647800Y-85719400D02*
X234947800Y-85719400D01*
G75*
G02*
X235097800Y-85869400I0J-150000D01*
G01*
X235097800Y-87619400D01*
G75*
G02*
X234947800Y-87769400I-150000J0D01*
G01*
X234647800Y-87769400D01*
G75*
G02*
X234497800Y-87619400I0J150000D01*
G01*
X234497800Y-85869400D01*
G75*
G02*
X234647800Y-85719400I150000J0D01*
G01*
G37*
G36*
G01*
X233377800Y-85719400D02*
X233677800Y-85719400D01*
G75*
G02*
X233827800Y-85869400I0J-150000D01*
G01*
X233827800Y-87619400D01*
G75*
G02*
X233677800Y-87769400I-150000J0D01*
G01*
X233377800Y-87769400D01*
G75*
G02*
X233227800Y-87619400I0J150000D01*
G01*
X233227800Y-85869400D01*
G75*
G02*
X233377800Y-85719400I150000J0D01*
G01*
G37*
G36*
G01*
X232107800Y-85719400D02*
X232407800Y-85719400D01*
G75*
G02*
X232557800Y-85869400I0J-150000D01*
G01*
X232557800Y-87619400D01*
G75*
G02*
X232407800Y-87769400I-150000J0D01*
G01*
X232107800Y-87769400D01*
G75*
G02*
X231957800Y-87619400I0J150000D01*
G01*
X231957800Y-85869400D01*
G75*
G02*
X232107800Y-85719400I150000J0D01*
G01*
G37*
G36*
G01*
X230837800Y-85719400D02*
X231137800Y-85719400D01*
G75*
G02*
X231287800Y-85869400I0J-150000D01*
G01*
X231287800Y-87619400D01*
G75*
G02*
X231137800Y-87769400I-150000J0D01*
G01*
X230837800Y-87769400D01*
G75*
G02*
X230687800Y-87619400I0J150000D01*
G01*
X230687800Y-85869400D01*
G75*
G02*
X230837800Y-85719400I150000J0D01*
G01*
G37*
G36*
G01*
X230837800Y-76419400D02*
X231137800Y-76419400D01*
G75*
G02*
X231287800Y-76569400I0J-150000D01*
G01*
X231287800Y-78319400D01*
G75*
G02*
X231137800Y-78469400I-150000J0D01*
G01*
X230837800Y-78469400D01*
G75*
G02*
X230687800Y-78319400I0J150000D01*
G01*
X230687800Y-76569400D01*
G75*
G02*
X230837800Y-76419400I150000J0D01*
G01*
G37*
G36*
G01*
X232107800Y-76419400D02*
X232407800Y-76419400D01*
G75*
G02*
X232557800Y-76569400I0J-150000D01*
G01*
X232557800Y-78319400D01*
G75*
G02*
X232407800Y-78469400I-150000J0D01*
G01*
X232107800Y-78469400D01*
G75*
G02*
X231957800Y-78319400I0J150000D01*
G01*
X231957800Y-76569400D01*
G75*
G02*
X232107800Y-76419400I150000J0D01*
G01*
G37*
G36*
G01*
X233377800Y-76419400D02*
X233677800Y-76419400D01*
G75*
G02*
X233827800Y-76569400I0J-150000D01*
G01*
X233827800Y-78319400D01*
G75*
G02*
X233677800Y-78469400I-150000J0D01*
G01*
X233377800Y-78469400D01*
G75*
G02*
X233227800Y-78319400I0J150000D01*
G01*
X233227800Y-76569400D01*
G75*
G02*
X233377800Y-76419400I150000J0D01*
G01*
G37*
G36*
G01*
X234647800Y-76419400D02*
X234947800Y-76419400D01*
G75*
G02*
X235097800Y-76569400I0J-150000D01*
G01*
X235097800Y-78319400D01*
G75*
G02*
X234947800Y-78469400I-150000J0D01*
G01*
X234647800Y-78469400D01*
G75*
G02*
X234497800Y-78319400I0J150000D01*
G01*
X234497800Y-76569400D01*
G75*
G02*
X234647800Y-76419400I150000J0D01*
G01*
G37*
G36*
G01*
X235917800Y-76419400D02*
X236217800Y-76419400D01*
G75*
G02*
X236367800Y-76569400I0J-150000D01*
G01*
X236367800Y-78319400D01*
G75*
G02*
X236217800Y-78469400I-150000J0D01*
G01*
X235917800Y-78469400D01*
G75*
G02*
X235767800Y-78319400I0J150000D01*
G01*
X235767800Y-76569400D01*
G75*
G02*
X235917800Y-76419400I150000J0D01*
G01*
G37*
G36*
G01*
X237187800Y-76419400D02*
X237487800Y-76419400D01*
G75*
G02*
X237637800Y-76569400I0J-150000D01*
G01*
X237637800Y-78319400D01*
G75*
G02*
X237487800Y-78469400I-150000J0D01*
G01*
X237187800Y-78469400D01*
G75*
G02*
X237037800Y-78319400I0J150000D01*
G01*
X237037800Y-76569400D01*
G75*
G02*
X237187800Y-76419400I150000J0D01*
G01*
G37*
G36*
G01*
X238457800Y-76419400D02*
X238757800Y-76419400D01*
G75*
G02*
X238907800Y-76569400I0J-150000D01*
G01*
X238907800Y-78319400D01*
G75*
G02*
X238757800Y-78469400I-150000J0D01*
G01*
X238457800Y-78469400D01*
G75*
G02*
X238307800Y-78319400I0J150000D01*
G01*
X238307800Y-76569400D01*
G75*
G02*
X238457800Y-76419400I150000J0D01*
G01*
G37*
G36*
G01*
X239727800Y-76419400D02*
X240027800Y-76419400D01*
G75*
G02*
X240177800Y-76569400I0J-150000D01*
G01*
X240177800Y-78319400D01*
G75*
G02*
X240027800Y-78469400I-150000J0D01*
G01*
X239727800Y-78469400D01*
G75*
G02*
X239577800Y-78319400I0J150000D01*
G01*
X239577800Y-76569400D01*
G75*
G02*
X239727800Y-76419400I150000J0D01*
G01*
G37*
G36*
G01*
X219421300Y-78475400D02*
X219121300Y-78475400D01*
G75*
G02*
X218971300Y-78325400I0J150000D01*
G01*
X218971300Y-76575400D01*
G75*
G02*
X219121300Y-76425400I150000J0D01*
G01*
X219421300Y-76425400D01*
G75*
G02*
X219571300Y-76575400I0J-150000D01*
G01*
X219571300Y-78325400D01*
G75*
G02*
X219421300Y-78475400I-150000J0D01*
G01*
G37*
G36*
G01*
X220691300Y-78475400D02*
X220391300Y-78475400D01*
G75*
G02*
X220241300Y-78325400I0J150000D01*
G01*
X220241300Y-76575400D01*
G75*
G02*
X220391300Y-76425400I150000J0D01*
G01*
X220691300Y-76425400D01*
G75*
G02*
X220841300Y-76575400I0J-150000D01*
G01*
X220841300Y-78325400D01*
G75*
G02*
X220691300Y-78475400I-150000J0D01*
G01*
G37*
G36*
G01*
X221961300Y-78475400D02*
X221661300Y-78475400D01*
G75*
G02*
X221511300Y-78325400I0J150000D01*
G01*
X221511300Y-76575400D01*
G75*
G02*
X221661300Y-76425400I150000J0D01*
G01*
X221961300Y-76425400D01*
G75*
G02*
X222111300Y-76575400I0J-150000D01*
G01*
X222111300Y-78325400D01*
G75*
G02*
X221961300Y-78475400I-150000J0D01*
G01*
G37*
G36*
G01*
X223231300Y-78475400D02*
X222931300Y-78475400D01*
G75*
G02*
X222781300Y-78325400I0J150000D01*
G01*
X222781300Y-76575400D01*
G75*
G02*
X222931300Y-76425400I150000J0D01*
G01*
X223231300Y-76425400D01*
G75*
G02*
X223381300Y-76575400I0J-150000D01*
G01*
X223381300Y-78325400D01*
G75*
G02*
X223231300Y-78475400I-150000J0D01*
G01*
G37*
G36*
G01*
X224501300Y-78475400D02*
X224201300Y-78475400D01*
G75*
G02*
X224051300Y-78325400I0J150000D01*
G01*
X224051300Y-76575400D01*
G75*
G02*
X224201300Y-76425400I150000J0D01*
G01*
X224501300Y-76425400D01*
G75*
G02*
X224651300Y-76575400I0J-150000D01*
G01*
X224651300Y-78325400D01*
G75*
G02*
X224501300Y-78475400I-150000J0D01*
G01*
G37*
G36*
G01*
X225771300Y-78475400D02*
X225471300Y-78475400D01*
G75*
G02*
X225321300Y-78325400I0J150000D01*
G01*
X225321300Y-76575400D01*
G75*
G02*
X225471300Y-76425400I150000J0D01*
G01*
X225771300Y-76425400D01*
G75*
G02*
X225921300Y-76575400I0J-150000D01*
G01*
X225921300Y-78325400D01*
G75*
G02*
X225771300Y-78475400I-150000J0D01*
G01*
G37*
G36*
G01*
X227041300Y-78475400D02*
X226741300Y-78475400D01*
G75*
G02*
X226591300Y-78325400I0J150000D01*
G01*
X226591300Y-76575400D01*
G75*
G02*
X226741300Y-76425400I150000J0D01*
G01*
X227041300Y-76425400D01*
G75*
G02*
X227191300Y-76575400I0J-150000D01*
G01*
X227191300Y-78325400D01*
G75*
G02*
X227041300Y-78475400I-150000J0D01*
G01*
G37*
G36*
G01*
X228311300Y-78475400D02*
X228011300Y-78475400D01*
G75*
G02*
X227861300Y-78325400I0J150000D01*
G01*
X227861300Y-76575400D01*
G75*
G02*
X228011300Y-76425400I150000J0D01*
G01*
X228311300Y-76425400D01*
G75*
G02*
X228461300Y-76575400I0J-150000D01*
G01*
X228461300Y-78325400D01*
G75*
G02*
X228311300Y-78475400I-150000J0D01*
G01*
G37*
G36*
G01*
X228311300Y-87775400D02*
X228011300Y-87775400D01*
G75*
G02*
X227861300Y-87625400I0J150000D01*
G01*
X227861300Y-85875400D01*
G75*
G02*
X228011300Y-85725400I150000J0D01*
G01*
X228311300Y-85725400D01*
G75*
G02*
X228461300Y-85875400I0J-150000D01*
G01*
X228461300Y-87625400D01*
G75*
G02*
X228311300Y-87775400I-150000J0D01*
G01*
G37*
G36*
G01*
X227041300Y-87775400D02*
X226741300Y-87775400D01*
G75*
G02*
X226591300Y-87625400I0J150000D01*
G01*
X226591300Y-85875400D01*
G75*
G02*
X226741300Y-85725400I150000J0D01*
G01*
X227041300Y-85725400D01*
G75*
G02*
X227191300Y-85875400I0J-150000D01*
G01*
X227191300Y-87625400D01*
G75*
G02*
X227041300Y-87775400I-150000J0D01*
G01*
G37*
G36*
G01*
X225771300Y-87775400D02*
X225471300Y-87775400D01*
G75*
G02*
X225321300Y-87625400I0J150000D01*
G01*
X225321300Y-85875400D01*
G75*
G02*
X225471300Y-85725400I150000J0D01*
G01*
X225771300Y-85725400D01*
G75*
G02*
X225921300Y-85875400I0J-150000D01*
G01*
X225921300Y-87625400D01*
G75*
G02*
X225771300Y-87775400I-150000J0D01*
G01*
G37*
G36*
G01*
X224501300Y-87775400D02*
X224201300Y-87775400D01*
G75*
G02*
X224051300Y-87625400I0J150000D01*
G01*
X224051300Y-85875400D01*
G75*
G02*
X224201300Y-85725400I150000J0D01*
G01*
X224501300Y-85725400D01*
G75*
G02*
X224651300Y-85875400I0J-150000D01*
G01*
X224651300Y-87625400D01*
G75*
G02*
X224501300Y-87775400I-150000J0D01*
G01*
G37*
G36*
G01*
X223231300Y-87775400D02*
X222931300Y-87775400D01*
G75*
G02*
X222781300Y-87625400I0J150000D01*
G01*
X222781300Y-85875400D01*
G75*
G02*
X222931300Y-85725400I150000J0D01*
G01*
X223231300Y-85725400D01*
G75*
G02*
X223381300Y-85875400I0J-150000D01*
G01*
X223381300Y-87625400D01*
G75*
G02*
X223231300Y-87775400I-150000J0D01*
G01*
G37*
G36*
G01*
X221961300Y-87775400D02*
X221661300Y-87775400D01*
G75*
G02*
X221511300Y-87625400I0J150000D01*
G01*
X221511300Y-85875400D01*
G75*
G02*
X221661300Y-85725400I150000J0D01*
G01*
X221961300Y-85725400D01*
G75*
G02*
X222111300Y-85875400I0J-150000D01*
G01*
X222111300Y-87625400D01*
G75*
G02*
X221961300Y-87775400I-150000J0D01*
G01*
G37*
G36*
G01*
X220691300Y-87775400D02*
X220391300Y-87775400D01*
G75*
G02*
X220241300Y-87625400I0J150000D01*
G01*
X220241300Y-85875400D01*
G75*
G02*
X220391300Y-85725400I150000J0D01*
G01*
X220691300Y-85725400D01*
G75*
G02*
X220841300Y-85875400I0J-150000D01*
G01*
X220841300Y-87625400D01*
G75*
G02*
X220691300Y-87775400I-150000J0D01*
G01*
G37*
G36*
G01*
X219421300Y-87775400D02*
X219121300Y-87775400D01*
G75*
G02*
X218971300Y-87625400I0J150000D01*
G01*
X218971300Y-85875400D01*
G75*
G02*
X219121300Y-85725400I150000J0D01*
G01*
X219421300Y-85725400D01*
G75*
G02*
X219571300Y-85875400I0J-150000D01*
G01*
X219571300Y-87625400D01*
G75*
G02*
X219421300Y-87775400I-150000J0D01*
G01*
G37*
G36*
G01*
X207644400Y-78518600D02*
X207344400Y-78518600D01*
G75*
G02*
X207194400Y-78368600I0J150000D01*
G01*
X207194400Y-76618600D01*
G75*
G02*
X207344400Y-76468600I150000J0D01*
G01*
X207644400Y-76468600D01*
G75*
G02*
X207794400Y-76618600I0J-150000D01*
G01*
X207794400Y-78368600D01*
G75*
G02*
X207644400Y-78518600I-150000J0D01*
G01*
G37*
G36*
G01*
X208914400Y-78518600D02*
X208614400Y-78518600D01*
G75*
G02*
X208464400Y-78368600I0J150000D01*
G01*
X208464400Y-76618600D01*
G75*
G02*
X208614400Y-76468600I150000J0D01*
G01*
X208914400Y-76468600D01*
G75*
G02*
X209064400Y-76618600I0J-150000D01*
G01*
X209064400Y-78368600D01*
G75*
G02*
X208914400Y-78518600I-150000J0D01*
G01*
G37*
G36*
G01*
X210184400Y-78518600D02*
X209884400Y-78518600D01*
G75*
G02*
X209734400Y-78368600I0J150000D01*
G01*
X209734400Y-76618600D01*
G75*
G02*
X209884400Y-76468600I150000J0D01*
G01*
X210184400Y-76468600D01*
G75*
G02*
X210334400Y-76618600I0J-150000D01*
G01*
X210334400Y-78368600D01*
G75*
G02*
X210184400Y-78518600I-150000J0D01*
G01*
G37*
G36*
G01*
X211454400Y-78518600D02*
X211154400Y-78518600D01*
G75*
G02*
X211004400Y-78368600I0J150000D01*
G01*
X211004400Y-76618600D01*
G75*
G02*
X211154400Y-76468600I150000J0D01*
G01*
X211454400Y-76468600D01*
G75*
G02*
X211604400Y-76618600I0J-150000D01*
G01*
X211604400Y-78368600D01*
G75*
G02*
X211454400Y-78518600I-150000J0D01*
G01*
G37*
G36*
G01*
X212724400Y-78518600D02*
X212424400Y-78518600D01*
G75*
G02*
X212274400Y-78368600I0J150000D01*
G01*
X212274400Y-76618600D01*
G75*
G02*
X212424400Y-76468600I150000J0D01*
G01*
X212724400Y-76468600D01*
G75*
G02*
X212874400Y-76618600I0J-150000D01*
G01*
X212874400Y-78368600D01*
G75*
G02*
X212724400Y-78518600I-150000J0D01*
G01*
G37*
G36*
G01*
X213994400Y-78518600D02*
X213694400Y-78518600D01*
G75*
G02*
X213544400Y-78368600I0J150000D01*
G01*
X213544400Y-76618600D01*
G75*
G02*
X213694400Y-76468600I150000J0D01*
G01*
X213994400Y-76468600D01*
G75*
G02*
X214144400Y-76618600I0J-150000D01*
G01*
X214144400Y-78368600D01*
G75*
G02*
X213994400Y-78518600I-150000J0D01*
G01*
G37*
G36*
G01*
X215264400Y-78518600D02*
X214964400Y-78518600D01*
G75*
G02*
X214814400Y-78368600I0J150000D01*
G01*
X214814400Y-76618600D01*
G75*
G02*
X214964400Y-76468600I150000J0D01*
G01*
X215264400Y-76468600D01*
G75*
G02*
X215414400Y-76618600I0J-150000D01*
G01*
X215414400Y-78368600D01*
G75*
G02*
X215264400Y-78518600I-150000J0D01*
G01*
G37*
G36*
G01*
X216534400Y-78518600D02*
X216234400Y-78518600D01*
G75*
G02*
X216084400Y-78368600I0J150000D01*
G01*
X216084400Y-76618600D01*
G75*
G02*
X216234400Y-76468600I150000J0D01*
G01*
X216534400Y-76468600D01*
G75*
G02*
X216684400Y-76618600I0J-150000D01*
G01*
X216684400Y-78368600D01*
G75*
G02*
X216534400Y-78518600I-150000J0D01*
G01*
G37*
G36*
G01*
X216534400Y-87818600D02*
X216234400Y-87818600D01*
G75*
G02*
X216084400Y-87668600I0J150000D01*
G01*
X216084400Y-85918600D01*
G75*
G02*
X216234400Y-85768600I150000J0D01*
G01*
X216534400Y-85768600D01*
G75*
G02*
X216684400Y-85918600I0J-150000D01*
G01*
X216684400Y-87668600D01*
G75*
G02*
X216534400Y-87818600I-150000J0D01*
G01*
G37*
G36*
G01*
X215264400Y-87818600D02*
X214964400Y-87818600D01*
G75*
G02*
X214814400Y-87668600I0J150000D01*
G01*
X214814400Y-85918600D01*
G75*
G02*
X214964400Y-85768600I150000J0D01*
G01*
X215264400Y-85768600D01*
G75*
G02*
X215414400Y-85918600I0J-150000D01*
G01*
X215414400Y-87668600D01*
G75*
G02*
X215264400Y-87818600I-150000J0D01*
G01*
G37*
G36*
G01*
X213994400Y-87818600D02*
X213694400Y-87818600D01*
G75*
G02*
X213544400Y-87668600I0J150000D01*
G01*
X213544400Y-85918600D01*
G75*
G02*
X213694400Y-85768600I150000J0D01*
G01*
X213994400Y-85768600D01*
G75*
G02*
X214144400Y-85918600I0J-150000D01*
G01*
X214144400Y-87668600D01*
G75*
G02*
X213994400Y-87818600I-150000J0D01*
G01*
G37*
G36*
G01*
X212724400Y-87818600D02*
X212424400Y-87818600D01*
G75*
G02*
X212274400Y-87668600I0J150000D01*
G01*
X212274400Y-85918600D01*
G75*
G02*
X212424400Y-85768600I150000J0D01*
G01*
X212724400Y-85768600D01*
G75*
G02*
X212874400Y-85918600I0J-150000D01*
G01*
X212874400Y-87668600D01*
G75*
G02*
X212724400Y-87818600I-150000J0D01*
G01*
G37*
G36*
G01*
X211454400Y-87818600D02*
X211154400Y-87818600D01*
G75*
G02*
X211004400Y-87668600I0J150000D01*
G01*
X211004400Y-85918600D01*
G75*
G02*
X211154400Y-85768600I150000J0D01*
G01*
X211454400Y-85768600D01*
G75*
G02*
X211604400Y-85918600I0J-150000D01*
G01*
X211604400Y-87668600D01*
G75*
G02*
X211454400Y-87818600I-150000J0D01*
G01*
G37*
G36*
G01*
X210184400Y-87818600D02*
X209884400Y-87818600D01*
G75*
G02*
X209734400Y-87668600I0J150000D01*
G01*
X209734400Y-85918600D01*
G75*
G02*
X209884400Y-85768600I150000J0D01*
G01*
X210184400Y-85768600D01*
G75*
G02*
X210334400Y-85918600I0J-150000D01*
G01*
X210334400Y-87668600D01*
G75*
G02*
X210184400Y-87818600I-150000J0D01*
G01*
G37*
G36*
G01*
X208914400Y-87818600D02*
X208614400Y-87818600D01*
G75*
G02*
X208464400Y-87668600I0J150000D01*
G01*
X208464400Y-85918600D01*
G75*
G02*
X208614400Y-85768600I150000J0D01*
G01*
X208914400Y-85768600D01*
G75*
G02*
X209064400Y-85918600I0J-150000D01*
G01*
X209064400Y-87668600D01*
G75*
G02*
X208914400Y-87818600I-150000J0D01*
G01*
G37*
G36*
G01*
X207644400Y-87818600D02*
X207344400Y-87818600D01*
G75*
G02*
X207194400Y-87668600I0J150000D01*
G01*
X207194400Y-85918600D01*
G75*
G02*
X207344400Y-85768600I150000J0D01*
G01*
X207644400Y-85768600D01*
G75*
G02*
X207794400Y-85918600I0J-150000D01*
G01*
X207794400Y-87668600D01*
G75*
G02*
X207644400Y-87818600I-150000J0D01*
G01*
G37*
D22*
G36*
X241933500Y-103400000D02*
G01*
X241933500Y-99275000D01*
X242350000Y-99275000D01*
X242350000Y-96800000D01*
X243250000Y-96800000D01*
X243250000Y-99275000D01*
X243666500Y-99275000D01*
X243666500Y-103400000D01*
X241933500Y-103400000D01*
G37*
D23*
X241300000Y-97950000D03*
X244300000Y-97950000D03*
D24*
X258610000Y-107370000D03*
X258610000Y-95330000D03*
D25*
X255900000Y-100100000D03*
X255900000Y-102600000D03*
X253900000Y-102600000D03*
D14*
X253900000Y-100100000D03*
D26*
X247920000Y-104327200D03*
X248870000Y-104327200D03*
X246970000Y-104327200D03*
X246970000Y-102127200D03*
X247920000Y-102127200D03*
X248870000Y-102127200D03*
G36*
G01*
X231130500Y-62633750D02*
X231130500Y-62333750D01*
G75*
G02*
X231280500Y-62183750I150000J0D01*
G01*
X232930500Y-62183750D01*
G75*
G02*
X233080500Y-62333750I0J-150000D01*
G01*
X233080500Y-62633750D01*
G75*
G02*
X232930500Y-62783750I-150000J0D01*
G01*
X231280500Y-62783750D01*
G75*
G02*
X231130500Y-62633750I0J150000D01*
G01*
G37*
G36*
G01*
X231130500Y-63903750D02*
X231130500Y-63603750D01*
G75*
G02*
X231280500Y-63453750I150000J0D01*
G01*
X232930500Y-63453750D01*
G75*
G02*
X233080500Y-63603750I0J-150000D01*
G01*
X233080500Y-63903750D01*
G75*
G02*
X232930500Y-64053750I-150000J0D01*
G01*
X231280500Y-64053750D01*
G75*
G02*
X231130500Y-63903750I0J150000D01*
G01*
G37*
G36*
G01*
X231130500Y-65173750D02*
X231130500Y-64873750D01*
G75*
G02*
X231280500Y-64723750I150000J0D01*
G01*
X232930500Y-64723750D01*
G75*
G02*
X233080500Y-64873750I0J-150000D01*
G01*
X233080500Y-65173750D01*
G75*
G02*
X232930500Y-65323750I-150000J0D01*
G01*
X231280500Y-65323750D01*
G75*
G02*
X231130500Y-65173750I0J150000D01*
G01*
G37*
G36*
G01*
X231130500Y-66443750D02*
X231130500Y-66143750D01*
G75*
G02*
X231280500Y-65993750I150000J0D01*
G01*
X232930500Y-65993750D01*
G75*
G02*
X233080500Y-66143750I0J-150000D01*
G01*
X233080500Y-66443750D01*
G75*
G02*
X232930500Y-66593750I-150000J0D01*
G01*
X231280500Y-66593750D01*
G75*
G02*
X231130500Y-66443750I0J150000D01*
G01*
G37*
G36*
G01*
X226180500Y-66443750D02*
X226180500Y-66143750D01*
G75*
G02*
X226330500Y-65993750I150000J0D01*
G01*
X227980500Y-65993750D01*
G75*
G02*
X228130500Y-66143750I0J-150000D01*
G01*
X228130500Y-66443750D01*
G75*
G02*
X227980500Y-66593750I-150000J0D01*
G01*
X226330500Y-66593750D01*
G75*
G02*
X226180500Y-66443750I0J150000D01*
G01*
G37*
G36*
G01*
X226180500Y-65173750D02*
X226180500Y-64873750D01*
G75*
G02*
X226330500Y-64723750I150000J0D01*
G01*
X227980500Y-64723750D01*
G75*
G02*
X228130500Y-64873750I0J-150000D01*
G01*
X228130500Y-65173750D01*
G75*
G02*
X227980500Y-65323750I-150000J0D01*
G01*
X226330500Y-65323750D01*
G75*
G02*
X226180500Y-65173750I0J150000D01*
G01*
G37*
G36*
G01*
X226180500Y-63903750D02*
X226180500Y-63603750D01*
G75*
G02*
X226330500Y-63453750I150000J0D01*
G01*
X227980500Y-63453750D01*
G75*
G02*
X228130500Y-63603750I0J-150000D01*
G01*
X228130500Y-63903750D01*
G75*
G02*
X227980500Y-64053750I-150000J0D01*
G01*
X226330500Y-64053750D01*
G75*
G02*
X226180500Y-63903750I0J150000D01*
G01*
G37*
G36*
G01*
X226180500Y-62633750D02*
X226180500Y-62333750D01*
G75*
G02*
X226330500Y-62183750I150000J0D01*
G01*
X227980500Y-62183750D01*
G75*
G02*
X228130500Y-62333750I0J-150000D01*
G01*
X228130500Y-62633750D01*
G75*
G02*
X227980500Y-62783750I-150000J0D01*
G01*
X226330500Y-62783750D01*
G75*
G02*
X226180500Y-62633750I0J150000D01*
G01*
G37*
G36*
G01*
X231071000Y-53980500D02*
X231071000Y-53680500D01*
G75*
G02*
X231221000Y-53530500I150000J0D01*
G01*
X232871000Y-53530500D01*
G75*
G02*
X233021000Y-53680500I0J-150000D01*
G01*
X233021000Y-53980500D01*
G75*
G02*
X232871000Y-54130500I-150000J0D01*
G01*
X231221000Y-54130500D01*
G75*
G02*
X231071000Y-53980500I0J150000D01*
G01*
G37*
G36*
G01*
X231071000Y-55250500D02*
X231071000Y-54950500D01*
G75*
G02*
X231221000Y-54800500I150000J0D01*
G01*
X232871000Y-54800500D01*
G75*
G02*
X233021000Y-54950500I0J-150000D01*
G01*
X233021000Y-55250500D01*
G75*
G02*
X232871000Y-55400500I-150000J0D01*
G01*
X231221000Y-55400500D01*
G75*
G02*
X231071000Y-55250500I0J150000D01*
G01*
G37*
G36*
G01*
X231071000Y-56520500D02*
X231071000Y-56220500D01*
G75*
G02*
X231221000Y-56070500I150000J0D01*
G01*
X232871000Y-56070500D01*
G75*
G02*
X233021000Y-56220500I0J-150000D01*
G01*
X233021000Y-56520500D01*
G75*
G02*
X232871000Y-56670500I-150000J0D01*
G01*
X231221000Y-56670500D01*
G75*
G02*
X231071000Y-56520500I0J150000D01*
G01*
G37*
G36*
G01*
X231071000Y-57790500D02*
X231071000Y-57490500D01*
G75*
G02*
X231221000Y-57340500I150000J0D01*
G01*
X232871000Y-57340500D01*
G75*
G02*
X233021000Y-57490500I0J-150000D01*
G01*
X233021000Y-57790500D01*
G75*
G02*
X232871000Y-57940500I-150000J0D01*
G01*
X231221000Y-57940500D01*
G75*
G02*
X231071000Y-57790500I0J150000D01*
G01*
G37*
G36*
G01*
X226121000Y-57790500D02*
X226121000Y-57490500D01*
G75*
G02*
X226271000Y-57340500I150000J0D01*
G01*
X227921000Y-57340500D01*
G75*
G02*
X228071000Y-57490500I0J-150000D01*
G01*
X228071000Y-57790500D01*
G75*
G02*
X227921000Y-57940500I-150000J0D01*
G01*
X226271000Y-57940500D01*
G75*
G02*
X226121000Y-57790500I0J150000D01*
G01*
G37*
G36*
G01*
X226121000Y-56520500D02*
X226121000Y-56220500D01*
G75*
G02*
X226271000Y-56070500I150000J0D01*
G01*
X227921000Y-56070500D01*
G75*
G02*
X228071000Y-56220500I0J-150000D01*
G01*
X228071000Y-56520500D01*
G75*
G02*
X227921000Y-56670500I-150000J0D01*
G01*
X226271000Y-56670500D01*
G75*
G02*
X226121000Y-56520500I0J150000D01*
G01*
G37*
G36*
G01*
X226121000Y-55250500D02*
X226121000Y-54950500D01*
G75*
G02*
X226271000Y-54800500I150000J0D01*
G01*
X227921000Y-54800500D01*
G75*
G02*
X228071000Y-54950500I0J-150000D01*
G01*
X228071000Y-55250500D01*
G75*
G02*
X227921000Y-55400500I-150000J0D01*
G01*
X226271000Y-55400500D01*
G75*
G02*
X226121000Y-55250500I0J150000D01*
G01*
G37*
G36*
G01*
X226121000Y-53980500D02*
X226121000Y-53680500D01*
G75*
G02*
X226271000Y-53530500I150000J0D01*
G01*
X227921000Y-53530500D01*
G75*
G02*
X228071000Y-53680500I0J-150000D01*
G01*
X228071000Y-53980500D01*
G75*
G02*
X227921000Y-54130500I-150000J0D01*
G01*
X226271000Y-54130500D01*
G75*
G02*
X226121000Y-53980500I0J150000D01*
G01*
G37*
G36*
G01*
X231046000Y-45575000D02*
X231046000Y-45275000D01*
G75*
G02*
X231196000Y-45125000I150000J0D01*
G01*
X232846000Y-45125000D01*
G75*
G02*
X232996000Y-45275000I0J-150000D01*
G01*
X232996000Y-45575000D01*
G75*
G02*
X232846000Y-45725000I-150000J0D01*
G01*
X231196000Y-45725000D01*
G75*
G02*
X231046000Y-45575000I0J150000D01*
G01*
G37*
G36*
G01*
X231046000Y-46845000D02*
X231046000Y-46545000D01*
G75*
G02*
X231196000Y-46395000I150000J0D01*
G01*
X232846000Y-46395000D01*
G75*
G02*
X232996000Y-46545000I0J-150000D01*
G01*
X232996000Y-46845000D01*
G75*
G02*
X232846000Y-46995000I-150000J0D01*
G01*
X231196000Y-46995000D01*
G75*
G02*
X231046000Y-46845000I0J150000D01*
G01*
G37*
G36*
G01*
X231046000Y-48115000D02*
X231046000Y-47815000D01*
G75*
G02*
X231196000Y-47665000I150000J0D01*
G01*
X232846000Y-47665000D01*
G75*
G02*
X232996000Y-47815000I0J-150000D01*
G01*
X232996000Y-48115000D01*
G75*
G02*
X232846000Y-48265000I-150000J0D01*
G01*
X231196000Y-48265000D01*
G75*
G02*
X231046000Y-48115000I0J150000D01*
G01*
G37*
G36*
G01*
X231046000Y-49385000D02*
X231046000Y-49085000D01*
G75*
G02*
X231196000Y-48935000I150000J0D01*
G01*
X232846000Y-48935000D01*
G75*
G02*
X232996000Y-49085000I0J-150000D01*
G01*
X232996000Y-49385000D01*
G75*
G02*
X232846000Y-49535000I-150000J0D01*
G01*
X231196000Y-49535000D01*
G75*
G02*
X231046000Y-49385000I0J150000D01*
G01*
G37*
G36*
G01*
X226096000Y-49385000D02*
X226096000Y-49085000D01*
G75*
G02*
X226246000Y-48935000I150000J0D01*
G01*
X227896000Y-48935000D01*
G75*
G02*
X228046000Y-49085000I0J-150000D01*
G01*
X228046000Y-49385000D01*
G75*
G02*
X227896000Y-49535000I-150000J0D01*
G01*
X226246000Y-49535000D01*
G75*
G02*
X226096000Y-49385000I0J150000D01*
G01*
G37*
G36*
G01*
X226096000Y-48115000D02*
X226096000Y-47815000D01*
G75*
G02*
X226246000Y-47665000I150000J0D01*
G01*
X227896000Y-47665000D01*
G75*
G02*
X228046000Y-47815000I0J-150000D01*
G01*
X228046000Y-48115000D01*
G75*
G02*
X227896000Y-48265000I-150000J0D01*
G01*
X226246000Y-48265000D01*
G75*
G02*
X226096000Y-48115000I0J150000D01*
G01*
G37*
G36*
G01*
X226096000Y-46845000D02*
X226096000Y-46545000D01*
G75*
G02*
X226246000Y-46395000I150000J0D01*
G01*
X227896000Y-46395000D01*
G75*
G02*
X228046000Y-46545000I0J-150000D01*
G01*
X228046000Y-46845000D01*
G75*
G02*
X227896000Y-46995000I-150000J0D01*
G01*
X226246000Y-46995000D01*
G75*
G02*
X226096000Y-46845000I0J150000D01*
G01*
G37*
G36*
G01*
X226096000Y-45575000D02*
X226096000Y-45275000D01*
G75*
G02*
X226246000Y-45125000I150000J0D01*
G01*
X227896000Y-45125000D01*
G75*
G02*
X228046000Y-45275000I0J-150000D01*
G01*
X228046000Y-45575000D01*
G75*
G02*
X227896000Y-45725000I-150000J0D01*
G01*
X226246000Y-45725000D01*
G75*
G02*
X226096000Y-45575000I0J150000D01*
G01*
G37*
G36*
G01*
X149800000Y-92745000D02*
X149800000Y-92445000D01*
G75*
G02*
X149950000Y-92295000I150000J0D01*
G01*
X151600000Y-92295000D01*
G75*
G02*
X151750000Y-92445000I0J-150000D01*
G01*
X151750000Y-92745000D01*
G75*
G02*
X151600000Y-92895000I-150000J0D01*
G01*
X149950000Y-92895000D01*
G75*
G02*
X149800000Y-92745000I0J150000D01*
G01*
G37*
G36*
G01*
X149800000Y-94015000D02*
X149800000Y-93715000D01*
G75*
G02*
X149950000Y-93565000I150000J0D01*
G01*
X151600000Y-93565000D01*
G75*
G02*
X151750000Y-93715000I0J-150000D01*
G01*
X151750000Y-94015000D01*
G75*
G02*
X151600000Y-94165000I-150000J0D01*
G01*
X149950000Y-94165000D01*
G75*
G02*
X149800000Y-94015000I0J150000D01*
G01*
G37*
G36*
G01*
X149800000Y-95285000D02*
X149800000Y-94985000D01*
G75*
G02*
X149950000Y-94835000I150000J0D01*
G01*
X151600000Y-94835000D01*
G75*
G02*
X151750000Y-94985000I0J-150000D01*
G01*
X151750000Y-95285000D01*
G75*
G02*
X151600000Y-95435000I-150000J0D01*
G01*
X149950000Y-95435000D01*
G75*
G02*
X149800000Y-95285000I0J150000D01*
G01*
G37*
G36*
G01*
X149800000Y-96555000D02*
X149800000Y-96255000D01*
G75*
G02*
X149950000Y-96105000I150000J0D01*
G01*
X151600000Y-96105000D01*
G75*
G02*
X151750000Y-96255000I0J-150000D01*
G01*
X151750000Y-96555000D01*
G75*
G02*
X151600000Y-96705000I-150000J0D01*
G01*
X149950000Y-96705000D01*
G75*
G02*
X149800000Y-96555000I0J150000D01*
G01*
G37*
G36*
G01*
X144850000Y-96555000D02*
X144850000Y-96255000D01*
G75*
G02*
X145000000Y-96105000I150000J0D01*
G01*
X146650000Y-96105000D01*
G75*
G02*
X146800000Y-96255000I0J-150000D01*
G01*
X146800000Y-96555000D01*
G75*
G02*
X146650000Y-96705000I-150000J0D01*
G01*
X145000000Y-96705000D01*
G75*
G02*
X144850000Y-96555000I0J150000D01*
G01*
G37*
G36*
G01*
X144850000Y-95285000D02*
X144850000Y-94985000D01*
G75*
G02*
X145000000Y-94835000I150000J0D01*
G01*
X146650000Y-94835000D01*
G75*
G02*
X146800000Y-94985000I0J-150000D01*
G01*
X146800000Y-95285000D01*
G75*
G02*
X146650000Y-95435000I-150000J0D01*
G01*
X145000000Y-95435000D01*
G75*
G02*
X144850000Y-95285000I0J150000D01*
G01*
G37*
G36*
G01*
X144850000Y-94015000D02*
X144850000Y-93715000D01*
G75*
G02*
X145000000Y-93565000I150000J0D01*
G01*
X146650000Y-93565000D01*
G75*
G02*
X146800000Y-93715000I0J-150000D01*
G01*
X146800000Y-94015000D01*
G75*
G02*
X146650000Y-94165000I-150000J0D01*
G01*
X145000000Y-94165000D01*
G75*
G02*
X144850000Y-94015000I0J150000D01*
G01*
G37*
G36*
G01*
X144850000Y-92745000D02*
X144850000Y-92445000D01*
G75*
G02*
X145000000Y-92295000I150000J0D01*
G01*
X146650000Y-92295000D01*
G75*
G02*
X146800000Y-92445000I0J-150000D01*
G01*
X146800000Y-92745000D01*
G75*
G02*
X146650000Y-92895000I-150000J0D01*
G01*
X145000000Y-92895000D01*
G75*
G02*
X144850000Y-92745000I0J150000D01*
G01*
G37*
G36*
G01*
X165772750Y-100150200D02*
X165472750Y-100150200D01*
G75*
G02*
X165322750Y-100000200I0J150000D01*
G01*
X165322750Y-98350200D01*
G75*
G02*
X165472750Y-98200200I150000J0D01*
G01*
X165772750Y-98200200D01*
G75*
G02*
X165922750Y-98350200I0J-150000D01*
G01*
X165922750Y-100000200D01*
G75*
G02*
X165772750Y-100150200I-150000J0D01*
G01*
G37*
G36*
G01*
X167042750Y-100150200D02*
X166742750Y-100150200D01*
G75*
G02*
X166592750Y-100000200I0J150000D01*
G01*
X166592750Y-98350200D01*
G75*
G02*
X166742750Y-98200200I150000J0D01*
G01*
X167042750Y-98200200D01*
G75*
G02*
X167192750Y-98350200I0J-150000D01*
G01*
X167192750Y-100000200D01*
G75*
G02*
X167042750Y-100150200I-150000J0D01*
G01*
G37*
G36*
G01*
X168312750Y-100150200D02*
X168012750Y-100150200D01*
G75*
G02*
X167862750Y-100000200I0J150000D01*
G01*
X167862750Y-98350200D01*
G75*
G02*
X168012750Y-98200200I150000J0D01*
G01*
X168312750Y-98200200D01*
G75*
G02*
X168462750Y-98350200I0J-150000D01*
G01*
X168462750Y-100000200D01*
G75*
G02*
X168312750Y-100150200I-150000J0D01*
G01*
G37*
G36*
G01*
X169582750Y-100150200D02*
X169282750Y-100150200D01*
G75*
G02*
X169132750Y-100000200I0J150000D01*
G01*
X169132750Y-98350200D01*
G75*
G02*
X169282750Y-98200200I150000J0D01*
G01*
X169582750Y-98200200D01*
G75*
G02*
X169732750Y-98350200I0J-150000D01*
G01*
X169732750Y-100000200D01*
G75*
G02*
X169582750Y-100150200I-150000J0D01*
G01*
G37*
G36*
G01*
X169582750Y-105100200D02*
X169282750Y-105100200D01*
G75*
G02*
X169132750Y-104950200I0J150000D01*
G01*
X169132750Y-103300200D01*
G75*
G02*
X169282750Y-103150200I150000J0D01*
G01*
X169582750Y-103150200D01*
G75*
G02*
X169732750Y-103300200I0J-150000D01*
G01*
X169732750Y-104950200D01*
G75*
G02*
X169582750Y-105100200I-150000J0D01*
G01*
G37*
G36*
G01*
X168312750Y-105100200D02*
X168012750Y-105100200D01*
G75*
G02*
X167862750Y-104950200I0J150000D01*
G01*
X167862750Y-103300200D01*
G75*
G02*
X168012750Y-103150200I150000J0D01*
G01*
X168312750Y-103150200D01*
G75*
G02*
X168462750Y-103300200I0J-150000D01*
G01*
X168462750Y-104950200D01*
G75*
G02*
X168312750Y-105100200I-150000J0D01*
G01*
G37*
G36*
G01*
X167042750Y-105100200D02*
X166742750Y-105100200D01*
G75*
G02*
X166592750Y-104950200I0J150000D01*
G01*
X166592750Y-103300200D01*
G75*
G02*
X166742750Y-103150200I150000J0D01*
G01*
X167042750Y-103150200D01*
G75*
G02*
X167192750Y-103300200I0J-150000D01*
G01*
X167192750Y-104950200D01*
G75*
G02*
X167042750Y-105100200I-150000J0D01*
G01*
G37*
G36*
G01*
X165772750Y-105100200D02*
X165472750Y-105100200D01*
G75*
G02*
X165322750Y-104950200I0J150000D01*
G01*
X165322750Y-103300200D01*
G75*
G02*
X165472750Y-103150200I150000J0D01*
G01*
X165772750Y-103150200D01*
G75*
G02*
X165922750Y-103300200I0J-150000D01*
G01*
X165922750Y-104950200D01*
G75*
G02*
X165772750Y-105100200I-150000J0D01*
G01*
G37*
G36*
G01*
X178459750Y-100100200D02*
X178159750Y-100100200D01*
G75*
G02*
X178009750Y-99950200I0J150000D01*
G01*
X178009750Y-98300200D01*
G75*
G02*
X178159750Y-98150200I150000J0D01*
G01*
X178459750Y-98150200D01*
G75*
G02*
X178609750Y-98300200I0J-150000D01*
G01*
X178609750Y-99950200D01*
G75*
G02*
X178459750Y-100100200I-150000J0D01*
G01*
G37*
G36*
G01*
X179729750Y-100100200D02*
X179429750Y-100100200D01*
G75*
G02*
X179279750Y-99950200I0J150000D01*
G01*
X179279750Y-98300200D01*
G75*
G02*
X179429750Y-98150200I150000J0D01*
G01*
X179729750Y-98150200D01*
G75*
G02*
X179879750Y-98300200I0J-150000D01*
G01*
X179879750Y-99950200D01*
G75*
G02*
X179729750Y-100100200I-150000J0D01*
G01*
G37*
G36*
G01*
X180999750Y-100100200D02*
X180699750Y-100100200D01*
G75*
G02*
X180549750Y-99950200I0J150000D01*
G01*
X180549750Y-98300200D01*
G75*
G02*
X180699750Y-98150200I150000J0D01*
G01*
X180999750Y-98150200D01*
G75*
G02*
X181149750Y-98300200I0J-150000D01*
G01*
X181149750Y-99950200D01*
G75*
G02*
X180999750Y-100100200I-150000J0D01*
G01*
G37*
G36*
G01*
X182269750Y-100100200D02*
X181969750Y-100100200D01*
G75*
G02*
X181819750Y-99950200I0J150000D01*
G01*
X181819750Y-98300200D01*
G75*
G02*
X181969750Y-98150200I150000J0D01*
G01*
X182269750Y-98150200D01*
G75*
G02*
X182419750Y-98300200I0J-150000D01*
G01*
X182419750Y-99950200D01*
G75*
G02*
X182269750Y-100100200I-150000J0D01*
G01*
G37*
G36*
G01*
X182269750Y-105050200D02*
X181969750Y-105050200D01*
G75*
G02*
X181819750Y-104900200I0J150000D01*
G01*
X181819750Y-103250200D01*
G75*
G02*
X181969750Y-103100200I150000J0D01*
G01*
X182269750Y-103100200D01*
G75*
G02*
X182419750Y-103250200I0J-150000D01*
G01*
X182419750Y-104900200D01*
G75*
G02*
X182269750Y-105050200I-150000J0D01*
G01*
G37*
G36*
G01*
X180999750Y-105050200D02*
X180699750Y-105050200D01*
G75*
G02*
X180549750Y-104900200I0J150000D01*
G01*
X180549750Y-103250200D01*
G75*
G02*
X180699750Y-103100200I150000J0D01*
G01*
X180999750Y-103100200D01*
G75*
G02*
X181149750Y-103250200I0J-150000D01*
G01*
X181149750Y-104900200D01*
G75*
G02*
X180999750Y-105050200I-150000J0D01*
G01*
G37*
G36*
G01*
X179729750Y-105050200D02*
X179429750Y-105050200D01*
G75*
G02*
X179279750Y-104900200I0J150000D01*
G01*
X179279750Y-103250200D01*
G75*
G02*
X179429750Y-103100200I150000J0D01*
G01*
X179729750Y-103100200D01*
G75*
G02*
X179879750Y-103250200I0J-150000D01*
G01*
X179879750Y-104900200D01*
G75*
G02*
X179729750Y-105050200I-150000J0D01*
G01*
G37*
G36*
G01*
X178459750Y-105050200D02*
X178159750Y-105050200D01*
G75*
G02*
X178009750Y-104900200I0J150000D01*
G01*
X178009750Y-103250200D01*
G75*
G02*
X178159750Y-103100200I150000J0D01*
G01*
X178459750Y-103100200D01*
G75*
G02*
X178609750Y-103250200I0J-150000D01*
G01*
X178609750Y-104900200D01*
G75*
G02*
X178459750Y-105050200I-150000J0D01*
G01*
G37*
G36*
G01*
X153271750Y-100125200D02*
X152971750Y-100125200D01*
G75*
G02*
X152821750Y-99975200I0J150000D01*
G01*
X152821750Y-98325200D01*
G75*
G02*
X152971750Y-98175200I150000J0D01*
G01*
X153271750Y-98175200D01*
G75*
G02*
X153421750Y-98325200I0J-150000D01*
G01*
X153421750Y-99975200D01*
G75*
G02*
X153271750Y-100125200I-150000J0D01*
G01*
G37*
G36*
G01*
X154541750Y-100125200D02*
X154241750Y-100125200D01*
G75*
G02*
X154091750Y-99975200I0J150000D01*
G01*
X154091750Y-98325200D01*
G75*
G02*
X154241750Y-98175200I150000J0D01*
G01*
X154541750Y-98175200D01*
G75*
G02*
X154691750Y-98325200I0J-150000D01*
G01*
X154691750Y-99975200D01*
G75*
G02*
X154541750Y-100125200I-150000J0D01*
G01*
G37*
G36*
G01*
X155811750Y-100125200D02*
X155511750Y-100125200D01*
G75*
G02*
X155361750Y-99975200I0J150000D01*
G01*
X155361750Y-98325200D01*
G75*
G02*
X155511750Y-98175200I150000J0D01*
G01*
X155811750Y-98175200D01*
G75*
G02*
X155961750Y-98325200I0J-150000D01*
G01*
X155961750Y-99975200D01*
G75*
G02*
X155811750Y-100125200I-150000J0D01*
G01*
G37*
G36*
G01*
X157081750Y-100125200D02*
X156781750Y-100125200D01*
G75*
G02*
X156631750Y-99975200I0J150000D01*
G01*
X156631750Y-98325200D01*
G75*
G02*
X156781750Y-98175200I150000J0D01*
G01*
X157081750Y-98175200D01*
G75*
G02*
X157231750Y-98325200I0J-150000D01*
G01*
X157231750Y-99975200D01*
G75*
G02*
X157081750Y-100125200I-150000J0D01*
G01*
G37*
G36*
G01*
X157081750Y-105075200D02*
X156781750Y-105075200D01*
G75*
G02*
X156631750Y-104925200I0J150000D01*
G01*
X156631750Y-103275200D01*
G75*
G02*
X156781750Y-103125200I150000J0D01*
G01*
X157081750Y-103125200D01*
G75*
G02*
X157231750Y-103275200I0J-150000D01*
G01*
X157231750Y-104925200D01*
G75*
G02*
X157081750Y-105075200I-150000J0D01*
G01*
G37*
G36*
G01*
X155811750Y-105075200D02*
X155511750Y-105075200D01*
G75*
G02*
X155361750Y-104925200I0J150000D01*
G01*
X155361750Y-103275200D01*
G75*
G02*
X155511750Y-103125200I150000J0D01*
G01*
X155811750Y-103125200D01*
G75*
G02*
X155961750Y-103275200I0J-150000D01*
G01*
X155961750Y-104925200D01*
G75*
G02*
X155811750Y-105075200I-150000J0D01*
G01*
G37*
G36*
G01*
X154541750Y-105075200D02*
X154241750Y-105075200D01*
G75*
G02*
X154091750Y-104925200I0J150000D01*
G01*
X154091750Y-103275200D01*
G75*
G02*
X154241750Y-103125200I150000J0D01*
G01*
X154541750Y-103125200D01*
G75*
G02*
X154691750Y-103275200I0J-150000D01*
G01*
X154691750Y-104925200D01*
G75*
G02*
X154541750Y-105075200I-150000J0D01*
G01*
G37*
G36*
G01*
X153271750Y-105075200D02*
X152971750Y-105075200D01*
G75*
G02*
X152821750Y-104925200I0J150000D01*
G01*
X152821750Y-103275200D01*
G75*
G02*
X152971750Y-103125200I150000J0D01*
G01*
X153271750Y-103125200D01*
G75*
G02*
X153421750Y-103275200I0J-150000D01*
G01*
X153421750Y-104925200D01*
G75*
G02*
X153271750Y-105075200I-150000J0D01*
G01*
G37*
G36*
G01*
X172058750Y-100175200D02*
X171758750Y-100175200D01*
G75*
G02*
X171608750Y-100025200I0J150000D01*
G01*
X171608750Y-98375200D01*
G75*
G02*
X171758750Y-98225200I150000J0D01*
G01*
X172058750Y-98225200D01*
G75*
G02*
X172208750Y-98375200I0J-150000D01*
G01*
X172208750Y-100025200D01*
G75*
G02*
X172058750Y-100175200I-150000J0D01*
G01*
G37*
G36*
G01*
X173328750Y-100175200D02*
X173028750Y-100175200D01*
G75*
G02*
X172878750Y-100025200I0J150000D01*
G01*
X172878750Y-98375200D01*
G75*
G02*
X173028750Y-98225200I150000J0D01*
G01*
X173328750Y-98225200D01*
G75*
G02*
X173478750Y-98375200I0J-150000D01*
G01*
X173478750Y-100025200D01*
G75*
G02*
X173328750Y-100175200I-150000J0D01*
G01*
G37*
G36*
G01*
X174598750Y-100175200D02*
X174298750Y-100175200D01*
G75*
G02*
X174148750Y-100025200I0J150000D01*
G01*
X174148750Y-98375200D01*
G75*
G02*
X174298750Y-98225200I150000J0D01*
G01*
X174598750Y-98225200D01*
G75*
G02*
X174748750Y-98375200I0J-150000D01*
G01*
X174748750Y-100025200D01*
G75*
G02*
X174598750Y-100175200I-150000J0D01*
G01*
G37*
G36*
G01*
X175868750Y-100175200D02*
X175568750Y-100175200D01*
G75*
G02*
X175418750Y-100025200I0J150000D01*
G01*
X175418750Y-98375200D01*
G75*
G02*
X175568750Y-98225200I150000J0D01*
G01*
X175868750Y-98225200D01*
G75*
G02*
X176018750Y-98375200I0J-150000D01*
G01*
X176018750Y-100025200D01*
G75*
G02*
X175868750Y-100175200I-150000J0D01*
G01*
G37*
G36*
G01*
X175868750Y-105125200D02*
X175568750Y-105125200D01*
G75*
G02*
X175418750Y-104975200I0J150000D01*
G01*
X175418750Y-103325200D01*
G75*
G02*
X175568750Y-103175200I150000J0D01*
G01*
X175868750Y-103175200D01*
G75*
G02*
X176018750Y-103325200I0J-150000D01*
G01*
X176018750Y-104975200D01*
G75*
G02*
X175868750Y-105125200I-150000J0D01*
G01*
G37*
G36*
G01*
X174598750Y-105125200D02*
X174298750Y-105125200D01*
G75*
G02*
X174148750Y-104975200I0J150000D01*
G01*
X174148750Y-103325200D01*
G75*
G02*
X174298750Y-103175200I150000J0D01*
G01*
X174598750Y-103175200D01*
G75*
G02*
X174748750Y-103325200I0J-150000D01*
G01*
X174748750Y-104975200D01*
G75*
G02*
X174598750Y-105125200I-150000J0D01*
G01*
G37*
G36*
G01*
X173328750Y-105125200D02*
X173028750Y-105125200D01*
G75*
G02*
X172878750Y-104975200I0J150000D01*
G01*
X172878750Y-103325200D01*
G75*
G02*
X173028750Y-103175200I150000J0D01*
G01*
X173328750Y-103175200D01*
G75*
G02*
X173478750Y-103325200I0J-150000D01*
G01*
X173478750Y-104975200D01*
G75*
G02*
X173328750Y-105125200I-150000J0D01*
G01*
G37*
G36*
G01*
X172058750Y-105125200D02*
X171758750Y-105125200D01*
G75*
G02*
X171608750Y-104975200I0J150000D01*
G01*
X171608750Y-103325200D01*
G75*
G02*
X171758750Y-103175200I150000J0D01*
G01*
X172058750Y-103175200D01*
G75*
G02*
X172208750Y-103325200I0J-150000D01*
G01*
X172208750Y-104975200D01*
G75*
G02*
X172058750Y-105125200I-150000J0D01*
G01*
G37*
G36*
G01*
X159524750Y-100150200D02*
X159224750Y-100150200D01*
G75*
G02*
X159074750Y-100000200I0J150000D01*
G01*
X159074750Y-98350200D01*
G75*
G02*
X159224750Y-98200200I150000J0D01*
G01*
X159524750Y-98200200D01*
G75*
G02*
X159674750Y-98350200I0J-150000D01*
G01*
X159674750Y-100000200D01*
G75*
G02*
X159524750Y-100150200I-150000J0D01*
G01*
G37*
G36*
G01*
X160794750Y-100150200D02*
X160494750Y-100150200D01*
G75*
G02*
X160344750Y-100000200I0J150000D01*
G01*
X160344750Y-98350200D01*
G75*
G02*
X160494750Y-98200200I150000J0D01*
G01*
X160794750Y-98200200D01*
G75*
G02*
X160944750Y-98350200I0J-150000D01*
G01*
X160944750Y-100000200D01*
G75*
G02*
X160794750Y-100150200I-150000J0D01*
G01*
G37*
G36*
G01*
X162064750Y-100150200D02*
X161764750Y-100150200D01*
G75*
G02*
X161614750Y-100000200I0J150000D01*
G01*
X161614750Y-98350200D01*
G75*
G02*
X161764750Y-98200200I150000J0D01*
G01*
X162064750Y-98200200D01*
G75*
G02*
X162214750Y-98350200I0J-150000D01*
G01*
X162214750Y-100000200D01*
G75*
G02*
X162064750Y-100150200I-150000J0D01*
G01*
G37*
G36*
G01*
X163334750Y-100150200D02*
X163034750Y-100150200D01*
G75*
G02*
X162884750Y-100000200I0J150000D01*
G01*
X162884750Y-98350200D01*
G75*
G02*
X163034750Y-98200200I150000J0D01*
G01*
X163334750Y-98200200D01*
G75*
G02*
X163484750Y-98350200I0J-150000D01*
G01*
X163484750Y-100000200D01*
G75*
G02*
X163334750Y-100150200I-150000J0D01*
G01*
G37*
G36*
G01*
X163334750Y-105100200D02*
X163034750Y-105100200D01*
G75*
G02*
X162884750Y-104950200I0J150000D01*
G01*
X162884750Y-103300200D01*
G75*
G02*
X163034750Y-103150200I150000J0D01*
G01*
X163334750Y-103150200D01*
G75*
G02*
X163484750Y-103300200I0J-150000D01*
G01*
X163484750Y-104950200D01*
G75*
G02*
X163334750Y-105100200I-150000J0D01*
G01*
G37*
G36*
G01*
X162064750Y-105100200D02*
X161764750Y-105100200D01*
G75*
G02*
X161614750Y-104950200I0J150000D01*
G01*
X161614750Y-103300200D01*
G75*
G02*
X161764750Y-103150200I150000J0D01*
G01*
X162064750Y-103150200D01*
G75*
G02*
X162214750Y-103300200I0J-150000D01*
G01*
X162214750Y-104950200D01*
G75*
G02*
X162064750Y-105100200I-150000J0D01*
G01*
G37*
G36*
G01*
X160794750Y-105100200D02*
X160494750Y-105100200D01*
G75*
G02*
X160344750Y-104950200I0J150000D01*
G01*
X160344750Y-103300200D01*
G75*
G02*
X160494750Y-103150200I150000J0D01*
G01*
X160794750Y-103150200D01*
G75*
G02*
X160944750Y-103300200I0J-150000D01*
G01*
X160944750Y-104950200D01*
G75*
G02*
X160794750Y-105100200I-150000J0D01*
G01*
G37*
G36*
G01*
X159524750Y-105100200D02*
X159224750Y-105100200D01*
G75*
G02*
X159074750Y-104950200I0J150000D01*
G01*
X159074750Y-103300200D01*
G75*
G02*
X159224750Y-103150200I150000J0D01*
G01*
X159524750Y-103150200D01*
G75*
G02*
X159674750Y-103300200I0J-150000D01*
G01*
X159674750Y-104950200D01*
G75*
G02*
X159524750Y-105100200I-150000J0D01*
G01*
G37*
D20*
X162719200Y-30659000D03*
X160179200Y-30659000D03*
D21*
X157639200Y-30659000D03*
D27*
X180230000Y-30419000D03*
X180230000Y-32319000D03*
X177910000Y-32319000D03*
X177910000Y-31369000D03*
X177910000Y-30419000D03*
D28*
X180045000Y-22113000D03*
X180045000Y-20813000D03*
X178095000Y-20813000D03*
X178095000Y-22113000D03*
D29*
X197770800Y-30368000D03*
X195230800Y-31638000D03*
X197770800Y-25288000D03*
X197770800Y-24018000D03*
D30*
X197770800Y-31638000D03*
D29*
X197770800Y-27828000D03*
X195230800Y-25288000D03*
X197770800Y-21478000D03*
X195230800Y-24018000D03*
X195230800Y-20208000D03*
X197770800Y-29098000D03*
X195230800Y-27828000D03*
X195230800Y-26558000D03*
X197770800Y-22748000D03*
X195230800Y-22748000D03*
X195230800Y-29098000D03*
X195230800Y-21478000D03*
X197770800Y-20208000D03*
X195230800Y-30368000D03*
X197770800Y-26558000D03*
D31*
X178900000Y-74600000D03*
D32*
X259850000Y-43340000D03*
X259850000Y-38260000D03*
X253500000Y-38260000D03*
X253500000Y-43340000D03*
X253500000Y-40800000D03*
G36*
G01*
X232239000Y-90948500D02*
X232239000Y-91423500D01*
G75*
G02*
X232001500Y-91661000I-237500J0D01*
G01*
X231501500Y-91661000D01*
G75*
G02*
X231264000Y-91423500I0J237500D01*
G01*
X231264000Y-90948500D01*
G75*
G02*
X231501500Y-90711000I237500J0D01*
G01*
X232001500Y-90711000D01*
G75*
G02*
X232239000Y-90948500I0J-237500D01*
G01*
G37*
G36*
G01*
X234064000Y-90948500D02*
X234064000Y-91423500D01*
G75*
G02*
X233826500Y-91661000I-237500J0D01*
G01*
X233326500Y-91661000D01*
G75*
G02*
X233089000Y-91423500I0J237500D01*
G01*
X233089000Y-90948500D01*
G75*
G02*
X233326500Y-90711000I237500J0D01*
G01*
X233826500Y-90711000D01*
G75*
G02*
X234064000Y-90948500I0J-237500D01*
G01*
G37*
G36*
G01*
X232275000Y-97162500D02*
X232275000Y-97637500D01*
G75*
G02*
X232037500Y-97875000I-237500J0D01*
G01*
X231537500Y-97875000D01*
G75*
G02*
X231300000Y-97637500I0J237500D01*
G01*
X231300000Y-97162500D01*
G75*
G02*
X231537500Y-96925000I237500J0D01*
G01*
X232037500Y-96925000D01*
G75*
G02*
X232275000Y-97162500I0J-237500D01*
G01*
G37*
G36*
G01*
X234100000Y-97162500D02*
X234100000Y-97637500D01*
G75*
G02*
X233862500Y-97875000I-237500J0D01*
G01*
X233362500Y-97875000D01*
G75*
G02*
X233125000Y-97637500I0J237500D01*
G01*
X233125000Y-97162500D01*
G75*
G02*
X233362500Y-96925000I237500J0D01*
G01*
X233862500Y-96925000D01*
G75*
G02*
X234100000Y-97162500I0J-237500D01*
G01*
G37*
G36*
G01*
X238662500Y-105425000D02*
X239137500Y-105425000D01*
G75*
G02*
X239375000Y-105662500I0J-237500D01*
G01*
X239375000Y-106162500D01*
G75*
G02*
X239137500Y-106400000I-237500J0D01*
G01*
X238662500Y-106400000D01*
G75*
G02*
X238425000Y-106162500I0J237500D01*
G01*
X238425000Y-105662500D01*
G75*
G02*
X238662500Y-105425000I237500J0D01*
G01*
G37*
G36*
G01*
X238662500Y-103600000D02*
X239137500Y-103600000D01*
G75*
G02*
X239375000Y-103837500I0J-237500D01*
G01*
X239375000Y-104337500D01*
G75*
G02*
X239137500Y-104575000I-237500J0D01*
G01*
X238662500Y-104575000D01*
G75*
G02*
X238425000Y-104337500I0J237500D01*
G01*
X238425000Y-103837500D01*
G75*
G02*
X238662500Y-103600000I237500J0D01*
G01*
G37*
G36*
G01*
X213425000Y-106237500D02*
X213425000Y-105762500D01*
G75*
G02*
X213662500Y-105525000I237500J0D01*
G01*
X214162500Y-105525000D01*
G75*
G02*
X214400000Y-105762500I0J-237500D01*
G01*
X214400000Y-106237500D01*
G75*
G02*
X214162500Y-106475000I-237500J0D01*
G01*
X213662500Y-106475000D01*
G75*
G02*
X213425000Y-106237500I0J237500D01*
G01*
G37*
G36*
G01*
X211600000Y-106237500D02*
X211600000Y-105762500D01*
G75*
G02*
X211837500Y-105525000I237500J0D01*
G01*
X212337500Y-105525000D01*
G75*
G02*
X212575000Y-105762500I0J-237500D01*
G01*
X212575000Y-106237500D01*
G75*
G02*
X212337500Y-106475000I-237500J0D01*
G01*
X211837500Y-106475000D01*
G75*
G02*
X211600000Y-106237500I0J237500D01*
G01*
G37*
G36*
G01*
X212575000Y-107362500D02*
X212575000Y-107837500D01*
G75*
G02*
X212337500Y-108075000I-237500J0D01*
G01*
X211837500Y-108075000D01*
G75*
G02*
X211600000Y-107837500I0J237500D01*
G01*
X211600000Y-107362500D01*
G75*
G02*
X211837500Y-107125000I237500J0D01*
G01*
X212337500Y-107125000D01*
G75*
G02*
X212575000Y-107362500I0J-237500D01*
G01*
G37*
G36*
G01*
X214400000Y-107362500D02*
X214400000Y-107837500D01*
G75*
G02*
X214162500Y-108075000I-237500J0D01*
G01*
X213662500Y-108075000D01*
G75*
G02*
X213425000Y-107837500I0J237500D01*
G01*
X213425000Y-107362500D01*
G75*
G02*
X213662500Y-107125000I237500J0D01*
G01*
X214162500Y-107125000D01*
G75*
G02*
X214400000Y-107362500I0J-237500D01*
G01*
G37*
G36*
G01*
X217225000Y-91925700D02*
X217225000Y-91450700D01*
G75*
G02*
X217462500Y-91213200I237500J0D01*
G01*
X217962500Y-91213200D01*
G75*
G02*
X218200000Y-91450700I0J-237500D01*
G01*
X218200000Y-91925700D01*
G75*
G02*
X217962500Y-92163200I-237500J0D01*
G01*
X217462500Y-92163200D01*
G75*
G02*
X217225000Y-91925700I0J237500D01*
G01*
G37*
G36*
G01*
X215400000Y-91925700D02*
X215400000Y-91450700D01*
G75*
G02*
X215637500Y-91213200I237500J0D01*
G01*
X216137500Y-91213200D01*
G75*
G02*
X216375000Y-91450700I0J-237500D01*
G01*
X216375000Y-91925700D01*
G75*
G02*
X216137500Y-92163200I-237500J0D01*
G01*
X215637500Y-92163200D01*
G75*
G02*
X215400000Y-91925700I0J237500D01*
G01*
G37*
G36*
G01*
X220907400Y-91900300D02*
X220907400Y-91425300D01*
G75*
G02*
X221144900Y-91187800I237500J0D01*
G01*
X221644900Y-91187800D01*
G75*
G02*
X221882400Y-91425300I0J-237500D01*
G01*
X221882400Y-91900300D01*
G75*
G02*
X221644900Y-92137800I-237500J0D01*
G01*
X221144900Y-92137800D01*
G75*
G02*
X220907400Y-91900300I0J237500D01*
G01*
G37*
G36*
G01*
X219082400Y-91900300D02*
X219082400Y-91425300D01*
G75*
G02*
X219319900Y-91187800I237500J0D01*
G01*
X219819900Y-91187800D01*
G75*
G02*
X220057400Y-91425300I0J-237500D01*
G01*
X220057400Y-91900300D01*
G75*
G02*
X219819900Y-92137800I-237500J0D01*
G01*
X219319900Y-92137800D01*
G75*
G02*
X219082400Y-91900300I0J237500D01*
G01*
G37*
G36*
G01*
X211237500Y-89775000D02*
X210762500Y-89775000D01*
G75*
G02*
X210525000Y-89537500I0J237500D01*
G01*
X210525000Y-89037500D01*
G75*
G02*
X210762500Y-88800000I237500J0D01*
G01*
X211237500Y-88800000D01*
G75*
G02*
X211475000Y-89037500I0J-237500D01*
G01*
X211475000Y-89537500D01*
G75*
G02*
X211237500Y-89775000I-237500J0D01*
G01*
G37*
G36*
G01*
X211237500Y-91600000D02*
X210762500Y-91600000D01*
G75*
G02*
X210525000Y-91362500I0J237500D01*
G01*
X210525000Y-90862500D01*
G75*
G02*
X210762500Y-90625000I237500J0D01*
G01*
X211237500Y-90625000D01*
G75*
G02*
X211475000Y-90862500I0J-237500D01*
G01*
X211475000Y-91362500D01*
G75*
G02*
X211237500Y-91600000I-237500J0D01*
G01*
G37*
G36*
G01*
X213913800Y-89493100D02*
X213913800Y-89018100D01*
G75*
G02*
X214151300Y-88780600I237500J0D01*
G01*
X214651300Y-88780600D01*
G75*
G02*
X214888800Y-89018100I0J-237500D01*
G01*
X214888800Y-89493100D01*
G75*
G02*
X214651300Y-89730600I-237500J0D01*
G01*
X214151300Y-89730600D01*
G75*
G02*
X213913800Y-89493100I0J237500D01*
G01*
G37*
G36*
G01*
X212088800Y-89493100D02*
X212088800Y-89018100D01*
G75*
G02*
X212326300Y-88780600I237500J0D01*
G01*
X212826300Y-88780600D01*
G75*
G02*
X213063800Y-89018100I0J-237500D01*
G01*
X213063800Y-89493100D01*
G75*
G02*
X212826300Y-89730600I-237500J0D01*
G01*
X212326300Y-89730600D01*
G75*
G02*
X212088800Y-89493100I0J237500D01*
G01*
G37*
G36*
G01*
X174437500Y-65275000D02*
X173962500Y-65275000D01*
G75*
G02*
X173725000Y-65037500I0J237500D01*
G01*
X173725000Y-64537500D01*
G75*
G02*
X173962500Y-64300000I237500J0D01*
G01*
X174437500Y-64300000D01*
G75*
G02*
X174675000Y-64537500I0J-237500D01*
G01*
X174675000Y-65037500D01*
G75*
G02*
X174437500Y-65275000I-237500J0D01*
G01*
G37*
G36*
G01*
X174437500Y-67100000D02*
X173962500Y-67100000D01*
G75*
G02*
X173725000Y-66862500I0J237500D01*
G01*
X173725000Y-66362500D01*
G75*
G02*
X173962500Y-66125000I237500J0D01*
G01*
X174437500Y-66125000D01*
G75*
G02*
X174675000Y-66362500I0J-237500D01*
G01*
X174675000Y-66862500D01*
G75*
G02*
X174437500Y-67100000I-237500J0D01*
G01*
G37*
G36*
G01*
X175575000Y-74837500D02*
X175575000Y-74362500D01*
G75*
G02*
X175812500Y-74125000I237500J0D01*
G01*
X176312500Y-74125000D01*
G75*
G02*
X176550000Y-74362500I0J-237500D01*
G01*
X176550000Y-74837500D01*
G75*
G02*
X176312500Y-75075000I-237500J0D01*
G01*
X175812500Y-75075000D01*
G75*
G02*
X175575000Y-74837500I0J237500D01*
G01*
G37*
G36*
G01*
X173750000Y-74837500D02*
X173750000Y-74362500D01*
G75*
G02*
X173987500Y-74125000I237500J0D01*
G01*
X174487500Y-74125000D01*
G75*
G02*
X174725000Y-74362500I0J-237500D01*
G01*
X174725000Y-74837500D01*
G75*
G02*
X174487500Y-75075000I-237500J0D01*
G01*
X173987500Y-75075000D01*
G75*
G02*
X173750000Y-74837500I0J237500D01*
G01*
G37*
G36*
G01*
X190796500Y-30295000D02*
X190321500Y-30295000D01*
G75*
G02*
X190084000Y-30057500I0J237500D01*
G01*
X190084000Y-29557500D01*
G75*
G02*
X190321500Y-29320000I237500J0D01*
G01*
X190796500Y-29320000D01*
G75*
G02*
X191034000Y-29557500I0J-237500D01*
G01*
X191034000Y-30057500D01*
G75*
G02*
X190796500Y-30295000I-237500J0D01*
G01*
G37*
G36*
G01*
X190796500Y-32120000D02*
X190321500Y-32120000D01*
G75*
G02*
X190084000Y-31882500I0J237500D01*
G01*
X190084000Y-31382500D01*
G75*
G02*
X190321500Y-31145000I237500J0D01*
G01*
X190796500Y-31145000D01*
G75*
G02*
X191034000Y-31382500I0J-237500D01*
G01*
X191034000Y-31882500D01*
G75*
G02*
X190796500Y-32120000I-237500J0D01*
G01*
G37*
G36*
G01*
X202596500Y-26195000D02*
X202121500Y-26195000D01*
G75*
G02*
X201884000Y-25957500I0J237500D01*
G01*
X201884000Y-25457500D01*
G75*
G02*
X202121500Y-25220000I237500J0D01*
G01*
X202596500Y-25220000D01*
G75*
G02*
X202834000Y-25457500I0J-237500D01*
G01*
X202834000Y-25957500D01*
G75*
G02*
X202596500Y-26195000I-237500J0D01*
G01*
G37*
G36*
G01*
X202596500Y-28020000D02*
X202121500Y-28020000D01*
G75*
G02*
X201884000Y-27782500I0J237500D01*
G01*
X201884000Y-27282500D01*
G75*
G02*
X202121500Y-27045000I237500J0D01*
G01*
X202596500Y-27045000D01*
G75*
G02*
X202834000Y-27282500I0J-237500D01*
G01*
X202834000Y-27782500D01*
G75*
G02*
X202596500Y-28020000I-237500J0D01*
G01*
G37*
G36*
G01*
X190796500Y-24495000D02*
X190321500Y-24495000D01*
G75*
G02*
X190084000Y-24257500I0J237500D01*
G01*
X190084000Y-23757500D01*
G75*
G02*
X190321500Y-23520000I237500J0D01*
G01*
X190796500Y-23520000D01*
G75*
G02*
X191034000Y-23757500I0J-237500D01*
G01*
X191034000Y-24257500D01*
G75*
G02*
X190796500Y-24495000I-237500J0D01*
G01*
G37*
G36*
G01*
X190796500Y-26320000D02*
X190321500Y-26320000D01*
G75*
G02*
X190084000Y-26082500I0J237500D01*
G01*
X190084000Y-25582500D01*
G75*
G02*
X190321500Y-25345000I237500J0D01*
G01*
X190796500Y-25345000D01*
G75*
G02*
X191034000Y-25582500I0J-237500D01*
G01*
X191034000Y-26082500D01*
G75*
G02*
X190796500Y-26320000I-237500J0D01*
G01*
G37*
G36*
G01*
X202596500Y-19895000D02*
X202121500Y-19895000D01*
G75*
G02*
X201884000Y-19657500I0J237500D01*
G01*
X201884000Y-19157500D01*
G75*
G02*
X202121500Y-18920000I237500J0D01*
G01*
X202596500Y-18920000D01*
G75*
G02*
X202834000Y-19157500I0J-237500D01*
G01*
X202834000Y-19657500D01*
G75*
G02*
X202596500Y-19895000I-237500J0D01*
G01*
G37*
G36*
G01*
X202596500Y-21720000D02*
X202121500Y-21720000D01*
G75*
G02*
X201884000Y-21482500I0J237500D01*
G01*
X201884000Y-20982500D01*
G75*
G02*
X202121500Y-20745000I237500J0D01*
G01*
X202596500Y-20745000D01*
G75*
G02*
X202834000Y-20982500I0J-237500D01*
G01*
X202834000Y-21482500D01*
G75*
G02*
X202596500Y-21720000I-237500J0D01*
G01*
G37*
G36*
G01*
X202121500Y-30645000D02*
X202596500Y-30645000D01*
G75*
G02*
X202834000Y-30882500I0J-237500D01*
G01*
X202834000Y-31382500D01*
G75*
G02*
X202596500Y-31620000I-237500J0D01*
G01*
X202121500Y-31620000D01*
G75*
G02*
X201884000Y-31382500I0J237500D01*
G01*
X201884000Y-30882500D01*
G75*
G02*
X202121500Y-30645000I237500J0D01*
G01*
G37*
G36*
G01*
X202121500Y-28820000D02*
X202596500Y-28820000D01*
G75*
G02*
X202834000Y-29057500I0J-237500D01*
G01*
X202834000Y-29557500D01*
G75*
G02*
X202596500Y-29795000I-237500J0D01*
G01*
X202121500Y-29795000D01*
G75*
G02*
X201884000Y-29557500I0J237500D01*
G01*
X201884000Y-29057500D01*
G75*
G02*
X202121500Y-28820000I237500J0D01*
G01*
G37*
G36*
G01*
X250841500Y-39287000D02*
X251316500Y-39287000D01*
G75*
G02*
X251554000Y-39524500I0J-237500D01*
G01*
X251554000Y-40024500D01*
G75*
G02*
X251316500Y-40262000I-237500J0D01*
G01*
X250841500Y-40262000D01*
G75*
G02*
X250604000Y-40024500I0J237500D01*
G01*
X250604000Y-39524500D01*
G75*
G02*
X250841500Y-39287000I237500J0D01*
G01*
G37*
G36*
G01*
X250841500Y-37462000D02*
X251316500Y-37462000D01*
G75*
G02*
X251554000Y-37699500I0J-237500D01*
G01*
X251554000Y-38199500D01*
G75*
G02*
X251316500Y-38437000I-237500J0D01*
G01*
X250841500Y-38437000D01*
G75*
G02*
X250604000Y-38199500I0J237500D01*
G01*
X250604000Y-37699500D01*
G75*
G02*
X250841500Y-37462000I237500J0D01*
G01*
G37*
G36*
G01*
X251316500Y-42755000D02*
X250841500Y-42755000D01*
G75*
G02*
X250604000Y-42517500I0J237500D01*
G01*
X250604000Y-42017500D01*
G75*
G02*
X250841500Y-41780000I237500J0D01*
G01*
X251316500Y-41780000D01*
G75*
G02*
X251554000Y-42017500I0J-237500D01*
G01*
X251554000Y-42517500D01*
G75*
G02*
X251316500Y-42755000I-237500J0D01*
G01*
G37*
G36*
G01*
X251316500Y-44580000D02*
X250841500Y-44580000D01*
G75*
G02*
X250604000Y-44342500I0J237500D01*
G01*
X250604000Y-43842500D01*
G75*
G02*
X250841500Y-43605000I237500J0D01*
G01*
X251316500Y-43605000D01*
G75*
G02*
X251554000Y-43842500I0J-237500D01*
G01*
X251554000Y-44342500D01*
G75*
G02*
X251316500Y-44580000I-237500J0D01*
G01*
G37*
G36*
G01*
X223808500Y-68167500D02*
X224283500Y-68167500D01*
G75*
G02*
X224521000Y-68405000I0J-237500D01*
G01*
X224521000Y-68905000D01*
G75*
G02*
X224283500Y-69142500I-237500J0D01*
G01*
X223808500Y-69142500D01*
G75*
G02*
X223571000Y-68905000I0J237500D01*
G01*
X223571000Y-68405000D01*
G75*
G02*
X223808500Y-68167500I237500J0D01*
G01*
G37*
G36*
G01*
X223808500Y-66342500D02*
X224283500Y-66342500D01*
G75*
G02*
X224521000Y-66580000I0J-237500D01*
G01*
X224521000Y-67080000D01*
G75*
G02*
X224283500Y-67317500I-237500J0D01*
G01*
X223808500Y-67317500D01*
G75*
G02*
X223571000Y-67080000I0J237500D01*
G01*
X223571000Y-66580000D01*
G75*
G02*
X223808500Y-66342500I237500J0D01*
G01*
G37*
G36*
G01*
X223808500Y-59467500D02*
X224283500Y-59467500D01*
G75*
G02*
X224521000Y-59705000I0J-237500D01*
G01*
X224521000Y-60205000D01*
G75*
G02*
X224283500Y-60442500I-237500J0D01*
G01*
X223808500Y-60442500D01*
G75*
G02*
X223571000Y-60205000I0J237500D01*
G01*
X223571000Y-59705000D01*
G75*
G02*
X223808500Y-59467500I237500J0D01*
G01*
G37*
G36*
G01*
X223808500Y-57642500D02*
X224283500Y-57642500D01*
G75*
G02*
X224521000Y-57880000I0J-237500D01*
G01*
X224521000Y-58380000D01*
G75*
G02*
X224283500Y-58617500I-237500J0D01*
G01*
X223808500Y-58617500D01*
G75*
G02*
X223571000Y-58380000I0J237500D01*
G01*
X223571000Y-57880000D01*
G75*
G02*
X223808500Y-57642500I237500J0D01*
G01*
G37*
G36*
G01*
X223808500Y-51055000D02*
X224283500Y-51055000D01*
G75*
G02*
X224521000Y-51292500I0J-237500D01*
G01*
X224521000Y-51792500D01*
G75*
G02*
X224283500Y-52030000I-237500J0D01*
G01*
X223808500Y-52030000D01*
G75*
G02*
X223571000Y-51792500I0J237500D01*
G01*
X223571000Y-51292500D01*
G75*
G02*
X223808500Y-51055000I237500J0D01*
G01*
G37*
G36*
G01*
X223808500Y-49230000D02*
X224283500Y-49230000D01*
G75*
G02*
X224521000Y-49467500I0J-237500D01*
G01*
X224521000Y-49967500D01*
G75*
G02*
X224283500Y-50205000I-237500J0D01*
G01*
X223808500Y-50205000D01*
G75*
G02*
X223571000Y-49967500I0J237500D01*
G01*
X223571000Y-49467500D01*
G75*
G02*
X223808500Y-49230000I237500J0D01*
G01*
G37*
G36*
G01*
X227413000Y-68342500D02*
X227413000Y-68817500D01*
G75*
G02*
X227175500Y-69055000I-237500J0D01*
G01*
X226675500Y-69055000D01*
G75*
G02*
X226438000Y-68817500I0J237500D01*
G01*
X226438000Y-68342500D01*
G75*
G02*
X226675500Y-68105000I237500J0D01*
G01*
X227175500Y-68105000D01*
G75*
G02*
X227413000Y-68342500I0J-237500D01*
G01*
G37*
G36*
G01*
X229238000Y-68342500D02*
X229238000Y-68817500D01*
G75*
G02*
X229000500Y-69055000I-237500J0D01*
G01*
X228500500Y-69055000D01*
G75*
G02*
X228263000Y-68817500I0J237500D01*
G01*
X228263000Y-68342500D01*
G75*
G02*
X228500500Y-68105000I237500J0D01*
G01*
X229000500Y-68105000D01*
G75*
G02*
X229238000Y-68342500I0J-237500D01*
G01*
G37*
G36*
G01*
X227421000Y-59692500D02*
X227421000Y-60167500D01*
G75*
G02*
X227183500Y-60405000I-237500J0D01*
G01*
X226683500Y-60405000D01*
G75*
G02*
X226446000Y-60167500I0J237500D01*
G01*
X226446000Y-59692500D01*
G75*
G02*
X226683500Y-59455000I237500J0D01*
G01*
X227183500Y-59455000D01*
G75*
G02*
X227421000Y-59692500I0J-237500D01*
G01*
G37*
G36*
G01*
X229246000Y-59692500D02*
X229246000Y-60167500D01*
G75*
G02*
X229008500Y-60405000I-237500J0D01*
G01*
X228508500Y-60405000D01*
G75*
G02*
X228271000Y-60167500I0J237500D01*
G01*
X228271000Y-59692500D01*
G75*
G02*
X228508500Y-59455000I237500J0D01*
G01*
X229008500Y-59455000D01*
G75*
G02*
X229246000Y-59692500I0J-237500D01*
G01*
G37*
G36*
G01*
X227121000Y-51292500D02*
X227121000Y-51767500D01*
G75*
G02*
X226883500Y-52005000I-237500J0D01*
G01*
X226383500Y-52005000D01*
G75*
G02*
X226146000Y-51767500I0J237500D01*
G01*
X226146000Y-51292500D01*
G75*
G02*
X226383500Y-51055000I237500J0D01*
G01*
X226883500Y-51055000D01*
G75*
G02*
X227121000Y-51292500I0J-237500D01*
G01*
G37*
G36*
G01*
X228946000Y-51292500D02*
X228946000Y-51767500D01*
G75*
G02*
X228708500Y-52005000I-237500J0D01*
G01*
X228208500Y-52005000D01*
G75*
G02*
X227971000Y-51767500I0J237500D01*
G01*
X227971000Y-51292500D01*
G75*
G02*
X228208500Y-51055000I237500J0D01*
G01*
X228708500Y-51055000D01*
G75*
G02*
X228946000Y-51292500I0J-237500D01*
G01*
G37*
G36*
G01*
X235683500Y-67205000D02*
X235208500Y-67205000D01*
G75*
G02*
X234971000Y-66967500I0J237500D01*
G01*
X234971000Y-66467500D01*
G75*
G02*
X235208500Y-66230000I237500J0D01*
G01*
X235683500Y-66230000D01*
G75*
G02*
X235921000Y-66467500I0J-237500D01*
G01*
X235921000Y-66967500D01*
G75*
G02*
X235683500Y-67205000I-237500J0D01*
G01*
G37*
G36*
G01*
X235683500Y-69030000D02*
X235208500Y-69030000D01*
G75*
G02*
X234971000Y-68792500I0J237500D01*
G01*
X234971000Y-68292500D01*
G75*
G02*
X235208500Y-68055000I237500J0D01*
G01*
X235683500Y-68055000D01*
G75*
G02*
X235921000Y-68292500I0J-237500D01*
G01*
X235921000Y-68792500D01*
G75*
G02*
X235683500Y-69030000I-237500J0D01*
G01*
G37*
G36*
G01*
X235650500Y-58505000D02*
X235175500Y-58505000D01*
G75*
G02*
X234938000Y-58267500I0J237500D01*
G01*
X234938000Y-57767500D01*
G75*
G02*
X235175500Y-57530000I237500J0D01*
G01*
X235650500Y-57530000D01*
G75*
G02*
X235888000Y-57767500I0J-237500D01*
G01*
X235888000Y-58267500D01*
G75*
G02*
X235650500Y-58505000I-237500J0D01*
G01*
G37*
G36*
G01*
X235650500Y-60330000D02*
X235175500Y-60330000D01*
G75*
G02*
X234938000Y-60092500I0J237500D01*
G01*
X234938000Y-59592500D01*
G75*
G02*
X235175500Y-59355000I237500J0D01*
G01*
X235650500Y-59355000D01*
G75*
G02*
X235888000Y-59592500I0J-237500D01*
G01*
X235888000Y-60092500D01*
G75*
G02*
X235650500Y-60330000I-237500J0D01*
G01*
G37*
G36*
G01*
X235683500Y-50205000D02*
X235208500Y-50205000D01*
G75*
G02*
X234971000Y-49967500I0J237500D01*
G01*
X234971000Y-49467500D01*
G75*
G02*
X235208500Y-49230000I237500J0D01*
G01*
X235683500Y-49230000D01*
G75*
G02*
X235921000Y-49467500I0J-237500D01*
G01*
X235921000Y-49967500D01*
G75*
G02*
X235683500Y-50205000I-237500J0D01*
G01*
G37*
G36*
G01*
X235683500Y-52030000D02*
X235208500Y-52030000D01*
G75*
G02*
X234971000Y-51792500I0J237500D01*
G01*
X234971000Y-51292500D01*
G75*
G02*
X235208500Y-51055000I237500J0D01*
G01*
X235683500Y-51055000D01*
G75*
G02*
X235921000Y-51292500I0J-237500D01*
G01*
X235921000Y-51792500D01*
G75*
G02*
X235683500Y-52030000I-237500J0D01*
G01*
G37*
G36*
G01*
X149374300Y-100279000D02*
X149849300Y-100279000D01*
G75*
G02*
X150086800Y-100516500I0J-237500D01*
G01*
X150086800Y-101016500D01*
G75*
G02*
X149849300Y-101254000I-237500J0D01*
G01*
X149374300Y-101254000D01*
G75*
G02*
X149136800Y-101016500I0J237500D01*
G01*
X149136800Y-100516500D01*
G75*
G02*
X149374300Y-100279000I237500J0D01*
G01*
G37*
G36*
G01*
X149374300Y-98454000D02*
X149849300Y-98454000D01*
G75*
G02*
X150086800Y-98691500I0J-237500D01*
G01*
X150086800Y-99191500D01*
G75*
G02*
X149849300Y-99429000I-237500J0D01*
G01*
X149374300Y-99429000D01*
G75*
G02*
X149136800Y-99191500I0J237500D01*
G01*
X149136800Y-98691500D01*
G75*
G02*
X149374300Y-98454000I237500J0D01*
G01*
G37*
G36*
G01*
X149374300Y-103962000D02*
X149849300Y-103962000D01*
G75*
G02*
X150086800Y-104199500I0J-237500D01*
G01*
X150086800Y-104699500D01*
G75*
G02*
X149849300Y-104937000I-237500J0D01*
G01*
X149374300Y-104937000D01*
G75*
G02*
X149136800Y-104699500I0J237500D01*
G01*
X149136800Y-104199500D01*
G75*
G02*
X149374300Y-103962000I237500J0D01*
G01*
G37*
G36*
G01*
X149374300Y-102137000D02*
X149849300Y-102137000D01*
G75*
G02*
X150086800Y-102374500I0J-237500D01*
G01*
X150086800Y-102874500D01*
G75*
G02*
X149849300Y-103112000I-237500J0D01*
G01*
X149374300Y-103112000D01*
G75*
G02*
X149136800Y-102874500I0J237500D01*
G01*
X149136800Y-102374500D01*
G75*
G02*
X149374300Y-102137000I237500J0D01*
G01*
G37*
G36*
G01*
X156662500Y-82125000D02*
X157137500Y-82125000D01*
G75*
G02*
X157375000Y-82362500I0J-237500D01*
G01*
X157375000Y-82862500D01*
G75*
G02*
X157137500Y-83100000I-237500J0D01*
G01*
X156662500Y-83100000D01*
G75*
G02*
X156425000Y-82862500I0J237500D01*
G01*
X156425000Y-82362500D01*
G75*
G02*
X156662500Y-82125000I237500J0D01*
G01*
G37*
G36*
G01*
X156662500Y-80300000D02*
X157137500Y-80300000D01*
G75*
G02*
X157375000Y-80537500I0J-237500D01*
G01*
X157375000Y-81037500D01*
G75*
G02*
X157137500Y-81275000I-237500J0D01*
G01*
X156662500Y-81275000D01*
G75*
G02*
X156425000Y-81037500I0J237500D01*
G01*
X156425000Y-80537500D01*
G75*
G02*
X156662500Y-80300000I237500J0D01*
G01*
G37*
G36*
G01*
X159262500Y-82125000D02*
X159737500Y-82125000D01*
G75*
G02*
X159975000Y-82362500I0J-237500D01*
G01*
X159975000Y-82862500D01*
G75*
G02*
X159737500Y-83100000I-237500J0D01*
G01*
X159262500Y-83100000D01*
G75*
G02*
X159025000Y-82862500I0J237500D01*
G01*
X159025000Y-82362500D01*
G75*
G02*
X159262500Y-82125000I237500J0D01*
G01*
G37*
G36*
G01*
X159262500Y-80300000D02*
X159737500Y-80300000D01*
G75*
G02*
X159975000Y-80537500I0J-237500D01*
G01*
X159975000Y-81037500D01*
G75*
G02*
X159737500Y-81275000I-237500J0D01*
G01*
X159262500Y-81275000D01*
G75*
G02*
X159025000Y-81037500I0J237500D01*
G01*
X159025000Y-80537500D01*
G75*
G02*
X159262500Y-80300000I237500J0D01*
G01*
G37*
G36*
G01*
X154062500Y-82125000D02*
X154537500Y-82125000D01*
G75*
G02*
X154775000Y-82362500I0J-237500D01*
G01*
X154775000Y-82862500D01*
G75*
G02*
X154537500Y-83100000I-237500J0D01*
G01*
X154062500Y-83100000D01*
G75*
G02*
X153825000Y-82862500I0J237500D01*
G01*
X153825000Y-82362500D01*
G75*
G02*
X154062500Y-82125000I237500J0D01*
G01*
G37*
G36*
G01*
X154062500Y-80300000D02*
X154537500Y-80300000D01*
G75*
G02*
X154775000Y-80537500I0J-237500D01*
G01*
X154775000Y-81037500D01*
G75*
G02*
X154537500Y-81275000I-237500J0D01*
G01*
X154062500Y-81275000D01*
G75*
G02*
X153825000Y-81037500I0J237500D01*
G01*
X153825000Y-80537500D01*
G75*
G02*
X154062500Y-80300000I237500J0D01*
G01*
G37*
G36*
G01*
X157962500Y-82125000D02*
X158437500Y-82125000D01*
G75*
G02*
X158675000Y-82362500I0J-237500D01*
G01*
X158675000Y-82862500D01*
G75*
G02*
X158437500Y-83100000I-237500J0D01*
G01*
X157962500Y-83100000D01*
G75*
G02*
X157725000Y-82862500I0J237500D01*
G01*
X157725000Y-82362500D01*
G75*
G02*
X157962500Y-82125000I237500J0D01*
G01*
G37*
G36*
G01*
X157962500Y-80300000D02*
X158437500Y-80300000D01*
G75*
G02*
X158675000Y-80537500I0J-237500D01*
G01*
X158675000Y-81037500D01*
G75*
G02*
X158437500Y-81275000I-237500J0D01*
G01*
X157962500Y-81275000D01*
G75*
G02*
X157725000Y-81037500I0J237500D01*
G01*
X157725000Y-80537500D01*
G75*
G02*
X157962500Y-80300000I237500J0D01*
G01*
G37*
G36*
G01*
X168662500Y-95242200D02*
X168187500Y-95242200D01*
G75*
G02*
X167950000Y-95004700I0J237500D01*
G01*
X167950000Y-94504700D01*
G75*
G02*
X168187500Y-94267200I237500J0D01*
G01*
X168662500Y-94267200D01*
G75*
G02*
X168900000Y-94504700I0J-237500D01*
G01*
X168900000Y-95004700D01*
G75*
G02*
X168662500Y-95242200I-237500J0D01*
G01*
G37*
G36*
G01*
X168662500Y-97067200D02*
X168187500Y-97067200D01*
G75*
G02*
X167950000Y-96829700I0J237500D01*
G01*
X167950000Y-96329700D01*
G75*
G02*
X168187500Y-96092200I237500J0D01*
G01*
X168662500Y-96092200D01*
G75*
G02*
X168900000Y-96329700I0J-237500D01*
G01*
X168900000Y-96829700D01*
G75*
G02*
X168662500Y-97067200I-237500J0D01*
G01*
G37*
G36*
G01*
X181260500Y-95192200D02*
X180785500Y-95192200D01*
G75*
G02*
X180548000Y-94954700I0J237500D01*
G01*
X180548000Y-94454700D01*
G75*
G02*
X180785500Y-94217200I237500J0D01*
G01*
X181260500Y-94217200D01*
G75*
G02*
X181498000Y-94454700I0J-237500D01*
G01*
X181498000Y-94954700D01*
G75*
G02*
X181260500Y-95192200I-237500J0D01*
G01*
G37*
G36*
G01*
X181260500Y-97017200D02*
X180785500Y-97017200D01*
G75*
G02*
X180548000Y-96779700I0J237500D01*
G01*
X180548000Y-96279700D01*
G75*
G02*
X180785500Y-96042200I237500J0D01*
G01*
X181260500Y-96042200D01*
G75*
G02*
X181498000Y-96279700I0J-237500D01*
G01*
X181498000Y-96779700D01*
G75*
G02*
X181260500Y-97017200I-237500J0D01*
G01*
G37*
G36*
G01*
X156110500Y-95217200D02*
X155635500Y-95217200D01*
G75*
G02*
X155398000Y-94979700I0J237500D01*
G01*
X155398000Y-94479700D01*
G75*
G02*
X155635500Y-94242200I237500J0D01*
G01*
X156110500Y-94242200D01*
G75*
G02*
X156348000Y-94479700I0J-237500D01*
G01*
X156348000Y-94979700D01*
G75*
G02*
X156110500Y-95217200I-237500J0D01*
G01*
G37*
G36*
G01*
X156110500Y-97042200D02*
X155635500Y-97042200D01*
G75*
G02*
X155398000Y-96804700I0J237500D01*
G01*
X155398000Y-96304700D01*
G75*
G02*
X155635500Y-96067200I237500J0D01*
G01*
X156110500Y-96067200D01*
G75*
G02*
X156348000Y-96304700I0J-237500D01*
G01*
X156348000Y-96804700D01*
G75*
G02*
X156110500Y-97042200I-237500J0D01*
G01*
G37*
G36*
G01*
X174935500Y-95267200D02*
X174460500Y-95267200D01*
G75*
G02*
X174223000Y-95029700I0J237500D01*
G01*
X174223000Y-94529700D01*
G75*
G02*
X174460500Y-94292200I237500J0D01*
G01*
X174935500Y-94292200D01*
G75*
G02*
X175173000Y-94529700I0J-237500D01*
G01*
X175173000Y-95029700D01*
G75*
G02*
X174935500Y-95267200I-237500J0D01*
G01*
G37*
G36*
G01*
X174935500Y-97092200D02*
X174460500Y-97092200D01*
G75*
G02*
X174223000Y-96854700I0J237500D01*
G01*
X174223000Y-96354700D01*
G75*
G02*
X174460500Y-96117200I237500J0D01*
G01*
X174935500Y-96117200D01*
G75*
G02*
X175173000Y-96354700I0J-237500D01*
G01*
X175173000Y-96854700D01*
G75*
G02*
X174935500Y-97092200I-237500J0D01*
G01*
G37*
G36*
G01*
X162439500Y-95242200D02*
X161964500Y-95242200D01*
G75*
G02*
X161727000Y-95004700I0J237500D01*
G01*
X161727000Y-94504700D01*
G75*
G02*
X161964500Y-94267200I237500J0D01*
G01*
X162439500Y-94267200D01*
G75*
G02*
X162677000Y-94504700I0J-237500D01*
G01*
X162677000Y-95004700D01*
G75*
G02*
X162439500Y-95242200I-237500J0D01*
G01*
G37*
G36*
G01*
X162439500Y-97067200D02*
X161964500Y-97067200D01*
G75*
G02*
X161727000Y-96829700I0J237500D01*
G01*
X161727000Y-96329700D01*
G75*
G02*
X161964500Y-96092200I237500J0D01*
G01*
X162439500Y-96092200D01*
G75*
G02*
X162677000Y-96329700I0J-237500D01*
G01*
X162677000Y-96829700D01*
G75*
G02*
X162439500Y-97067200I-237500J0D01*
G01*
G37*
G36*
G01*
X160925000Y-15843500D02*
X160925000Y-16318500D01*
G75*
G02*
X160687500Y-16556000I-237500J0D01*
G01*
X160187500Y-16556000D01*
G75*
G02*
X159950000Y-16318500I0J237500D01*
G01*
X159950000Y-15843500D01*
G75*
G02*
X160187500Y-15606000I237500J0D01*
G01*
X160687500Y-15606000D01*
G75*
G02*
X160925000Y-15843500I0J-237500D01*
G01*
G37*
G36*
G01*
X162750000Y-15843500D02*
X162750000Y-16318500D01*
G75*
G02*
X162512500Y-16556000I-237500J0D01*
G01*
X162012500Y-16556000D01*
G75*
G02*
X161775000Y-16318500I0J237500D01*
G01*
X161775000Y-15843500D01*
G75*
G02*
X162012500Y-15606000I237500J0D01*
G01*
X162512500Y-15606000D01*
G75*
G02*
X162750000Y-15843500I0J-237500D01*
G01*
G37*
G36*
G01*
X179495000Y-16620500D02*
X179495000Y-16145500D01*
G75*
G02*
X179732500Y-15908000I237500J0D01*
G01*
X180232500Y-15908000D01*
G75*
G02*
X180470000Y-16145500I0J-237500D01*
G01*
X180470000Y-16620500D01*
G75*
G02*
X180232500Y-16858000I-237500J0D01*
G01*
X179732500Y-16858000D01*
G75*
G02*
X179495000Y-16620500I0J237500D01*
G01*
G37*
G36*
G01*
X177670000Y-16620500D02*
X177670000Y-16145500D01*
G75*
G02*
X177907500Y-15908000I237500J0D01*
G01*
X178407500Y-15908000D01*
G75*
G02*
X178645000Y-16145500I0J-237500D01*
G01*
X178645000Y-16620500D01*
G75*
G02*
X178407500Y-16858000I-237500J0D01*
G01*
X177907500Y-16858000D01*
G75*
G02*
X177670000Y-16620500I0J237500D01*
G01*
G37*
G36*
G01*
X232375000Y-100149999D02*
X232375000Y-100850001D01*
G75*
G02*
X232125001Y-101100000I-249999J0D01*
G01*
X231574999Y-101100000D01*
G75*
G02*
X231325000Y-100850001I0J249999D01*
G01*
X231325000Y-100149999D01*
G75*
G02*
X231574999Y-99900000I249999J0D01*
G01*
X232125001Y-99900000D01*
G75*
G02*
X232375000Y-100149999I0J-249999D01*
G01*
G37*
G36*
G01*
X234675000Y-100149999D02*
X234675000Y-100850001D01*
G75*
G02*
X234425001Y-101100000I-249999J0D01*
G01*
X233874999Y-101100000D01*
G75*
G02*
X233625000Y-100850001I0J249999D01*
G01*
X233625000Y-100149999D01*
G75*
G02*
X233874999Y-99900000I249999J0D01*
G01*
X234425001Y-99900000D01*
G75*
G02*
X234675000Y-100149999I0J-249999D01*
G01*
G37*
G36*
G01*
X232375000Y-93949999D02*
X232375000Y-94650001D01*
G75*
G02*
X232125001Y-94900000I-249999J0D01*
G01*
X231574999Y-94900000D01*
G75*
G02*
X231325000Y-94650001I0J249999D01*
G01*
X231325000Y-93949999D01*
G75*
G02*
X231574999Y-93700000I249999J0D01*
G01*
X232125001Y-93700000D01*
G75*
G02*
X232375000Y-93949999I0J-249999D01*
G01*
G37*
G36*
G01*
X234675000Y-93949999D02*
X234675000Y-94650001D01*
G75*
G02*
X234425001Y-94900000I-249999J0D01*
G01*
X233874999Y-94900000D01*
G75*
G02*
X233625000Y-94650001I0J249999D01*
G01*
X233625000Y-93949999D01*
G75*
G02*
X233874999Y-93700000I249999J0D01*
G01*
X234425001Y-93700000D01*
G75*
G02*
X234675000Y-93949999I0J-249999D01*
G01*
G37*
D33*
X149050000Y-30381000D03*
X149050000Y-35381000D03*
X148850000Y-19281000D03*
X148850000Y-24281000D03*
D22*
G36*
X247270000Y-107481798D02*
G01*
X247245466Y-107481798D01*
X247196635Y-107476988D01*
X247148510Y-107467416D01*
X247101555Y-107453172D01*
X247056222Y-107434395D01*
X247012949Y-107411264D01*
X246972150Y-107384004D01*
X246934221Y-107352876D01*
X246899524Y-107318179D01*
X246868396Y-107280250D01*
X246841136Y-107239451D01*
X246818005Y-107196178D01*
X246799228Y-107150845D01*
X246784984Y-107103890D01*
X246775412Y-107055765D01*
X246770602Y-107006934D01*
X246770602Y-106982400D01*
X246770000Y-106982400D01*
X246770000Y-106482400D01*
X246770602Y-106482400D01*
X246770602Y-106457866D01*
X246775412Y-106409035D01*
X246784984Y-106360910D01*
X246799228Y-106313955D01*
X246818005Y-106268622D01*
X246841136Y-106225349D01*
X246868396Y-106184550D01*
X246899524Y-106146621D01*
X246934221Y-106111924D01*
X246972150Y-106080796D01*
X247012949Y-106053536D01*
X247056222Y-106030405D01*
X247101555Y-106011628D01*
X247148510Y-105997384D01*
X247196635Y-105987812D01*
X247245466Y-105983002D01*
X247270000Y-105983002D01*
X247270000Y-105982400D01*
X247770000Y-105982400D01*
X247770000Y-107482400D01*
X247270000Y-107482400D01*
X247270000Y-107481798D01*
G37*
G36*
X248070000Y-105982400D02*
G01*
X248570000Y-105982400D01*
X248570000Y-105983002D01*
X248594534Y-105983002D01*
X248643365Y-105987812D01*
X248691490Y-105997384D01*
X248738445Y-106011628D01*
X248783778Y-106030405D01*
X248827051Y-106053536D01*
X248867850Y-106080796D01*
X248905779Y-106111924D01*
X248940476Y-106146621D01*
X248971604Y-106184550D01*
X248998864Y-106225349D01*
X249021995Y-106268622D01*
X249040772Y-106313955D01*
X249055016Y-106360910D01*
X249064588Y-106409035D01*
X249069398Y-106457866D01*
X249069398Y-106482400D01*
X249070000Y-106482400D01*
X249070000Y-106982400D01*
X249069398Y-106982400D01*
X249069398Y-107006934D01*
X249064588Y-107055765D01*
X249055016Y-107103890D01*
X249040772Y-107150845D01*
X249021995Y-107196178D01*
X248998864Y-107239451D01*
X248971604Y-107280250D01*
X248940476Y-107318179D01*
X248905779Y-107352876D01*
X248867850Y-107384004D01*
X248827051Y-107411264D01*
X248783778Y-107434395D01*
X248738445Y-107453172D01*
X248691490Y-107467416D01*
X248643365Y-107476988D01*
X248594534Y-107481798D01*
X248570000Y-107481798D01*
X248570000Y-107482400D01*
X248070000Y-107482400D01*
X248070000Y-105982400D01*
G37*
G36*
X247270000Y-100471398D02*
G01*
X247245466Y-100471398D01*
X247196635Y-100466588D01*
X247148510Y-100457016D01*
X247101555Y-100442772D01*
X247056222Y-100423995D01*
X247012949Y-100400864D01*
X246972150Y-100373604D01*
X246934221Y-100342476D01*
X246899524Y-100307779D01*
X246868396Y-100269850D01*
X246841136Y-100229051D01*
X246818005Y-100185778D01*
X246799228Y-100140445D01*
X246784984Y-100093490D01*
X246775412Y-100045365D01*
X246770602Y-99996534D01*
X246770602Y-99972000D01*
X246770000Y-99972000D01*
X246770000Y-99472000D01*
X246770602Y-99472000D01*
X246770602Y-99447466D01*
X246775412Y-99398635D01*
X246784984Y-99350510D01*
X246799228Y-99303555D01*
X246818005Y-99258222D01*
X246841136Y-99214949D01*
X246868396Y-99174150D01*
X246899524Y-99136221D01*
X246934221Y-99101524D01*
X246972150Y-99070396D01*
X247012949Y-99043136D01*
X247056222Y-99020005D01*
X247101555Y-99001228D01*
X247148510Y-98986984D01*
X247196635Y-98977412D01*
X247245466Y-98972602D01*
X247270000Y-98972602D01*
X247270000Y-98972000D01*
X247770000Y-98972000D01*
X247770000Y-100472000D01*
X247270000Y-100472000D01*
X247270000Y-100471398D01*
G37*
G36*
X248070000Y-98972000D02*
G01*
X248570000Y-98972000D01*
X248570000Y-98972602D01*
X248594534Y-98972602D01*
X248643365Y-98977412D01*
X248691490Y-98986984D01*
X248738445Y-99001228D01*
X248783778Y-99020005D01*
X248827051Y-99043136D01*
X248867850Y-99070396D01*
X248905779Y-99101524D01*
X248940476Y-99136221D01*
X248971604Y-99174150D01*
X248998864Y-99214949D01*
X249021995Y-99258222D01*
X249040772Y-99303555D01*
X249055016Y-99350510D01*
X249064588Y-99398635D01*
X249069398Y-99447466D01*
X249069398Y-99472000D01*
X249070000Y-99472000D01*
X249070000Y-99972000D01*
X249069398Y-99972000D01*
X249069398Y-99996534D01*
X249064588Y-100045365D01*
X249055016Y-100093490D01*
X249040772Y-100140445D01*
X249021995Y-100185778D01*
X248998864Y-100229051D01*
X248971604Y-100269850D01*
X248940476Y-100307779D01*
X248905779Y-100342476D01*
X248867850Y-100373604D01*
X248827051Y-100400864D01*
X248783778Y-100423995D01*
X248738445Y-100442772D01*
X248691490Y-100457016D01*
X248643365Y-100466588D01*
X248594534Y-100471398D01*
X248570000Y-100471398D01*
X248570000Y-100472000D01*
X248070000Y-100472000D01*
X248070000Y-98972000D01*
G37*
D13*
X242443000Y-38354000D03*
X242443000Y-40894000D03*
D14*
X242443000Y-43434000D03*
D16*
X207300000Y-100300000D03*
D17*
X209840000Y-100300000D03*
D16*
X207360000Y-106100000D03*
D17*
X209900000Y-106100000D03*
D16*
X244094000Y-106400000D03*
D17*
X241554000Y-106400000D03*
D34*
X248000000Y-96950000D03*
X248000000Y-94050000D03*
M02*
