G04 #@! TF.GenerationSoftware,KiCad,Pcbnew,(5.1.9)-1*
G04 #@! TF.CreationDate,2022-04-01T17:50:07-04:00*
G04 #@! TF.ProjectId,MC-DSP,4d432d44-5350-42e6-9b69-6361645f7063,rev?*
G04 #@! TF.SameCoordinates,Original*
G04 #@! TF.FileFunction,Soldermask,Bot*
G04 #@! TF.FilePolarity,Negative*
%FSLAX46Y46*%
G04 Gerber Fmt 4.6, Leading zero omitted, Abs format (unit mm)*
G04 Created by KiCad (PCBNEW (5.1.9)-1) date 2022-04-01 17:50:07*
%MOMM*%
%LPD*%
G01*
G04 APERTURE LIST*
%ADD10C,4.350000*%
%ADD11C,1.650000*%
%ADD12O,1.700000X1.700000*%
%ADD13R,1.700000X1.700000*%
%ADD14C,1.800000*%
%ADD15R,1.800000X1.800000*%
%ADD16C,3.315000*%
%ADD17C,1.905000*%
%ADD18O,1.700000X2.500000*%
%ADD19R,1.700000X2.500000*%
%ADD20C,3.500000*%
%ADD21C,1.700000*%
%ADD22O,1.000000X1.000000*%
%ADD23R,1.000000X1.000000*%
%ADD24C,1.524000*%
%ADD25C,2.600000*%
G04 APERTURE END LIST*
G36*
G01*
X169600000Y-60295000D02*
X169600000Y-60605000D01*
G75*
G02*
X169445000Y-60760000I-155000J0D01*
G01*
X169020000Y-60760000D01*
G75*
G02*
X168865000Y-60605000I0J155000D01*
G01*
X168865000Y-60295000D01*
G75*
G02*
X169020000Y-60140000I155000J0D01*
G01*
X169445000Y-60140000D01*
G75*
G02*
X169600000Y-60295000I0J-155000D01*
G01*
G37*
G36*
G01*
X170735000Y-60295000D02*
X170735000Y-60605000D01*
G75*
G02*
X170580000Y-60760000I-155000J0D01*
G01*
X170155000Y-60760000D01*
G75*
G02*
X170000000Y-60605000I0J155000D01*
G01*
X170000000Y-60295000D01*
G75*
G02*
X170155000Y-60140000I155000J0D01*
G01*
X170580000Y-60140000D01*
G75*
G02*
X170735000Y-60295000I0J-155000D01*
G01*
G37*
G36*
G01*
X172105000Y-75200000D02*
X171795000Y-75200000D01*
G75*
G02*
X171640000Y-75045000I0J155000D01*
G01*
X171640000Y-74620000D01*
G75*
G02*
X171795000Y-74465000I155000J0D01*
G01*
X172105000Y-74465000D01*
G75*
G02*
X172260000Y-74620000I0J-155000D01*
G01*
X172260000Y-75045000D01*
G75*
G02*
X172105000Y-75200000I-155000J0D01*
G01*
G37*
G36*
G01*
X172105000Y-76335000D02*
X171795000Y-76335000D01*
G75*
G02*
X171640000Y-76180000I0J155000D01*
G01*
X171640000Y-75755000D01*
G75*
G02*
X171795000Y-75600000I155000J0D01*
G01*
X172105000Y-75600000D01*
G75*
G02*
X172260000Y-75755000I0J-155000D01*
G01*
X172260000Y-76180000D01*
G75*
G02*
X172105000Y-76335000I-155000J0D01*
G01*
G37*
G36*
G01*
X162000000Y-77705000D02*
X162000000Y-77395000D01*
G75*
G02*
X162155000Y-77240000I155000J0D01*
G01*
X162580000Y-77240000D01*
G75*
G02*
X162735000Y-77395000I0J-155000D01*
G01*
X162735000Y-77705000D01*
G75*
G02*
X162580000Y-77860000I-155000J0D01*
G01*
X162155000Y-77860000D01*
G75*
G02*
X162000000Y-77705000I0J155000D01*
G01*
G37*
G36*
G01*
X160865000Y-77705000D02*
X160865000Y-77395000D01*
G75*
G02*
X161020000Y-77240000I155000J0D01*
G01*
X161445000Y-77240000D01*
G75*
G02*
X161600000Y-77395000I0J-155000D01*
G01*
X161600000Y-77705000D01*
G75*
G02*
X161445000Y-77860000I-155000J0D01*
G01*
X161020000Y-77860000D01*
G75*
G02*
X160865000Y-77705000I0J155000D01*
G01*
G37*
G36*
G01*
X165000000Y-71645000D02*
X165000000Y-71955000D01*
G75*
G02*
X164845000Y-72110000I-155000J0D01*
G01*
X164420000Y-72110000D01*
G75*
G02*
X164265000Y-71955000I0J155000D01*
G01*
X164265000Y-71645000D01*
G75*
G02*
X164420000Y-71490000I155000J0D01*
G01*
X164845000Y-71490000D01*
G75*
G02*
X165000000Y-71645000I0J-155000D01*
G01*
G37*
G36*
G01*
X166135000Y-71645000D02*
X166135000Y-71955000D01*
G75*
G02*
X165980000Y-72110000I-155000J0D01*
G01*
X165555000Y-72110000D01*
G75*
G02*
X165400000Y-71955000I0J155000D01*
G01*
X165400000Y-71645000D01*
G75*
G02*
X165555000Y-71490000I155000J0D01*
G01*
X165980000Y-71490000D01*
G75*
G02*
X166135000Y-71645000I0J-155000D01*
G01*
G37*
G36*
G01*
X163200000Y-60245000D02*
X163200000Y-60555000D01*
G75*
G02*
X163045000Y-60710000I-155000J0D01*
G01*
X162620000Y-60710000D01*
G75*
G02*
X162465000Y-60555000I0J155000D01*
G01*
X162465000Y-60245000D01*
G75*
G02*
X162620000Y-60090000I155000J0D01*
G01*
X163045000Y-60090000D01*
G75*
G02*
X163200000Y-60245000I0J-155000D01*
G01*
G37*
G36*
G01*
X164335000Y-60245000D02*
X164335000Y-60555000D01*
G75*
G02*
X164180000Y-60710000I-155000J0D01*
G01*
X163755000Y-60710000D01*
G75*
G02*
X163600000Y-60555000I0J155000D01*
G01*
X163600000Y-60245000D01*
G75*
G02*
X163755000Y-60090000I155000J0D01*
G01*
X164180000Y-60090000D01*
G75*
G02*
X164335000Y-60245000I0J-155000D01*
G01*
G37*
G36*
G01*
X163645000Y-64800000D02*
X163955000Y-64800000D01*
G75*
G02*
X164110000Y-64955000I0J-155000D01*
G01*
X164110000Y-65380000D01*
G75*
G02*
X163955000Y-65535000I-155000J0D01*
G01*
X163645000Y-65535000D01*
G75*
G02*
X163490000Y-65380000I0J155000D01*
G01*
X163490000Y-64955000D01*
G75*
G02*
X163645000Y-64800000I155000J0D01*
G01*
G37*
G36*
G01*
X163645000Y-63665000D02*
X163955000Y-63665000D01*
G75*
G02*
X164110000Y-63820000I0J-155000D01*
G01*
X164110000Y-64245000D01*
G75*
G02*
X163955000Y-64400000I-155000J0D01*
G01*
X163645000Y-64400000D01*
G75*
G02*
X163490000Y-64245000I0J155000D01*
G01*
X163490000Y-63820000D01*
G75*
G02*
X163645000Y-63665000I155000J0D01*
G01*
G37*
G36*
G01*
X154695000Y-62800000D02*
X155005000Y-62800000D01*
G75*
G02*
X155160000Y-62955000I0J-155000D01*
G01*
X155160000Y-63380000D01*
G75*
G02*
X155005000Y-63535000I-155000J0D01*
G01*
X154695000Y-63535000D01*
G75*
G02*
X154540000Y-63380000I0J155000D01*
G01*
X154540000Y-62955000D01*
G75*
G02*
X154695000Y-62800000I155000J0D01*
G01*
G37*
G36*
G01*
X154695000Y-61665000D02*
X155005000Y-61665000D01*
G75*
G02*
X155160000Y-61820000I0J-155000D01*
G01*
X155160000Y-62245000D01*
G75*
G02*
X155005000Y-62400000I-155000J0D01*
G01*
X154695000Y-62400000D01*
G75*
G02*
X154540000Y-62245000I0J155000D01*
G01*
X154540000Y-61820000D01*
G75*
G02*
X154695000Y-61665000I155000J0D01*
G01*
G37*
G36*
G01*
X160755000Y-67600000D02*
X160445000Y-67600000D01*
G75*
G02*
X160290000Y-67445000I0J155000D01*
G01*
X160290000Y-67020000D01*
G75*
G02*
X160445000Y-66865000I155000J0D01*
G01*
X160755000Y-66865000D01*
G75*
G02*
X160910000Y-67020000I0J-155000D01*
G01*
X160910000Y-67445000D01*
G75*
G02*
X160755000Y-67600000I-155000J0D01*
G01*
G37*
G36*
G01*
X160755000Y-68735000D02*
X160445000Y-68735000D01*
G75*
G02*
X160290000Y-68580000I0J155000D01*
G01*
X160290000Y-68155000D01*
G75*
G02*
X160445000Y-68000000I155000J0D01*
G01*
X160755000Y-68000000D01*
G75*
G02*
X160910000Y-68155000I0J-155000D01*
G01*
X160910000Y-68580000D01*
G75*
G02*
X160755000Y-68735000I-155000J0D01*
G01*
G37*
G36*
G01*
X162800000Y-71645000D02*
X162800000Y-71955000D01*
G75*
G02*
X162645000Y-72110000I-155000J0D01*
G01*
X162220000Y-72110000D01*
G75*
G02*
X162065000Y-71955000I0J155000D01*
G01*
X162065000Y-71645000D01*
G75*
G02*
X162220000Y-71490000I155000J0D01*
G01*
X162645000Y-71490000D01*
G75*
G02*
X162800000Y-71645000I0J-155000D01*
G01*
G37*
G36*
G01*
X163935000Y-71645000D02*
X163935000Y-71955000D01*
G75*
G02*
X163780000Y-72110000I-155000J0D01*
G01*
X163355000Y-72110000D01*
G75*
G02*
X163200000Y-71955000I0J155000D01*
G01*
X163200000Y-71645000D01*
G75*
G02*
X163355000Y-71490000I155000J0D01*
G01*
X163780000Y-71490000D01*
G75*
G02*
X163935000Y-71645000I0J-155000D01*
G01*
G37*
G36*
G01*
X155005000Y-70400000D02*
X154695000Y-70400000D01*
G75*
G02*
X154540000Y-70245000I0J155000D01*
G01*
X154540000Y-69820000D01*
G75*
G02*
X154695000Y-69665000I155000J0D01*
G01*
X155005000Y-69665000D01*
G75*
G02*
X155160000Y-69820000I0J-155000D01*
G01*
X155160000Y-70245000D01*
G75*
G02*
X155005000Y-70400000I-155000J0D01*
G01*
G37*
G36*
G01*
X155005000Y-71535000D02*
X154695000Y-71535000D01*
G75*
G02*
X154540000Y-71380000I0J155000D01*
G01*
X154540000Y-70955000D01*
G75*
G02*
X154695000Y-70800000I155000J0D01*
G01*
X155005000Y-70800000D01*
G75*
G02*
X155160000Y-70955000I0J-155000D01*
G01*
X155160000Y-71380000D01*
G75*
G02*
X155005000Y-71535000I-155000J0D01*
G01*
G37*
G36*
G01*
X161800000Y-69245000D02*
X161800000Y-69555000D01*
G75*
G02*
X161645000Y-69710000I-155000J0D01*
G01*
X161220000Y-69710000D01*
G75*
G02*
X161065000Y-69555000I0J155000D01*
G01*
X161065000Y-69245000D01*
G75*
G02*
X161220000Y-69090000I155000J0D01*
G01*
X161645000Y-69090000D01*
G75*
G02*
X161800000Y-69245000I0J-155000D01*
G01*
G37*
G36*
G01*
X162935000Y-69245000D02*
X162935000Y-69555000D01*
G75*
G02*
X162780000Y-69710000I-155000J0D01*
G01*
X162355000Y-69710000D01*
G75*
G02*
X162200000Y-69555000I0J155000D01*
G01*
X162200000Y-69245000D01*
G75*
G02*
X162355000Y-69090000I155000J0D01*
G01*
X162780000Y-69090000D01*
G75*
G02*
X162935000Y-69245000I0J-155000D01*
G01*
G37*
G36*
G01*
X168800000Y-69245000D02*
X168800000Y-69555000D01*
G75*
G02*
X168645000Y-69710000I-155000J0D01*
G01*
X168220000Y-69710000D01*
G75*
G02*
X168065000Y-69555000I0J155000D01*
G01*
X168065000Y-69245000D01*
G75*
G02*
X168220000Y-69090000I155000J0D01*
G01*
X168645000Y-69090000D01*
G75*
G02*
X168800000Y-69245000I0J-155000D01*
G01*
G37*
G36*
G01*
X169935000Y-69245000D02*
X169935000Y-69555000D01*
G75*
G02*
X169780000Y-69710000I-155000J0D01*
G01*
X169355000Y-69710000D01*
G75*
G02*
X169200000Y-69555000I0J155000D01*
G01*
X169200000Y-69245000D01*
G75*
G02*
X169355000Y-69090000I155000J0D01*
G01*
X169780000Y-69090000D01*
G75*
G02*
X169935000Y-69245000I0J-155000D01*
G01*
G37*
G36*
G01*
X164400000Y-69555000D02*
X164400000Y-69245000D01*
G75*
G02*
X164555000Y-69090000I155000J0D01*
G01*
X164980000Y-69090000D01*
G75*
G02*
X165135000Y-69245000I0J-155000D01*
G01*
X165135000Y-69555000D01*
G75*
G02*
X164980000Y-69710000I-155000J0D01*
G01*
X164555000Y-69710000D01*
G75*
G02*
X164400000Y-69555000I0J155000D01*
G01*
G37*
G36*
G01*
X163265000Y-69555000D02*
X163265000Y-69245000D01*
G75*
G02*
X163420000Y-69090000I155000J0D01*
G01*
X163845000Y-69090000D01*
G75*
G02*
X164000000Y-69245000I0J-155000D01*
G01*
X164000000Y-69555000D01*
G75*
G02*
X163845000Y-69710000I-155000J0D01*
G01*
X163420000Y-69710000D01*
G75*
G02*
X163265000Y-69555000I0J155000D01*
G01*
G37*
G36*
G01*
X154450000Y-72405000D02*
X154450000Y-72095000D01*
G75*
G02*
X154605000Y-71940000I155000J0D01*
G01*
X155030000Y-71940000D01*
G75*
G02*
X155185000Y-72095000I0J-155000D01*
G01*
X155185000Y-72405000D01*
G75*
G02*
X155030000Y-72560000I-155000J0D01*
G01*
X154605000Y-72560000D01*
G75*
G02*
X154450000Y-72405000I0J155000D01*
G01*
G37*
G36*
G01*
X153315000Y-72405000D02*
X153315000Y-72095000D01*
G75*
G02*
X153470000Y-71940000I155000J0D01*
G01*
X153895000Y-71940000D01*
G75*
G02*
X154050000Y-72095000I0J-155000D01*
G01*
X154050000Y-72405000D01*
G75*
G02*
X153895000Y-72560000I-155000J0D01*
G01*
X153470000Y-72560000D01*
G75*
G02*
X153315000Y-72405000I0J155000D01*
G01*
G37*
G36*
G01*
X154450000Y-73405000D02*
X154450000Y-73095000D01*
G75*
G02*
X154605000Y-72940000I155000J0D01*
G01*
X155030000Y-72940000D01*
G75*
G02*
X155185000Y-73095000I0J-155000D01*
G01*
X155185000Y-73405000D01*
G75*
G02*
X155030000Y-73560000I-155000J0D01*
G01*
X154605000Y-73560000D01*
G75*
G02*
X154450000Y-73405000I0J155000D01*
G01*
G37*
G36*
G01*
X153315000Y-73405000D02*
X153315000Y-73095000D01*
G75*
G02*
X153470000Y-72940000I155000J0D01*
G01*
X153895000Y-72940000D01*
G75*
G02*
X154050000Y-73095000I0J-155000D01*
G01*
X154050000Y-73405000D01*
G75*
G02*
X153895000Y-73560000I-155000J0D01*
G01*
X153470000Y-73560000D01*
G75*
G02*
X153315000Y-73405000I0J155000D01*
G01*
G37*
G36*
G01*
X165645000Y-70400000D02*
X165955000Y-70400000D01*
G75*
G02*
X166110000Y-70555000I0J-155000D01*
G01*
X166110000Y-70980000D01*
G75*
G02*
X165955000Y-71135000I-155000J0D01*
G01*
X165645000Y-71135000D01*
G75*
G02*
X165490000Y-70980000I0J155000D01*
G01*
X165490000Y-70555000D01*
G75*
G02*
X165645000Y-70400000I155000J0D01*
G01*
G37*
G36*
G01*
X165645000Y-69265000D02*
X165955000Y-69265000D01*
G75*
G02*
X166110000Y-69420000I0J-155000D01*
G01*
X166110000Y-69845000D01*
G75*
G02*
X165955000Y-70000000I-155000J0D01*
G01*
X165645000Y-70000000D01*
G75*
G02*
X165490000Y-69845000I0J155000D01*
G01*
X165490000Y-69420000D01*
G75*
G02*
X165645000Y-69265000I155000J0D01*
G01*
G37*
G36*
G01*
X162200000Y-66355000D02*
X162200000Y-66045000D01*
G75*
G02*
X162355000Y-65890000I155000J0D01*
G01*
X162780000Y-65890000D01*
G75*
G02*
X162935000Y-66045000I0J-155000D01*
G01*
X162935000Y-66355000D01*
G75*
G02*
X162780000Y-66510000I-155000J0D01*
G01*
X162355000Y-66510000D01*
G75*
G02*
X162200000Y-66355000I0J155000D01*
G01*
G37*
G36*
G01*
X161065000Y-66355000D02*
X161065000Y-66045000D01*
G75*
G02*
X161220000Y-65890000I155000J0D01*
G01*
X161645000Y-65890000D01*
G75*
G02*
X161800000Y-66045000I0J-155000D01*
G01*
X161800000Y-66355000D01*
G75*
G02*
X161645000Y-66510000I-155000J0D01*
G01*
X161220000Y-66510000D01*
G75*
G02*
X161065000Y-66355000I0J155000D01*
G01*
G37*
G36*
G01*
X164400000Y-66355000D02*
X164400000Y-66045000D01*
G75*
G02*
X164555000Y-65890000I155000J0D01*
G01*
X164980000Y-65890000D01*
G75*
G02*
X165135000Y-66045000I0J-155000D01*
G01*
X165135000Y-66355000D01*
G75*
G02*
X164980000Y-66510000I-155000J0D01*
G01*
X164555000Y-66510000D01*
G75*
G02*
X164400000Y-66355000I0J155000D01*
G01*
G37*
G36*
G01*
X163265000Y-66355000D02*
X163265000Y-66045000D01*
G75*
G02*
X163420000Y-65890000I155000J0D01*
G01*
X163845000Y-65890000D01*
G75*
G02*
X164000000Y-66045000I0J-155000D01*
G01*
X164000000Y-66355000D01*
G75*
G02*
X163845000Y-66510000I-155000J0D01*
G01*
X163420000Y-66510000D01*
G75*
G02*
X163265000Y-66355000I0J155000D01*
G01*
G37*
G36*
G01*
X165645000Y-67600000D02*
X165955000Y-67600000D01*
G75*
G02*
X166110000Y-67755000I0J-155000D01*
G01*
X166110000Y-68180000D01*
G75*
G02*
X165955000Y-68335000I-155000J0D01*
G01*
X165645000Y-68335000D01*
G75*
G02*
X165490000Y-68180000I0J155000D01*
G01*
X165490000Y-67755000D01*
G75*
G02*
X165645000Y-67600000I155000J0D01*
G01*
G37*
G36*
G01*
X165645000Y-66465000D02*
X165955000Y-66465000D01*
G75*
G02*
X166110000Y-66620000I0J-155000D01*
G01*
X166110000Y-67045000D01*
G75*
G02*
X165955000Y-67200000I-155000J0D01*
G01*
X165645000Y-67200000D01*
G75*
G02*
X165490000Y-67045000I0J155000D01*
G01*
X165490000Y-66620000D01*
G75*
G02*
X165645000Y-66465000I155000J0D01*
G01*
G37*
G36*
G01*
X160000000Y-69555000D02*
X160000000Y-69245000D01*
G75*
G02*
X160155000Y-69090000I155000J0D01*
G01*
X160580000Y-69090000D01*
G75*
G02*
X160735000Y-69245000I0J-155000D01*
G01*
X160735000Y-69555000D01*
G75*
G02*
X160580000Y-69710000I-155000J0D01*
G01*
X160155000Y-69710000D01*
G75*
G02*
X160000000Y-69555000I0J155000D01*
G01*
G37*
G36*
G01*
X158865000Y-69555000D02*
X158865000Y-69245000D01*
G75*
G02*
X159020000Y-69090000I155000J0D01*
G01*
X159445000Y-69090000D01*
G75*
G02*
X159600000Y-69245000I0J-155000D01*
G01*
X159600000Y-69555000D01*
G75*
G02*
X159445000Y-69710000I-155000J0D01*
G01*
X159020000Y-69710000D01*
G75*
G02*
X158865000Y-69555000I0J155000D01*
G01*
G37*
G36*
G01*
X163955000Y-73100000D02*
X163645000Y-73100000D01*
G75*
G02*
X163490000Y-72945000I0J155000D01*
G01*
X163490000Y-72520000D01*
G75*
G02*
X163645000Y-72365000I155000J0D01*
G01*
X163955000Y-72365000D01*
G75*
G02*
X164110000Y-72520000I0J-155000D01*
G01*
X164110000Y-72945000D01*
G75*
G02*
X163955000Y-73100000I-155000J0D01*
G01*
G37*
G36*
G01*
X163955000Y-74235000D02*
X163645000Y-74235000D01*
G75*
G02*
X163490000Y-74080000I0J155000D01*
G01*
X163490000Y-73655000D01*
G75*
G02*
X163645000Y-73500000I155000J0D01*
G01*
X163955000Y-73500000D01*
G75*
G02*
X164110000Y-73655000I0J-155000D01*
G01*
X164110000Y-74080000D01*
G75*
G02*
X163955000Y-74235000I-155000J0D01*
G01*
G37*
D10*
X111379000Y-17272000D03*
X111379000Y-106172000D03*
D11*
X124079000Y-22352000D03*
X124079000Y-24892000D03*
X124079000Y-27432000D03*
X124079000Y-29972000D03*
X124079000Y-32512000D03*
X124079000Y-35052000D03*
X124079000Y-37592000D03*
X124079000Y-40132000D03*
X124079000Y-42672000D03*
X124079000Y-45212000D03*
X124079000Y-47752000D03*
X124079000Y-50292000D03*
X124079000Y-52832000D03*
X124079000Y-55372000D03*
X124079000Y-57912000D03*
X124079000Y-60452000D03*
X124079000Y-62992000D03*
X124079000Y-65532000D03*
X124079000Y-68072000D03*
X124079000Y-70612000D03*
X124079000Y-73152000D03*
X124079000Y-75692000D03*
X124079000Y-78232000D03*
X124079000Y-80772000D03*
X124079000Y-83312000D03*
X124079000Y-85852000D03*
X124079000Y-88392000D03*
X124079000Y-90932000D03*
X124079000Y-93472000D03*
X124079000Y-96012000D03*
X124079000Y-98552000D03*
X124079000Y-101092000D03*
X121539000Y-22352000D03*
X121539000Y-24892000D03*
X121539000Y-27432000D03*
X121539000Y-29972000D03*
X121539000Y-32512000D03*
X121539000Y-35052000D03*
X121539000Y-37592000D03*
X121539000Y-40132000D03*
X121539000Y-42672000D03*
X121539000Y-45212000D03*
X121539000Y-47752000D03*
X121539000Y-50292000D03*
X121539000Y-52832000D03*
X121539000Y-55372000D03*
X121539000Y-57912000D03*
X121539000Y-60452000D03*
X121539000Y-62992000D03*
X121539000Y-65532000D03*
X121539000Y-68072000D03*
X121539000Y-70612000D03*
X121539000Y-73152000D03*
X121539000Y-75692000D03*
X121539000Y-78232000D03*
X121539000Y-80772000D03*
X121539000Y-83312000D03*
X121539000Y-85852000D03*
X121539000Y-88392000D03*
X121539000Y-90932000D03*
X121539000Y-93472000D03*
X121539000Y-96012000D03*
X121539000Y-98552000D03*
X121539000Y-101092000D03*
X118999000Y-22352000D03*
X118999000Y-24892000D03*
X118999000Y-27432000D03*
X118999000Y-29972000D03*
X118999000Y-32512000D03*
X118999000Y-35052000D03*
X118999000Y-37592000D03*
X118999000Y-40132000D03*
X118999000Y-42672000D03*
X118999000Y-45212000D03*
X118999000Y-47752000D03*
X118999000Y-50292000D03*
X118999000Y-52832000D03*
X118999000Y-55372000D03*
X118999000Y-57912000D03*
X118999000Y-60452000D03*
X118999000Y-62992000D03*
X118999000Y-65532000D03*
X118999000Y-68072000D03*
X118999000Y-70612000D03*
X118999000Y-73152000D03*
X118999000Y-75692000D03*
X118999000Y-78232000D03*
X118999000Y-80772000D03*
X118999000Y-83312000D03*
X118999000Y-85852000D03*
X118999000Y-88392000D03*
X118999000Y-90932000D03*
X118999000Y-93472000D03*
X118999000Y-96012000D03*
X118999000Y-98552000D03*
X118999000Y-101092000D03*
X116459000Y-22352000D03*
X116459000Y-24892000D03*
X116459000Y-27432000D03*
X116459000Y-29972000D03*
X116459000Y-32512000D03*
X116459000Y-35052000D03*
X116459000Y-37592000D03*
X116459000Y-40132000D03*
X116459000Y-42672000D03*
X116459000Y-45212000D03*
X116459000Y-47752000D03*
X116459000Y-50292000D03*
X116459000Y-52832000D03*
X116459000Y-55372000D03*
X116459000Y-57912000D03*
X116459000Y-60452000D03*
X116459000Y-62992000D03*
X116459000Y-65532000D03*
X116459000Y-68072000D03*
X116459000Y-70612000D03*
X116459000Y-73152000D03*
X116459000Y-75692000D03*
X116459000Y-78232000D03*
X116459000Y-80772000D03*
X116459000Y-83312000D03*
X116459000Y-85852000D03*
X116459000Y-88392000D03*
X116459000Y-90932000D03*
X116459000Y-93472000D03*
X116459000Y-96012000D03*
X116459000Y-98552000D03*
X116459000Y-101092000D03*
X113919000Y-22352000D03*
X113919000Y-24892000D03*
X113919000Y-27432000D03*
X113919000Y-29972000D03*
X113919000Y-32512000D03*
X113919000Y-35052000D03*
X113919000Y-37592000D03*
X113919000Y-40132000D03*
X113919000Y-42672000D03*
X113919000Y-45212000D03*
X113919000Y-47752000D03*
X113919000Y-50292000D03*
X113919000Y-52832000D03*
X113919000Y-55372000D03*
X113919000Y-57912000D03*
X113919000Y-60452000D03*
X113919000Y-62992000D03*
X113919000Y-65532000D03*
X113919000Y-68072000D03*
X113919000Y-70612000D03*
X113919000Y-73152000D03*
X113919000Y-75692000D03*
X113919000Y-78232000D03*
X113919000Y-80772000D03*
X113919000Y-83312000D03*
X113919000Y-85852000D03*
X113919000Y-88392000D03*
X113919000Y-90932000D03*
X113919000Y-93472000D03*
X113919000Y-96012000D03*
X113919000Y-98552000D03*
X113919000Y-101092000D03*
D12*
X253746000Y-33782000D03*
X253746000Y-31242000D03*
X253746000Y-28702000D03*
X253746000Y-26162000D03*
D13*
X253746000Y-23622000D03*
D12*
X251206000Y-33782000D03*
X251206000Y-31242000D03*
X251206000Y-28702000D03*
X251206000Y-26162000D03*
D13*
X251206000Y-23622000D03*
D12*
X248666000Y-33782000D03*
X248666000Y-31242000D03*
X248666000Y-28702000D03*
X248666000Y-26162000D03*
D13*
X248666000Y-23622000D03*
D14*
X257302000Y-16256000D03*
D15*
X257302000Y-18796000D03*
D16*
X258778000Y-49565500D03*
X258778000Y-56165500D03*
X252178000Y-56165500D03*
X252178000Y-49565500D03*
D17*
X255478000Y-52865500D03*
D16*
X258841500Y-81315500D03*
X258841500Y-87915500D03*
X252241500Y-87915500D03*
X252241500Y-81315500D03*
D17*
X255541500Y-84615500D03*
D16*
X258778000Y-65796000D03*
X258778000Y-72396000D03*
X252178000Y-72396000D03*
X252178000Y-65796000D03*
D17*
X255478000Y-69096000D03*
D18*
X162674600Y-19496400D03*
X160134600Y-19496400D03*
D19*
X157594600Y-19496400D03*
D20*
X258610000Y-107370000D03*
X258610000Y-95330000D03*
D21*
X255900000Y-100100000D03*
X255900000Y-102600000D03*
X253900000Y-102600000D03*
D13*
X253900000Y-100100000D03*
D18*
X162719200Y-30659000D03*
X160179200Y-30659000D03*
D19*
X157639200Y-30659000D03*
D22*
X197770800Y-30368000D03*
X195230800Y-31638000D03*
X197770800Y-25288000D03*
X197770800Y-24018000D03*
D23*
X197770800Y-31638000D03*
D22*
X197770800Y-27828000D03*
X195230800Y-25288000D03*
X197770800Y-21478000D03*
X195230800Y-24018000D03*
X195230800Y-20208000D03*
X197770800Y-29098000D03*
X195230800Y-27828000D03*
X195230800Y-26558000D03*
X197770800Y-22748000D03*
X195230800Y-22748000D03*
X195230800Y-29098000D03*
X195230800Y-21478000D03*
X197770800Y-20208000D03*
X195230800Y-30368000D03*
X197770800Y-26558000D03*
D24*
X259850000Y-43340000D03*
X259850000Y-38260000D03*
X253500000Y-38260000D03*
X253500000Y-43340000D03*
X253500000Y-40800000D03*
D25*
X149050000Y-30381000D03*
X149050000Y-35381000D03*
X148850000Y-19281000D03*
X148850000Y-24281000D03*
D12*
X242443000Y-38354000D03*
X242443000Y-40894000D03*
D13*
X242443000Y-43434000D03*
D14*
X207300000Y-100300000D03*
D15*
X209840000Y-100300000D03*
D14*
X207360000Y-106100000D03*
D15*
X209900000Y-106100000D03*
D14*
X244094000Y-106400000D03*
D15*
X241554000Y-106400000D03*
M02*
