G04 #@! TF.GenerationSoftware,KiCad,Pcbnew,(5.1.9)-1*
G04 #@! TF.CreationDate,2022-04-01T17:50:07-04:00*
G04 #@! TF.ProjectId,MC-DSP,4d432d44-5350-42e6-9b69-6361645f7063,rev?*
G04 #@! TF.SameCoordinates,Original*
G04 #@! TF.FileFunction,Legend,Bot*
G04 #@! TF.FilePolarity,Positive*
%FSLAX46Y46*%
G04 Gerber Fmt 4.6, Leading zero omitted, Abs format (unit mm)*
G04 Created by KiCad (PCBNEW (5.1.9)-1) date 2022-04-01 17:50:07*
%MOMM*%
%LPD*%
G01*
G04 APERTURE LIST*
%ADD10C,0.120000*%
G04 APERTURE END LIST*
D10*
X169915835Y-60810000D02*
X169684165Y-60810000D01*
X169915835Y-60090000D02*
X169684165Y-60090000D01*
X171590000Y-75515835D02*
X171590000Y-75284165D01*
X172310000Y-75515835D02*
X172310000Y-75284165D01*
X161684165Y-77190000D02*
X161915835Y-77190000D01*
X161684165Y-77910000D02*
X161915835Y-77910000D01*
X165315835Y-72160000D02*
X165084165Y-72160000D01*
X165315835Y-71440000D02*
X165084165Y-71440000D01*
X163515835Y-60760000D02*
X163284165Y-60760000D01*
X163515835Y-60040000D02*
X163284165Y-60040000D01*
X164160000Y-64484165D02*
X164160000Y-64715835D01*
X163440000Y-64484165D02*
X163440000Y-64715835D01*
X155210000Y-62484165D02*
X155210000Y-62715835D01*
X154490000Y-62484165D02*
X154490000Y-62715835D01*
X160240000Y-67915835D02*
X160240000Y-67684165D01*
X160960000Y-67915835D02*
X160960000Y-67684165D01*
X163115835Y-72160000D02*
X162884165Y-72160000D01*
X163115835Y-71440000D02*
X162884165Y-71440000D01*
X154490000Y-70715835D02*
X154490000Y-70484165D01*
X155210000Y-70715835D02*
X155210000Y-70484165D01*
X162115835Y-69760000D02*
X161884165Y-69760000D01*
X162115835Y-69040000D02*
X161884165Y-69040000D01*
X169115835Y-69760000D02*
X168884165Y-69760000D01*
X169115835Y-69040000D02*
X168884165Y-69040000D01*
X164084165Y-69040000D02*
X164315835Y-69040000D01*
X164084165Y-69760000D02*
X164315835Y-69760000D01*
X154134165Y-71890000D02*
X154365835Y-71890000D01*
X154134165Y-72610000D02*
X154365835Y-72610000D01*
X154134165Y-72890000D02*
X154365835Y-72890000D01*
X154134165Y-73610000D02*
X154365835Y-73610000D01*
X166160000Y-70084165D02*
X166160000Y-70315835D01*
X165440000Y-70084165D02*
X165440000Y-70315835D01*
X161884165Y-65840000D02*
X162115835Y-65840000D01*
X161884165Y-66560000D02*
X162115835Y-66560000D01*
X164084165Y-65840000D02*
X164315835Y-65840000D01*
X164084165Y-66560000D02*
X164315835Y-66560000D01*
X166160000Y-67284165D02*
X166160000Y-67515835D01*
X165440000Y-67284165D02*
X165440000Y-67515835D01*
X159684165Y-69040000D02*
X159915835Y-69040000D01*
X159684165Y-69760000D02*
X159915835Y-69760000D01*
X163440000Y-73415835D02*
X163440000Y-73184165D01*
X164160000Y-73415835D02*
X164160000Y-73184165D01*
M02*
