G04 #@! TF.GenerationSoftware,KiCad,Pcbnew,(5.1.9)-1*
G04 #@! TF.CreationDate,2022-04-01T17:50:07-04:00*
G04 #@! TF.ProjectId,MC-DSP,4d432d44-5350-42e6-9b69-6361645f7063,rev?*
G04 #@! TF.SameCoordinates,Original*
G04 #@! TF.FileFunction,Copper,L6,Bot*
G04 #@! TF.FilePolarity,Positive*
%FSLAX46Y46*%
G04 Gerber Fmt 4.6, Leading zero omitted, Abs format (unit mm)*
G04 Created by KiCad (PCBNEW (5.1.9)-1) date 2022-04-01 17:50:07*
%MOMM*%
%LPD*%
G01*
G04 APERTURE LIST*
G04 #@! TA.AperFunction,ComponentPad*
%ADD10C,4.350000*%
G04 #@! TD*
G04 #@! TA.AperFunction,ComponentPad*
%ADD11C,1.650000*%
G04 #@! TD*
G04 #@! TA.AperFunction,ComponentPad*
%ADD12O,1.700000X1.700000*%
G04 #@! TD*
G04 #@! TA.AperFunction,ComponentPad*
%ADD13R,1.700000X1.700000*%
G04 #@! TD*
G04 #@! TA.AperFunction,ComponentPad*
%ADD14C,1.800000*%
G04 #@! TD*
G04 #@! TA.AperFunction,ComponentPad*
%ADD15R,1.800000X1.800000*%
G04 #@! TD*
G04 #@! TA.AperFunction,ComponentPad*
%ADD16C,3.315000*%
G04 #@! TD*
G04 #@! TA.AperFunction,ComponentPad*
%ADD17C,1.905000*%
G04 #@! TD*
G04 #@! TA.AperFunction,ComponentPad*
%ADD18O,1.700000X2.500000*%
G04 #@! TD*
G04 #@! TA.AperFunction,ComponentPad*
%ADD19R,1.700000X2.500000*%
G04 #@! TD*
G04 #@! TA.AperFunction,ComponentPad*
%ADD20C,3.500000*%
G04 #@! TD*
G04 #@! TA.AperFunction,ComponentPad*
%ADD21C,1.700000*%
G04 #@! TD*
G04 #@! TA.AperFunction,ComponentPad*
%ADD22O,1.000000X1.000000*%
G04 #@! TD*
G04 #@! TA.AperFunction,ComponentPad*
%ADD23R,1.000000X1.000000*%
G04 #@! TD*
G04 #@! TA.AperFunction,ComponentPad*
%ADD24C,1.524000*%
G04 #@! TD*
G04 #@! TA.AperFunction,ComponentPad*
%ADD25C,2.600000*%
G04 #@! TD*
G04 #@! TA.AperFunction,ViaPad*
%ADD26C,0.450000*%
G04 #@! TD*
G04 #@! TA.AperFunction,ViaPad*
%ADD27C,0.812800*%
G04 #@! TD*
G04 #@! TA.AperFunction,ViaPad*
%ADD28C,0.800000*%
G04 #@! TD*
G04 #@! TA.AperFunction,ViaPad*
%ADD29C,0.508000*%
G04 #@! TD*
G04 #@! TA.AperFunction,Conductor*
%ADD30C,0.254000*%
G04 #@! TD*
G04 #@! TA.AperFunction,Conductor*
%ADD31C,0.127000*%
G04 #@! TD*
G04 #@! TA.AperFunction,Conductor*
%ADD32C,0.250000*%
G04 #@! TD*
G04 #@! TA.AperFunction,Conductor*
%ADD33C,0.203200*%
G04 #@! TD*
G04 #@! TA.AperFunction,Conductor*
%ADD34C,0.100000*%
G04 #@! TD*
G04 APERTURE END LIST*
G04 #@! TA.AperFunction,SMDPad,CuDef*
G36*
G01*
X169600000Y-60295000D02*
X169600000Y-60605000D01*
G75*
G02*
X169445000Y-60760000I-155000J0D01*
G01*
X169020000Y-60760000D01*
G75*
G02*
X168865000Y-60605000I0J155000D01*
G01*
X168865000Y-60295000D01*
G75*
G02*
X169020000Y-60140000I155000J0D01*
G01*
X169445000Y-60140000D01*
G75*
G02*
X169600000Y-60295000I0J-155000D01*
G01*
G37*
G04 #@! TD.AperFunction*
G04 #@! TA.AperFunction,SMDPad,CuDef*
G36*
G01*
X170735000Y-60295000D02*
X170735000Y-60605000D01*
G75*
G02*
X170580000Y-60760000I-155000J0D01*
G01*
X170155000Y-60760000D01*
G75*
G02*
X170000000Y-60605000I0J155000D01*
G01*
X170000000Y-60295000D01*
G75*
G02*
X170155000Y-60140000I155000J0D01*
G01*
X170580000Y-60140000D01*
G75*
G02*
X170735000Y-60295000I0J-155000D01*
G01*
G37*
G04 #@! TD.AperFunction*
G04 #@! TA.AperFunction,SMDPad,CuDef*
G36*
G01*
X172105000Y-75200000D02*
X171795000Y-75200000D01*
G75*
G02*
X171640000Y-75045000I0J155000D01*
G01*
X171640000Y-74620000D01*
G75*
G02*
X171795000Y-74465000I155000J0D01*
G01*
X172105000Y-74465000D01*
G75*
G02*
X172260000Y-74620000I0J-155000D01*
G01*
X172260000Y-75045000D01*
G75*
G02*
X172105000Y-75200000I-155000J0D01*
G01*
G37*
G04 #@! TD.AperFunction*
G04 #@! TA.AperFunction,SMDPad,CuDef*
G36*
G01*
X172105000Y-76335000D02*
X171795000Y-76335000D01*
G75*
G02*
X171640000Y-76180000I0J155000D01*
G01*
X171640000Y-75755000D01*
G75*
G02*
X171795000Y-75600000I155000J0D01*
G01*
X172105000Y-75600000D01*
G75*
G02*
X172260000Y-75755000I0J-155000D01*
G01*
X172260000Y-76180000D01*
G75*
G02*
X172105000Y-76335000I-155000J0D01*
G01*
G37*
G04 #@! TD.AperFunction*
G04 #@! TA.AperFunction,SMDPad,CuDef*
G36*
G01*
X162000000Y-77705000D02*
X162000000Y-77395000D01*
G75*
G02*
X162155000Y-77240000I155000J0D01*
G01*
X162580000Y-77240000D01*
G75*
G02*
X162735000Y-77395000I0J-155000D01*
G01*
X162735000Y-77705000D01*
G75*
G02*
X162580000Y-77860000I-155000J0D01*
G01*
X162155000Y-77860000D01*
G75*
G02*
X162000000Y-77705000I0J155000D01*
G01*
G37*
G04 #@! TD.AperFunction*
G04 #@! TA.AperFunction,SMDPad,CuDef*
G36*
G01*
X160865000Y-77705000D02*
X160865000Y-77395000D01*
G75*
G02*
X161020000Y-77240000I155000J0D01*
G01*
X161445000Y-77240000D01*
G75*
G02*
X161600000Y-77395000I0J-155000D01*
G01*
X161600000Y-77705000D01*
G75*
G02*
X161445000Y-77860000I-155000J0D01*
G01*
X161020000Y-77860000D01*
G75*
G02*
X160865000Y-77705000I0J155000D01*
G01*
G37*
G04 #@! TD.AperFunction*
G04 #@! TA.AperFunction,SMDPad,CuDef*
G36*
G01*
X165000000Y-71645000D02*
X165000000Y-71955000D01*
G75*
G02*
X164845000Y-72110000I-155000J0D01*
G01*
X164420000Y-72110000D01*
G75*
G02*
X164265000Y-71955000I0J155000D01*
G01*
X164265000Y-71645000D01*
G75*
G02*
X164420000Y-71490000I155000J0D01*
G01*
X164845000Y-71490000D01*
G75*
G02*
X165000000Y-71645000I0J-155000D01*
G01*
G37*
G04 #@! TD.AperFunction*
G04 #@! TA.AperFunction,SMDPad,CuDef*
G36*
G01*
X166135000Y-71645000D02*
X166135000Y-71955000D01*
G75*
G02*
X165980000Y-72110000I-155000J0D01*
G01*
X165555000Y-72110000D01*
G75*
G02*
X165400000Y-71955000I0J155000D01*
G01*
X165400000Y-71645000D01*
G75*
G02*
X165555000Y-71490000I155000J0D01*
G01*
X165980000Y-71490000D01*
G75*
G02*
X166135000Y-71645000I0J-155000D01*
G01*
G37*
G04 #@! TD.AperFunction*
G04 #@! TA.AperFunction,SMDPad,CuDef*
G36*
G01*
X163200000Y-60245000D02*
X163200000Y-60555000D01*
G75*
G02*
X163045000Y-60710000I-155000J0D01*
G01*
X162620000Y-60710000D01*
G75*
G02*
X162465000Y-60555000I0J155000D01*
G01*
X162465000Y-60245000D01*
G75*
G02*
X162620000Y-60090000I155000J0D01*
G01*
X163045000Y-60090000D01*
G75*
G02*
X163200000Y-60245000I0J-155000D01*
G01*
G37*
G04 #@! TD.AperFunction*
G04 #@! TA.AperFunction,SMDPad,CuDef*
G36*
G01*
X164335000Y-60245000D02*
X164335000Y-60555000D01*
G75*
G02*
X164180000Y-60710000I-155000J0D01*
G01*
X163755000Y-60710000D01*
G75*
G02*
X163600000Y-60555000I0J155000D01*
G01*
X163600000Y-60245000D01*
G75*
G02*
X163755000Y-60090000I155000J0D01*
G01*
X164180000Y-60090000D01*
G75*
G02*
X164335000Y-60245000I0J-155000D01*
G01*
G37*
G04 #@! TD.AperFunction*
G04 #@! TA.AperFunction,SMDPad,CuDef*
G36*
G01*
X163645000Y-64800000D02*
X163955000Y-64800000D01*
G75*
G02*
X164110000Y-64955000I0J-155000D01*
G01*
X164110000Y-65380000D01*
G75*
G02*
X163955000Y-65535000I-155000J0D01*
G01*
X163645000Y-65535000D01*
G75*
G02*
X163490000Y-65380000I0J155000D01*
G01*
X163490000Y-64955000D01*
G75*
G02*
X163645000Y-64800000I155000J0D01*
G01*
G37*
G04 #@! TD.AperFunction*
G04 #@! TA.AperFunction,SMDPad,CuDef*
G36*
G01*
X163645000Y-63665000D02*
X163955000Y-63665000D01*
G75*
G02*
X164110000Y-63820000I0J-155000D01*
G01*
X164110000Y-64245000D01*
G75*
G02*
X163955000Y-64400000I-155000J0D01*
G01*
X163645000Y-64400000D01*
G75*
G02*
X163490000Y-64245000I0J155000D01*
G01*
X163490000Y-63820000D01*
G75*
G02*
X163645000Y-63665000I155000J0D01*
G01*
G37*
G04 #@! TD.AperFunction*
G04 #@! TA.AperFunction,SMDPad,CuDef*
G36*
G01*
X154695000Y-62800000D02*
X155005000Y-62800000D01*
G75*
G02*
X155160000Y-62955000I0J-155000D01*
G01*
X155160000Y-63380000D01*
G75*
G02*
X155005000Y-63535000I-155000J0D01*
G01*
X154695000Y-63535000D01*
G75*
G02*
X154540000Y-63380000I0J155000D01*
G01*
X154540000Y-62955000D01*
G75*
G02*
X154695000Y-62800000I155000J0D01*
G01*
G37*
G04 #@! TD.AperFunction*
G04 #@! TA.AperFunction,SMDPad,CuDef*
G36*
G01*
X154695000Y-61665000D02*
X155005000Y-61665000D01*
G75*
G02*
X155160000Y-61820000I0J-155000D01*
G01*
X155160000Y-62245000D01*
G75*
G02*
X155005000Y-62400000I-155000J0D01*
G01*
X154695000Y-62400000D01*
G75*
G02*
X154540000Y-62245000I0J155000D01*
G01*
X154540000Y-61820000D01*
G75*
G02*
X154695000Y-61665000I155000J0D01*
G01*
G37*
G04 #@! TD.AperFunction*
G04 #@! TA.AperFunction,SMDPad,CuDef*
G36*
G01*
X160755000Y-67600000D02*
X160445000Y-67600000D01*
G75*
G02*
X160290000Y-67445000I0J155000D01*
G01*
X160290000Y-67020000D01*
G75*
G02*
X160445000Y-66865000I155000J0D01*
G01*
X160755000Y-66865000D01*
G75*
G02*
X160910000Y-67020000I0J-155000D01*
G01*
X160910000Y-67445000D01*
G75*
G02*
X160755000Y-67600000I-155000J0D01*
G01*
G37*
G04 #@! TD.AperFunction*
G04 #@! TA.AperFunction,SMDPad,CuDef*
G36*
G01*
X160755000Y-68735000D02*
X160445000Y-68735000D01*
G75*
G02*
X160290000Y-68580000I0J155000D01*
G01*
X160290000Y-68155000D01*
G75*
G02*
X160445000Y-68000000I155000J0D01*
G01*
X160755000Y-68000000D01*
G75*
G02*
X160910000Y-68155000I0J-155000D01*
G01*
X160910000Y-68580000D01*
G75*
G02*
X160755000Y-68735000I-155000J0D01*
G01*
G37*
G04 #@! TD.AperFunction*
G04 #@! TA.AperFunction,SMDPad,CuDef*
G36*
G01*
X162800000Y-71645000D02*
X162800000Y-71955000D01*
G75*
G02*
X162645000Y-72110000I-155000J0D01*
G01*
X162220000Y-72110000D01*
G75*
G02*
X162065000Y-71955000I0J155000D01*
G01*
X162065000Y-71645000D01*
G75*
G02*
X162220000Y-71490000I155000J0D01*
G01*
X162645000Y-71490000D01*
G75*
G02*
X162800000Y-71645000I0J-155000D01*
G01*
G37*
G04 #@! TD.AperFunction*
G04 #@! TA.AperFunction,SMDPad,CuDef*
G36*
G01*
X163935000Y-71645000D02*
X163935000Y-71955000D01*
G75*
G02*
X163780000Y-72110000I-155000J0D01*
G01*
X163355000Y-72110000D01*
G75*
G02*
X163200000Y-71955000I0J155000D01*
G01*
X163200000Y-71645000D01*
G75*
G02*
X163355000Y-71490000I155000J0D01*
G01*
X163780000Y-71490000D01*
G75*
G02*
X163935000Y-71645000I0J-155000D01*
G01*
G37*
G04 #@! TD.AperFunction*
G04 #@! TA.AperFunction,SMDPad,CuDef*
G36*
G01*
X155005000Y-70400000D02*
X154695000Y-70400000D01*
G75*
G02*
X154540000Y-70245000I0J155000D01*
G01*
X154540000Y-69820000D01*
G75*
G02*
X154695000Y-69665000I155000J0D01*
G01*
X155005000Y-69665000D01*
G75*
G02*
X155160000Y-69820000I0J-155000D01*
G01*
X155160000Y-70245000D01*
G75*
G02*
X155005000Y-70400000I-155000J0D01*
G01*
G37*
G04 #@! TD.AperFunction*
G04 #@! TA.AperFunction,SMDPad,CuDef*
G36*
G01*
X155005000Y-71535000D02*
X154695000Y-71535000D01*
G75*
G02*
X154540000Y-71380000I0J155000D01*
G01*
X154540000Y-70955000D01*
G75*
G02*
X154695000Y-70800000I155000J0D01*
G01*
X155005000Y-70800000D01*
G75*
G02*
X155160000Y-70955000I0J-155000D01*
G01*
X155160000Y-71380000D01*
G75*
G02*
X155005000Y-71535000I-155000J0D01*
G01*
G37*
G04 #@! TD.AperFunction*
G04 #@! TA.AperFunction,SMDPad,CuDef*
G36*
G01*
X161800000Y-69245000D02*
X161800000Y-69555000D01*
G75*
G02*
X161645000Y-69710000I-155000J0D01*
G01*
X161220000Y-69710000D01*
G75*
G02*
X161065000Y-69555000I0J155000D01*
G01*
X161065000Y-69245000D01*
G75*
G02*
X161220000Y-69090000I155000J0D01*
G01*
X161645000Y-69090000D01*
G75*
G02*
X161800000Y-69245000I0J-155000D01*
G01*
G37*
G04 #@! TD.AperFunction*
G04 #@! TA.AperFunction,SMDPad,CuDef*
G36*
G01*
X162935000Y-69245000D02*
X162935000Y-69555000D01*
G75*
G02*
X162780000Y-69710000I-155000J0D01*
G01*
X162355000Y-69710000D01*
G75*
G02*
X162200000Y-69555000I0J155000D01*
G01*
X162200000Y-69245000D01*
G75*
G02*
X162355000Y-69090000I155000J0D01*
G01*
X162780000Y-69090000D01*
G75*
G02*
X162935000Y-69245000I0J-155000D01*
G01*
G37*
G04 #@! TD.AperFunction*
G04 #@! TA.AperFunction,SMDPad,CuDef*
G36*
G01*
X168800000Y-69245000D02*
X168800000Y-69555000D01*
G75*
G02*
X168645000Y-69710000I-155000J0D01*
G01*
X168220000Y-69710000D01*
G75*
G02*
X168065000Y-69555000I0J155000D01*
G01*
X168065000Y-69245000D01*
G75*
G02*
X168220000Y-69090000I155000J0D01*
G01*
X168645000Y-69090000D01*
G75*
G02*
X168800000Y-69245000I0J-155000D01*
G01*
G37*
G04 #@! TD.AperFunction*
G04 #@! TA.AperFunction,SMDPad,CuDef*
G36*
G01*
X169935000Y-69245000D02*
X169935000Y-69555000D01*
G75*
G02*
X169780000Y-69710000I-155000J0D01*
G01*
X169355000Y-69710000D01*
G75*
G02*
X169200000Y-69555000I0J155000D01*
G01*
X169200000Y-69245000D01*
G75*
G02*
X169355000Y-69090000I155000J0D01*
G01*
X169780000Y-69090000D01*
G75*
G02*
X169935000Y-69245000I0J-155000D01*
G01*
G37*
G04 #@! TD.AperFunction*
G04 #@! TA.AperFunction,SMDPad,CuDef*
G36*
G01*
X164400000Y-69555000D02*
X164400000Y-69245000D01*
G75*
G02*
X164555000Y-69090000I155000J0D01*
G01*
X164980000Y-69090000D01*
G75*
G02*
X165135000Y-69245000I0J-155000D01*
G01*
X165135000Y-69555000D01*
G75*
G02*
X164980000Y-69710000I-155000J0D01*
G01*
X164555000Y-69710000D01*
G75*
G02*
X164400000Y-69555000I0J155000D01*
G01*
G37*
G04 #@! TD.AperFunction*
G04 #@! TA.AperFunction,SMDPad,CuDef*
G36*
G01*
X163265000Y-69555000D02*
X163265000Y-69245000D01*
G75*
G02*
X163420000Y-69090000I155000J0D01*
G01*
X163845000Y-69090000D01*
G75*
G02*
X164000000Y-69245000I0J-155000D01*
G01*
X164000000Y-69555000D01*
G75*
G02*
X163845000Y-69710000I-155000J0D01*
G01*
X163420000Y-69710000D01*
G75*
G02*
X163265000Y-69555000I0J155000D01*
G01*
G37*
G04 #@! TD.AperFunction*
G04 #@! TA.AperFunction,SMDPad,CuDef*
G36*
G01*
X154450000Y-72405000D02*
X154450000Y-72095000D01*
G75*
G02*
X154605000Y-71940000I155000J0D01*
G01*
X155030000Y-71940000D01*
G75*
G02*
X155185000Y-72095000I0J-155000D01*
G01*
X155185000Y-72405000D01*
G75*
G02*
X155030000Y-72560000I-155000J0D01*
G01*
X154605000Y-72560000D01*
G75*
G02*
X154450000Y-72405000I0J155000D01*
G01*
G37*
G04 #@! TD.AperFunction*
G04 #@! TA.AperFunction,SMDPad,CuDef*
G36*
G01*
X153315000Y-72405000D02*
X153315000Y-72095000D01*
G75*
G02*
X153470000Y-71940000I155000J0D01*
G01*
X153895000Y-71940000D01*
G75*
G02*
X154050000Y-72095000I0J-155000D01*
G01*
X154050000Y-72405000D01*
G75*
G02*
X153895000Y-72560000I-155000J0D01*
G01*
X153470000Y-72560000D01*
G75*
G02*
X153315000Y-72405000I0J155000D01*
G01*
G37*
G04 #@! TD.AperFunction*
G04 #@! TA.AperFunction,SMDPad,CuDef*
G36*
G01*
X154450000Y-73405000D02*
X154450000Y-73095000D01*
G75*
G02*
X154605000Y-72940000I155000J0D01*
G01*
X155030000Y-72940000D01*
G75*
G02*
X155185000Y-73095000I0J-155000D01*
G01*
X155185000Y-73405000D01*
G75*
G02*
X155030000Y-73560000I-155000J0D01*
G01*
X154605000Y-73560000D01*
G75*
G02*
X154450000Y-73405000I0J155000D01*
G01*
G37*
G04 #@! TD.AperFunction*
G04 #@! TA.AperFunction,SMDPad,CuDef*
G36*
G01*
X153315000Y-73405000D02*
X153315000Y-73095000D01*
G75*
G02*
X153470000Y-72940000I155000J0D01*
G01*
X153895000Y-72940000D01*
G75*
G02*
X154050000Y-73095000I0J-155000D01*
G01*
X154050000Y-73405000D01*
G75*
G02*
X153895000Y-73560000I-155000J0D01*
G01*
X153470000Y-73560000D01*
G75*
G02*
X153315000Y-73405000I0J155000D01*
G01*
G37*
G04 #@! TD.AperFunction*
G04 #@! TA.AperFunction,SMDPad,CuDef*
G36*
G01*
X165645000Y-70400000D02*
X165955000Y-70400000D01*
G75*
G02*
X166110000Y-70555000I0J-155000D01*
G01*
X166110000Y-70980000D01*
G75*
G02*
X165955000Y-71135000I-155000J0D01*
G01*
X165645000Y-71135000D01*
G75*
G02*
X165490000Y-70980000I0J155000D01*
G01*
X165490000Y-70555000D01*
G75*
G02*
X165645000Y-70400000I155000J0D01*
G01*
G37*
G04 #@! TD.AperFunction*
G04 #@! TA.AperFunction,SMDPad,CuDef*
G36*
G01*
X165645000Y-69265000D02*
X165955000Y-69265000D01*
G75*
G02*
X166110000Y-69420000I0J-155000D01*
G01*
X166110000Y-69845000D01*
G75*
G02*
X165955000Y-70000000I-155000J0D01*
G01*
X165645000Y-70000000D01*
G75*
G02*
X165490000Y-69845000I0J155000D01*
G01*
X165490000Y-69420000D01*
G75*
G02*
X165645000Y-69265000I155000J0D01*
G01*
G37*
G04 #@! TD.AperFunction*
G04 #@! TA.AperFunction,SMDPad,CuDef*
G36*
G01*
X162200000Y-66355000D02*
X162200000Y-66045000D01*
G75*
G02*
X162355000Y-65890000I155000J0D01*
G01*
X162780000Y-65890000D01*
G75*
G02*
X162935000Y-66045000I0J-155000D01*
G01*
X162935000Y-66355000D01*
G75*
G02*
X162780000Y-66510000I-155000J0D01*
G01*
X162355000Y-66510000D01*
G75*
G02*
X162200000Y-66355000I0J155000D01*
G01*
G37*
G04 #@! TD.AperFunction*
G04 #@! TA.AperFunction,SMDPad,CuDef*
G36*
G01*
X161065000Y-66355000D02*
X161065000Y-66045000D01*
G75*
G02*
X161220000Y-65890000I155000J0D01*
G01*
X161645000Y-65890000D01*
G75*
G02*
X161800000Y-66045000I0J-155000D01*
G01*
X161800000Y-66355000D01*
G75*
G02*
X161645000Y-66510000I-155000J0D01*
G01*
X161220000Y-66510000D01*
G75*
G02*
X161065000Y-66355000I0J155000D01*
G01*
G37*
G04 #@! TD.AperFunction*
G04 #@! TA.AperFunction,SMDPad,CuDef*
G36*
G01*
X164400000Y-66355000D02*
X164400000Y-66045000D01*
G75*
G02*
X164555000Y-65890000I155000J0D01*
G01*
X164980000Y-65890000D01*
G75*
G02*
X165135000Y-66045000I0J-155000D01*
G01*
X165135000Y-66355000D01*
G75*
G02*
X164980000Y-66510000I-155000J0D01*
G01*
X164555000Y-66510000D01*
G75*
G02*
X164400000Y-66355000I0J155000D01*
G01*
G37*
G04 #@! TD.AperFunction*
G04 #@! TA.AperFunction,SMDPad,CuDef*
G36*
G01*
X163265000Y-66355000D02*
X163265000Y-66045000D01*
G75*
G02*
X163420000Y-65890000I155000J0D01*
G01*
X163845000Y-65890000D01*
G75*
G02*
X164000000Y-66045000I0J-155000D01*
G01*
X164000000Y-66355000D01*
G75*
G02*
X163845000Y-66510000I-155000J0D01*
G01*
X163420000Y-66510000D01*
G75*
G02*
X163265000Y-66355000I0J155000D01*
G01*
G37*
G04 #@! TD.AperFunction*
G04 #@! TA.AperFunction,SMDPad,CuDef*
G36*
G01*
X165645000Y-67600000D02*
X165955000Y-67600000D01*
G75*
G02*
X166110000Y-67755000I0J-155000D01*
G01*
X166110000Y-68180000D01*
G75*
G02*
X165955000Y-68335000I-155000J0D01*
G01*
X165645000Y-68335000D01*
G75*
G02*
X165490000Y-68180000I0J155000D01*
G01*
X165490000Y-67755000D01*
G75*
G02*
X165645000Y-67600000I155000J0D01*
G01*
G37*
G04 #@! TD.AperFunction*
G04 #@! TA.AperFunction,SMDPad,CuDef*
G36*
G01*
X165645000Y-66465000D02*
X165955000Y-66465000D01*
G75*
G02*
X166110000Y-66620000I0J-155000D01*
G01*
X166110000Y-67045000D01*
G75*
G02*
X165955000Y-67200000I-155000J0D01*
G01*
X165645000Y-67200000D01*
G75*
G02*
X165490000Y-67045000I0J155000D01*
G01*
X165490000Y-66620000D01*
G75*
G02*
X165645000Y-66465000I155000J0D01*
G01*
G37*
G04 #@! TD.AperFunction*
G04 #@! TA.AperFunction,SMDPad,CuDef*
G36*
G01*
X160000000Y-69555000D02*
X160000000Y-69245000D01*
G75*
G02*
X160155000Y-69090000I155000J0D01*
G01*
X160580000Y-69090000D01*
G75*
G02*
X160735000Y-69245000I0J-155000D01*
G01*
X160735000Y-69555000D01*
G75*
G02*
X160580000Y-69710000I-155000J0D01*
G01*
X160155000Y-69710000D01*
G75*
G02*
X160000000Y-69555000I0J155000D01*
G01*
G37*
G04 #@! TD.AperFunction*
G04 #@! TA.AperFunction,SMDPad,CuDef*
G36*
G01*
X158865000Y-69555000D02*
X158865000Y-69245000D01*
G75*
G02*
X159020000Y-69090000I155000J0D01*
G01*
X159445000Y-69090000D01*
G75*
G02*
X159600000Y-69245000I0J-155000D01*
G01*
X159600000Y-69555000D01*
G75*
G02*
X159445000Y-69710000I-155000J0D01*
G01*
X159020000Y-69710000D01*
G75*
G02*
X158865000Y-69555000I0J155000D01*
G01*
G37*
G04 #@! TD.AperFunction*
G04 #@! TA.AperFunction,SMDPad,CuDef*
G36*
G01*
X163955000Y-73100000D02*
X163645000Y-73100000D01*
G75*
G02*
X163490000Y-72945000I0J155000D01*
G01*
X163490000Y-72520000D01*
G75*
G02*
X163645000Y-72365000I155000J0D01*
G01*
X163955000Y-72365000D01*
G75*
G02*
X164110000Y-72520000I0J-155000D01*
G01*
X164110000Y-72945000D01*
G75*
G02*
X163955000Y-73100000I-155000J0D01*
G01*
G37*
G04 #@! TD.AperFunction*
G04 #@! TA.AperFunction,SMDPad,CuDef*
G36*
G01*
X163955000Y-74235000D02*
X163645000Y-74235000D01*
G75*
G02*
X163490000Y-74080000I0J155000D01*
G01*
X163490000Y-73655000D01*
G75*
G02*
X163645000Y-73500000I155000J0D01*
G01*
X163955000Y-73500000D01*
G75*
G02*
X164110000Y-73655000I0J-155000D01*
G01*
X164110000Y-74080000D01*
G75*
G02*
X163955000Y-74235000I-155000J0D01*
G01*
G37*
G04 #@! TD.AperFunction*
D10*
X111379000Y-17272000D03*
X111379000Y-106172000D03*
D11*
X124079000Y-22352000D03*
X124079000Y-24892000D03*
X124079000Y-27432000D03*
X124079000Y-29972000D03*
X124079000Y-32512000D03*
X124079000Y-35052000D03*
X124079000Y-37592000D03*
X124079000Y-40132000D03*
X124079000Y-42672000D03*
X124079000Y-45212000D03*
X124079000Y-47752000D03*
X124079000Y-50292000D03*
X124079000Y-52832000D03*
X124079000Y-55372000D03*
X124079000Y-57912000D03*
X124079000Y-60452000D03*
X124079000Y-62992000D03*
X124079000Y-65532000D03*
X124079000Y-68072000D03*
X124079000Y-70612000D03*
X124079000Y-73152000D03*
X124079000Y-75692000D03*
X124079000Y-78232000D03*
X124079000Y-80772000D03*
X124079000Y-83312000D03*
X124079000Y-85852000D03*
X124079000Y-88392000D03*
X124079000Y-90932000D03*
X124079000Y-93472000D03*
X124079000Y-96012000D03*
X124079000Y-98552000D03*
X124079000Y-101092000D03*
X121539000Y-22352000D03*
X121539000Y-24892000D03*
X121539000Y-27432000D03*
X121539000Y-29972000D03*
X121539000Y-32512000D03*
X121539000Y-35052000D03*
X121539000Y-37592000D03*
X121539000Y-40132000D03*
X121539000Y-42672000D03*
X121539000Y-45212000D03*
X121539000Y-47752000D03*
X121539000Y-50292000D03*
X121539000Y-52832000D03*
X121539000Y-55372000D03*
X121539000Y-57912000D03*
X121539000Y-60452000D03*
X121539000Y-62992000D03*
X121539000Y-65532000D03*
X121539000Y-68072000D03*
X121539000Y-70612000D03*
X121539000Y-73152000D03*
X121539000Y-75692000D03*
X121539000Y-78232000D03*
X121539000Y-80772000D03*
X121539000Y-83312000D03*
X121539000Y-85852000D03*
X121539000Y-88392000D03*
X121539000Y-90932000D03*
X121539000Y-93472000D03*
X121539000Y-96012000D03*
X121539000Y-98552000D03*
X121539000Y-101092000D03*
X118999000Y-22352000D03*
X118999000Y-24892000D03*
X118999000Y-27432000D03*
X118999000Y-29972000D03*
X118999000Y-32512000D03*
X118999000Y-35052000D03*
X118999000Y-37592000D03*
X118999000Y-40132000D03*
X118999000Y-42672000D03*
X118999000Y-45212000D03*
X118999000Y-47752000D03*
X118999000Y-50292000D03*
X118999000Y-52832000D03*
X118999000Y-55372000D03*
X118999000Y-57912000D03*
X118999000Y-60452000D03*
X118999000Y-62992000D03*
X118999000Y-65532000D03*
X118999000Y-68072000D03*
X118999000Y-70612000D03*
X118999000Y-73152000D03*
X118999000Y-75692000D03*
X118999000Y-78232000D03*
X118999000Y-80772000D03*
X118999000Y-83312000D03*
X118999000Y-85852000D03*
X118999000Y-88392000D03*
X118999000Y-90932000D03*
X118999000Y-93472000D03*
X118999000Y-96012000D03*
X118999000Y-98552000D03*
X118999000Y-101092000D03*
X116459000Y-22352000D03*
X116459000Y-24892000D03*
X116459000Y-27432000D03*
X116459000Y-29972000D03*
X116459000Y-32512000D03*
X116459000Y-35052000D03*
X116459000Y-37592000D03*
X116459000Y-40132000D03*
X116459000Y-42672000D03*
X116459000Y-45212000D03*
X116459000Y-47752000D03*
X116459000Y-50292000D03*
X116459000Y-52832000D03*
X116459000Y-55372000D03*
X116459000Y-57912000D03*
X116459000Y-60452000D03*
X116459000Y-62992000D03*
X116459000Y-65532000D03*
X116459000Y-68072000D03*
X116459000Y-70612000D03*
X116459000Y-73152000D03*
X116459000Y-75692000D03*
X116459000Y-78232000D03*
X116459000Y-80772000D03*
X116459000Y-83312000D03*
X116459000Y-85852000D03*
X116459000Y-88392000D03*
X116459000Y-90932000D03*
X116459000Y-93472000D03*
X116459000Y-96012000D03*
X116459000Y-98552000D03*
X116459000Y-101092000D03*
X113919000Y-22352000D03*
X113919000Y-24892000D03*
X113919000Y-27432000D03*
X113919000Y-29972000D03*
X113919000Y-32512000D03*
X113919000Y-35052000D03*
X113919000Y-37592000D03*
X113919000Y-40132000D03*
X113919000Y-42672000D03*
X113919000Y-45212000D03*
X113919000Y-47752000D03*
X113919000Y-50292000D03*
X113919000Y-52832000D03*
X113919000Y-55372000D03*
X113919000Y-57912000D03*
X113919000Y-60452000D03*
X113919000Y-62992000D03*
X113919000Y-65532000D03*
X113919000Y-68072000D03*
X113919000Y-70612000D03*
X113919000Y-73152000D03*
X113919000Y-75692000D03*
X113919000Y-78232000D03*
X113919000Y-80772000D03*
X113919000Y-83312000D03*
X113919000Y-85852000D03*
X113919000Y-88392000D03*
X113919000Y-90932000D03*
X113919000Y-93472000D03*
X113919000Y-96012000D03*
X113919000Y-98552000D03*
X113919000Y-101092000D03*
D12*
X253746000Y-33782000D03*
X253746000Y-31242000D03*
X253746000Y-28702000D03*
X253746000Y-26162000D03*
D13*
X253746000Y-23622000D03*
D12*
X251206000Y-33782000D03*
X251206000Y-31242000D03*
X251206000Y-28702000D03*
X251206000Y-26162000D03*
D13*
X251206000Y-23622000D03*
D12*
X248666000Y-33782000D03*
X248666000Y-31242000D03*
X248666000Y-28702000D03*
X248666000Y-26162000D03*
D13*
X248666000Y-23622000D03*
D14*
X257302000Y-16256000D03*
D15*
X257302000Y-18796000D03*
D16*
X258778000Y-49565500D03*
X258778000Y-56165500D03*
X252178000Y-56165500D03*
X252178000Y-49565500D03*
D17*
X255478000Y-52865500D03*
D16*
X258841500Y-81315500D03*
X258841500Y-87915500D03*
X252241500Y-87915500D03*
X252241500Y-81315500D03*
D17*
X255541500Y-84615500D03*
D16*
X258778000Y-65796000D03*
X258778000Y-72396000D03*
X252178000Y-72396000D03*
X252178000Y-65796000D03*
D17*
X255478000Y-69096000D03*
D18*
X162674600Y-19496400D03*
X160134600Y-19496400D03*
D19*
X157594600Y-19496400D03*
D20*
X258610000Y-107370000D03*
X258610000Y-95330000D03*
D21*
X255900000Y-100100000D03*
X255900000Y-102600000D03*
X253900000Y-102600000D03*
D13*
X253900000Y-100100000D03*
D18*
X162719200Y-30659000D03*
X160179200Y-30659000D03*
D19*
X157639200Y-30659000D03*
D22*
X197770800Y-30368000D03*
X195230800Y-31638000D03*
X197770800Y-25288000D03*
X197770800Y-24018000D03*
D23*
X197770800Y-31638000D03*
D22*
X197770800Y-27828000D03*
X195230800Y-25288000D03*
X197770800Y-21478000D03*
X195230800Y-24018000D03*
X195230800Y-20208000D03*
X197770800Y-29098000D03*
X195230800Y-27828000D03*
X195230800Y-26558000D03*
X197770800Y-22748000D03*
X195230800Y-22748000D03*
X195230800Y-29098000D03*
X195230800Y-21478000D03*
X197770800Y-20208000D03*
X195230800Y-30368000D03*
X197770800Y-26558000D03*
D24*
X259850000Y-43340000D03*
X259850000Y-38260000D03*
X253500000Y-38260000D03*
X253500000Y-43340000D03*
X253500000Y-40800000D03*
D25*
X149050000Y-30381000D03*
X149050000Y-35381000D03*
X148850000Y-19281000D03*
X148850000Y-24281000D03*
D12*
X242443000Y-38354000D03*
X242443000Y-40894000D03*
D13*
X242443000Y-43434000D03*
D14*
X207300000Y-100300000D03*
D15*
X209840000Y-100300000D03*
D14*
X207360000Y-106100000D03*
D15*
X209900000Y-106100000D03*
D14*
X244094000Y-106400000D03*
D15*
X241554000Y-106400000D03*
D26*
X163400000Y-61000000D03*
X159800000Y-78600000D03*
X156900000Y-78600000D03*
X158200000Y-78600000D03*
X155600000Y-78600000D03*
X154300000Y-78600000D03*
D27*
X163300000Y-83400000D03*
D26*
X176900000Y-74600000D03*
D27*
X178100000Y-83500000D03*
D26*
X159800000Y-65400000D03*
X161400000Y-65400000D03*
X165400000Y-65400000D03*
X167000000Y-65400000D03*
X161400000Y-67000000D03*
X167000000Y-67000000D03*
X169400000Y-67000000D03*
X159800000Y-67800000D03*
X167000000Y-68600000D03*
X161400000Y-70200000D03*
X170200000Y-69400000D03*
X157400000Y-71000000D03*
X159800000Y-71000000D03*
X167000000Y-71000000D03*
X156600000Y-72600000D03*
X159000000Y-72600000D03*
X161400000Y-72600000D03*
X164600000Y-72600000D03*
X167000000Y-72600000D03*
X161400000Y-74200000D03*
X159800000Y-75000000D03*
X159000000Y-70200000D03*
D27*
X201200000Y-93300000D03*
X201200000Y-94550000D03*
X201200000Y-95850000D03*
X234800000Y-75900000D03*
X231000000Y-75900000D03*
X228150000Y-75900000D03*
X216400000Y-75950000D03*
X142700000Y-21450000D03*
X141750000Y-21450000D03*
X140800000Y-21450000D03*
X141200000Y-32800000D03*
X142150000Y-32800000D03*
X143100000Y-32800000D03*
D26*
X153000000Y-72250000D03*
X155800000Y-62200000D03*
X170200000Y-61400000D03*
X171000000Y-75800000D03*
X161400000Y-76600000D03*
X155800000Y-71000000D03*
D27*
X151200000Y-91550000D03*
X144150000Y-69600000D03*
X148950000Y-74150000D03*
X144150000Y-74250000D03*
D26*
X157400000Y-70200000D03*
D28*
X169460000Y-105684000D03*
X182185000Y-105634000D03*
X157035000Y-105659000D03*
X175860000Y-105709000D03*
X163110000Y-105684000D03*
X225425000Y-57658000D03*
X225425000Y-66294000D03*
X179070000Y-22860000D03*
X145818000Y-103429000D03*
X145850000Y-97650000D03*
X233680000Y-51562000D03*
X160424000Y-93765000D03*
X172793000Y-93790000D03*
X154095000Y-93740000D03*
X179118000Y-93715000D03*
X166520000Y-93765000D03*
X191690000Y-29836000D03*
X233934000Y-68580000D03*
X233934000Y-59944000D03*
X248920000Y-39878000D03*
X248920000Y-42418000D03*
X180230000Y-33384000D03*
X178054000Y-19304000D03*
X225425000Y-49276000D03*
D26*
X162200000Y-67000000D03*
X163000000Y-67000000D03*
X163800000Y-67000000D03*
X164600000Y-67000000D03*
X161400000Y-67800000D03*
X162200000Y-67800000D03*
X163000000Y-67800000D03*
X163800000Y-67800000D03*
X164600000Y-67800000D03*
X161400000Y-68600000D03*
X162200000Y-68600000D03*
X163000000Y-68600000D03*
X163800000Y-68600000D03*
X164600000Y-68600000D03*
X162200000Y-70200000D03*
X163000000Y-70200000D03*
X163800000Y-70200000D03*
X164600000Y-70200000D03*
X161400000Y-71000000D03*
X162200000Y-71000000D03*
X163000000Y-71000000D03*
X163800000Y-71000000D03*
X164600000Y-71000000D03*
X156400000Y-76800000D03*
D27*
X238450000Y-75950000D03*
X220700000Y-76000000D03*
X208900000Y-76000000D03*
X168900000Y-83500000D03*
D26*
X176752270Y-65547730D03*
D27*
X143648246Y-89470768D03*
X251190000Y-16250000D03*
X226900000Y-75900000D03*
X215100000Y-75950000D03*
D28*
X201215000Y-19422000D03*
X201215000Y-31106000D03*
X191690000Y-25899000D03*
X233680000Y-46736000D03*
X233680000Y-55118000D03*
X233680000Y-63754000D03*
D27*
X147650000Y-69600000D03*
X239900000Y-75950000D03*
X219271300Y-76000000D03*
X207494400Y-76000000D03*
X175500000Y-84300000D03*
D26*
X178475000Y-66425000D03*
D28*
X229616000Y-51562000D03*
X229870000Y-59944000D03*
X229870000Y-68580000D03*
D27*
X178150000Y-15210000D03*
X177560000Y-22910000D03*
X171600000Y-82700000D03*
X161500000Y-83400000D03*
D26*
X162200000Y-65400000D03*
X164600000Y-65400000D03*
X167000000Y-66200000D03*
X167000000Y-67800000D03*
X159800000Y-68600000D03*
X163000000Y-72600000D03*
X166200000Y-72600000D03*
X169900000Y-36100000D03*
D27*
X182157750Y-14207750D03*
D26*
X168600000Y-38800000D03*
X160600000Y-65400000D03*
X163000000Y-65400000D03*
X166200000Y-65400000D03*
X167800000Y-65400000D03*
X159800000Y-67000000D03*
X168600000Y-67800000D03*
X159800000Y-70200000D03*
X167000000Y-70200000D03*
X167000000Y-71800000D03*
X162200000Y-72600000D03*
X164600000Y-73400000D03*
X155800000Y-63000000D03*
X169400000Y-61400000D03*
X171000000Y-75000000D03*
X162200000Y-76600000D03*
X155800000Y-70200000D03*
D27*
X171600000Y-84300000D03*
D26*
X163400000Y-59800000D03*
X159800000Y-72600000D03*
X155750000Y-72600000D03*
D27*
X160644750Y-97555250D03*
X173178750Y-97646250D03*
X179579750Y-97595250D03*
X154391750Y-97608250D03*
X166892750Y-97657250D03*
X148950000Y-72950000D03*
X142159507Y-90959507D03*
D29*
X226721600Y-106780400D03*
X216035000Y-98036000D03*
X218352200Y-106426000D03*
X225933000Y-98044000D03*
X215011000Y-89281000D03*
X232283000Y-88265000D03*
X237109000Y-105156000D03*
X232156000Y-105918000D03*
X233299000Y-100838000D03*
X233299000Y-94234000D03*
X232918000Y-91186000D03*
X242800000Y-96417000D03*
X215925010Y-100711000D03*
X207494400Y-88288600D03*
X219337500Y-88265000D03*
X239903000Y-88265000D03*
X225221600Y-92710000D03*
X219710000Y-92698400D03*
X219329750Y-106807750D03*
X222758000Y-106807000D03*
D27*
X207900000Y-95800000D03*
X207900000Y-94550000D03*
X207900000Y-93300000D03*
D29*
X224409000Y-106807000D03*
X228473000Y-106807000D03*
X216535000Y-91694000D03*
X216408000Y-88265000D03*
X224282000Y-88265000D03*
X228219000Y-88265000D03*
X231013000Y-88265000D03*
X247904000Y-101219000D03*
X228346000Y-91694000D03*
X232918000Y-102108000D03*
X232918000Y-92710000D03*
X236254000Y-104360000D03*
X215965010Y-103058990D03*
X216019000Y-97036000D03*
X208764400Y-88288600D03*
X220541300Y-88265000D03*
X238607800Y-88265000D03*
X222721600Y-92710000D03*
X232918000Y-97399500D03*
X239737500Y-94780500D03*
X244372250Y-96290250D03*
X220221600Y-106803400D03*
X230124000Y-103600000D03*
X227330000Y-98806000D03*
X227330000Y-101727000D03*
X227330000Y-97028000D03*
X247904000Y-105283000D03*
X241300000Y-96400000D03*
D26*
X156600000Y-62200000D03*
X172200000Y-58700000D03*
X217000000Y-35700000D03*
X168600000Y-62200000D03*
X173700000Y-59900000D03*
X220000000Y-22300000D03*
X158200000Y-66200000D03*
X171000000Y-57900000D03*
X215000000Y-30000000D03*
X165400000Y-75000000D03*
X192100000Y-64100000D03*
X224000000Y-24900000D03*
X165400000Y-74200000D03*
X192100000Y-63100000D03*
X222000000Y-27400000D03*
X166200000Y-75000000D03*
X192600000Y-63600000D03*
X223000000Y-32500000D03*
X166200000Y-74200000D03*
X192600000Y-62600000D03*
X221000000Y-35000000D03*
X156600000Y-70200000D03*
X169800000Y-57100000D03*
X213000000Y-33800000D03*
X155600000Y-69000000D03*
X170400000Y-57500000D03*
X214000000Y-31300000D03*
X160600000Y-63000000D03*
X173200004Y-59500000D03*
X219000000Y-26200000D03*
X160600000Y-62200000D03*
X172700000Y-59100000D03*
X218000000Y-23600000D03*
D29*
X246970000Y-101219000D03*
X227330000Y-100711000D03*
X246970000Y-105328000D03*
X227330000Y-99695000D03*
D26*
X188500000Y-87000000D03*
X155200000Y-76700000D03*
X188500000Y-88000000D03*
X154900000Y-78700000D03*
X187500000Y-86000000D03*
X158200000Y-76800000D03*
X167200000Y-77000000D03*
X199200000Y-26600000D03*
X237400000Y-75900000D03*
X221800000Y-76000000D03*
X165400000Y-78800000D03*
X195200000Y-72900000D03*
X195200000Y-70000000D03*
D29*
X212574400Y-88288600D03*
X224536000Y-97028000D03*
X210034400Y-88321900D03*
D26*
X212600000Y-76000000D03*
X166600000Y-79400000D03*
X197200000Y-73600000D03*
X197200000Y-70000000D03*
X211300000Y-76000000D03*
X165800000Y-80000000D03*
X198200000Y-74300000D03*
X198200000Y-70000000D03*
X236100000Y-75900000D03*
X164200000Y-77600000D03*
X162200000Y-75800000D03*
X159000000Y-75800000D03*
X158200000Y-75800000D03*
X210000000Y-76000000D03*
X167800000Y-80600000D03*
X196200000Y-75000000D03*
X196200000Y-70000000D03*
X223100000Y-76000000D03*
X164600000Y-78200000D03*
X159000000Y-75000000D03*
X149350000Y-77350000D03*
X157400000Y-75800000D03*
X163000000Y-74200000D03*
X162200000Y-74200000D03*
X159800000Y-74200000D03*
X159000000Y-74200000D03*
X158200000Y-75000000D03*
X157400000Y-75000000D03*
X156600000Y-74200000D03*
X169400000Y-73400000D03*
X151800000Y-70300000D03*
X159800000Y-73400000D03*
X159000000Y-73400000D03*
X152100000Y-86200000D03*
X158200000Y-74200000D03*
X157400000Y-74200000D03*
X156600000Y-73400000D03*
X150299990Y-87000000D03*
X169400000Y-72600000D03*
X167800000Y-73400000D03*
X158200000Y-73400000D03*
X152100000Y-85299994D03*
X157400000Y-73400000D03*
X151300000Y-87000000D03*
X158200000Y-72600000D03*
X157400000Y-72600000D03*
X151300000Y-88000000D03*
X170200000Y-71800000D03*
X150700000Y-70300000D03*
X168900000Y-55300000D03*
X169400000Y-55800000D03*
X168900000Y-56300000D03*
X166200000Y-63800000D03*
X166200000Y-53900000D03*
X165400000Y-63800000D03*
X165800000Y-53200000D03*
X164600000Y-63800000D03*
X165000000Y-51100000D03*
X163000000Y-63800000D03*
X162800000Y-49500000D03*
X162200000Y-63800000D03*
X161300000Y-48500000D03*
X159800000Y-44500000D03*
X157400000Y-43000000D03*
X165400000Y-63000000D03*
X165400000Y-52500000D03*
X164600000Y-63000000D03*
X164500000Y-51800000D03*
X163000000Y-63000000D03*
X163300000Y-50500000D03*
X162200000Y-63000000D03*
X161800000Y-48000000D03*
X159000000Y-44000000D03*
X158200000Y-43500000D03*
X163800000Y-50000000D03*
X162300000Y-49000000D03*
X160300000Y-47500000D03*
X160800000Y-47000000D03*
D29*
X236093000Y-88265000D03*
X224536000Y-96012000D03*
X222758000Y-88265000D03*
X223520000Y-96012000D03*
X224282000Y-92710000D03*
X221650000Y-88250000D03*
X237363000Y-88265000D03*
X226695000Y-92710000D03*
X211328000Y-88265000D03*
X224536000Y-98044000D03*
D26*
X152800000Y-69400000D03*
X148900000Y-65500000D03*
X175600000Y-69800000D03*
X128400000Y-31400000D03*
X175100000Y-68600000D03*
X149700000Y-66200000D03*
X127700000Y-30900000D03*
X174500000Y-69000000D03*
X150500000Y-67000000D03*
X176100000Y-69000000D03*
X151300000Y-67800000D03*
X152000000Y-68600000D03*
X147900000Y-65100000D03*
X156600000Y-63000000D03*
X171600000Y-58300000D03*
X216000000Y-38400000D03*
D27*
X175500000Y-82700000D03*
D30*
X148982500Y-74117500D02*
X148950000Y-74150000D01*
D31*
X155017500Y-71000000D02*
X154850000Y-71167500D01*
X155800000Y-71000000D02*
X155017500Y-71000000D01*
X161400000Y-77382500D02*
X161232500Y-77550000D01*
X161400000Y-76600000D02*
X161400000Y-77382500D01*
X171782500Y-75800000D02*
X171950000Y-75967500D01*
X171000000Y-75800000D02*
X171782500Y-75800000D01*
X170200000Y-60617500D02*
X170367500Y-60450000D01*
X170200000Y-61400000D02*
X170200000Y-60617500D01*
X155017500Y-62200000D02*
X154850000Y-62032500D01*
X155800000Y-62200000D02*
X155017500Y-62200000D01*
X153682500Y-72250000D02*
X153682500Y-73250000D01*
X153682500Y-72250000D02*
X153000000Y-72250000D01*
X161432500Y-65432500D02*
X161400000Y-65400000D01*
X161432500Y-66200000D02*
X161432500Y-65432500D01*
X163800000Y-66367500D02*
X163632500Y-66200000D01*
X163800000Y-67000000D02*
X163800000Y-66367500D01*
X165967500Y-67000000D02*
X165800000Y-66832500D01*
X167000000Y-67000000D02*
X165967500Y-67000000D01*
X164967500Y-71000000D02*
X164600000Y-71000000D01*
X165767500Y-71800000D02*
X164967500Y-71000000D01*
X165232500Y-70200000D02*
X165800000Y-69632500D01*
X164600000Y-70200000D02*
X165232500Y-70200000D01*
X163000000Y-69832500D02*
X162567500Y-69400000D01*
X163000000Y-70200000D02*
X163000000Y-69832500D01*
X163000000Y-68767500D02*
X163632500Y-69400000D01*
X163000000Y-68600000D02*
X163000000Y-68767500D01*
X160832500Y-68600000D02*
X160600000Y-68367500D01*
X161400000Y-68600000D02*
X160832500Y-68600000D01*
X159232500Y-69967500D02*
X159000000Y-70200000D01*
X159232500Y-69400000D02*
X159232500Y-69967500D01*
X164600000Y-72811372D02*
X164600000Y-72600000D01*
X163800000Y-73611372D02*
X164600000Y-72811372D01*
X163800000Y-73867500D02*
X163800000Y-73611372D01*
X170200000Y-69400000D02*
X169567500Y-69400000D01*
X163400000Y-60967500D02*
X163967500Y-60400000D01*
X163400000Y-61000000D02*
X163400000Y-60967500D01*
X164032500Y-64032500D02*
X163800000Y-64032500D01*
X165400000Y-65400000D02*
X164032500Y-64032500D01*
X163800000Y-71800000D02*
X164600000Y-72600000D01*
X163567500Y-71800000D02*
X163800000Y-71800000D01*
X162200000Y-65832500D02*
X162567500Y-66200000D01*
X162200000Y-65400000D02*
X162200000Y-65832500D01*
X164600000Y-66032500D02*
X164767500Y-66200000D01*
X164600000Y-65400000D02*
X164600000Y-66032500D01*
X165967500Y-67800000D02*
X165800000Y-67967500D01*
X167000000Y-67800000D02*
X165967500Y-67800000D01*
X163567500Y-72600000D02*
X163800000Y-72832500D01*
X163000000Y-72600000D02*
X163567500Y-72600000D01*
X166424999Y-71392499D02*
X165800000Y-70767500D01*
X166424999Y-72375001D02*
X166424999Y-71392499D01*
X166200000Y-72600000D02*
X166424999Y-72375001D01*
X159800000Y-68832500D02*
X160367500Y-69400000D01*
X159800000Y-68600000D02*
X159800000Y-68832500D01*
D30*
X106650000Y-13500000D02*
X181450000Y-13500000D01*
X102900000Y-17250000D02*
X106650000Y-13500000D01*
X102900000Y-56950000D02*
X102900000Y-17250000D01*
X104923221Y-58973221D02*
X102900000Y-56950000D01*
X122600221Y-58973221D02*
X104923221Y-58973221D01*
X181450000Y-13500000D02*
X182157750Y-14207750D01*
X124079000Y-60452000D02*
X122600221Y-58973221D01*
D31*
X168600000Y-37400000D02*
X169900000Y-36100000D01*
X168600000Y-38800000D02*
X168600000Y-37400000D01*
X155017500Y-70200000D02*
X154850000Y-70032500D01*
X155800000Y-70200000D02*
X155017500Y-70200000D01*
X162200000Y-77382500D02*
X162367500Y-77550000D01*
X162200000Y-76600000D02*
X162200000Y-77382500D01*
X171782500Y-75000000D02*
X171950000Y-74832500D01*
X171000000Y-75000000D02*
X171782500Y-75000000D01*
X169400000Y-60617500D02*
X169232500Y-60450000D01*
X169400000Y-61400000D02*
X169400000Y-60617500D01*
X155017500Y-63000000D02*
X154850000Y-63167500D01*
X155800000Y-63000000D02*
X155017500Y-63000000D01*
X163567500Y-65400000D02*
X163800000Y-65167500D01*
X163000000Y-65400000D02*
X163567500Y-65400000D01*
X162200000Y-72032500D02*
X162432500Y-71800000D01*
X162200000Y-72600000D02*
X162200000Y-72032500D01*
X164997721Y-72165221D02*
X164632500Y-71800000D01*
X164997721Y-73002279D02*
X164997721Y-72165221D01*
X164600000Y-73400000D02*
X164997721Y-73002279D01*
X160632500Y-70200000D02*
X161432500Y-69400000D01*
X159800000Y-70200000D02*
X160632500Y-70200000D01*
X160367500Y-67000000D02*
X160600000Y-67232500D01*
X159800000Y-67000000D02*
X160367500Y-67000000D01*
X165075230Y-69092270D02*
X164767500Y-69400000D01*
X166090752Y-69092270D02*
X165075230Y-69092270D01*
X167000000Y-70001518D02*
X166090752Y-69092270D01*
X167000000Y-70200000D02*
X167000000Y-70001518D01*
X168202279Y-69019779D02*
X168582500Y-69400000D01*
X168202279Y-68197721D02*
X168202279Y-69019779D01*
X168600000Y-67800000D02*
X168202279Y-68197721D01*
X162832500Y-60367500D02*
X163400000Y-59800000D01*
X162832500Y-60400000D02*
X162832500Y-60367500D01*
D30*
X148982500Y-72982500D02*
X148950000Y-72950000D01*
X148950000Y-72950000D02*
X148950000Y-72950000D01*
D31*
X155100000Y-73250000D02*
X155750000Y-72600000D01*
X154817500Y-73250000D02*
X155100000Y-73250000D01*
X155400000Y-72250000D02*
X155750000Y-72600000D01*
X154817500Y-72250000D02*
X155400000Y-72250000D01*
X160100000Y-58700000D02*
X172200000Y-58700000D01*
X156600000Y-62200000D02*
X160100000Y-58700000D01*
X251828000Y-35700000D02*
X253746000Y-33782000D01*
X217000000Y-35700000D02*
X251828000Y-35700000D01*
X168600000Y-60100000D02*
X168800000Y-59900000D01*
X168600000Y-62200000D02*
X168600000Y-60100000D01*
X168800000Y-59900000D02*
X173700000Y-59900000D01*
X173700000Y-59900000D02*
X173700000Y-59900000D01*
X253746000Y-23622000D02*
X253722000Y-23622000D01*
X253722000Y-23622000D02*
X252400000Y-22300000D01*
X252400000Y-22300000D02*
X220000000Y-22300000D01*
X220000000Y-22300000D02*
X220000000Y-22300000D01*
X154200000Y-64700000D02*
X155700000Y-66200000D01*
X155700000Y-66200000D02*
X158200000Y-66200000D01*
X154200000Y-61700000D02*
X154200000Y-64700000D01*
X158000000Y-57900000D02*
X154200000Y-61700000D01*
X171000000Y-57900000D02*
X158000000Y-57900000D01*
X215100000Y-30000000D02*
X215000000Y-30100000D01*
X252504000Y-30000000D02*
X215100000Y-30000000D01*
X253746000Y-31242000D02*
X252504000Y-30000000D01*
X189100000Y-64100000D02*
X192100000Y-64100000D01*
X169602279Y-75397721D02*
X172900000Y-72100000D01*
X165797721Y-75397721D02*
X169602279Y-75397721D01*
X181100000Y-72100000D02*
X189100000Y-64100000D01*
X172900000Y-72100000D02*
X181100000Y-72100000D01*
X165400000Y-75000000D02*
X165797721Y-75397721D01*
X251206000Y-23622000D02*
X251178000Y-23622000D01*
X251178000Y-23622000D02*
X249900000Y-24900000D01*
X224000000Y-24900000D02*
X249900000Y-24900000D01*
X188400000Y-63100000D02*
X192100000Y-63100000D01*
X180200000Y-71300000D02*
X188400000Y-63100000D01*
X172700000Y-71300000D02*
X180200000Y-71300000D01*
X169402279Y-74597721D02*
X172700000Y-71300000D01*
X165797721Y-74597721D02*
X169402279Y-74597721D01*
X165400000Y-74200000D02*
X165797721Y-74597721D01*
X249968000Y-27400000D02*
X251206000Y-26162000D01*
X222000000Y-27400000D02*
X249968000Y-27400000D01*
X166200000Y-75000000D02*
X169500000Y-75000000D01*
X169500000Y-75000000D02*
X172800000Y-71700000D01*
X172800000Y-71700000D02*
X180600000Y-71700000D01*
X180600000Y-71700000D02*
X188700000Y-63600000D01*
X188700000Y-63600000D02*
X192600000Y-63600000D01*
X251206000Y-31242000D02*
X249948000Y-32500000D01*
X249948000Y-32500000D02*
X247300000Y-32500000D01*
X247300000Y-32500000D02*
X223000000Y-32500000D01*
X166200000Y-74200000D02*
X169265922Y-74200000D01*
X169265922Y-74200000D02*
X172565922Y-70900000D01*
X172565922Y-70900000D02*
X178500000Y-70900000D01*
X179865922Y-70900000D02*
X188165922Y-62600000D01*
X178500000Y-70900000D02*
X179865922Y-70900000D01*
X188165922Y-62600000D02*
X192600000Y-62600000D01*
X192600000Y-62600000D02*
X192600000Y-62600000D01*
X249988000Y-35000000D02*
X221000000Y-35000000D01*
X251206000Y-33782000D02*
X249988000Y-35000000D01*
X169800000Y-57100000D02*
X169800000Y-57100000D01*
X157500000Y-57100000D02*
X169800000Y-57100000D01*
X153400000Y-61200000D02*
X157500000Y-57100000D01*
X153400000Y-67388628D02*
X153400000Y-61200000D01*
X155811372Y-69800000D02*
X153400000Y-67388628D01*
X156200000Y-69800000D02*
X155811372Y-69800000D01*
X156600000Y-70200000D02*
X156200000Y-69800000D01*
X213018000Y-33782000D02*
X213000000Y-33800000D01*
X248666000Y-33782000D02*
X213018000Y-33782000D01*
X153800000Y-67200000D02*
X155600000Y-69000000D01*
X153800000Y-61500000D02*
X153800000Y-67200000D01*
X157800000Y-57500000D02*
X153800000Y-61500000D01*
X170400000Y-57500000D02*
X157800000Y-57500000D01*
X214158000Y-31242000D02*
X214000000Y-31400000D01*
X248666000Y-31242000D02*
X214158000Y-31242000D01*
X172900000Y-59500000D02*
X172900000Y-59500000D01*
X172211370Y-59500000D02*
X173200004Y-59500000D01*
X168600000Y-59500000D02*
X172211370Y-59500000D01*
X165900000Y-62200000D02*
X168600000Y-59500000D01*
X161400000Y-62200000D02*
X165900000Y-62200000D01*
X160600000Y-63000000D02*
X161400000Y-62200000D01*
X248628000Y-26200000D02*
X248666000Y-26162000D01*
X219000000Y-26200000D02*
X248628000Y-26200000D01*
X172400000Y-59100000D02*
X172400000Y-59100000D01*
X171811370Y-59100000D02*
X172700000Y-59100000D01*
X165600000Y-61800000D02*
X168300000Y-59100000D01*
X168300000Y-59100000D02*
X171811370Y-59100000D01*
X161000000Y-61800000D02*
X165600000Y-61800000D01*
X160600000Y-62200000D02*
X161000000Y-61800000D01*
X248666000Y-23622000D02*
X218022000Y-23622000D01*
D30*
X246970000Y-101219000D02*
X245900010Y-100149010D01*
X227330000Y-100838000D02*
X228018990Y-100149010D01*
X228018990Y-100149010D02*
X245900010Y-100149010D01*
X248485001Y-103812999D02*
X246970000Y-105328000D01*
X248485001Y-100940119D02*
X248485001Y-103812999D01*
X247239882Y-99695000D02*
X248485001Y-100940119D01*
X227330000Y-99695000D02*
X247239882Y-99695000D01*
D31*
X159700000Y-87000000D02*
X188500000Y-87000000D01*
X157500000Y-84800000D02*
X159700000Y-87000000D01*
X157500000Y-78600000D02*
X157500000Y-84800000D01*
X155600000Y-76700000D02*
X157500000Y-78600000D01*
X155200000Y-76700000D02*
X155600000Y-76700000D01*
X156900000Y-80700000D02*
X154900000Y-78700000D01*
X156900000Y-85400000D02*
X156900000Y-80700000D01*
X159500000Y-88000000D02*
X156900000Y-85400000D01*
X188500000Y-88000000D02*
X159500000Y-88000000D01*
X187400000Y-85900000D02*
X187500000Y-86000000D01*
X159500000Y-85900000D02*
X187400000Y-85900000D01*
X158600000Y-85000000D02*
X159500000Y-85900000D01*
X158600000Y-77200000D02*
X158600000Y-85000000D01*
X158200000Y-76800000D02*
X158600000Y-77200000D01*
X184095517Y-77000000D02*
X167200000Y-77000000D01*
X190295517Y-70800000D02*
X184095517Y-77000000D01*
X199200000Y-70000000D02*
X198400000Y-70800000D01*
X198400000Y-70800000D02*
X190295517Y-70800000D01*
X199200000Y-26600000D02*
X199200000Y-70000000D01*
X232300000Y-70800000D02*
X237400000Y-75900000D01*
X205800000Y-70800000D02*
X232300000Y-70800000D01*
X205800000Y-70800000D02*
X202600000Y-70800000D01*
X202600000Y-70800000D02*
X202500000Y-70800000D01*
X198700000Y-26898800D02*
X197770800Y-27828000D01*
X199000000Y-26000000D02*
X198700000Y-26300000D01*
X199500000Y-26000000D02*
X199000000Y-26000000D01*
X200000000Y-26500000D02*
X199500000Y-26000000D01*
X198700000Y-26300000D02*
X198700000Y-26898800D01*
X200000000Y-70000000D02*
X200000000Y-26500000D01*
X200800000Y-70800000D02*
X200000000Y-70000000D01*
X202600000Y-70800000D02*
X200800000Y-70800000D01*
X221575001Y-75775001D02*
X221800000Y-76000000D01*
X218700000Y-72900000D02*
X221575001Y-75775001D01*
X190617040Y-72900000D02*
X196000000Y-72900000D01*
X184717040Y-78800000D02*
X190617040Y-72900000D01*
X165400000Y-78800000D02*
X184717040Y-78800000D01*
X196600000Y-72900000D02*
X218700000Y-72900000D01*
X196000000Y-72900000D02*
X196600000Y-72900000D01*
X195200000Y-31668800D02*
X195230800Y-31638000D01*
X195200000Y-70000000D02*
X195200000Y-31668800D01*
D30*
X212574400Y-88368400D02*
X212574400Y-88288600D01*
X220164001Y-89862001D02*
X214068001Y-89862001D01*
X222123000Y-91821000D02*
X220164001Y-89862001D01*
X214068001Y-89862001D02*
X212574400Y-88368400D01*
X223266000Y-97028000D02*
X222123000Y-95885000D01*
X222123000Y-95885000D02*
X222123000Y-91821000D01*
X224536000Y-97028000D02*
X223266000Y-97028000D01*
D31*
X210200000Y-73600000D02*
X212600000Y-76000000D01*
X190800000Y-73600000D02*
X196000000Y-73600000D01*
X185000000Y-79400000D02*
X190800000Y-73600000D01*
X166600000Y-79400000D02*
X185000000Y-79400000D01*
X197200000Y-73600000D02*
X210200000Y-73600000D01*
X196000000Y-73600000D02*
X197200000Y-73600000D01*
X197200000Y-32208800D02*
X197770800Y-31638000D01*
X197200000Y-70000000D02*
X197200000Y-32208800D01*
X185200000Y-80000000D02*
X165800000Y-80000000D01*
X190900000Y-74300000D02*
X185200000Y-80000000D01*
X209600000Y-74300000D02*
X197800000Y-74300000D01*
X211300000Y-76000000D02*
X209600000Y-74300000D01*
X197800000Y-74300000D02*
X196100000Y-74300000D01*
X196100000Y-74300000D02*
X190900000Y-74300000D01*
X198200000Y-70000000D02*
X198200000Y-33000000D01*
X198200000Y-33000000D02*
X198700000Y-32500000D01*
X198700000Y-32500000D02*
X198700000Y-30800000D01*
X198268000Y-30368000D02*
X197770800Y-30368000D01*
X198700000Y-30800000D02*
X198268000Y-30368000D01*
X235875001Y-75675001D02*
X236100000Y-75900000D01*
X231700000Y-71500000D02*
X235875001Y-75675001D01*
X190400000Y-71500000D02*
X231700000Y-71500000D01*
X184300000Y-77600000D02*
X190400000Y-71500000D01*
X164200000Y-77600000D02*
X184300000Y-77600000D01*
X155268199Y-75397721D02*
X158597721Y-75397721D01*
X146265920Y-84400000D02*
X155268199Y-75397721D01*
X122627000Y-84400000D02*
X146265920Y-84400000D01*
X121539000Y-83312000D02*
X122627000Y-84400000D01*
X158597721Y-75397721D02*
X159000000Y-75800000D01*
X209479121Y-76000000D02*
X210000000Y-76000000D01*
X185500000Y-80600000D02*
X191100000Y-75000000D01*
X191100000Y-75000000D02*
X196100000Y-75000000D01*
X206915279Y-75000000D02*
X206915279Y-76277979D01*
X206915279Y-76277979D02*
X207216421Y-76579121D01*
X208320879Y-76277979D02*
X208622021Y-76579121D01*
X207216421Y-76579121D02*
X207772379Y-76579121D01*
X208073521Y-76000000D02*
X208320879Y-76000000D01*
X207772379Y-76579121D02*
X208073521Y-76277979D01*
X208073521Y-76277979D02*
X208073521Y-76000000D01*
X208320879Y-76000000D02*
X208320879Y-76277979D01*
X209479121Y-76277979D02*
X209479121Y-76000000D01*
X208622021Y-76579121D02*
X209177979Y-76579121D01*
X167800000Y-80600000D02*
X185500000Y-80600000D01*
X209177979Y-76579121D02*
X209479121Y-76277979D01*
X198300000Y-75000000D02*
X206915279Y-75000000D01*
X196100000Y-75000000D02*
X198300000Y-75000000D01*
X196200000Y-28128800D02*
X197770800Y-26558000D01*
X196200000Y-70000000D02*
X196200000Y-28128800D01*
X222875001Y-75775001D02*
X223100000Y-76000000D01*
X219300000Y-72200000D02*
X222875001Y-75775001D01*
X190500000Y-72200000D02*
X219300000Y-72200000D01*
X184500000Y-78200000D02*
X190500000Y-72200000D01*
X164600000Y-78200000D02*
X184500000Y-78200000D01*
X157081802Y-75800000D02*
X157400000Y-75800000D01*
X155200000Y-75800000D02*
X157081802Y-75800000D01*
X144181155Y-86818845D02*
X155200000Y-75800000D01*
X135479595Y-86950000D02*
X135610750Y-86818845D01*
X121200000Y-86950000D02*
X135479595Y-86950000D01*
X120250000Y-87900000D02*
X121200000Y-86950000D01*
X120250000Y-88750000D02*
X120250000Y-87900000D01*
X119350000Y-89650000D02*
X120250000Y-88750000D01*
X118650000Y-89650000D02*
X119350000Y-89650000D01*
X117700000Y-90600000D02*
X118650000Y-89650000D01*
X135610750Y-86818845D02*
X144181155Y-86818845D01*
X116459000Y-93472000D02*
X117700000Y-92231000D01*
X117700000Y-92231000D02*
X117700000Y-90600000D01*
X158200000Y-75000000D02*
X157802279Y-74602279D01*
X157802279Y-74602279D02*
X155729560Y-74602279D01*
X120427000Y-82200000D02*
X118999000Y-80772000D01*
X155729560Y-74602279D02*
X148131839Y-82200000D01*
X148131839Y-82200000D02*
X120427000Y-82200000D01*
X121050000Y-81850000D02*
X120250000Y-81050000D01*
X120250000Y-80200000D02*
X119600000Y-79550000D01*
X119600000Y-79550000D02*
X118450000Y-79550000D01*
X155797758Y-74200000D02*
X148147758Y-81850000D01*
X118450000Y-79550000D02*
X117700000Y-80300000D01*
X117700000Y-88850000D02*
X116900000Y-89650000D01*
X120250000Y-81050000D02*
X120250000Y-80200000D01*
X116900000Y-89650000D02*
X115201000Y-89650000D01*
X115201000Y-89650000D02*
X113919000Y-90932000D01*
X117700000Y-80300000D02*
X117700000Y-88850000D01*
X148147758Y-81850000D02*
X121050000Y-81850000D01*
X156600000Y-74200000D02*
X155797758Y-74200000D01*
X150090901Y-86200000D02*
X152100000Y-86200000D01*
X135806450Y-87291307D02*
X148999594Y-87291307D01*
X132165757Y-90932000D02*
X135806450Y-87291307D01*
X124079000Y-90932000D02*
X132165757Y-90932000D01*
X148999594Y-87291307D02*
X150090901Y-86200000D01*
X157802279Y-73802279D02*
X155861398Y-73802279D01*
X155861398Y-73802279D02*
X148891677Y-80772000D01*
X148891677Y-80772000D02*
X124079000Y-80772000D01*
X158200000Y-74200000D02*
X157802279Y-73802279D01*
X135904300Y-87527538D02*
X149772452Y-87527538D01*
X122811000Y-92200000D02*
X131231838Y-92200000D01*
X121539000Y-93472000D02*
X122811000Y-92200000D01*
X131231838Y-92200000D02*
X135904300Y-87527538D01*
X149772452Y-87527538D02*
X150299990Y-87000000D01*
X135463677Y-87300000D02*
X135708600Y-87055076D01*
X122631000Y-87300000D02*
X135463677Y-87300000D01*
X121539000Y-88392000D02*
X122631000Y-87300000D01*
X135708600Y-87055076D02*
X148901745Y-87055076D01*
X148901745Y-87055076D02*
X150656827Y-85299994D01*
X150656827Y-85299994D02*
X152100000Y-85299994D01*
X118999000Y-96012000D02*
X120261000Y-94750000D01*
X150536231Y-87763769D02*
X151300000Y-87000000D01*
X129015919Y-94750000D02*
X136002150Y-87763769D01*
X120261000Y-94750000D02*
X129015919Y-94750000D01*
X136002150Y-87763769D02*
X150536231Y-87763769D01*
X136100000Y-88000000D02*
X151300000Y-88000000D01*
X113919000Y-96012000D02*
X115207000Y-97300000D01*
X126800000Y-97300000D02*
X136100000Y-88000000D01*
X115207000Y-97300000D02*
X126800000Y-97300000D01*
X120171000Y-54200000D02*
X118999000Y-55372000D01*
X124600000Y-54200000D02*
X120171000Y-54200000D01*
X125700000Y-55300000D02*
X124600000Y-54200000D01*
X168900000Y-55300000D02*
X125700000Y-55300000D01*
X124507000Y-55800000D02*
X169400000Y-55800000D01*
X124079000Y-55372000D02*
X124507000Y-55800000D01*
X117700000Y-54073000D02*
X116459000Y-52832000D01*
X117700000Y-56000000D02*
X117700000Y-54073000D01*
X126200000Y-56500000D02*
X118200000Y-56500000D01*
X126400000Y-56300000D02*
X126200000Y-56500000D01*
X118200000Y-56500000D02*
X117700000Y-56000000D01*
X168900000Y-56300000D02*
X126400000Y-56300000D01*
X122607000Y-53900000D02*
X121539000Y-52832000D01*
X166200000Y-53900000D02*
X122607000Y-53900000D01*
X138600000Y-46400000D02*
X117811000Y-46400000D01*
X145400000Y-53200000D02*
X138600000Y-46400000D01*
X117811000Y-46400000D02*
X116459000Y-47752000D01*
X165800000Y-53200000D02*
X145400000Y-53200000D01*
X144302240Y-51100000D02*
X134316009Y-41113769D01*
X125060769Y-41113769D02*
X124903999Y-40956999D01*
X165000000Y-51100000D02*
X144302240Y-51100000D01*
X124903999Y-40956999D02*
X124079000Y-40132000D01*
X134316009Y-41113769D02*
X125060769Y-41113769D01*
X113919000Y-35052000D02*
X115130769Y-36263769D01*
X130468250Y-36263769D02*
X143704480Y-49500000D01*
X115130769Y-36263769D02*
X130468250Y-36263769D01*
X143704480Y-49500000D02*
X162800000Y-49500000D01*
X161300000Y-48500000D02*
X143372640Y-48500000D01*
X143372640Y-48500000D02*
X128672640Y-33800000D01*
X128672640Y-33800000D02*
X117747000Y-33800000D01*
X117747000Y-33800000D02*
X116459000Y-32512000D01*
X159800000Y-44500000D02*
X142234078Y-44500000D01*
X129291307Y-31557229D02*
X129291307Y-30104307D01*
X129291307Y-30104307D02*
X124079000Y-24892000D01*
X142234078Y-44500000D02*
X129291307Y-31557229D01*
X141800000Y-43000000D02*
X157400000Y-43000000D01*
X130000000Y-31200000D02*
X141800000Y-43000000D01*
X126100000Y-25900000D02*
X130000000Y-29800000D01*
X126100000Y-22065922D02*
X126100000Y-25900000D01*
X118411000Y-20400000D02*
X124434078Y-20400000D01*
X116459000Y-22352000D02*
X118411000Y-20400000D01*
X130000000Y-29800000D02*
X130000000Y-31200000D01*
X124434078Y-20400000D02*
X126100000Y-22065922D01*
X124903999Y-46036999D02*
X124079000Y-45212000D01*
X125030769Y-46163769D02*
X124903999Y-46036999D01*
X138697850Y-46163769D02*
X125030769Y-46163769D01*
X145034081Y-52500000D02*
X138697850Y-46163769D01*
X165400000Y-52500000D02*
X145034081Y-52500000D01*
X164600000Y-51800000D02*
X164500000Y-51800000D01*
X120217000Y-41350000D02*
X118999000Y-40132000D01*
X138727538Y-45927538D02*
X134150000Y-41350000D01*
X164500000Y-51800000D02*
X144668160Y-51800000D01*
X144668160Y-51800000D02*
X138795700Y-45927538D01*
X138795700Y-45927538D02*
X138727538Y-45927538D01*
X134150000Y-41350000D02*
X120217000Y-41350000D01*
X144036320Y-50500000D02*
X132336320Y-38800000D01*
X163300000Y-50500000D02*
X144036320Y-50500000D01*
X132336320Y-38800000D02*
X122747000Y-38800000D01*
X122747000Y-38800000D02*
X121539000Y-37592000D01*
X143206731Y-48000000D02*
X125178731Y-29972000D01*
X125178731Y-29972000D02*
X124079000Y-29972000D01*
X161800000Y-48000000D02*
X143206731Y-48000000D01*
X117900000Y-21900000D02*
X117900000Y-23793000D01*
X117900000Y-23793000D02*
X118999000Y-24892000D01*
X118800000Y-21000000D02*
X117900000Y-21900000D01*
X125400000Y-25868161D02*
X125400000Y-22196372D01*
X124203628Y-21000000D02*
X118800000Y-21000000D01*
X125400000Y-22196372D02*
X124203628Y-21000000D01*
X129527538Y-29995699D02*
X125400000Y-25868161D01*
X129527538Y-31427538D02*
X129527538Y-29995699D01*
X142100000Y-44000000D02*
X129527538Y-31427538D01*
X159000000Y-44000000D02*
X142100000Y-44000000D01*
X115211000Y-23600000D02*
X113919000Y-24892000D01*
X117100000Y-23600000D02*
X115211000Y-23600000D01*
X117600000Y-23100000D02*
X117100000Y-23600000D01*
X117600000Y-21800000D02*
X117600000Y-23100000D01*
X129763769Y-29897849D02*
X125700000Y-25834080D01*
X118700000Y-20700000D02*
X117600000Y-21800000D01*
X141965919Y-43500000D02*
X129763769Y-31297850D01*
X124399998Y-20700000D02*
X118700000Y-20700000D01*
X125700000Y-22000002D02*
X124399998Y-20700000D01*
X129763769Y-31297850D02*
X129763769Y-29897849D01*
X158200000Y-43500000D02*
X141965919Y-43500000D01*
X125700000Y-25834080D02*
X125700000Y-22000002D01*
X117551000Y-36500000D02*
X116459000Y-37592000D01*
X143870400Y-50000000D02*
X130370400Y-36500000D01*
X130370400Y-36500000D02*
X117551000Y-36500000D01*
X163800000Y-50000000D02*
X143870400Y-50000000D01*
X119996721Y-34054279D02*
X118999000Y-35052000D01*
X128592839Y-34054279D02*
X119996721Y-34054279D01*
X143538560Y-49000000D02*
X128592839Y-34054279D01*
X162300000Y-49000000D02*
X143538560Y-49000000D01*
X114916721Y-28974279D02*
X113919000Y-29972000D01*
X124574279Y-28974279D02*
X114916721Y-28974279D01*
X143100000Y-47500000D02*
X124574279Y-28974279D01*
X160300000Y-47500000D02*
X143100000Y-47500000D01*
X122807000Y-28700000D02*
X121539000Y-27432000D01*
X124700000Y-28700000D02*
X122807000Y-28700000D01*
X143000000Y-47000000D02*
X124700000Y-28700000D01*
X160800000Y-47000000D02*
X143000000Y-47000000D01*
D30*
X234569000Y-89789000D02*
X236093000Y-88265000D01*
X227584000Y-89789000D02*
X234569000Y-89789000D01*
X225933000Y-94615000D02*
X225933000Y-91440000D01*
X225933000Y-91440000D02*
X227584000Y-89789000D01*
X224536000Y-96012000D02*
X225933000Y-94615000D01*
X223520000Y-89789000D02*
X222758000Y-89027000D01*
X223520000Y-95885000D02*
X223520000Y-89789000D01*
X222758000Y-89027000D02*
X222758000Y-88265000D01*
X224282000Y-89467966D02*
X223520000Y-88705966D01*
X224282000Y-92710000D02*
X224282000Y-89467966D01*
D32*
X222350000Y-87550000D02*
X221650000Y-88250000D01*
X223000000Y-87550000D02*
X222350000Y-87550000D01*
X223520000Y-88070000D02*
X223000000Y-87550000D01*
X223520000Y-88705966D02*
X223520000Y-88070000D01*
D30*
X227838000Y-90297000D02*
X235331000Y-90297000D01*
X235331000Y-90297000D02*
X237363000Y-88265000D01*
X226695000Y-91440000D02*
X227838000Y-90297000D01*
X226695000Y-92710000D02*
X226695000Y-91440000D01*
X221361000Y-96266000D02*
X223139000Y-98044000D01*
X221361000Y-92202000D02*
X221361000Y-96266000D01*
X219710000Y-90551000D02*
X221361000Y-92202000D01*
X211328000Y-88392000D02*
X213487000Y-90551000D01*
X213487000Y-90551000D02*
X219710000Y-90551000D01*
X211328000Y-88265000D02*
X211328000Y-88392000D01*
X223139000Y-98044000D02*
X224536000Y-98044000D01*
D31*
X122663769Y-23476769D02*
X121539000Y-22352000D01*
X123602150Y-26336231D02*
X122663769Y-25397850D01*
X162900000Y-45500000D02*
X142565919Y-45500000D01*
X122663769Y-25397850D02*
X122663769Y-23476769D01*
X175600000Y-58200000D02*
X162900000Y-45500000D01*
X128818845Y-30318845D02*
X124836231Y-26336231D01*
X128818845Y-31752926D02*
X128818845Y-30318845D01*
X175600000Y-69800000D02*
X175600000Y-58200000D01*
X142565919Y-45500000D02*
X128818845Y-31752926D01*
X124836231Y-26336231D02*
X123602150Y-26336231D01*
X128400000Y-31700000D02*
X128400000Y-31400000D01*
X142700000Y-46000000D02*
X128400000Y-31700000D01*
X162800000Y-46000000D02*
X142700000Y-46000000D01*
X174900000Y-58100000D02*
X162800000Y-46000000D01*
X174900000Y-68400000D02*
X174900000Y-58100000D01*
X175100000Y-68600000D02*
X174900000Y-68400000D01*
X174500000Y-69000000D02*
X174500000Y-69000000D01*
X174500000Y-58400000D02*
X174500000Y-69000000D01*
X162600000Y-46500000D02*
X174500000Y-58400000D01*
X142834078Y-46500000D02*
X162600000Y-46500000D01*
X127700000Y-31365922D02*
X142834078Y-46500000D01*
X127700000Y-30900000D02*
X127700000Y-31365922D01*
D30*
X117947000Y-59400000D02*
X118999000Y-60452000D01*
X116977608Y-59400000D02*
X117947000Y-59400000D01*
X116968387Y-59390779D02*
X116977608Y-59400000D01*
X256850000Y-13000000D02*
X106300000Y-13000000D01*
X102350000Y-16950000D02*
X102350000Y-57150000D01*
X113409613Y-59390779D02*
X114428387Y-59390779D01*
X115949613Y-59390779D02*
X116968387Y-59390779D01*
X259250000Y-32510000D02*
X259250000Y-15400000D01*
X259250000Y-15400000D02*
X256850000Y-13000000D01*
X253500000Y-38260000D02*
X259250000Y-32510000D01*
X106300000Y-13000000D02*
X102350000Y-16950000D01*
X102350000Y-57150000D02*
X104600000Y-59400000D01*
X113400392Y-59400000D02*
X113409613Y-59390779D01*
X115940392Y-59400000D02*
X115949613Y-59390779D01*
X104600000Y-59400000D02*
X113400392Y-59400000D01*
X114428387Y-59390779D02*
X114437608Y-59400000D01*
X114437608Y-59400000D02*
X115940392Y-59400000D01*
D31*
X119500000Y-26100000D02*
X120300000Y-25300000D01*
X121000000Y-21300000D02*
X122100000Y-21300000D01*
X123700000Y-26100000D02*
X124934081Y-26100000D01*
X122100000Y-21300000D02*
X122900000Y-22100000D01*
X124934081Y-26100000D02*
X129055076Y-30220995D01*
X129055076Y-30220995D02*
X129055076Y-31655076D01*
X129055076Y-31655076D02*
X142400000Y-45000000D01*
X176100000Y-68681802D02*
X176100000Y-69000000D01*
X117791000Y-26100000D02*
X119500000Y-26100000D01*
X122900000Y-22100000D02*
X122900000Y-25300000D01*
X176100000Y-58165921D02*
X176100000Y-68681802D01*
X120300000Y-25300000D02*
X120300000Y-22000000D01*
X162934079Y-45000000D02*
X176100000Y-58165921D01*
X142400000Y-45000000D02*
X162934079Y-45000000D01*
X122900000Y-25300000D02*
X123700000Y-26100000D01*
X120300000Y-22000000D02*
X121000000Y-21300000D01*
X116459000Y-27432000D02*
X117791000Y-26100000D01*
X156600000Y-63000000D02*
X156202279Y-62602279D01*
X156202279Y-62602279D02*
X156202279Y-61902279D01*
X159252279Y-58852279D02*
X159252279Y-58847721D01*
X156202279Y-61902279D02*
X159252279Y-58852279D01*
X159252279Y-58852279D02*
X159304558Y-58800000D01*
X159252279Y-58847721D02*
X159800000Y-58300000D01*
X159800000Y-58300000D02*
X171600000Y-58300000D01*
X171600000Y-58300000D02*
X171600000Y-58300000D01*
X242397000Y-38400000D02*
X242443000Y-38354000D01*
X216000000Y-38400000D02*
X242397000Y-38400000D01*
D30*
X163460200Y-31400000D02*
X162719200Y-30659000D01*
D33*
X220942158Y-96372765D02*
X220960140Y-96432042D01*
X221000235Y-96507056D01*
X221054195Y-96572806D01*
X221070674Y-96586330D01*
X222818670Y-98334327D01*
X222832194Y-98350806D01*
X222897944Y-98404766D01*
X222972958Y-98444861D01*
X223054352Y-98469552D01*
X223139000Y-98477889D01*
X223160210Y-98475800D01*
X224177538Y-98475800D01*
X224179786Y-98478048D01*
X224271309Y-98539202D01*
X224373004Y-98581326D01*
X224480963Y-98602800D01*
X224591037Y-98602800D01*
X224698996Y-98581326D01*
X224800691Y-98539202D01*
X224892214Y-98478048D01*
X224970048Y-98400214D01*
X225031202Y-98308691D01*
X225073326Y-98206996D01*
X225094800Y-98099037D01*
X225094800Y-97988963D01*
X225073326Y-97881004D01*
X225031202Y-97779309D01*
X224970048Y-97687786D01*
X224892214Y-97609952D01*
X224800691Y-97548798D01*
X224769794Y-97536000D01*
X224800691Y-97523202D01*
X224892214Y-97462048D01*
X224970048Y-97384214D01*
X225031202Y-97292691D01*
X225073326Y-97190996D01*
X225094800Y-97083037D01*
X225094800Y-96972963D01*
X226771200Y-96972963D01*
X226771200Y-97083037D01*
X226792674Y-97190996D01*
X226834798Y-97292691D01*
X226895952Y-97384214D01*
X226973786Y-97462048D01*
X227065309Y-97523202D01*
X227167004Y-97565326D01*
X227274963Y-97586800D01*
X227385037Y-97586800D01*
X227492996Y-97565326D01*
X227594691Y-97523202D01*
X227686214Y-97462048D01*
X227764048Y-97384214D01*
X227825202Y-97292691D01*
X227867326Y-97190996D01*
X227888800Y-97083037D01*
X227888800Y-96972963D01*
X227867326Y-96865004D01*
X227825202Y-96763309D01*
X227764048Y-96671786D01*
X227686214Y-96593952D01*
X227594691Y-96532798D01*
X227492996Y-96490674D01*
X227385037Y-96469200D01*
X227274963Y-96469200D01*
X227167004Y-96490674D01*
X227065309Y-96532798D01*
X226973786Y-96593952D01*
X226895952Y-96671786D01*
X226834798Y-96763309D01*
X226792674Y-96865004D01*
X226771200Y-96972963D01*
X225094800Y-96972963D01*
X225073326Y-96865004D01*
X225031202Y-96763309D01*
X224970048Y-96671786D01*
X224892214Y-96593952D01*
X224800691Y-96532798D01*
X224769794Y-96520000D01*
X224800691Y-96507202D01*
X224892214Y-96446048D01*
X224970048Y-96368214D01*
X224970458Y-96367600D01*
X229895400Y-96367600D01*
X229895400Y-99263200D01*
X227688462Y-99263200D01*
X227686214Y-99260952D01*
X227670572Y-99250500D01*
X227686214Y-99240048D01*
X227764048Y-99162214D01*
X227825202Y-99070691D01*
X227867326Y-98968996D01*
X227888800Y-98861037D01*
X227888800Y-98750963D01*
X227867326Y-98643004D01*
X227825202Y-98541309D01*
X227764048Y-98449786D01*
X227686214Y-98371952D01*
X227594691Y-98310798D01*
X227492996Y-98268674D01*
X227385037Y-98247200D01*
X227274963Y-98247200D01*
X227167004Y-98268674D01*
X227065309Y-98310798D01*
X226973786Y-98371952D01*
X226895952Y-98449786D01*
X226834798Y-98541309D01*
X226792674Y-98643004D01*
X226771200Y-98750963D01*
X226771200Y-98861037D01*
X226792674Y-98968996D01*
X226834798Y-99070691D01*
X226895952Y-99162214D01*
X226973786Y-99240048D01*
X226989428Y-99250500D01*
X226973786Y-99260952D01*
X226895952Y-99338786D01*
X226834798Y-99430309D01*
X226792674Y-99532004D01*
X226771200Y-99639963D01*
X226771200Y-99750037D01*
X226792674Y-99857996D01*
X226834798Y-99959691D01*
X226895952Y-100051214D01*
X226973786Y-100129048D01*
X227065309Y-100190202D01*
X227096206Y-100203000D01*
X227065309Y-100215798D01*
X226973786Y-100276952D01*
X226895952Y-100354786D01*
X226834798Y-100446309D01*
X226792674Y-100548004D01*
X226771200Y-100655963D01*
X226771200Y-100766037D01*
X226792674Y-100873996D01*
X226834798Y-100975691D01*
X226895952Y-101067214D01*
X226973786Y-101145048D01*
X227065309Y-101206202D01*
X227096206Y-101219000D01*
X227065309Y-101231798D01*
X226973786Y-101292952D01*
X226895952Y-101370786D01*
X226834798Y-101462309D01*
X226792674Y-101564004D01*
X226771200Y-101671963D01*
X226771200Y-101782037D01*
X226792674Y-101889996D01*
X226834798Y-101991691D01*
X226895952Y-102083214D01*
X226973786Y-102161048D01*
X227065309Y-102222202D01*
X227167004Y-102264326D01*
X227274963Y-102285800D01*
X227385037Y-102285800D01*
X227492996Y-102264326D01*
X227594691Y-102222202D01*
X227686214Y-102161048D01*
X227764048Y-102083214D01*
X227825202Y-101991691D01*
X227867326Y-101889996D01*
X227888800Y-101782037D01*
X227888800Y-101671963D01*
X227867326Y-101564004D01*
X227825202Y-101462309D01*
X227764048Y-101370786D01*
X227686214Y-101292952D01*
X227594691Y-101231798D01*
X227563794Y-101219000D01*
X227594691Y-101206202D01*
X227686214Y-101145048D01*
X227764048Y-101067214D01*
X227825202Y-100975691D01*
X227840926Y-100937730D01*
X228197847Y-100580810D01*
X229895400Y-100580810D01*
X229895400Y-103089848D01*
X229859309Y-103104798D01*
X229767786Y-103165952D01*
X229689952Y-103243786D01*
X229628798Y-103335309D01*
X229586674Y-103437004D01*
X229565200Y-103544963D01*
X229565200Y-103655037D01*
X229586674Y-103762996D01*
X229628798Y-103864691D01*
X229689952Y-103956214D01*
X229767786Y-104034048D01*
X229859309Y-104095202D01*
X229895400Y-104110152D01*
X229895400Y-111430200D01*
X214096600Y-111430200D01*
X214096600Y-106752713D01*
X218770950Y-106752713D01*
X218770950Y-106862787D01*
X218792424Y-106970746D01*
X218834548Y-107072441D01*
X218895702Y-107163964D01*
X218973536Y-107241798D01*
X219065059Y-107302952D01*
X219166754Y-107345076D01*
X219274713Y-107366550D01*
X219384787Y-107366550D01*
X219492746Y-107345076D01*
X219594441Y-107302952D01*
X219685964Y-107241798D01*
X219763798Y-107163964D01*
X219777128Y-107144014D01*
X219787552Y-107159614D01*
X219865386Y-107237448D01*
X219956909Y-107298602D01*
X220058604Y-107340726D01*
X220166563Y-107362200D01*
X220276637Y-107362200D01*
X220384596Y-107340726D01*
X220486291Y-107298602D01*
X220577814Y-107237448D01*
X220655648Y-107159614D01*
X220716802Y-107068091D01*
X220758926Y-106966396D01*
X220780400Y-106858437D01*
X220780400Y-106751963D01*
X222199200Y-106751963D01*
X222199200Y-106862037D01*
X222220674Y-106969996D01*
X222262798Y-107071691D01*
X222323952Y-107163214D01*
X222401786Y-107241048D01*
X222493309Y-107302202D01*
X222595004Y-107344326D01*
X222702963Y-107365800D01*
X222813037Y-107365800D01*
X222920996Y-107344326D01*
X223022691Y-107302202D01*
X223114214Y-107241048D01*
X223192048Y-107163214D01*
X223253202Y-107071691D01*
X223295326Y-106969996D01*
X223316800Y-106862037D01*
X223316800Y-106751963D01*
X223850200Y-106751963D01*
X223850200Y-106862037D01*
X223871674Y-106969996D01*
X223913798Y-107071691D01*
X223974952Y-107163214D01*
X224052786Y-107241048D01*
X224144309Y-107302202D01*
X224246004Y-107344326D01*
X224353963Y-107365800D01*
X224464037Y-107365800D01*
X224571996Y-107344326D01*
X224673691Y-107302202D01*
X224765214Y-107241048D01*
X224843048Y-107163214D01*
X224904202Y-107071691D01*
X224946326Y-106969996D01*
X224967800Y-106862037D01*
X224967800Y-106751963D01*
X227914200Y-106751963D01*
X227914200Y-106862037D01*
X227935674Y-106969996D01*
X227977798Y-107071691D01*
X228038952Y-107163214D01*
X228116786Y-107241048D01*
X228208309Y-107302202D01*
X228310004Y-107344326D01*
X228417963Y-107365800D01*
X228528037Y-107365800D01*
X228635996Y-107344326D01*
X228737691Y-107302202D01*
X228829214Y-107241048D01*
X228907048Y-107163214D01*
X228968202Y-107071691D01*
X229010326Y-106969996D01*
X229031800Y-106862037D01*
X229031800Y-106751963D01*
X229010326Y-106644004D01*
X228968202Y-106542309D01*
X228907048Y-106450786D01*
X228829214Y-106372952D01*
X228737691Y-106311798D01*
X228635996Y-106269674D01*
X228528037Y-106248200D01*
X228417963Y-106248200D01*
X228310004Y-106269674D01*
X228208309Y-106311798D01*
X228116786Y-106372952D01*
X228038952Y-106450786D01*
X227977798Y-106542309D01*
X227935674Y-106644004D01*
X227914200Y-106751963D01*
X224967800Y-106751963D01*
X224946326Y-106644004D01*
X224904202Y-106542309D01*
X224843048Y-106450786D01*
X224765214Y-106372952D01*
X224673691Y-106311798D01*
X224571996Y-106269674D01*
X224464037Y-106248200D01*
X224353963Y-106248200D01*
X224246004Y-106269674D01*
X224144309Y-106311798D01*
X224052786Y-106372952D01*
X223974952Y-106450786D01*
X223913798Y-106542309D01*
X223871674Y-106644004D01*
X223850200Y-106751963D01*
X223316800Y-106751963D01*
X223295326Y-106644004D01*
X223253202Y-106542309D01*
X223192048Y-106450786D01*
X223114214Y-106372952D01*
X223022691Y-106311798D01*
X222920996Y-106269674D01*
X222813037Y-106248200D01*
X222702963Y-106248200D01*
X222595004Y-106269674D01*
X222493309Y-106311798D01*
X222401786Y-106372952D01*
X222323952Y-106450786D01*
X222262798Y-106542309D01*
X222220674Y-106644004D01*
X222199200Y-106751963D01*
X220780400Y-106751963D01*
X220780400Y-106748363D01*
X220758926Y-106640404D01*
X220716802Y-106538709D01*
X220655648Y-106447186D01*
X220577814Y-106369352D01*
X220486291Y-106308198D01*
X220384596Y-106266074D01*
X220276637Y-106244600D01*
X220166563Y-106244600D01*
X220058604Y-106266074D01*
X219956909Y-106308198D01*
X219865386Y-106369352D01*
X219787552Y-106447186D01*
X219774222Y-106467136D01*
X219763798Y-106451536D01*
X219685964Y-106373702D01*
X219594441Y-106312548D01*
X219492746Y-106270424D01*
X219384787Y-106248950D01*
X219274713Y-106248950D01*
X219166754Y-106270424D01*
X219065059Y-106312548D01*
X218973536Y-106373702D01*
X218895702Y-106451536D01*
X218834548Y-106543059D01*
X218792424Y-106644754D01*
X218770950Y-106752713D01*
X214096600Y-106752713D01*
X214096600Y-103003953D01*
X215406210Y-103003953D01*
X215406210Y-103114027D01*
X215427684Y-103221986D01*
X215469808Y-103323681D01*
X215530962Y-103415204D01*
X215608796Y-103493038D01*
X215700319Y-103554192D01*
X215802014Y-103596316D01*
X215909973Y-103617790D01*
X216020047Y-103617790D01*
X216128006Y-103596316D01*
X216229701Y-103554192D01*
X216321224Y-103493038D01*
X216399058Y-103415204D01*
X216460212Y-103323681D01*
X216502336Y-103221986D01*
X216523810Y-103114027D01*
X216523810Y-103003953D01*
X216502336Y-102895994D01*
X216460212Y-102794299D01*
X216399058Y-102702776D01*
X216321224Y-102624942D01*
X216229701Y-102563788D01*
X216128006Y-102521664D01*
X216020047Y-102500190D01*
X215909973Y-102500190D01*
X215802014Y-102521664D01*
X215700319Y-102563788D01*
X215608796Y-102624942D01*
X215530962Y-102702776D01*
X215469808Y-102794299D01*
X215427684Y-102895994D01*
X215406210Y-103003953D01*
X214096600Y-103003953D01*
X214096600Y-100655963D01*
X215366210Y-100655963D01*
X215366210Y-100766037D01*
X215387684Y-100873996D01*
X215429808Y-100975691D01*
X215490962Y-101067214D01*
X215568796Y-101145048D01*
X215660319Y-101206202D01*
X215762014Y-101248326D01*
X215869973Y-101269800D01*
X215980047Y-101269800D01*
X216088006Y-101248326D01*
X216189701Y-101206202D01*
X216281224Y-101145048D01*
X216359058Y-101067214D01*
X216420212Y-100975691D01*
X216462336Y-100873996D01*
X216483810Y-100766037D01*
X216483810Y-100655963D01*
X216462336Y-100548004D01*
X216420212Y-100446309D01*
X216359058Y-100354786D01*
X216281224Y-100276952D01*
X216189701Y-100215798D01*
X216088006Y-100173674D01*
X215980047Y-100152200D01*
X215869973Y-100152200D01*
X215762014Y-100173674D01*
X215660319Y-100215798D01*
X215568796Y-100276952D01*
X215490962Y-100354786D01*
X215429808Y-100446309D01*
X215387684Y-100548004D01*
X215366210Y-100655963D01*
X214096600Y-100655963D01*
X214096600Y-96980963D01*
X215460200Y-96980963D01*
X215460200Y-97091037D01*
X215481674Y-97198996D01*
X215523798Y-97300691D01*
X215584952Y-97392214D01*
X215662786Y-97470048D01*
X215754309Y-97531202D01*
X215856004Y-97573326D01*
X215963963Y-97594800D01*
X216074037Y-97594800D01*
X216181996Y-97573326D01*
X216283691Y-97531202D01*
X216375214Y-97470048D01*
X216453048Y-97392214D01*
X216514202Y-97300691D01*
X216556326Y-97198996D01*
X216577800Y-97091037D01*
X216577800Y-96980963D01*
X216556326Y-96873004D01*
X216514202Y-96771309D01*
X216453048Y-96679786D01*
X216375214Y-96601952D01*
X216283691Y-96540798D01*
X216181996Y-96498674D01*
X216074037Y-96477200D01*
X215963963Y-96477200D01*
X215856004Y-96498674D01*
X215754309Y-96540798D01*
X215662786Y-96601952D01*
X215584952Y-96679786D01*
X215523798Y-96771309D01*
X215481674Y-96873004D01*
X215460200Y-96980963D01*
X214096600Y-96980963D01*
X214096600Y-96367600D01*
X220940591Y-96367600D01*
X220942158Y-96372765D01*
G04 #@! TA.AperFunction,Conductor*
D34*
G36*
X220942158Y-96372765D02*
G01*
X220960140Y-96432042D01*
X221000235Y-96507056D01*
X221054195Y-96572806D01*
X221070674Y-96586330D01*
X222818670Y-98334327D01*
X222832194Y-98350806D01*
X222897944Y-98404766D01*
X222972958Y-98444861D01*
X223054352Y-98469552D01*
X223139000Y-98477889D01*
X223160210Y-98475800D01*
X224177538Y-98475800D01*
X224179786Y-98478048D01*
X224271309Y-98539202D01*
X224373004Y-98581326D01*
X224480963Y-98602800D01*
X224591037Y-98602800D01*
X224698996Y-98581326D01*
X224800691Y-98539202D01*
X224892214Y-98478048D01*
X224970048Y-98400214D01*
X225031202Y-98308691D01*
X225073326Y-98206996D01*
X225094800Y-98099037D01*
X225094800Y-97988963D01*
X225073326Y-97881004D01*
X225031202Y-97779309D01*
X224970048Y-97687786D01*
X224892214Y-97609952D01*
X224800691Y-97548798D01*
X224769794Y-97536000D01*
X224800691Y-97523202D01*
X224892214Y-97462048D01*
X224970048Y-97384214D01*
X225031202Y-97292691D01*
X225073326Y-97190996D01*
X225094800Y-97083037D01*
X225094800Y-96972963D01*
X226771200Y-96972963D01*
X226771200Y-97083037D01*
X226792674Y-97190996D01*
X226834798Y-97292691D01*
X226895952Y-97384214D01*
X226973786Y-97462048D01*
X227065309Y-97523202D01*
X227167004Y-97565326D01*
X227274963Y-97586800D01*
X227385037Y-97586800D01*
X227492996Y-97565326D01*
X227594691Y-97523202D01*
X227686214Y-97462048D01*
X227764048Y-97384214D01*
X227825202Y-97292691D01*
X227867326Y-97190996D01*
X227888800Y-97083037D01*
X227888800Y-96972963D01*
X227867326Y-96865004D01*
X227825202Y-96763309D01*
X227764048Y-96671786D01*
X227686214Y-96593952D01*
X227594691Y-96532798D01*
X227492996Y-96490674D01*
X227385037Y-96469200D01*
X227274963Y-96469200D01*
X227167004Y-96490674D01*
X227065309Y-96532798D01*
X226973786Y-96593952D01*
X226895952Y-96671786D01*
X226834798Y-96763309D01*
X226792674Y-96865004D01*
X226771200Y-96972963D01*
X225094800Y-96972963D01*
X225073326Y-96865004D01*
X225031202Y-96763309D01*
X224970048Y-96671786D01*
X224892214Y-96593952D01*
X224800691Y-96532798D01*
X224769794Y-96520000D01*
X224800691Y-96507202D01*
X224892214Y-96446048D01*
X224970048Y-96368214D01*
X224970458Y-96367600D01*
X229895400Y-96367600D01*
X229895400Y-99263200D01*
X227688462Y-99263200D01*
X227686214Y-99260952D01*
X227670572Y-99250500D01*
X227686214Y-99240048D01*
X227764048Y-99162214D01*
X227825202Y-99070691D01*
X227867326Y-98968996D01*
X227888800Y-98861037D01*
X227888800Y-98750963D01*
X227867326Y-98643004D01*
X227825202Y-98541309D01*
X227764048Y-98449786D01*
X227686214Y-98371952D01*
X227594691Y-98310798D01*
X227492996Y-98268674D01*
X227385037Y-98247200D01*
X227274963Y-98247200D01*
X227167004Y-98268674D01*
X227065309Y-98310798D01*
X226973786Y-98371952D01*
X226895952Y-98449786D01*
X226834798Y-98541309D01*
X226792674Y-98643004D01*
X226771200Y-98750963D01*
X226771200Y-98861037D01*
X226792674Y-98968996D01*
X226834798Y-99070691D01*
X226895952Y-99162214D01*
X226973786Y-99240048D01*
X226989428Y-99250500D01*
X226973786Y-99260952D01*
X226895952Y-99338786D01*
X226834798Y-99430309D01*
X226792674Y-99532004D01*
X226771200Y-99639963D01*
X226771200Y-99750037D01*
X226792674Y-99857996D01*
X226834798Y-99959691D01*
X226895952Y-100051214D01*
X226973786Y-100129048D01*
X227065309Y-100190202D01*
X227096206Y-100203000D01*
X227065309Y-100215798D01*
X226973786Y-100276952D01*
X226895952Y-100354786D01*
X226834798Y-100446309D01*
X226792674Y-100548004D01*
X226771200Y-100655963D01*
X226771200Y-100766037D01*
X226792674Y-100873996D01*
X226834798Y-100975691D01*
X226895952Y-101067214D01*
X226973786Y-101145048D01*
X227065309Y-101206202D01*
X227096206Y-101219000D01*
X227065309Y-101231798D01*
X226973786Y-101292952D01*
X226895952Y-101370786D01*
X226834798Y-101462309D01*
X226792674Y-101564004D01*
X226771200Y-101671963D01*
X226771200Y-101782037D01*
X226792674Y-101889996D01*
X226834798Y-101991691D01*
X226895952Y-102083214D01*
X226973786Y-102161048D01*
X227065309Y-102222202D01*
X227167004Y-102264326D01*
X227274963Y-102285800D01*
X227385037Y-102285800D01*
X227492996Y-102264326D01*
X227594691Y-102222202D01*
X227686214Y-102161048D01*
X227764048Y-102083214D01*
X227825202Y-101991691D01*
X227867326Y-101889996D01*
X227888800Y-101782037D01*
X227888800Y-101671963D01*
X227867326Y-101564004D01*
X227825202Y-101462309D01*
X227764048Y-101370786D01*
X227686214Y-101292952D01*
X227594691Y-101231798D01*
X227563794Y-101219000D01*
X227594691Y-101206202D01*
X227686214Y-101145048D01*
X227764048Y-101067214D01*
X227825202Y-100975691D01*
X227840926Y-100937730D01*
X228197847Y-100580810D01*
X229895400Y-100580810D01*
X229895400Y-103089848D01*
X229859309Y-103104798D01*
X229767786Y-103165952D01*
X229689952Y-103243786D01*
X229628798Y-103335309D01*
X229586674Y-103437004D01*
X229565200Y-103544963D01*
X229565200Y-103655037D01*
X229586674Y-103762996D01*
X229628798Y-103864691D01*
X229689952Y-103956214D01*
X229767786Y-104034048D01*
X229859309Y-104095202D01*
X229895400Y-104110152D01*
X229895400Y-111430200D01*
X214096600Y-111430200D01*
X214096600Y-106752713D01*
X218770950Y-106752713D01*
X218770950Y-106862787D01*
X218792424Y-106970746D01*
X218834548Y-107072441D01*
X218895702Y-107163964D01*
X218973536Y-107241798D01*
X219065059Y-107302952D01*
X219166754Y-107345076D01*
X219274713Y-107366550D01*
X219384787Y-107366550D01*
X219492746Y-107345076D01*
X219594441Y-107302952D01*
X219685964Y-107241798D01*
X219763798Y-107163964D01*
X219777128Y-107144014D01*
X219787552Y-107159614D01*
X219865386Y-107237448D01*
X219956909Y-107298602D01*
X220058604Y-107340726D01*
X220166563Y-107362200D01*
X220276637Y-107362200D01*
X220384596Y-107340726D01*
X220486291Y-107298602D01*
X220577814Y-107237448D01*
X220655648Y-107159614D01*
X220716802Y-107068091D01*
X220758926Y-106966396D01*
X220780400Y-106858437D01*
X220780400Y-106751963D01*
X222199200Y-106751963D01*
X222199200Y-106862037D01*
X222220674Y-106969996D01*
X222262798Y-107071691D01*
X222323952Y-107163214D01*
X222401786Y-107241048D01*
X222493309Y-107302202D01*
X222595004Y-107344326D01*
X222702963Y-107365800D01*
X222813037Y-107365800D01*
X222920996Y-107344326D01*
X223022691Y-107302202D01*
X223114214Y-107241048D01*
X223192048Y-107163214D01*
X223253202Y-107071691D01*
X223295326Y-106969996D01*
X223316800Y-106862037D01*
X223316800Y-106751963D01*
X223850200Y-106751963D01*
X223850200Y-106862037D01*
X223871674Y-106969996D01*
X223913798Y-107071691D01*
X223974952Y-107163214D01*
X224052786Y-107241048D01*
X224144309Y-107302202D01*
X224246004Y-107344326D01*
X224353963Y-107365800D01*
X224464037Y-107365800D01*
X224571996Y-107344326D01*
X224673691Y-107302202D01*
X224765214Y-107241048D01*
X224843048Y-107163214D01*
X224904202Y-107071691D01*
X224946326Y-106969996D01*
X224967800Y-106862037D01*
X224967800Y-106751963D01*
X227914200Y-106751963D01*
X227914200Y-106862037D01*
X227935674Y-106969996D01*
X227977798Y-107071691D01*
X228038952Y-107163214D01*
X228116786Y-107241048D01*
X228208309Y-107302202D01*
X228310004Y-107344326D01*
X228417963Y-107365800D01*
X228528037Y-107365800D01*
X228635996Y-107344326D01*
X228737691Y-107302202D01*
X228829214Y-107241048D01*
X228907048Y-107163214D01*
X228968202Y-107071691D01*
X229010326Y-106969996D01*
X229031800Y-106862037D01*
X229031800Y-106751963D01*
X229010326Y-106644004D01*
X228968202Y-106542309D01*
X228907048Y-106450786D01*
X228829214Y-106372952D01*
X228737691Y-106311798D01*
X228635996Y-106269674D01*
X228528037Y-106248200D01*
X228417963Y-106248200D01*
X228310004Y-106269674D01*
X228208309Y-106311798D01*
X228116786Y-106372952D01*
X228038952Y-106450786D01*
X227977798Y-106542309D01*
X227935674Y-106644004D01*
X227914200Y-106751963D01*
X224967800Y-106751963D01*
X224946326Y-106644004D01*
X224904202Y-106542309D01*
X224843048Y-106450786D01*
X224765214Y-106372952D01*
X224673691Y-106311798D01*
X224571996Y-106269674D01*
X224464037Y-106248200D01*
X224353963Y-106248200D01*
X224246004Y-106269674D01*
X224144309Y-106311798D01*
X224052786Y-106372952D01*
X223974952Y-106450786D01*
X223913798Y-106542309D01*
X223871674Y-106644004D01*
X223850200Y-106751963D01*
X223316800Y-106751963D01*
X223295326Y-106644004D01*
X223253202Y-106542309D01*
X223192048Y-106450786D01*
X223114214Y-106372952D01*
X223022691Y-106311798D01*
X222920996Y-106269674D01*
X222813037Y-106248200D01*
X222702963Y-106248200D01*
X222595004Y-106269674D01*
X222493309Y-106311798D01*
X222401786Y-106372952D01*
X222323952Y-106450786D01*
X222262798Y-106542309D01*
X222220674Y-106644004D01*
X222199200Y-106751963D01*
X220780400Y-106751963D01*
X220780400Y-106748363D01*
X220758926Y-106640404D01*
X220716802Y-106538709D01*
X220655648Y-106447186D01*
X220577814Y-106369352D01*
X220486291Y-106308198D01*
X220384596Y-106266074D01*
X220276637Y-106244600D01*
X220166563Y-106244600D01*
X220058604Y-106266074D01*
X219956909Y-106308198D01*
X219865386Y-106369352D01*
X219787552Y-106447186D01*
X219774222Y-106467136D01*
X219763798Y-106451536D01*
X219685964Y-106373702D01*
X219594441Y-106312548D01*
X219492746Y-106270424D01*
X219384787Y-106248950D01*
X219274713Y-106248950D01*
X219166754Y-106270424D01*
X219065059Y-106312548D01*
X218973536Y-106373702D01*
X218895702Y-106451536D01*
X218834548Y-106543059D01*
X218792424Y-106644754D01*
X218770950Y-106752713D01*
X214096600Y-106752713D01*
X214096600Y-103003953D01*
X215406210Y-103003953D01*
X215406210Y-103114027D01*
X215427684Y-103221986D01*
X215469808Y-103323681D01*
X215530962Y-103415204D01*
X215608796Y-103493038D01*
X215700319Y-103554192D01*
X215802014Y-103596316D01*
X215909973Y-103617790D01*
X216020047Y-103617790D01*
X216128006Y-103596316D01*
X216229701Y-103554192D01*
X216321224Y-103493038D01*
X216399058Y-103415204D01*
X216460212Y-103323681D01*
X216502336Y-103221986D01*
X216523810Y-103114027D01*
X216523810Y-103003953D01*
X216502336Y-102895994D01*
X216460212Y-102794299D01*
X216399058Y-102702776D01*
X216321224Y-102624942D01*
X216229701Y-102563788D01*
X216128006Y-102521664D01*
X216020047Y-102500190D01*
X215909973Y-102500190D01*
X215802014Y-102521664D01*
X215700319Y-102563788D01*
X215608796Y-102624942D01*
X215530962Y-102702776D01*
X215469808Y-102794299D01*
X215427684Y-102895994D01*
X215406210Y-103003953D01*
X214096600Y-103003953D01*
X214096600Y-100655963D01*
X215366210Y-100655963D01*
X215366210Y-100766037D01*
X215387684Y-100873996D01*
X215429808Y-100975691D01*
X215490962Y-101067214D01*
X215568796Y-101145048D01*
X215660319Y-101206202D01*
X215762014Y-101248326D01*
X215869973Y-101269800D01*
X215980047Y-101269800D01*
X216088006Y-101248326D01*
X216189701Y-101206202D01*
X216281224Y-101145048D01*
X216359058Y-101067214D01*
X216420212Y-100975691D01*
X216462336Y-100873996D01*
X216483810Y-100766037D01*
X216483810Y-100655963D01*
X216462336Y-100548004D01*
X216420212Y-100446309D01*
X216359058Y-100354786D01*
X216281224Y-100276952D01*
X216189701Y-100215798D01*
X216088006Y-100173674D01*
X215980047Y-100152200D01*
X215869973Y-100152200D01*
X215762014Y-100173674D01*
X215660319Y-100215798D01*
X215568796Y-100276952D01*
X215490962Y-100354786D01*
X215429808Y-100446309D01*
X215387684Y-100548004D01*
X215366210Y-100655963D01*
X214096600Y-100655963D01*
X214096600Y-96980963D01*
X215460200Y-96980963D01*
X215460200Y-97091037D01*
X215481674Y-97198996D01*
X215523798Y-97300691D01*
X215584952Y-97392214D01*
X215662786Y-97470048D01*
X215754309Y-97531202D01*
X215856004Y-97573326D01*
X215963963Y-97594800D01*
X216074037Y-97594800D01*
X216181996Y-97573326D01*
X216283691Y-97531202D01*
X216375214Y-97470048D01*
X216453048Y-97392214D01*
X216514202Y-97300691D01*
X216556326Y-97198996D01*
X216577800Y-97091037D01*
X216577800Y-96980963D01*
X216556326Y-96873004D01*
X216514202Y-96771309D01*
X216453048Y-96679786D01*
X216375214Y-96601952D01*
X216283691Y-96540798D01*
X216181996Y-96498674D01*
X216074037Y-96477200D01*
X215963963Y-96477200D01*
X215856004Y-96498674D01*
X215754309Y-96540798D01*
X215662786Y-96601952D01*
X215584952Y-96679786D01*
X215523798Y-96771309D01*
X215481674Y-96873004D01*
X215460200Y-96980963D01*
X214096600Y-96980963D01*
X214096600Y-96367600D01*
X220940591Y-96367600D01*
X220942158Y-96372765D01*
G37*
G04 #@! TD.AperFunction*
M02*
