M48
INCH,TZ
T1C0.0079
T2C0.0080
T3C0.0157
T4C0.0160
T5C0.0256
T6C0.0350
T7C0.0354
T8C0.0362
T9C0.0394
T10C0.0433
T11C0.0472
T12C0.0500
T13C0.0512
T14C0.0870
T15C0.0917
T16C0.1142
%
G90
G05
T1
X50276Y-12165
X50551Y-12362
X58228Y-25630
X58622Y-25787
X58799Y-30453
X58937Y-26063
X59173Y-34252
X59252Y-26378
X59331Y-27677
X59567Y-26693
X59567Y-34252
X59567Y-34646
X59764Y-27677
X59843Y-27008
X59882Y-33583
X59882Y-33937
X60157Y-27323
X60236Y-28445
X60748Y-30945
X60984Y-30984
X61102Y-30197
X61260Y-27165
X61260Y-30945
X61319Y-28583
X61339Y-24488
X61339Y-24803
X61339Y-27638
X61339Y-27953
X61575Y-30236
X61654Y-24488
X61654Y-24803
X61654Y-27638
X61654Y-28583
X61654Y-28898
X61654Y-29213
X61772Y-30945
X61969Y-16929
X61969Y-27638
X61969Y-27953
X61969Y-28583
X61969Y-28898
X61969Y-29213
X61969Y-29528
X61969Y-29843
X62283Y-17126
X62283Y-26063
X62283Y-28583
X62283Y-28898
X62283Y-29213
X62283Y-29528
X62283Y-29843
X62283Y-30236
X62283Y-30945
X62598Y-17323
X62598Y-27638
X62598Y-28583
X62598Y-28898
X62598Y-29213
X62598Y-29528
X62598Y-29843
X62913Y-17520
X62913Y-25748
X62913Y-26378
X62913Y-26693
X62913Y-27008
X62913Y-27638
X62913Y-27953
X62913Y-28583
X62913Y-28898
X62913Y-29213
X62913Y-29528
X62913Y-30945
X63110Y-18701
X63228Y-24488
X63228Y-24803
X63228Y-25748
X63307Y-18504
X63504Y-19094
X63543Y-25748
X63543Y-26378
X63543Y-26693
X63543Y-27008
X63543Y-27638
X63543Y-27953
X63543Y-28583
X63543Y-29213
X63543Y-30157
X63701Y-18898
X63858Y-24803
X63858Y-25118
X63858Y-25748
X63858Y-26378
X63858Y-26693
X63858Y-27008
X63858Y-27638
X63858Y-27953
X63858Y-28583
X63858Y-29213
X63858Y-29843
X63858Y-30157
X63898Y-19291
X64094Y-19488
X64173Y-24803
X64173Y-25118
X64173Y-25748
X64173Y-26378
X64173Y-26693
X64173Y-27008
X64173Y-27638
X64173Y-27953
X64173Y-28583
X64173Y-29213
X64291Y-19882
X64331Y-23543
X64331Y-24016
X64488Y-19685
X64488Y-26378
X64488Y-26693
X64488Y-27008
X64488Y-27638
X64488Y-27953
X64646Y-30551
X64764Y-20394
X64803Y-24803
X64803Y-25118
X64803Y-25748
X64803Y-26378
X64803Y-26693
X64803Y-27008
X64803Y-27638
X64803Y-27953
X64803Y-28583
X64803Y-28898
X64803Y-30787
X64961Y-20118
X65118Y-20669
X65118Y-24803
X65118Y-25118
X65118Y-25748
X65118Y-29213
X65118Y-29528
X65118Y-31024
X65276Y-20945
X65276Y-31496
X65433Y-21220
X65433Y-25118
X65433Y-25748
X65433Y-28583
X65433Y-29213
X65433Y-29528
X65591Y-31260
X65748Y-25748
X65748Y-26063
X65748Y-26378
X65748Y-26693
X65748Y-27008
X65748Y-27638
X65748Y-27953
X65748Y-28268
X65748Y-28583
X65827Y-30315
X66063Y-25748
X66063Y-28898
X66063Y-31732
X66378Y-15276
X66378Y-24488
X66378Y-26693
X66496Y-21772
X66496Y-22165
X66693Y-21969
X66693Y-24173
X66693Y-26378
X66693Y-28583
X66693Y-28898
X66850Y-22480
X66890Y-14213
X67008Y-24173
X67008Y-27323
X67008Y-28268
X67087Y-22638
X67323Y-22795
X67323Y-29528
X67323Y-29843
X67559Y-22953
X67795Y-23110
X67992Y-23268
X68189Y-23425
X68386Y-23583
X68701Y-27165
X68937Y-27008
X69134Y-27480
X69331Y-27165
X69588Y-25806
X69646Y-29370
X70266Y-26152
X73819Y-33858
X74213Y-34252
X74213Y-34646
X75630Y-24843
X75630Y-25236
X75827Y-24646
X75827Y-25039
X76850Y-27559
X76850Y-28701
X77244Y-27559
X77244Y-29528
X77638Y-27559
X77638Y-28976
X78031Y-27559
X78031Y-29252
X78425Y-10472
X82677Y-29921
X83189Y-29921
X83701Y-29921
X83858Y-13307
X84252Y-12323
X84646Y-11811
X85039Y-15118
X85433Y-14055
X85827Y-9291
X86220Y-10315
X86614Y-8780
X87008Y-13780
X87323Y-29921
X87402Y-10787
X87795Y-12795
X87835Y-29921
X88189Y-9803
X92953Y-29882
X93465Y-29882
T2
X81691Y-34759
X82191Y-34759
X82691Y-34772
X83200Y-34750
X83691Y-34759
X84650Y-35150
X85010Y-39650
X85026Y-40574
X85047Y-38203
X85053Y-38597
X85200Y-34750
X85250Y-36100
X85965Y-41900
X86350Y-42050
X86353Y-34750
X86500Y-36495
X86701Y-42049
X86827Y-34750
X87264Y-34744
X87686Y-36500
X87700Y-34750
X87700Y-42050
X88000Y-37800
X88300Y-34750
X88300Y-36500
X88350Y-42050
X88400Y-37800
X88400Y-38200
X88400Y-38600
X88670Y-36500
X88950Y-38600
X89250Y-36500
X89260Y-42040
X89500Y-38200
X89500Y-38900
X89500Y-39250
X89500Y-39650
X89500Y-40050
X89850Y-34750
X89900Y-36100
X89950Y-42050
X90600Y-40787
X90950Y-34750
X91400Y-41700
X91450Y-34750
X91700Y-35900
X91700Y-36500
X91700Y-38346
X91700Y-40200
X91850Y-37100
X91850Y-39700
X92950Y-34750
X93013Y-41087
X93350Y-41400
X93450Y-34750
X93940Y-34750
X94385Y-37315
X94450Y-34750
X95000Y-37953
X95591Y-37959
X96210Y-37910
X97232Y-39850
X97232Y-41468
X97600Y-39850
X97600Y-41450
T3
X57409Y-40720
X57421Y-38445
X60667Y-36906
X61825Y-41598
X63159Y-36915
X64217Y-41608
X65559Y-36915
X66717Y-41608
X68029Y-36925
X69236Y-41618
X70100Y-7600
X70500Y-9000
X70519Y-36896
X70957Y-13143
X71726Y-41588
X75469Y-10196
X75469Y-11746
X79219Y-7646
X79219Y-12246
X88750Y-19400
X88750Y-22700
X88750Y-26100
X90400Y-20300
X90500Y-23600
X90500Y-27000
X92000Y-18400
X92000Y-20300
X92000Y-21700
X92000Y-25100
X92100Y-23600
X92100Y-27000
X98000Y-15700
X98000Y-16700
T4
X55433Y-8445
X55591Y-12913
X55807Y-8445
X55965Y-12913
X55968Y-35811
X56181Y-8445
X56339Y-12913
X56554Y-35225
X56752Y-27402
X56752Y-29232
X58130Y-27402
X58642Y-28720
X58642Y-29193
X59528Y-36043
X60784Y-38428
X63246Y-38408
X63583Y-32835
X64291Y-32835
X65706Y-38448
X66496Y-32874
X67559Y-32559
X67559Y-33189
X68181Y-38443
X69094Y-32559
X69094Y-33189
X69906Y-9020
X70118Y-32874
X70138Y-5988
X70701Y-38423
X71716Y-5594
X79213Y-36732
X79213Y-37224
X79213Y-37736
X81691Y-29921
X81850Y-36732
X81850Y-37224
X81850Y-37717
X82244Y-29921
X84685Y-29902
X85197Y-29902
X86327Y-29921
X86890Y-29921
X89331Y-29882
X89823Y-29882
X90945Y-29882
X92441Y-29882
X93878Y-29902
X94449Y-29902
X98894Y-6398
T5
X76863Y-7956
X76863Y-8456
X76863Y-8956
X76863Y-9456
X76863Y-9956
X76863Y-10456
X76863Y-10956
X76863Y-11456
X76863Y-11956
X76863Y-12456
X77863Y-7956
X77863Y-8456
X77863Y-8956
X77863Y-9456
X77863Y-9956
X77863Y-10456
X77863Y-10956
X77863Y-11456
X77863Y-11956
X77863Y-12456
T6
X99803Y-15063
X99803Y-16063
X99803Y-17063
X102303Y-15063
X102303Y-17063
T7
X81614Y-39488
X81638Y-41772
X82614Y-39488
X82638Y-41772
X95100Y-41890
X96100Y-41890
X101300Y-6400
X101300Y-7400
T8
X99961Y-39409
X99961Y-40394
X100748Y-39409
X100748Y-40394
T9
X95450Y-15100
X95450Y-16100
X95450Y-17100
X97900Y-9300
X97900Y-10300
X97900Y-11300
X97900Y-12300
X97900Y-13300
X98900Y-9300
X98900Y-10300
X98900Y-11300
X98900Y-12300
X98900Y-13300
X99900Y-9300
X99900Y-10300
X99900Y-11300
X99900Y-12300
X99900Y-13300
T10
X44850Y-8800
X44850Y-9800
X44850Y-10800
X44850Y-11800
X44850Y-12800
X44850Y-13800
X44850Y-14800
X44850Y-15800
X44850Y-16800
X44850Y-17800
X44850Y-18800
X44850Y-19800
X44850Y-20800
X44850Y-21800
X44850Y-22800
X44850Y-23800
X44850Y-24800
X44850Y-25800
X44850Y-26800
X44850Y-27800
X44850Y-28800
X44850Y-29800
X44850Y-30800
X44850Y-31800
X44850Y-32800
X44850Y-33800
X44850Y-34800
X44850Y-35800
X44850Y-36800
X44850Y-37800
X44850Y-38800
X44850Y-39800
X45850Y-8800
X45850Y-9800
X45850Y-10800
X45850Y-11800
X45850Y-12800
X45850Y-13800
X45850Y-14800
X45850Y-15800
X45850Y-16800
X45850Y-17800
X45850Y-18800
X45850Y-19800
X45850Y-20800
X45850Y-21800
X45850Y-22800
X45850Y-23800
X45850Y-24800
X45850Y-25800
X45850Y-26800
X45850Y-27800
X45850Y-28800
X45850Y-29800
X45850Y-30800
X45850Y-31800
X45850Y-32800
X45850Y-33800
X45850Y-34800
X45850Y-35800
X45850Y-36800
X45850Y-37800
X45850Y-38800
X45850Y-39800
X46850Y-8800
X46850Y-9800
X46850Y-10800
X46850Y-11800
X46850Y-12800
X46850Y-13800
X46850Y-14800
X46850Y-15800
X46850Y-16800
X46850Y-17800
X46850Y-18800
X46850Y-19800
X46850Y-20800
X46850Y-21800
X46850Y-22800
X46850Y-23800
X46850Y-24800
X46850Y-25800
X46850Y-26800
X46850Y-27800
X46850Y-28800
X46850Y-29800
X46850Y-30800
X46850Y-31800
X46850Y-32800
X46850Y-33800
X46850Y-34800
X46850Y-35800
X46850Y-36800
X46850Y-37800
X46850Y-38800
X46850Y-39800
X47850Y-8800
X47850Y-9800
X47850Y-10800
X47850Y-11800
X47850Y-12800
X47850Y-13800
X47850Y-14800
X47850Y-15800
X47850Y-16800
X47850Y-17800
X47850Y-18800
X47850Y-19800
X47850Y-20800
X47850Y-21800
X47850Y-22800
X47850Y-23800
X47850Y-24800
X47850Y-25800
X47850Y-26800
X47850Y-27800
X47850Y-28800
X47850Y-29800
X47850Y-30800
X47850Y-31800
X47850Y-32800
X47850Y-33800
X47850Y-34800
X47850Y-35800
X47850Y-36800
X47850Y-37800
X47850Y-38800
X47850Y-39800
X48850Y-8800
X48850Y-9800
X48850Y-10800
X48850Y-11800
X48850Y-12800
X48850Y-13800
X48850Y-14800
X48850Y-15800
X48850Y-16800
X48850Y-17800
X48850Y-18800
X48850Y-19800
X48850Y-20800
X48850Y-21800
X48850Y-22800
X48850Y-23800
X48850Y-24800
X48850Y-25800
X48850Y-26800
X48850Y-27800
X48850Y-28800
X48850Y-29800
X48850Y-30800
X48850Y-31800
X48850Y-32800
X48850Y-33800
X48850Y-34800
X48850Y-35800
X48850Y-36800
X48850Y-37800
X48850Y-38800
X48850Y-39800
T11
X62045Y-7676
X62063Y-12070
X63045Y-7676
X63063Y-12070
X64045Y-7676
X64063Y-12070
T12
X100582Y-20813
X100582Y-27203
X100607Y-33313
T13
X58602Y-7591
X58602Y-9559
X58681Y-11961
X58681Y-13930
T14
X99283Y-19514
X99283Y-22112
X99283Y-25904
X99283Y-28502
X99308Y-32014
X99308Y-34612
X101881Y-19514
X101881Y-22112
X101881Y-25904
X101881Y-28502
X101906Y-32014
X101906Y-34612
T15
X101815Y-37531
X101815Y-42272
T16
X43850Y-6800
X43850Y-41800
T0
M30
